<?xml version="1.0" encoding="us-ascii" standalone="no"?><svg xmlns="http://www.w3.org/2000/svg" xmlns:xlink="http://www.w3.org/1999/xlink" contentStyleType="text/css" height="888px" preserveAspectRatio="none" style="width:3380px;height:888px;background:#FFFFFF;" version="1.1" viewBox="0 0 3380 888" width="3380px" zoomAndPan="magnify"><defs/><g><!--class HexagoneGUIObject--><g id="elem_HexagoneGUIObject"><rect codeLine="2" fill="#F1F1F1" height="181.4754" id="HexagoneGUIObject" rx="2.5" ry="2.5" style="stroke:#181818;stroke-width:0.5;" width="790" x="1173.5" y="699.54"/><ellipse cx="1496.25" cy="715.54" fill="#ADD1B2" rx="11" ry="11" style="stroke:#181818;stroke-width:1.0;"/><path d="M1496.3594,711.0713 Q1495.4375,711.0713 1494.7031,711.3838 Q1493.9844,711.6963 1493.4844,712.29 Q1492.9844,712.8681 1492.7031,713.7431 Q1492.4375,714.6181 1492.4375,715.7119 Q1492.4375,717.1494 1492.875,718.1963 Q1493.3281,719.2431 1494.1719,719.79 Q1495.0313,720.3369 1496.3438,720.3369 Q1497.125,720.3369 1497.8125,720.2119 Q1498.5156,720.0713 1499.5156,719.7588 L1499.5156,721.6338 Q1498.6563,721.9619 1497.8906,722.0869 Q1497.1406,722.2119 1496.125,722.2119 Q1494.2031,722.2119 1492.8906,721.415 Q1491.5938,720.6025 1490.9375,719.1338 Q1490.2813,717.6494 1490.2813,715.6806 Q1490.2813,714.2588 1490.6719,713.0869 Q1491.0781,711.8994 1491.8594,711.0244 Q1492.6406,710.1494 1493.7813,709.6806 Q1494.9219,709.1963 1496.3906,709.1963 Q1497.3438,709.1963 1498.2344,709.3994 Q1499.1406,709.5869 1500.0781,710.0556 L1499.25,711.8369 Q1498.4688,711.4619 1497.8125,711.2744 Q1497.1563,711.0713 1496.3594,711.0713 Z " fill="#000000"/><text fill="#000000" font-family="sans-serif" font-size="14" lengthAdjust="spacing" textLength="136" x="1516.75" y="720.972">HexagoneGUIObject</text><line style="stroke:#181818;stroke-width:0.5;" x1="1174.5" x2="1962.5" y1="731.54" y2="731.54"/><rect fill="none" height="6" style="stroke:#C82930;stroke-width:1.0;" width="6" x="1181.5" y="743.574"/><text fill="#000000" font-family="sans-serif" font-size="14" lengthAdjust="spacing" textLength="191" x="1193.5" y="750.5059">hex : QGraphicsPolygonItem</text><rect fill="none" height="6" style="stroke:#C82930;stroke-width:1.0;" width="6" x="1181.5" y="762.6419"/><text fill="#000000" font-family="sans-serif" font-size="14" lengthAdjust="spacing" textLength="191" x="1193.5" y="769.5739">outline : QGraphicsPathItem</text><rect fill="none" height="6" style="stroke:#C82930;stroke-width:1.0;" width="6" x="1181.5" y="781.7098"/><text fill="#000000" font-family="sans-serif" font-size="14" lengthAdjust="spacing" textLength="167" x="1193.5" y="788.6418">text : QGraphicsTextItem</text><rect fill="none" height="6" style="stroke:#C82930;stroke-width:1.0;" width="6" x="1181.5" y="800.7777"/><text fill="#000000" font-family="sans-serif" font-size="14" lengthAdjust="spacing" textLength="196" x="1193.5" y="807.7097">hauteur : QGraphicsTextItem</text><line style="stroke:#181818;stroke-width:0.5;" x1="1174.5" x2="1962.5" y1="815.8117" y2="815.8117"/><ellipse cx="1184.5" cy="830.8456" fill="#84BE84" rx="3" ry="3" style="stroke:#038048;stroke-width:1.0;"/><text fill="#000000" font-family="sans-serif" font-size="14" lengthAdjust="spacing" textLength="764" x="1193.5" y="834.7776">HexagoneGUIObjet(couleur : CouleursAkropolis, description : const string&amp;, height : int, doOutline : const bool[5])</text><ellipse cx="1184.5" cy="849.9135" fill="#84BE84" rx="3" ry="3" style="stroke:#038048;stroke-width:1.0;"/><text fill="#000000" font-family="sans-serif" font-size="14" lengthAdjust="spacing" textLength="202" x="1193.5" y="853.8455">boundingRect() const : QRectF</text><ellipse cx="1184.5" cy="868.9815" fill="#84BE84" rx="3" ry="3" style="stroke:#038048;stroke-width:1.0;"/><text fill="#000000" font-family="sans-serif" font-size="14" lengthAdjust="spacing" textLength="627" x="1193.5" y="872.9134">void paint(painter : QPainter*, option : const QStyleOptionGraphicsItem*, widget : QWidget*)</text></g><!--class QObject--><g id="elem_QObject"><rect fill="#F1F1F1" height="48" id="QObject" rx="2.5" ry="2.5" style="stroke:#181818;stroke-width:0.5;" width="87" x="1299" y="591.54"/><ellipse cx="1314" cy="607.54" fill="#ADD1B2" rx="11" ry="11" style="stroke:#181818;stroke-width:1.0;"/><path d="M1314.1094,603.0713 Q1313.1875,603.0713 1312.4531,603.3838 Q1311.7344,603.6963 1311.2344,604.29 Q1310.7344,604.8681 1310.4531,605.7431 Q1310.1875,606.6181 1310.1875,607.7119 Q1310.1875,609.1494 1310.625,610.1963 Q1311.0781,611.2431 1311.9219,611.79 Q1312.7813,612.3369 1314.0938,612.3369 Q1314.875,612.3369 1315.5625,612.2119 Q1316.2656,612.0713 1317.2656,611.7588 L1317.2656,613.6338 Q1316.4063,613.9619 1315.6406,614.0869 Q1314.8906,614.2119 1313.875,614.2119 Q1311.9531,614.2119 1310.6406,613.415 Q1309.3438,612.6025 1308.6875,611.1338 Q1308.0313,609.6494 1308.0313,607.6806 Q1308.0313,606.2588 1308.4219,605.0869 Q1308.8281,603.8994 1309.6094,603.0244 Q1310.3906,602.1494 1311.5313,601.6806 Q1312.6719,601.1963 1314.1406,601.1963 Q1315.0938,601.1963 1315.9844,601.3994 Q1316.8906,601.5869 1317.8281,602.0556 L1317,603.8369 Q1316.2188,603.4619 1315.5625,603.2744 Q1314.9063,603.0713 1314.1094,603.0713 Z " fill="#000000"/><text fill="#000000" font-family="sans-serif" font-size="14" lengthAdjust="spacing" textLength="55" x="1328" y="612.972">QObject</text><line style="stroke:#181818;stroke-width:0.5;" x1="1300" x2="1385" y1="623.54" y2="623.54"/><line style="stroke:#181818;stroke-width:0.5;" x1="1300" x2="1385" y1="631.54" y2="631.54"/></g><!--class QGraphicsItem--><g id="elem_QGraphicsItem"><rect fill="#F1F1F1" height="48" id="QGraphicsItem" rx="2.5" ry="2.5" style="stroke:#181818;stroke-width:0.5;" width="134" x="1420.5" y="591.54"/><ellipse cx="1435.5" cy="607.54" fill="#ADD1B2" rx="11" ry="11" style="stroke:#181818;stroke-width:1.0;"/><path d="M1435.6094,603.0713 Q1434.6875,603.0713 1433.9531,603.3838 Q1433.2344,603.6963 1432.7344,604.29 Q1432.2344,604.8681 1431.9531,605.7431 Q1431.6875,606.6181 1431.6875,607.7119 Q1431.6875,609.1494 1432.125,610.1963 Q1432.5781,611.2431 1433.4219,611.79 Q1434.2813,612.3369 1435.5938,612.3369 Q1436.375,612.3369 1437.0625,612.2119 Q1437.7656,612.0713 1438.7656,611.7588 L1438.7656,613.6338 Q1437.9063,613.9619 1437.1406,614.0869 Q1436.3906,614.2119 1435.375,614.2119 Q1433.4531,614.2119 1432.1406,613.415 Q1430.8438,612.6025 1430.1875,611.1338 Q1429.5313,609.6494 1429.5313,607.6806 Q1429.5313,606.2588 1429.9219,605.0869 Q1430.3281,603.8994 1431.1094,603.0244 Q1431.8906,602.1494 1433.0313,601.6806 Q1434.1719,601.1963 1435.6406,601.1963 Q1436.5938,601.1963 1437.4844,601.3994 Q1438.3906,601.5869 1439.3281,602.0556 L1438.5,603.8369 Q1437.7188,603.4619 1437.0625,603.2744 Q1436.4063,603.0713 1435.6094,603.0713 Z " fill="#000000"/><text fill="#000000" font-family="sans-serif" font-size="14" lengthAdjust="spacing" textLength="102" x="1449.5" y="612.972">QGraphicsItem</text><line style="stroke:#181818;stroke-width:0.5;" x1="1421.5" x2="1553.5" y1="623.54" y2="623.54"/><line style="stroke:#181818;stroke-width:0.5;" x1="1421.5" x2="1553.5" y1="631.54" y2="631.54"/></g><!--class CameraMap--><g id="elem_CameraMap"><rect codeLine="13" fill="#F1F1F1" height="162.4075" id="CameraMap" rx="2.5" ry="2.5" style="stroke:#181818;stroke-width:0.5;" width="319" x="2559" y="115"/><ellipse cx="2673.25" cy="131" fill="#ADD1B2" rx="11" ry="11" style="stroke:#181818;stroke-width:1.0;"/><path d="M2673.3594,126.5313 Q2672.4375,126.5313 2671.7031,126.8438 Q2670.9844,127.1563 2670.4844,127.75 Q2669.9844,128.3281 2669.7031,129.2031 Q2669.4375,130.0781 2669.4375,131.1719 Q2669.4375,132.6094 2669.875,133.6563 Q2670.3281,134.7031 2671.1719,135.25 Q2672.0313,135.7969 2673.3438,135.7969 Q2674.125,135.7969 2674.8125,135.6719 Q2675.5156,135.5313 2676.5156,135.2188 L2676.5156,137.0938 Q2675.6563,137.4219 2674.8906,137.5469 Q2674.1406,137.6719 2673.125,137.6719 Q2671.2031,137.6719 2669.8906,136.875 Q2668.5938,136.0625 2667.9375,134.5938 Q2667.2813,133.1094 2667.2813,131.1406 Q2667.2813,129.7188 2667.6719,128.5469 Q2668.0781,127.3594 2668.8594,126.4844 Q2669.6406,125.6094 2670.7813,125.1406 Q2671.9219,124.6563 2673.3906,124.6563 Q2674.3438,124.6563 2675.2344,124.8594 Q2676.1406,125.0469 2677.0781,125.5156 L2676.25,127.2969 Q2675.4688,126.9219 2674.8125,126.7344 Q2674.1563,126.5313 2673.3594,126.5313 Z " fill="#000000"/><text fill="#000000" font-family="sans-serif" font-size="14" lengthAdjust="spacing" textLength="82" x="2693.75" y="136.432">CameraMap</text><line style="stroke:#181818;stroke-width:0.5;" x1="2560" x2="2877" y1="147" y2="147"/><line style="stroke:#181818;stroke-width:0.5;" x1="2560" x2="2877" y1="155" y2="155"/><polygon fill="#FFFF44" points="2570,165.034,2574,169.034,2570,173.034,2566,169.034" style="stroke:#B38D22;stroke-width:1.0;"/><text fill="#000000" font-family="sans-serif" font-size="14" lengthAdjust="spacing" textLength="232" x="2579" y="173.9659">wheelEvent(event : QWheelEvent*)</text><polygon fill="#FFFF44" points="2570,184.1019,2574,188.1019,2570,192.1019,2566,188.1019" style="stroke:#B38D22;stroke-width:1.0;"/><text fill="#000000" font-family="sans-serif" font-size="14" lengthAdjust="spacing" textLength="276" x="2579" y="193.0339">mouseMoveEvent(event : QMouseEvent*)</text><polygon fill="#FFFF44" points="2570,203.1698,2574,207.1698,2570,211.1698,2566,207.1698" style="stroke:#B38D22;stroke-width:1.0;"/><text fill="#000000" font-family="sans-serif" font-size="14" lengthAdjust="spacing" textLength="276" x="2579" y="212.1018">mousePressEvent(event : QMouseEvent*)</text><ellipse cx="2570" cy="227.2377" fill="#84BE84" rx="3" ry="3" style="stroke:#038048;stroke-width:1.0;"/><text fill="#000000" font-family="sans-serif" font-size="14" lengthAdjust="spacing" textLength="260" x="2579" y="231.1697">CameraMap(scene : QGraphicsScene*)</text><ellipse cx="2570" cy="246.3056" fill="#84BE84" rx="3" ry="3" style="stroke:#038048;stroke-width:1.0;"/><text fill="#000000" font-family="sans-serif" font-size="14" lengthAdjust="spacing" textLength="285" x="2579" y="250.2376">mouseMoved(mousePos : QPointF) {signal}</text><ellipse cx="2570" cy="265.3735" fill="#84BE84" rx="3" ry="3" style="stroke:#038048;stroke-width:1.0;"/><text fill="#000000" font-family="sans-serif" font-size="14" lengthAdjust="spacing" textLength="293" x="2579" y="269.3055">mousePressed(mousePos : QPointF) {signal}</text></g><!--class QGraphicsView--><g id="elem_QGraphicsView"><rect fill="#F1F1F1" height="48" id="QGraphicsView" rx="2.5" ry="2.5" style="stroke:#181818;stroke-width:0.5;" width="134" x="2863.5" y="7"/><ellipse cx="2878.5" cy="23" fill="#ADD1B2" rx="11" ry="11" style="stroke:#181818;stroke-width:1.0;"/><path d="M2878.6094,18.5313 Q2877.6875,18.5313 2876.9531,18.8438 Q2876.2344,19.1563 2875.7344,19.75 Q2875.2344,20.3281 2874.9531,21.2031 Q2874.6875,22.0781 2874.6875,23.1719 Q2874.6875,24.6094 2875.125,25.6563 Q2875.5781,26.7031 2876.4219,27.25 Q2877.2813,27.7969 2878.5938,27.7969 Q2879.375,27.7969 2880.0625,27.6719 Q2880.7656,27.5313 2881.7656,27.2188 L2881.7656,29.0938 Q2880.9063,29.4219 2880.1406,29.5469 Q2879.3906,29.6719 2878.375,29.6719 Q2876.4531,29.6719 2875.1406,28.875 Q2873.8438,28.0625 2873.1875,26.5938 Q2872.5313,25.1094 2872.5313,23.1406 Q2872.5313,21.7188 2872.9219,20.5469 Q2873.3281,19.3594 2874.1094,18.4844 Q2874.8906,17.6094 2876.0313,17.1406 Q2877.1719,16.6563 2878.6406,16.6563 Q2879.5938,16.6563 2880.4844,16.8594 Q2881.3906,17.0469 2882.3281,17.5156 L2881.5,19.2969 Q2880.7188,18.9219 2880.0625,18.7344 Q2879.4063,18.5313 2878.6094,18.5313 Z " fill="#000000"/><text fill="#000000" font-family="sans-serif" font-size="14" lengthAdjust="spacing" textLength="102" x="2892.5" y="28.432">QGraphicsView</text><line style="stroke:#181818;stroke-width:0.5;" x1="2864.5" x2="2996.5" y1="39" y2="39"/><line style="stroke:#181818;stroke-width:0.5;" x1="2864.5" x2="2996.5" y1="47" y2="47"/></g><!--class ChantierQGraphicsView--><g id="elem_ChantierQGraphicsView"><rect codeLine="22" fill="#F1F1F1" height="105.2038" id="ChantierQGraphicsView" rx="2.5" ry="2.5" style="stroke:#181818;stroke-width:0.5;" width="460" x="2913.5" y="143.6"/><ellipse cx="3059.25" cy="159.6" fill="#ADD1B2" rx="11" ry="11" style="stroke:#181818;stroke-width:1.0;"/><path d="M3059.3594,155.1313 Q3058.4375,155.1313 3057.7031,155.4438 Q3056.9844,155.7563 3056.4844,156.35 Q3055.9844,156.9281 3055.7031,157.8031 Q3055.4375,158.6781 3055.4375,159.7719 Q3055.4375,161.2094 3055.875,162.2563 Q3056.3281,163.3031 3057.1719,163.85 Q3058.0313,164.3969 3059.3438,164.3969 Q3060.125,164.3969 3060.8125,164.2719 Q3061.5156,164.1313 3062.5156,163.8188 L3062.5156,165.6938 Q3061.6563,166.0219 3060.8906,166.1469 Q3060.1406,166.2719 3059.125,166.2719 Q3057.2031,166.2719 3055.8906,165.475 Q3054.5938,164.6625 3053.9375,163.1938 Q3053.2813,161.7094 3053.2813,159.7406 Q3053.2813,158.3188 3053.6719,157.1469 Q3054.0781,155.9594 3054.8594,155.0844 Q3055.6406,154.2094 3056.7813,153.7406 Q3057.9219,153.2563 3059.3906,153.2563 Q3060.3438,153.2563 3061.2344,153.4594 Q3062.1406,153.6469 3063.0781,154.1156 L3062.25,155.8969 Q3061.4688,155.5219 3060.8125,155.3344 Q3060.1563,155.1313 3059.3594,155.1313 Z " fill="#000000"/><text fill="#000000" font-family="sans-serif" font-size="14" lengthAdjust="spacing" textLength="160" x="3079.75" y="165.032">ChantierQGraphicsView</text><line style="stroke:#181818;stroke-width:0.5;" x1="2914.5" x2="3372.5" y1="175.6" y2="175.6"/><line style="stroke:#181818;stroke-width:0.5;" x1="2914.5" x2="3372.5" y1="183.6" y2="183.6"/><polygon fill="#FFFF44" points="2924.5,193.634,2928.5,197.634,2924.5,201.634,2920.5,197.634" style="stroke:#B38D22;stroke-width:1.0;"/><text fill="#000000" font-family="sans-serif" font-size="14" lengthAdjust="spacing" textLength="276" x="2933.5" y="202.5659">mousePressEvent(event : QMouseEvent*)</text><ellipse cx="2924.5" cy="217.7019" fill="#84BE84" rx="3" ry="3" style="stroke:#038048;stroke-width:1.0;"/><text fill="#000000" font-family="sans-serif" font-size="14" lengthAdjust="spacing" textLength="434" x="2933.5" y="221.6339">ChantierQGraphicsView(scene : QGraphicsScene*, p : QWidget*)</text><ellipse cx="2924.5" cy="236.7698" fill="#84BE84" rx="3" ry="3" style="stroke:#038048;stroke-width:1.0;"/><text fill="#000000" font-family="sans-serif" font-size="14" lengthAdjust="spacing" textLength="128" x="2933.5" y="240.7018">onClicked() {signal}</text></g><!--class EcranTitre--><g id="elem_EcranTitre"><rect codeLine="30" fill="#F1F1F1" height="86.1358" id="EcranTitre" rx="2.5" ry="2.5" style="stroke:#181818;stroke-width:0.5;" width="159" x="7" y="337.41"/><ellipse cx="48.1" cy="353.41" fill="#ADD1B2" rx="11" ry="11" style="stroke:#181818;stroke-width:1.0;"/><path d="M48.2094,348.9412 Q47.2875,348.9412 46.5531,349.2537 Q45.8344,349.5662 45.3344,350.16 Q44.8344,350.7381 44.5531,351.6131 Q44.2875,352.4881 44.2875,353.5819 Q44.2875,355.0194 44.725,356.0662 Q45.1781,357.1131 46.0219,357.66 Q46.8813,358.2069 48.1938,358.2069 Q48.975,358.2069 49.6625,358.0819 Q50.3656,357.9412 51.3656,357.6287 L51.3656,359.5037 Q50.5063,359.8319 49.7406,359.9569 Q48.9906,360.0819 47.975,360.0819 Q46.0531,360.0819 44.7406,359.285 Q43.4438,358.4725 42.7875,357.0037 Q42.1313,355.5194 42.1313,353.5506 Q42.1313,352.1287 42.5219,350.9569 Q42.9281,349.7694 43.7094,348.8944 Q44.4906,348.0194 45.6313,347.5506 Q46.7719,347.0662 48.2406,347.0662 Q49.1938,347.0662 50.0844,347.2694 Q50.9906,347.4569 51.9281,347.9256 L51.1,349.7069 Q50.3188,349.3319 49.6625,349.1444 Q49.0063,348.9412 48.2094,348.9412 Z " fill="#000000"/><text fill="#000000" font-family="sans-serif" font-size="14" lengthAdjust="spacing" textLength="69" x="67.9" y="358.842">EcranTitre</text><line style="stroke:#181818;stroke-width:0.5;" x1="8" x2="165" y1="369.41" y2="369.41"/><line style="stroke:#181818;stroke-width:0.5;" x1="8" x2="165" y1="377.41" y2="377.41"/><ellipse cx="18" cy="392.444" fill="#84BE84" rx="3" ry="3" style="stroke:#038048;stroke-width:1.0;"/><text fill="#000000" font-family="sans-serif" font-size="14" lengthAdjust="spacing" textLength="77" x="27" y="396.3759">EcranTitre()</text><ellipse cx="18" cy="411.5119" fill="#84BE84" rx="3" ry="3" style="stroke:#038048;stroke-width:1.0;"/><text fill="#000000" font-family="sans-serif" font-size="14" lengthAdjust="spacing" textLength="133" x="27" y="415.4439">startGame() {signal}</text></g><!--class QWidget--><g id="elem_QWidget"><rect fill="#F1F1F1" height="48" id="QWidget" rx="2.5" ry="2.5" style="stroke:#181818;stroke-width:0.5;" width="91" x="1546" y="172.2"/><ellipse cx="1561" cy="188.2" fill="#ADD1B2" rx="11" ry="11" style="stroke:#181818;stroke-width:1.0;"/><path d="M1561.1094,183.7312 Q1560.1875,183.7312 1559.4531,184.0437 Q1558.7344,184.3562 1558.2344,184.95 Q1557.7344,185.5281 1557.4531,186.4031 Q1557.1875,187.2781 1557.1875,188.3719 Q1557.1875,189.8094 1557.625,190.8562 Q1558.0781,191.9031 1558.9219,192.45 Q1559.7813,192.9969 1561.0938,192.9969 Q1561.875,192.9969 1562.5625,192.8719 Q1563.2656,192.7312 1564.2656,192.4187 L1564.2656,194.2937 Q1563.4063,194.6219 1562.6406,194.7469 Q1561.8906,194.8719 1560.875,194.8719 Q1558.9531,194.8719 1557.6406,194.075 Q1556.3438,193.2625 1555.6875,191.7937 Q1555.0313,190.3094 1555.0313,188.3406 Q1555.0313,186.9187 1555.4219,185.7469 Q1555.8281,184.5594 1556.6094,183.6844 Q1557.3906,182.8094 1558.5313,182.3406 Q1559.6719,181.8562 1561.1406,181.8562 Q1562.0938,181.8562 1562.9844,182.0594 Q1563.8906,182.2469 1564.8281,182.7156 L1564,184.4969 Q1563.2188,184.1219 1562.5625,183.9344 Q1561.9063,183.7312 1561.1094,183.7312 Z " fill="#000000"/><text fill="#000000" font-family="sans-serif" font-size="14" lengthAdjust="spacing" textLength="59" x="1575" y="193.632">QWidget</text><line style="stroke:#181818;stroke-width:0.5;" x1="1547" x2="1636" y1="204.2" y2="204.2"/><line style="stroke:#181818;stroke-width:0.5;" x1="1547" x2="1636" y1="212.2" y2="212.2"/></g><!--class EcranSelectionSauvegarde--><g id="elem_EcranSelectionSauvegarde"><rect codeLine="35" fill="#F1F1F1" height="86.1358" id="EcranSelectionSauvegarde" rx="2.5" ry="2.5" style="stroke:#181818;stroke-width:0.5;" width="374" x="200.5" y="337.41"/><ellipse cx="293.75" cy="353.41" fill="#ADD1B2" rx="11" ry="11" style="stroke:#181818;stroke-width:1.0;"/><path d="M293.8594,348.9412 Q292.9375,348.9412 292.2031,349.2537 Q291.4844,349.5662 290.9844,350.16 Q290.4844,350.7381 290.2031,351.6131 Q289.9375,352.4881 289.9375,353.5819 Q289.9375,355.0194 290.375,356.0662 Q290.8281,357.1131 291.6719,357.66 Q292.5313,358.2069 293.8438,358.2069 Q294.625,358.2069 295.3125,358.0819 Q296.0156,357.9412 297.0156,357.6287 L297.0156,359.5037 Q296.1563,359.8319 295.3906,359.9569 Q294.6406,360.0819 293.625,360.0819 Q291.7031,360.0819 290.3906,359.285 Q289.0938,358.4725 288.4375,357.0037 Q287.7813,355.5194 287.7813,353.5506 Q287.7813,352.1287 288.1719,350.9569 Q288.5781,349.7694 289.3594,348.8944 Q290.1406,348.0194 291.2813,347.5506 Q292.4219,347.0662 293.8906,347.0662 Q294.8438,347.0662 295.7344,347.2694 Q296.6406,347.4569 297.5781,347.9256 L296.75,349.7069 Q295.9688,349.3319 295.3125,349.1444 Q294.6563,348.9412 293.8594,348.9412 Z " fill="#000000"/><text fill="#000000" font-family="sans-serif" font-size="14" lengthAdjust="spacing" textLength="179" x="314.25" y="358.842">EcranSelectionSauvegarde</text><line style="stroke:#181818;stroke-width:0.5;" x1="201.5" x2="573.5" y1="369.41" y2="369.41"/><line style="stroke:#181818;stroke-width:0.5;" x1="201.5" x2="573.5" y1="377.41" y2="377.41"/><ellipse cx="211.5" cy="392.444" fill="#84BE84" rx="3" ry="3" style="stroke:#038048;stroke-width:1.0;"/><text fill="#000000" font-family="sans-serif" font-size="14" lengthAdjust="spacing" textLength="187" x="220.5" y="396.3759">EcranSelectionSauvegarde()</text><ellipse cx="211.5" cy="411.5119" fill="#84BE84" rx="3" ry="3" style="stroke:#038048;stroke-width:1.0;"/><text fill="#000000" font-family="sans-serif" font-size="14" lengthAdjust="spacing" textLength="348" x="220.5" y="415.4439">selectionFinished(chargeSauvegarde : bool) {signal}</text></g><!--class EcranSelectionModeDeJeu--><g id="elem_EcranSelectionModeDeJeu"><rect codeLine="40" fill="#F1F1F1" height="86.1358" id="EcranSelectionModeDeJeu" rx="2.5" ry="2.5" style="stroke:#181818;stroke-width:0.5;" width="372" x="609.5" y="337.41"/><ellipse cx="703.25" cy="353.41" fill="#ADD1B2" rx="11" ry="11" style="stroke:#181818;stroke-width:1.0;"/><path d="M703.3594,348.9412 Q702.4375,348.9412 701.7031,349.2537 Q700.9844,349.5662 700.4844,350.16 Q699.9844,350.7381 699.7031,351.6131 Q699.4375,352.4881 699.4375,353.5819 Q699.4375,355.0194 699.875,356.0662 Q700.3281,357.1131 701.1719,357.66 Q702.0313,358.2069 703.3438,358.2069 Q704.125,358.2069 704.8125,358.0819 Q705.5156,357.9412 706.5156,357.6287 L706.5156,359.5037 Q705.6563,359.8319 704.8906,359.9569 Q704.1406,360.0819 703.125,360.0819 Q701.2031,360.0819 699.8906,359.285 Q698.5938,358.4725 697.9375,357.0037 Q697.2813,355.5194 697.2813,353.5506 Q697.2813,352.1287 697.6719,350.9569 Q698.0781,349.7694 698.8594,348.8944 Q699.6406,348.0194 700.7813,347.5506 Q701.9219,347.0662 703.3906,347.0662 Q704.3438,347.0662 705.2344,347.2694 Q706.1406,347.4569 707.0781,347.9256 L706.25,349.7069 Q705.4688,349.3319 704.8125,349.1444 Q704.1563,348.9412 703.3594,348.9412 Z " fill="#000000"/><text fill="#000000" font-family="sans-serif" font-size="14" lengthAdjust="spacing" textLength="176" x="723.75" y="358.842">EcranSelectionModeDeJeu</text><line style="stroke:#181818;stroke-width:0.5;" x1="610.5" x2="980.5" y1="369.41" y2="369.41"/><line style="stroke:#181818;stroke-width:0.5;" x1="610.5" x2="980.5" y1="377.41" y2="377.41"/><ellipse cx="620.5" cy="392.444" fill="#84BE84" rx="3" ry="3" style="stroke:#038048;stroke-width:1.0;"/><text fill="#000000" font-family="sans-serif" font-size="14" lengthAdjust="spacing" textLength="184" x="629.5" y="396.3759">EcranSelectionModeDeJeu()</text><ellipse cx="620.5" cy="411.5119" fill="#84BE84" rx="3" ry="3" style="stroke:#038048;stroke-width:1.0;"/><text fill="#000000" font-family="sans-serif" font-size="14" lengthAdjust="spacing" textLength="346" x="629.5" y="415.4439">selectionFinished(modeDeJeu : GameMode) {signal}</text></g><!--class EcranSelectionNombreJoueurs--><g id="elem_EcranSelectionNombreJoueurs"><rect codeLine="45" fill="#F1F1F1" height="86.1358" id="EcranSelectionNombreJoueurs" rx="2.5" ry="2.5" style="stroke:#181818;stroke-width:0.5;" width="358" x="1016.5" y="337.41"/><ellipse cx="1088.75" cy="353.41" fill="#ADD1B2" rx="11" ry="11" style="stroke:#181818;stroke-width:1.0;"/><path d="M1088.8594,348.9412 Q1087.9375,348.9412 1087.2031,349.2537 Q1086.4844,349.5662 1085.9844,350.16 Q1085.4844,350.7381 1085.2031,351.6131 Q1084.9375,352.4881 1084.9375,353.5819 Q1084.9375,355.0194 1085.375,356.0662 Q1085.8281,357.1131 1086.6719,357.66 Q1087.5313,358.2069 1088.8438,358.2069 Q1089.625,358.2069 1090.3125,358.0819 Q1091.0156,357.9412 1092.0156,357.6287 L1092.0156,359.5037 Q1091.1563,359.8319 1090.3906,359.9569 Q1089.6406,360.0819 1088.625,360.0819 Q1086.7031,360.0819 1085.3906,359.285 Q1084.0938,358.4725 1083.4375,357.0037 Q1082.7813,355.5194 1082.7813,353.5506 Q1082.7813,352.1287 1083.1719,350.9569 Q1083.5781,349.7694 1084.3594,348.8944 Q1085.1406,348.0194 1086.2813,347.5506 Q1087.4219,347.0662 1088.8906,347.0662 Q1089.8438,347.0662 1090.7344,347.2694 Q1091.6406,347.4569 1092.5781,347.9256 L1091.75,349.7069 Q1090.9688,349.3319 1090.3125,349.1444 Q1089.6563,348.9412 1088.8594,348.9412 Z " fill="#000000"/><text fill="#000000" font-family="sans-serif" font-size="14" lengthAdjust="spacing" textLength="205" x="1109.25" y="358.842">EcranSelectionNombreJoueurs</text><line style="stroke:#181818;stroke-width:0.5;" x1="1017.5" x2="1373.5" y1="369.41" y2="369.41"/><line style="stroke:#181818;stroke-width:0.5;" x1="1017.5" x2="1373.5" y1="377.41" y2="377.41"/><ellipse cx="1027.5" cy="392.444" fill="#84BE84" rx="3" ry="3" style="stroke:#038048;stroke-width:1.0;"/><text fill="#000000" font-family="sans-serif" font-size="14" lengthAdjust="spacing" textLength="213" x="1036.5" y="396.3759">EcranSelectionNombreJoueurs()</text><ellipse cx="1027.5" cy="411.5119" fill="#84BE84" rx="3" ry="3" style="stroke:#038048;stroke-width:1.0;"/><text fill="#000000" font-family="sans-serif" font-size="14" lengthAdjust="spacing" textLength="332" x="1036.5" y="415.4439">selectionFinished(nombreDeJoueurs : int) {signal}</text></g><!--class EcranSaisieNoms--><g id="elem_EcranSaisieNoms"><rect codeLine="50" fill="#F1F1F1" height="86.1358" id="EcranSaisieNoms" rx="2.5" ry="2.5" style="stroke:#181818;stroke-width:0.5;" width="364" x="1409.5" y="337.41"/><ellipse cx="1529.25" cy="353.41" fill="#ADD1B2" rx="11" ry="11" style="stroke:#181818;stroke-width:1.0;"/><path d="M1529.3594,348.9412 Q1528.4375,348.9412 1527.7031,349.2537 Q1526.9844,349.5662 1526.4844,350.16 Q1525.9844,350.7381 1525.7031,351.6131 Q1525.4375,352.4881 1525.4375,353.5819 Q1525.4375,355.0194 1525.875,356.0662 Q1526.3281,357.1131 1527.1719,357.66 Q1528.0313,358.2069 1529.3438,358.2069 Q1530.125,358.2069 1530.8125,358.0819 Q1531.5156,357.9412 1532.5156,357.6287 L1532.5156,359.5037 Q1531.6563,359.8319 1530.8906,359.9569 Q1530.1406,360.0819 1529.125,360.0819 Q1527.2031,360.0819 1525.8906,359.285 Q1524.5938,358.4725 1523.9375,357.0037 Q1523.2813,355.5194 1523.2813,353.5506 Q1523.2813,352.1287 1523.6719,350.9569 Q1524.0781,349.7694 1524.8594,348.8944 Q1525.6406,348.0194 1526.7813,347.5506 Q1527.9219,347.0662 1529.3906,347.0662 Q1530.3438,347.0662 1531.2344,347.2694 Q1532.1406,347.4569 1533.0781,347.9256 L1532.25,349.7069 Q1531.4688,349.3319 1530.8125,349.1444 Q1530.1563,348.9412 1529.3594,348.9412 Z " fill="#000000"/><text fill="#000000" font-family="sans-serif" font-size="14" lengthAdjust="spacing" textLength="116" x="1549.75" y="358.842">EcranSaisieNoms</text><line style="stroke:#181818;stroke-width:0.5;" x1="1410.5" x2="1772.5" y1="369.41" y2="369.41"/><line style="stroke:#181818;stroke-width:0.5;" x1="1410.5" x2="1772.5" y1="377.41" y2="377.41"/><ellipse cx="1420.5" cy="392.444" fill="#84BE84" rx="3" ry="3" style="stroke:#038048;stroke-width:1.0;"/><text fill="#000000" font-family="sans-serif" font-size="14" lengthAdjust="spacing" textLength="124" x="1429.5" y="396.3759">EcranSaisieNoms()</text><ellipse cx="1420.5" cy="411.5119" fill="#84BE84" rx="3" ry="3" style="stroke:#038048;stroke-width:1.0;"/><text fill="#000000" font-family="sans-serif" font-size="14" lengthAdjust="spacing" textLength="338" x="1429.5" y="415.4439">selectionFinished(noms : vector&lt;QString&gt;) {signal}</text></g><!--class EcranDifficulteArchitechte--><g id="elem_EcranDifficulteArchitechte"><rect codeLine="55" fill="#F1F1F1" height="86.1358" id="EcranDifficulteArchitechte" rx="2.5" ry="2.5" style="stroke:#181818;stroke-width:0.5;" width="339" x="1809" y="337.41"/><ellipse cx="1886.25" cy="353.41" fill="#ADD1B2" rx="11" ry="11" style="stroke:#181818;stroke-width:1.0;"/><path d="M1886.3594,348.9412 Q1885.4375,348.9412 1884.7031,349.2537 Q1883.9844,349.5662 1883.4844,350.16 Q1882.9844,350.7381 1882.7031,351.6131 Q1882.4375,352.4881 1882.4375,353.5819 Q1882.4375,355.0194 1882.875,356.0662 Q1883.3281,357.1131 1884.1719,357.66 Q1885.0313,358.2069 1886.3438,358.2069 Q1887.125,358.2069 1887.8125,358.0819 Q1888.5156,357.9412 1889.5156,357.6287 L1889.5156,359.5037 Q1888.6563,359.8319 1887.8906,359.9569 Q1887.1406,360.0819 1886.125,360.0819 Q1884.2031,360.0819 1882.8906,359.285 Q1881.5938,358.4725 1880.9375,357.0037 Q1880.2813,355.5194 1880.2813,353.5506 Q1880.2813,352.1287 1880.6719,350.9569 Q1881.0781,349.7694 1881.8594,348.8944 Q1882.6406,348.0194 1883.7813,347.5506 Q1884.9219,347.0662 1886.3906,347.0662 Q1887.3438,347.0662 1888.2344,347.2694 Q1889.1406,347.4569 1890.0781,347.9256 L1889.25,349.7069 Q1888.4688,349.3319 1887.8125,349.1444 Q1887.1563,348.9412 1886.3594,348.9412 Z " fill="#000000"/><text fill="#000000" font-family="sans-serif" font-size="14" lengthAdjust="spacing" textLength="176" x="1906.75" y="358.842">EcranDifficulteArchitechte</text><line style="stroke:#181818;stroke-width:0.5;" x1="1810" x2="2147" y1="369.41" y2="369.41"/><line style="stroke:#181818;stroke-width:0.5;" x1="1810" x2="2147" y1="377.41" y2="377.41"/><ellipse cx="1820" cy="392.444" fill="#84BE84" rx="3" ry="3" style="stroke:#038048;stroke-width:1.0;"/><text fill="#000000" font-family="sans-serif" font-size="14" lengthAdjust="spacing" textLength="184" x="1829" y="396.3759">EcranDifficulteArchitechte()</text><ellipse cx="1820" cy="411.5119" fill="#84BE84" rx="3" ry="3" style="stroke:#038048;stroke-width:1.0;"/><text fill="#000000" font-family="sans-serif" font-size="14" lengthAdjust="spacing" textLength="313" x="1829" y="415.4439">selectionFinished(difficulte : Difficulte) {signal}</text></g><!--class EcranChoixRegles--><g id="elem_EcranChoixRegles"><rect codeLine="60" fill="#F1F1F1" height="86.1358" id="EcranChoixRegles" rx="2.5" ry="2.5" style="stroke:#181818;stroke-width:0.5;" width="333" x="2183" y="337.41"/><ellipse cx="2285.25" cy="353.41" fill="#ADD1B2" rx="11" ry="11" style="stroke:#181818;stroke-width:1.0;"/><path d="M2285.3594,348.9412 Q2284.4375,348.9412 2283.7031,349.2537 Q2282.9844,349.5662 2282.4844,350.16 Q2281.9844,350.7381 2281.7031,351.6131 Q2281.4375,352.4881 2281.4375,353.5819 Q2281.4375,355.0194 2281.875,356.0662 Q2282.3281,357.1131 2283.1719,357.66 Q2284.0313,358.2069 2285.3438,358.2069 Q2286.125,358.2069 2286.8125,358.0819 Q2287.5156,357.9412 2288.5156,357.6287 L2288.5156,359.5037 Q2287.6563,359.8319 2286.8906,359.9569 Q2286.1406,360.0819 2285.125,360.0819 Q2283.2031,360.0819 2281.8906,359.285 Q2280.5938,358.4725 2279.9375,357.0037 Q2279.2813,355.5194 2279.2813,353.5506 Q2279.2813,352.1287 2279.6719,350.9569 Q2280.0781,349.7694 2280.8594,348.8944 Q2281.6406,348.0194 2282.7813,347.5506 Q2283.9219,347.0662 2285.3906,347.0662 Q2286.3438,347.0662 2287.2344,347.2694 Q2288.1406,347.4569 2289.0781,347.9256 L2288.25,349.7069 Q2287.4688,349.3319 2286.8125,349.1444 Q2286.1563,348.9412 2285.3594,348.9412 Z " fill="#000000"/><text fill="#000000" font-family="sans-serif" font-size="14" lengthAdjust="spacing" textLength="120" x="2305.75" y="358.842">EcranChoixRegles</text><line style="stroke:#181818;stroke-width:0.5;" x1="2184" x2="2515" y1="369.41" y2="369.41"/><line style="stroke:#181818;stroke-width:0.5;" x1="2184" x2="2515" y1="377.41" y2="377.41"/><ellipse cx="2194" cy="392.444" fill="#84BE84" rx="3" ry="3" style="stroke:#038048;stroke-width:1.0;"/><text fill="#000000" font-family="sans-serif" font-size="14" lengthAdjust="spacing" textLength="128" x="2203" y="396.3759">EcranChoixRegles()</text><ellipse cx="2194" cy="411.5119" fill="#84BE84" rx="3" ry="3" style="stroke:#038048;stroke-width:1.0;"/><text fill="#000000" font-family="sans-serif" font-size="14" lengthAdjust="spacing" textLength="307" x="2203" y="415.4439">selectionFinished(avecVariante : bool) {signal}</text></g><!--class EcranVictoire--><g id="elem_EcranVictoire"><rect codeLine="65" fill="#F1F1F1" height="86.1358" id="EcranVictoire" rx="2.5" ry="2.5" style="stroke:#181818;stroke-width:0.5;" width="159" x="2551" y="337.41"/><ellipse cx="2583.55" cy="353.41" fill="#ADD1B2" rx="11" ry="11" style="stroke:#181818;stroke-width:1.0;"/><path d="M2583.6594,348.9412 Q2582.7375,348.9412 2582.0031,349.2537 Q2581.2844,349.5662 2580.7844,350.16 Q2580.2844,350.7381 2580.0031,351.6131 Q2579.7375,352.4881 2579.7375,353.5819 Q2579.7375,355.0194 2580.175,356.0662 Q2580.6281,357.1131 2581.4719,357.66 Q2582.3313,358.2069 2583.6438,358.2069 Q2584.425,358.2069 2585.1125,358.0819 Q2585.8156,357.9412 2586.8156,357.6287 L2586.8156,359.5037 Q2585.9563,359.8319 2585.1906,359.9569 Q2584.4406,360.0819 2583.425,360.0819 Q2581.5031,360.0819 2580.1906,359.285 Q2578.8938,358.4725 2578.2375,357.0037 Q2577.5813,355.5194 2577.5813,353.5506 Q2577.5813,352.1287 2577.9719,350.9569 Q2578.3781,349.7694 2579.1594,348.8944 Q2579.9406,348.0194 2581.0813,347.5506 Q2582.2219,347.0662 2583.6906,347.0662 Q2584.6438,347.0662 2585.5344,347.2694 Q2586.4406,347.4569 2587.3781,347.9256 L2586.55,349.7069 Q2585.7688,349.3319 2585.1125,349.1444 Q2584.4563,348.9412 2583.6594,348.9412 Z " fill="#000000"/><text fill="#000000" font-family="sans-serif" font-size="14" lengthAdjust="spacing" textLength="88" x="2601.45" y="358.842">EcranVictoire</text><line style="stroke:#181818;stroke-width:0.5;" x1="2552" x2="2709" y1="369.41" y2="369.41"/><line style="stroke:#181818;stroke-width:0.5;" x1="2552" x2="2709" y1="377.41" y2="377.41"/><ellipse cx="2562" cy="392.444" fill="#84BE84" rx="3" ry="3" style="stroke:#038048;stroke-width:1.0;"/><text fill="#000000" font-family="sans-serif" font-size="14" lengthAdjust="spacing" textLength="96" x="2571" y="396.3759">EcranVictoire()</text><ellipse cx="2562" cy="411.5119" fill="#84BE84" rx="3" ry="3" style="stroke:#038048;stroke-width:1.0;"/><text fill="#000000" font-family="sans-serif" font-size="14" lengthAdjust="spacing" textLength="133" x="2571" y="415.4439">startGame() {signal}</text></g><!--class EcranJeu--><g id="elem_EcranJeu"><rect codeLine="70" fill="#F1F1F1" height="86.1358" id="EcranJeu" rx="2.5" ry="2.5" style="stroke:#181818;stroke-width:0.5;" width="374" x="2744.5" y="337.41"/><ellipse cx="2897.75" cy="353.41" fill="#ADD1B2" rx="11" ry="11" style="stroke:#181818;stroke-width:1.0;"/><path d="M2897.8594,348.9412 Q2896.9375,348.9412 2896.2031,349.2537 Q2895.4844,349.5662 2894.9844,350.16 Q2894.4844,350.7381 2894.2031,351.6131 Q2893.9375,352.4881 2893.9375,353.5819 Q2893.9375,355.0194 2894.375,356.0662 Q2894.8281,357.1131 2895.6719,357.66 Q2896.5313,358.2069 2897.8438,358.2069 Q2898.625,358.2069 2899.3125,358.0819 Q2900.0156,357.9412 2901.0156,357.6287 L2901.0156,359.5037 Q2900.1563,359.8319 2899.3906,359.9569 Q2898.6406,360.0819 2897.625,360.0819 Q2895.7031,360.0819 2894.3906,359.285 Q2893.0938,358.4725 2892.4375,357.0037 Q2891.7813,355.5194 2891.7813,353.5506 Q2891.7813,352.1287 2892.1719,350.9569 Q2892.5781,349.7694 2893.3594,348.8944 Q2894.1406,348.0194 2895.2813,347.5506 Q2896.4219,347.0662 2897.8906,347.0662 Q2898.8438,347.0662 2899.7344,347.2694 Q2900.6406,347.4569 2901.5781,347.9256 L2900.75,349.7069 Q2899.9688,349.3319 2899.3125,349.1444 Q2898.6563,348.9412 2897.8594,348.9412 Z " fill="#000000"/><text fill="#000000" font-family="sans-serif" font-size="14" lengthAdjust="spacing" textLength="59" x="2918.25" y="358.842">EcranJeu</text><line style="stroke:#181818;stroke-width:0.5;" x1="2745.5" x2="3117.5" y1="369.41" y2="369.41"/><line style="stroke:#181818;stroke-width:0.5;" x1="2745.5" x2="3117.5" y1="377.41" y2="377.41"/><ellipse cx="2755.5" cy="392.444" fill="#84BE84" rx="3" ry="3" style="stroke:#038048;stroke-width:1.0;"/><text fill="#000000" font-family="sans-serif" font-size="14" lengthAdjust="spacing" textLength="67" x="2764.5" y="396.3759">EcranJeu()</text><ellipse cx="2755.5" cy="411.5119" fill="#84BE84" rx="3" ry="3" style="stroke:#038048;stroke-width:1.0;"/><text fill="#000000" font-family="sans-serif" font-size="14" lengthAdjust="spacing" textLength="348" x="2764.5" y="415.4439">selectionFinished(chargeSauvegarde : bool) {signal}</text></g><!--class AffichageGUI--><g id="elem_AffichageGUI"><rect codeLine="76" fill="#F1F1F1" height="48" id="AffichageGUI" rx="2.5" ry="2.5" style="stroke:#181818;stroke-width:0.5;" width="121" x="1590" y="591.54"/><ellipse cx="1605" cy="607.54" fill="#ADD1B2" rx="11" ry="11" style="stroke:#181818;stroke-width:1.0;"/><path d="M1605.1094,603.0713 Q1604.1875,603.0713 1603.4531,603.3838 Q1602.7344,603.6963 1602.2344,604.29 Q1601.7344,604.8681 1601.4531,605.7431 Q1601.1875,606.6181 1601.1875,607.7119 Q1601.1875,609.1494 1601.625,610.1963 Q1602.0781,611.2431 1602.9219,611.79 Q1603.7813,612.3369 1605.0938,612.3369 Q1605.875,612.3369 1606.5625,612.2119 Q1607.2656,612.0713 1608.2656,611.7588 L1608.2656,613.6338 Q1607.4063,613.9619 1606.6406,614.0869 Q1605.8906,614.2119 1604.875,614.2119 Q1602.9531,614.2119 1601.6406,613.415 Q1600.3438,612.6025 1599.6875,611.1338 Q1599.0313,609.6494 1599.0313,607.6806 Q1599.0313,606.2588 1599.4219,605.0869 Q1599.8281,603.8994 1600.6094,603.0244 Q1601.3906,602.1494 1602.5313,601.6806 Q1603.6719,601.1963 1605.1406,601.1963 Q1606.0938,601.1963 1606.9844,601.3994 Q1607.8906,601.5869 1608.8281,602.0556 L1608,603.8369 Q1607.2188,603.4619 1606.5625,603.2744 Q1605.9063,603.0713 1605.1094,603.0713 Z " fill="#000000"/><text fill="#000000" font-family="sans-serif" font-size="14" lengthAdjust="spacing" textLength="89" x="1619" y="612.972">AffichageGUI</text><line style="stroke:#181818;stroke-width:0.5;" x1="1591" x2="1710" y1="623.54" y2="623.54"/><line style="stroke:#181818;stroke-width:0.5;" x1="1591" x2="1710" y1="631.54" y2="631.54"/></g><!--class Affichage--><g id="elem_Affichage"><rect fill="#F1F1F1" height="48" id="Affichage" rx="2.5" ry="2.5" style="stroke:#181818;stroke-width:0.5;" width="96" x="1347.5" y="483.54"/><ellipse cx="1362.5" cy="499.54" fill="#ADD1B2" rx="11" ry="11" style="stroke:#181818;stroke-width:1.0;"/><path d="M1362.6094,495.0712 Q1361.6875,495.0712 1360.9531,495.3837 Q1360.2344,495.6962 1359.7344,496.29 Q1359.2344,496.8681 1358.9531,497.7431 Q1358.6875,498.6181 1358.6875,499.7119 Q1358.6875,501.1494 1359.125,502.1962 Q1359.5781,503.2431 1360.4219,503.79 Q1361.2813,504.3369 1362.5938,504.3369 Q1363.375,504.3369 1364.0625,504.2119 Q1364.7656,504.0712 1365.7656,503.7587 L1365.7656,505.6337 Q1364.9063,505.9619 1364.1406,506.0869 Q1363.3906,506.2119 1362.375,506.2119 Q1360.4531,506.2119 1359.1406,505.415 Q1357.8438,504.6025 1357.1875,503.1337 Q1356.5313,501.6494 1356.5313,499.6806 Q1356.5313,498.2587 1356.9219,497.0869 Q1357.3281,495.8994 1358.1094,495.0244 Q1358.8906,494.1494 1360.0313,493.6806 Q1361.1719,493.1962 1362.6406,493.1962 Q1363.5938,493.1962 1364.4844,493.3994 Q1365.3906,493.5869 1366.3281,494.0556 L1365.5,495.8369 Q1364.7188,495.4619 1364.0625,495.2744 Q1363.4063,495.0712 1362.6094,495.0712 Z " fill="#000000"/><text fill="#000000" font-family="sans-serif" font-size="14" lengthAdjust="spacing" textLength="64" x="1376.5" y="504.972">Affichage</text><line style="stroke:#181818;stroke-width:0.5;" x1="1348.5" x2="1442.5" y1="515.54" y2="515.54"/><line style="stroke:#181818;stroke-width:0.5;" x1="1348.5" x2="1442.5" y1="523.54" y2="523.54"/></g><!--class Hexagone--><g id="elem_Hexagone"><rect fill="#F1F1F1" height="48" id="Hexagone" rx="2.5" ry="2.5" style="stroke:#181818;stroke-width:0.5;" width="99" x="1478" y="483.54"/><ellipse cx="1493" cy="499.54" fill="#ADD1B2" rx="11" ry="11" style="stroke:#181818;stroke-width:1.0;"/><path d="M1493.1094,495.0712 Q1492.1875,495.0712 1491.4531,495.3837 Q1490.7344,495.6962 1490.2344,496.29 Q1489.7344,496.8681 1489.4531,497.7431 Q1489.1875,498.6181 1489.1875,499.7119 Q1489.1875,501.1494 1489.625,502.1962 Q1490.0781,503.2431 1490.9219,503.79 Q1491.7813,504.3369 1493.0938,504.3369 Q1493.875,504.3369 1494.5625,504.2119 Q1495.2656,504.0712 1496.2656,503.7587 L1496.2656,505.6337 Q1495.4063,505.9619 1494.6406,506.0869 Q1493.8906,506.2119 1492.875,506.2119 Q1490.9531,506.2119 1489.6406,505.415 Q1488.3438,504.6025 1487.6875,503.1337 Q1487.0313,501.6494 1487.0313,499.6806 Q1487.0313,498.2587 1487.4219,497.0869 Q1487.8281,495.8994 1488.6094,495.0244 Q1489.3906,494.1494 1490.5313,493.6806 Q1491.6719,493.1962 1493.1406,493.1962 Q1494.0938,493.1962 1494.9844,493.3994 Q1495.8906,493.5869 1496.8281,494.0556 L1496,495.8369 Q1495.2188,495.4619 1494.5625,495.2744 Q1493.9063,495.0712 1493.1094,495.0712 Z " fill="#000000"/><text fill="#000000" font-family="sans-serif" font-size="14" lengthAdjust="spacing" textLength="67" x="1507" y="504.972">Hexagone</text><line style="stroke:#181818;stroke-width:0.5;" x1="1479" x2="1576" y1="515.54" y2="515.54"/><line style="stroke:#181818;stroke-width:0.5;" x1="1479" x2="1576" y1="523.54" y2="523.54"/></g><!--class JeuGUI--><g id="elem_JeuGUI"><rect fill="#F1F1F1" height="48" id="JeuGUI" rx="2.5" ry="2.5" style="stroke:#181818;stroke-width:0.5;" width="78" x="1611.5" y="483.54"/><ellipse cx="1626.5" cy="499.54" fill="#ADD1B2" rx="11" ry="11" style="stroke:#181818;stroke-width:1.0;"/><path d="M1626.6094,495.0712 Q1625.6875,495.0712 1624.9531,495.3837 Q1624.2344,495.6962 1623.7344,496.29 Q1623.2344,496.8681 1622.9531,497.7431 Q1622.6875,498.6181 1622.6875,499.7119 Q1622.6875,501.1494 1623.125,502.1962 Q1623.5781,503.2431 1624.4219,503.79 Q1625.2813,504.3369 1626.5938,504.3369 Q1627.375,504.3369 1628.0625,504.2119 Q1628.7656,504.0712 1629.7656,503.7587 L1629.7656,505.6337 Q1628.9063,505.9619 1628.1406,506.0869 Q1627.3906,506.2119 1626.375,506.2119 Q1624.4531,506.2119 1623.1406,505.415 Q1621.8438,504.6025 1621.1875,503.1337 Q1620.5313,501.6494 1620.5313,499.6806 Q1620.5313,498.2587 1620.9219,497.0869 Q1621.3281,495.8994 1622.1094,495.0244 Q1622.8906,494.1494 1624.0313,493.6806 Q1625.1719,493.1962 1626.6406,493.1962 Q1627.5938,493.1962 1628.4844,493.3994 Q1629.3906,493.5869 1630.3281,494.0556 L1629.5,495.8369 Q1628.7188,495.4619 1628.0625,495.2744 Q1627.4063,495.0712 1626.6094,495.0712 Z " fill="#000000"/><text fill="#000000" font-family="sans-serif" font-size="14" lengthAdjust="spacing" textLength="46" x="1640.5" y="504.972">JeuGUI</text><line style="stroke:#181818;stroke-width:0.5;" x1="1612.5" x2="1688.5" y1="515.54" y2="515.54"/><line style="stroke:#181818;stroke-width:0.5;" x1="1612.5" x2="1688.5" y1="523.54" y2="523.54"/></g><!--class MainWindow--><g id="elem_MainWindow"><rect fill="#F1F1F1" height="48" id="MainWindow" rx="2.5" ry="2.5" style="stroke:#181818;stroke-width:0.5;" width="120" x="1724.5" y="483.54"/><ellipse cx="1739.5" cy="499.54" fill="#ADD1B2" rx="11" ry="11" style="stroke:#181818;stroke-width:1.0;"/><path d="M1739.6094,495.0712 Q1738.6875,495.0712 1737.9531,495.3837 Q1737.2344,495.6962 1736.7344,496.29 Q1736.2344,496.8681 1735.9531,497.7431 Q1735.6875,498.6181 1735.6875,499.7119 Q1735.6875,501.1494 1736.125,502.1962 Q1736.5781,503.2431 1737.4219,503.79 Q1738.2813,504.3369 1739.5938,504.3369 Q1740.375,504.3369 1741.0625,504.2119 Q1741.7656,504.0712 1742.7656,503.7587 L1742.7656,505.6337 Q1741.9063,505.9619 1741.1406,506.0869 Q1740.3906,506.2119 1739.375,506.2119 Q1737.4531,506.2119 1736.1406,505.415 Q1734.8438,504.6025 1734.1875,503.1337 Q1733.5313,501.6494 1733.5313,499.6806 Q1733.5313,498.2587 1733.9219,497.0869 Q1734.3281,495.8994 1735.1094,495.0244 Q1735.8906,494.1494 1737.0313,493.6806 Q1738.1719,493.1962 1739.6406,493.1962 Q1740.5938,493.1962 1741.4844,493.3994 Q1742.3906,493.5869 1743.3281,494.0556 L1742.5,495.8369 Q1741.7188,495.4619 1741.0625,495.2744 Q1740.4063,495.0712 1739.6094,495.0712 Z " fill="#000000"/><text fill="#000000" font-family="sans-serif" font-size="14" lengthAdjust="spacing" textLength="88" x="1753.5" y="504.972">MainWindow</text><line style="stroke:#181818;stroke-width:0.5;" x1="1725.5" x2="1843.5" y1="515.54" y2="515.54"/><line style="stroke:#181818;stroke-width:0.5;" x1="1725.5" x2="1843.5" y1="523.54" y2="523.54"/></g><!--reverse link QObject to HexagoneGUIObject--><g id="link_QObject_HexagoneGUIObject"><path d="M1387.2802,650.7718 C1407.7002,666.3818 1421.73,677.1 1450.49,699.09 " fill="none" id="QObject-backto-HexagoneGUIObject" style="stroke:#181818;stroke-width:1.0;"/><polygon fill="none" points="1372.98,639.84,1383.6363,655.5385,1390.9242,646.005,1372.98,639.84" style="stroke:#181818;stroke-width:1.0;"/></g><!--reverse link QGraphicsItem to HexagoneGUIObject--><g id="link_QGraphicsItem_HexagoneGUIObject"><path d="M1506.0678,656.1345 C1513.4178,671.7945 1515.96,677.23 1526.3,699.28 " fill="none" id="QGraphicsItem-backto-HexagoneGUIObject" style="stroke:#181818;stroke-width:1.0;"/><polygon fill="none" points="1498.42,639.84,1500.6363,658.6838,1511.4993,653.5852,1498.42,639.84" style="stroke:#181818;stroke-width:1.0;"/></g><!--reverse link QGraphicsView to CameraMap--><g id="link_QGraphicsView_CameraMap"><path d="M2885.8664,66.3595 C2865.3664,82.1395 2851.27,93 2823.04,114.73 " fill="none" id="QGraphicsView-backto-CameraMap" style="stroke:#181818;stroke-width:1.0;"/><polygon fill="none" points="2900.13,55.38,2882.2066,61.605,2889.5262,71.114,2900.13,55.38" style="stroke:#181818;stroke-width:1.0;"/></g><!--reverse link QGraphicsView to ChantierQGraphicsView--><g id="link_QGraphicsView_ChantierQGraphicsView"><path d="M2975.307,66.329 C3005.097,89.159 3037.16,113.72 3075.69,143.25 " fill="none" id="QGraphicsView-backto-ChantierQGraphicsView" style="stroke:#181818;stroke-width:1.0;"/><polygon fill="none" points="2961.02,55.38,2971.6573,71.0914,2978.9567,61.5667,2961.02,55.38" style="stroke:#181818;stroke-width:1.0;"/></g><!--reverse link QWidget to EcranTitre--><g id="link_QWidget_EcranTitre"><path d="M1527.6203,196.568 C1349.4403,195.558 705.38,201.8 183.5,337.41 C177.81,338.89 172.04,340.65 166.27,342.61 " fill="none" id="QWidget-backto-EcranTitre" style="stroke:#181818;stroke-width:1.0;"/><polygon fill="none" points="1545.62,196.67,1527.6543,190.5681,1527.5863,202.5679,1545.62,196.67" style="stroke:#181818;stroke-width:1.0;"/></g><!--reverse link QWidget to EcranSelectionSauvegarde--><g id="link_QWidget_EcranSelectionSauvegarde"><path d="M1528.1154,204.6508 C1386.3554,221.4708 958.15,273.97 591.5,337.41 C586.07,338.35 580.56,339.33 575,340.33 " fill="none" id="QWidget-backto-EcranSelectionSauvegarde" style="stroke:#181818;stroke-width:1.0;"/><polygon fill="none" points="1545.99,202.53,1527.4084,198.6926,1528.8223,210.6091,1545.99,202.53" style="stroke:#181818;stroke-width:1.0;"/></g><!--reverse link QWidget to EcranSelectionModeDeJeu--><g id="link_QWidget_EcranSelectionModeDeJeu"><path d="M1528.004,211.7472 C1420.734,236.3072 1166.42,294.54 981.23,336.95 " fill="none" id="QWidget-backto-EcranSelectionModeDeJeu" style="stroke:#181818;stroke-width:1.0;"/><polygon fill="none" points="1545.55,207.73,1526.6649,205.8986,1529.3431,217.5959,1545.55,207.73" style="stroke:#181818;stroke-width:1.0;"/></g><!--reverse link QWidget to EcranSelectionNombreJoueurs--><g id="link_QWidget_EcranSelectionNombreJoueurs"><path d="M1529.3389,225.816 C1466.5289,254.726 1368.62,299.79 1287.72,337.03 " fill="none" id="QWidget-backto-EcranSelectionNombreJoueurs" style="stroke:#181818;stroke-width:1.0;"/><polygon fill="none" points="1545.69,218.29,1526.8302,220.3657,1531.8476,231.2664,1545.69,218.29" style="stroke:#181818;stroke-width:1.0;"/></g><!--reverse link QWidget to EcranSaisieNoms--><g id="link_QWidget_EcranSaisieNoms"><path d="M1591.5,238.66 C1591.5,267.99 1591.5,300.73 1591.5,336.97 " fill="none" id="QWidget-backto-EcranSaisieNoms" style="stroke:#181818;stroke-width:1.0;"/><polygon fill="none" points="1591.5,220.66,1585.5,238.66,1597.5,238.66,1591.5,220.66" style="stroke:#181818;stroke-width:1.0;"/></g><!--reverse link QWidget to EcranDifficulteArchitechte--><g id="link_QWidget_EcranDifficulteArchitechte"><path d="M1653.6941,226.5 C1715.2641,255.5 1809.63,299.94 1888.19,336.94 " fill="none" id="QWidget-backto-EcranDifficulteArchitechte" style="stroke:#181818;stroke-width:1.0;"/><polygon fill="none" points="1637.41,218.83,1651.1374,231.928,1656.2507,221.0719,1637.41,218.83" style="stroke:#181818;stroke-width:1.0;"/></g><!--reverse link QWidget to EcranChoixRegles--><g id="link_QWidget_EcranChoixRegles"><path d="M1654.9909,212.4692 C1760.6809,237.8892 2007.72,297.29 2182.89,339.41 " fill="none" id="QWidget-backto-EcranChoixRegles" style="stroke:#181818;stroke-width:1.0;"/><polygon fill="none" points="1637.49,208.26,1653.5878,218.3029,1656.394,206.6356,1637.49,208.26" style="stroke:#181818;stroke-width:1.0;"/></g><!--reverse link QWidget to EcranVictoire--><g id="link_QWidget_EcranVictoire"><path d="M1655.4547,200.9161 C1793.6047,209.5761 2198.07,241.51 2533.5,337.41 C2539.15,339.02 2544.9,340.89 2550.64,342.93 " fill="none" id="QWidget-backto-EcranVictoire" style="stroke:#181818;stroke-width:1.0;"/><polygon fill="none" points="1637.49,199.79,1655.0794,206.9044,1655.8301,194.9279,1637.49,199.79" style="stroke:#181818;stroke-width:1.0;"/></g><!--reverse link QWidget to EcranJeu--><g id="link_QWidget_EcranJeu"><path d="M1655.3275,203.2511 C1809.7175,218.0811 2306.17,268.08 2727.5,337.41 C2732.94,338.3 2738.46,339.24 2744.02,340.21 " fill="none" id="QWidget-backto-EcranJeu" style="stroke:#181818;stroke-width:1.0;"/><polygon fill="none" points="1637.41,201.53,1654.7538,209.2236,1655.9012,197.2786,1637.41,201.53" style="stroke:#181818;stroke-width:1.0;"/></g><!--reverse link Affichage to AffichageGUI--><g id="link_Affichage_AffichageGUI"><path d="M1460.3821,535.5171 C1503.1221,553.2771 1548.92,572.32 1593.98,591.05 " fill="none" id="Affichage-backto-AffichageGUI" style="stroke:#181818;stroke-width:1.0;"/><polygon fill="none" points="1443.76,528.61,1458.0797,541.0577,1462.6844,529.9764,1443.76,528.61" style="stroke:#181818;stroke-width:1.0;"/></g><!--link Hexagone to AffichageGUI--><g id="link_Hexagone_AffichageGUI"><path codeLine="78" d="M1554.49,531.81 C1575,549.48 1603.08,573.68 1623.57,591.34 " fill="none" id="Hexagone-AffichageGUI" style="stroke:#181818;stroke-width:1.0;"/></g><!--reverse link AffichageGUI to HexagoneGUIObject--><g id="link_AffichageGUI_HexagoneGUIObject"><path codeLine="79" d="M1634.2961,650.6816 C1626.8661,666.3416 1621.69,677.23 1611.22,699.28 " fill="none" id="AffichageGUI-backto-HexagoneGUIObject" style="stroke:#181818;stroke-width:1.0;"/><polygon fill="#181818" points="1639.44,639.84,1633.2542,643.5462,1634.2961,650.6816,1640.4819,646.9754,1639.44,639.84" style="stroke:#181818;stroke-width:1.0;"/></g><!--reverse link JeuGUI to AffichageGUI--><g id="link_JeuGUI_AffichageGUI"><path codeLine="80" d="M1650.5,543.81 C1650.5,561.48 1650.5,573.68 1650.5,591.34 " fill="none" id="JeuGUI-backto-AffichageGUI" style="stroke:#181818;stroke-width:1.0;"/><polygon fill="#181818" points="1650.5,531.81,1646.5,537.81,1650.5,543.81,1654.5,537.81,1650.5,531.81" style="stroke:#181818;stroke-width:1.0;"/></g><!--link EcranTitre to MainWindow--><g id="link_EcranTitre_MainWindow"><path codeLine="82" d="M166.45,418.82 C172.14,420.65 177.86,422.26 183.5,423.54 C843.95,574.21 1038.07,373.57 1706.5,483.54 C1712.35,484.51 1706.7158,482.9511 1712.7158,484.4011 " fill="none" id="EcranTitre-to-MainWindow" style="stroke:#181818;stroke-width:1.0;"/><polygon fill="#181818" points="1724.38,487.22,1719.4875,481.9225,1712.7158,484.4011,1717.6083,489.6986,1724.38,487.22" style="stroke:#181818;stroke-width:1.0;"/></g><!--link EcranSelectionSauvegarde to MainWindow--><g id="link_EcranSelectionSauvegarde_MainWindow"><path codeLine="83" d="M574.9,421.24 C580.49,422.07 586.03,422.84 591.5,423.54 C1083.68,487.17 1217.4,399.46 1706.5,483.54 C1712.34,484.55 1706.7113,482.9983 1712.7013,484.4583 " fill="none" id="EcranSelectionSauvegarde-to-MainWindow" style="stroke:#181818;stroke-width:1.0;"/><polygon fill="#181818" points="1724.36,487.3,1719.4779,481.9929,1712.7013,484.4583,1717.5834,489.7654,1724.36,487.3" style="stroke:#181818;stroke-width:1.0;"/></g><!--link EcranSelectionModeDeJeu to MainWindow--><g id="link_EcranSelectionModeDeJeu_MainWindow"><path codeLine="84" d="M981.84,420.84 C987.79,421.8 993.68,422.7 999.5,423.54 C1311.59,468.8 1396.57,425.32 1706.5,483.54 C1712.33,484.64 1706.6994,483.075 1712.6894,484.575 " fill="none" id="EcranSelectionModeDeJeu-to-MainWindow" style="stroke:#181818;stroke-width:1.0;"/><polygon fill="#181818" points="1724.33,487.49,1719.4814,482.1523,1712.6894,484.575,1717.5381,489.9127,1724.33,487.49" style="stroke:#181818;stroke-width:1.0;"/></g><!--link EcranSelectionNombreJoueurs to MainWindow--><g id="link_EcranSelectionNombreJoueurs_MainWindow"><path codeLine="85" d="M1374.91,420.16 C1380.5,421.31 1386.04,422.44 1391.5,423.54 C1531.18,451.83 1567.98,450.02 1706.5,483.54 C1712.26,484.94 1706.6501,483.3525 1712.6101,484.9725 " fill="none" id="EcranSelectionNombreJoueurs-to-MainWindow" style="stroke:#181818;stroke-width:1.0;"/><polygon fill="#181818" points="1724.19,488.12,1719.4493,482.6863,1712.6101,484.9725,1717.3509,490.4062,1724.19,488.12" style="stroke:#181818;stroke-width:1.0;"/></g><!--link EcranSaisieNoms to MainWindow--><g id="link_EcranSaisieNoms_MainWindow"><path codeLine="86" d="M1657.11,423.99 C1687.6,443.75 1712.6192,459.9648 1738.2392,476.5648 " fill="none" id="EcranSaisieNoms-to-MainWindow" style="stroke:#181818;stroke-width:1.0;"/><polygon fill="#181818" points="1748.31,483.09,1745.4497,476.4705,1738.2392,476.5648,1741.0995,483.1843,1748.31,483.09" style="stroke:#181818;stroke-width:1.0;"/></g><!--link EcranDifficulteArchitechte to MainWindow--><g id="link_EcranDifficulteArchitechte_MainWindow"><path codeLine="87" d="M1912.55,423.99 C1881.9,443.75 1856.7159,459.988 1830.9659,476.588 " fill="none" id="EcranDifficulteArchitechte-to-MainWindow" style="stroke:#181818;stroke-width:1.0;"/><polygon fill="#181818" points="1820.88,483.09,1828.0902,483.201,1830.9659,476.588,1823.7556,476.4771,1820.88,483.09" style="stroke:#181818;stroke-width:1.0;"/></g><!--link EcranChoixRegles to MainWindow--><g id="link_EcranChoixRegles_MainWindow"><path codeLine="88" d="M2182.54,419.73 C2176.79,421.02 2171.1,422.3 2165.5,423.54 C2052.35,448.8 1931.8216,474.8864 1856.6516,491.0564 " fill="none" id="EcranChoixRegles-to-MainWindow" style="stroke:#181818;stroke-width:1.0;"/><polygon fill="#181818" points="1844.92,493.58,1851.627,496.2287,1856.6516,491.0564,1849.9446,488.4076,1844.92,493.58" style="stroke:#181818;stroke-width:1.0;"/></g><!--link EcranVictoire to MainWindow--><g id="link_EcranVictoire_MainWindow"><path codeLine="89" d="M2550.71,418.27 C2544.95,420.25 2539.18,422.04 2533.5,423.54 C2283.78,489.92 1985.5675,503.034 1856.8375,505.674 " fill="none" id="EcranVictoire-to-MainWindow" style="stroke:#181818;stroke-width:1.0;"/><polygon fill="#181818" points="1844.84,505.92,1850.9208,509.7961,1856.8375,505.674,1850.7567,501.7978,1844.84,505.92" style="stroke:#181818;stroke-width:1.0;"/></g><!--link EcranJeu to MainWindow--><g id="link_EcranJeu_MainWindow"><path codeLine="90" d="M2744.06,420.99 C2738.49,421.89 2732.96,422.74 2727.5,423.54 C2396.18,472.12 2006.8942,495.3348 1856.8942,503.0348 " fill="none" id="EcranJeu-to-MainWindow" style="stroke:#181818;stroke-width:1.0;"/><polygon fill="#181818" points="1844.91,503.65,1851.1072,507.3371,1856.8942,503.0348,1850.697,499.3477,1844.91,503.65" style="stroke:#181818;stroke-width:1.0;"/></g><!--link CameraMap to EcranJeu--><g id="link_CameraMap_EcranJeu"><path codeLine="91" d="M2812.54,277.68 C2836.51,298.19 2852.2046,311.6156 2872.9246,329.3556 " fill="none" id="CameraMap-to-EcranJeu" style="stroke:#181818;stroke-width:1.0;"/><polygon fill="#181818" points="2882.04,337.16,2880.0838,330.2193,2872.9246,329.3556,2874.8808,336.2963,2882.04,337.16" style="stroke:#181818;stroke-width:1.0;"/></g><!--link ChantierQGraphicsView to EcranJeu--><g id="link_ChantierQGraphicsView_EcranJeu"><path codeLine="92" d="M3083.03,249.19 C3050.72,276.97 3020.5388,302.9162 2990.0688,329.1162 " fill="none" id="ChantierQGraphicsView-to-EcranJeu" style="stroke:#181818;stroke-width:1.0;"/><polygon fill="#181818" points="2980.97,336.94,2988.1273,336.0611,2990.0688,329.1162,2982.9115,329.9952,2980.97,336.94" style="stroke:#181818;stroke-width:1.0;"/></g><!--link EcranJeu to HexagoneGUIObject--><g id="link_EcranJeu_HexagoneGUIObject"><path codeLine="93" d="M2789.49,423.96 C2573.1,488.71 2155.82,613.56 1869.85,699.12 " fill="none" id="EcranJeu-HexagoneGUIObject" style="stroke:#181818;stroke-width:1.0;"/></g><!--reverse link MainWindow to AffichageGUI--><g id="link_MainWindow_AffichageGUI"><path codeLine="94" d="M1745.6782,539.2543 C1723.3382,556.9243 1702.16,573.68 1679.84,591.34 " fill="none" id="MainWindow-backto-AffichageGUI" style="stroke:#181818;stroke-width:1.0;"/><polygon fill="#181818" points="1755.09,531.81,1747.9027,532.3949,1745.6782,539.2543,1752.8655,538.6694,1755.09,531.81" style="stroke:#181818;stroke-width:1.0;"/></g><!--SRC=[bLR9Rjim4BthAmWKQ6J7Hawz14K1mrcQ06uMfycXw86cnX8JcdH9odOGv5zwxNVanpgKh2sXfSG7G-AycNcpKanGOyXtsD1OIJZzUNOnkmTc2MmioCYGg_nzGAvEDLqcd9ap2mlo513y3Ka26t9OoIwLU4Gx3h85gDGABg41eZQf8IowgejlyBqcJcXg8TLUH0RPVytUXaob8jSPvqzczA3LKWbk1YG2mpHVMgua0fYInX9ZDPVnvm76m-F4qU4IOuxKHKa_1ywK4h- -_EvjFSzKAYFKlCOKXRqj1fcwzvCjPgLuH9OK3ORPFsInNEQF_G5HJIfNK_ieu28xhASSaMiUnP3PlykU-htWEGXOLi4nNO2c4xgiAbTett9ORmlsYQmJ076y0cG3xZ-pLfxrUrlOGgK69ce5hw0JT-w1NcemfWkxNx4C3ODcLqpTGGai_KTXRb-PB6iAitRI8q-6nvAAvpewez25h_ALK6avw6QMsdFteKXzzdT5FI3BHbLp4qgE1MSF658pW2A4OwQflE5MGyKxDx5bl5-3X8LLOwcsfrY7q9UMJ64A0liN-szAqnN4L4ST7ZmAbRz2Ti8bDmb6mnAgOwZPFip6gflEH4Lm1EUGlfDDYMyXioXj7XAN5QVJpUI7MimqdAlKxPPticdej32I6Uwej9xjejsKA3SSq7ONZHBNxjhvM-6nqbzn4xcj-6sdxoC-dtEM2WiZpH9kWIMserEyAYsCeXAFl2hbdPJ6YUARQuW5TEIZ1cnnJp4LjrHpdENEDhtbc3NUDOm5wYFpkBlZ3_P8zF9lZdGrOI1U_f8KzyjSSKF-f404a7kdYzUAmv2zWpgLzi7um9IEN5aI6hiBk2HQ7WP1SJ-JuR213HgAVPI- -Gu9a6GXRAW6jUqt7FR91E_JEouZjGvsxh1MNBLSMc7DoVT2gudqYVr3uqFMUzadBnlE9_G4KdqYE4612lmtOGDIi-WfKUNYRPd-0m00]--></g></svg>