<?xml version="1.0" encoding="us-ascii" standalone="no"?><svg xmlns="http://www.w3.org/2000/svg" xmlns:xlink="http://www.w3.org/1999/xlink" contentStyleType="text/css" height="888px" preserveAspectRatio="none" style="width:1268px;height:888px;background:#FFFFFF;" version="1.1" viewBox="0 0 1268 888" width="1268px" zoomAndPan="magnify"><defs/><g><!--class HexagoneGUIObject--><g id="elem_HexagoneGUIObject"><rect codeLine="2" fill="#F1F1F1" height="181.4754" id="HexagoneGUIObject" rx="2.5" ry="2.5" style="stroke:#181818;stroke-width:0.5;" width="790" x="67" y="699.54"/><ellipse cx="389.75" cy="715.54" fill="#ADD1B2" rx="11" ry="11" style="stroke:#181818;stroke-width:1.0;"/><path d="M389.8594,711.0713 Q388.9375,711.0713 388.2031,711.3838 Q387.4844,711.6963 386.9844,712.29 Q386.4844,712.8681 386.2031,713.7431 Q385.9375,714.6181 385.9375,715.7119 Q385.9375,717.1494 386.375,718.1963 Q386.8281,719.2431 387.6719,719.79 Q388.5313,720.3369 389.8438,720.3369 Q390.625,720.3369 391.3125,720.2119 Q392.0156,720.0713 393.0156,719.7588 L393.0156,721.6338 Q392.1563,721.9619 391.3906,722.0869 Q390.6406,722.2119 389.625,722.2119 Q387.7031,722.2119 386.3906,721.415 Q385.0938,720.6025 384.4375,719.1338 Q383.7813,717.6494 383.7813,715.6806 Q383.7813,714.2588 384.1719,713.0869 Q384.5781,711.8994 385.3594,711.0244 Q386.1406,710.1494 387.2813,709.6806 Q388.4219,709.1963 389.8906,709.1963 Q390.8438,709.1963 391.7344,709.3994 Q392.6406,709.5869 393.5781,710.0556 L392.75,711.8369 Q391.9688,711.4619 391.3125,711.2744 Q390.6563,711.0713 389.8594,711.0713 Z " fill="#000000"/><text fill="#000000" font-family="sans-serif" font-size="14" lengthAdjust="spacing" textLength="136" x="410.25" y="720.972">HexagoneGUIObject</text><line style="stroke:#181818;stroke-width:0.5;" x1="68" x2="856" y1="731.54" y2="731.54"/><rect fill="none" height="6" style="stroke:#C82930;stroke-width:1.0;" width="6" x="75" y="743.574"/><text fill="#000000" font-family="sans-serif" font-size="14" lengthAdjust="spacing" textLength="191" x="87" y="750.5059">hex : QGraphicsPolygonItem</text><rect fill="none" height="6" style="stroke:#C82930;stroke-width:1.0;" width="6" x="75" y="762.6419"/><text fill="#000000" font-family="sans-serif" font-size="14" lengthAdjust="spacing" textLength="191" x="87" y="769.5739">outline : QGraphicsPathItem</text><rect fill="none" height="6" style="stroke:#C82930;stroke-width:1.0;" width="6" x="75" y="781.7098"/><text fill="#000000" font-family="sans-serif" font-size="14" lengthAdjust="spacing" textLength="167" x="87" y="788.6418">text : QGraphicsTextItem</text><rect fill="none" height="6" style="stroke:#C82930;stroke-width:1.0;" width="6" x="75" y="800.7777"/><text fill="#000000" font-family="sans-serif" font-size="14" lengthAdjust="spacing" textLength="196" x="87" y="807.7097">hauteur : QGraphicsTextItem</text><line style="stroke:#181818;stroke-width:0.5;" x1="68" x2="856" y1="815.8117" y2="815.8117"/><ellipse cx="78" cy="830.8456" fill="#84BE84" rx="3" ry="3" style="stroke:#038048;stroke-width:1.0;"/><text fill="#000000" font-family="sans-serif" font-size="14" lengthAdjust="spacing" textLength="764" x="87" y="834.7776">HexagoneGUIObjet(couleur : CouleursAkropolis, description : const string&amp;, height : int, doOutline : const bool[5])</text><ellipse cx="78" cy="849.9135" fill="#84BE84" rx="3" ry="3" style="stroke:#038048;stroke-width:1.0;"/><text fill="#000000" font-family="sans-serif" font-size="14" lengthAdjust="spacing" textLength="202" x="87" y="853.8455">boundingRect() const : QRectF</text><ellipse cx="78" cy="868.9815" fill="#84BE84" rx="3" ry="3" style="stroke:#038048;stroke-width:1.0;"/><text fill="#000000" font-family="sans-serif" font-size="14" lengthAdjust="spacing" textLength="627" x="87" y="872.9134">void paint(painter : QPainter*, option : const QStyleOptionGraphicsItem*, widget : QWidget*)</text></g><!--class QObject--><g id="elem_QObject"><rect fill="#F1F1F1" height="48" id="QObject" rx="2.5" ry="2.5" style="stroke:#181818;stroke-width:0.5;" width="87" x="346.5" y="591.54"/><ellipse cx="361.5" cy="607.54" fill="#ADD1B2" rx="11" ry="11" style="stroke:#181818;stroke-width:1.0;"/><path d="M361.6094,603.0713 Q360.6875,603.0713 359.9531,603.3838 Q359.2344,603.6963 358.7344,604.29 Q358.2344,604.8681 357.9531,605.7431 Q357.6875,606.6181 357.6875,607.7119 Q357.6875,609.1494 358.125,610.1963 Q358.5781,611.2431 359.4219,611.79 Q360.2813,612.3369 361.5938,612.3369 Q362.375,612.3369 363.0625,612.2119 Q363.7656,612.0713 364.7656,611.7588 L364.7656,613.6338 Q363.9063,613.9619 363.1406,614.0869 Q362.3906,614.2119 361.375,614.2119 Q359.4531,614.2119 358.1406,613.415 Q356.8438,612.6025 356.1875,611.1338 Q355.5313,609.6494 355.5313,607.6806 Q355.5313,606.2588 355.9219,605.0869 Q356.3281,603.8994 357.1094,603.0244 Q357.8906,602.1494 359.0313,601.6806 Q360.1719,601.1963 361.6406,601.1963 Q362.5938,601.1963 363.4844,601.3994 Q364.3906,601.5869 365.3281,602.0556 L364.5,603.8369 Q363.7188,603.4619 363.0625,603.2744 Q362.4063,603.0713 361.6094,603.0713 Z " fill="#000000"/><text fill="#000000" font-family="sans-serif" font-size="14" lengthAdjust="spacing" textLength="55" x="375.5" y="612.972">QObject</text><line style="stroke:#181818;stroke-width:0.5;" x1="347.5" x2="432.5" y1="623.54" y2="623.54"/><line style="stroke:#181818;stroke-width:0.5;" x1="347.5" x2="432.5" y1="631.54" y2="631.54"/></g><!--class QGraphicsItem--><g id="elem_QGraphicsItem"><rect fill="#F1F1F1" height="48" id="QGraphicsItem" rx="2.5" ry="2.5" style="stroke:#181818;stroke-width:0.5;" width="134" x="468" y="591.54"/><ellipse cx="483" cy="607.54" fill="#ADD1B2" rx="11" ry="11" style="stroke:#181818;stroke-width:1.0;"/><path d="M483.1094,603.0713 Q482.1875,603.0713 481.4531,603.3838 Q480.7344,603.6963 480.2344,604.29 Q479.7344,604.8681 479.4531,605.7431 Q479.1875,606.6181 479.1875,607.7119 Q479.1875,609.1494 479.625,610.1963 Q480.0781,611.2431 480.9219,611.79 Q481.7813,612.3369 483.0938,612.3369 Q483.875,612.3369 484.5625,612.2119 Q485.2656,612.0713 486.2656,611.7588 L486.2656,613.6338 Q485.4063,613.9619 484.6406,614.0869 Q483.8906,614.2119 482.875,614.2119 Q480.9531,614.2119 479.6406,613.415 Q478.3438,612.6025 477.6875,611.1338 Q477.0313,609.6494 477.0313,607.6806 Q477.0313,606.2588 477.4219,605.0869 Q477.8281,603.8994 478.6094,603.0244 Q479.3906,602.1494 480.5313,601.6806 Q481.6719,601.1963 483.1406,601.1963 Q484.0938,601.1963 484.9844,601.3994 Q485.8906,601.5869 486.8281,602.0556 L486,603.8369 Q485.2188,603.4619 484.5625,603.2744 Q483.9063,603.0713 483.1094,603.0713 Z " fill="#000000"/><text fill="#000000" font-family="sans-serif" font-size="14" lengthAdjust="spacing" textLength="102" x="497" y="612.972">QGraphicsItem</text><line style="stroke:#181818;stroke-width:0.5;" x1="469" x2="601" y1="623.54" y2="623.54"/><line style="stroke:#181818;stroke-width:0.5;" x1="469" x2="601" y1="631.54" y2="631.54"/></g><!--class CameraMap--><g id="elem_CameraMap"><rect codeLine="13" fill="#F1F1F1" height="162.4075" id="CameraMap" rx="2.5" ry="2.5" style="stroke:#181818;stroke-width:0.5;" width="319" x="446.5" y="115"/><ellipse cx="560.75" cy="131" fill="#ADD1B2" rx="11" ry="11" style="stroke:#181818;stroke-width:1.0;"/><path d="M560.8594,126.5313 Q559.9375,126.5313 559.2031,126.8438 Q558.4844,127.1563 557.9844,127.75 Q557.4844,128.3281 557.2031,129.2031 Q556.9375,130.0781 556.9375,131.1719 Q556.9375,132.6094 557.375,133.6563 Q557.8281,134.7031 558.6719,135.25 Q559.5313,135.7969 560.8438,135.7969 Q561.625,135.7969 562.3125,135.6719 Q563.0156,135.5313 564.0156,135.2188 L564.0156,137.0938 Q563.1563,137.4219 562.3906,137.5469 Q561.6406,137.6719 560.625,137.6719 Q558.7031,137.6719 557.3906,136.875 Q556.0938,136.0625 555.4375,134.5938 Q554.7813,133.1094 554.7813,131.1406 Q554.7813,129.7188 555.1719,128.5469 Q555.5781,127.3594 556.3594,126.4844 Q557.1406,125.6094 558.2813,125.1406 Q559.4219,124.6563 560.8906,124.6563 Q561.8438,124.6563 562.7344,124.8594 Q563.6406,125.0469 564.5781,125.5156 L563.75,127.2969 Q562.9688,126.9219 562.3125,126.7344 Q561.6563,126.5313 560.8594,126.5313 Z " fill="#000000"/><text fill="#000000" font-family="sans-serif" font-size="14" lengthAdjust="spacing" textLength="82" x="581.25" y="136.432">CameraMap</text><line style="stroke:#181818;stroke-width:0.5;" x1="447.5" x2="764.5" y1="147" y2="147"/><line style="stroke:#181818;stroke-width:0.5;" x1="447.5" x2="764.5" y1="155" y2="155"/><polygon fill="#FFFF44" points="457.5,165.034,461.5,169.034,457.5,173.034,453.5,169.034" style="stroke:#B38D22;stroke-width:1.0;"/><text fill="#000000" font-family="sans-serif" font-size="14" lengthAdjust="spacing" textLength="232" x="466.5" y="173.9659">wheelEvent(event : QWheelEvent*)</text><polygon fill="#FFFF44" points="457.5,184.1019,461.5,188.1019,457.5,192.1019,453.5,188.1019" style="stroke:#B38D22;stroke-width:1.0;"/><text fill="#000000" font-family="sans-serif" font-size="14" lengthAdjust="spacing" textLength="276" x="466.5" y="193.0339">mouseMoveEvent(event : QMouseEvent*)</text><polygon fill="#FFFF44" points="457.5,203.1698,461.5,207.1698,457.5,211.1698,453.5,207.1698" style="stroke:#B38D22;stroke-width:1.0;"/><text fill="#000000" font-family="sans-serif" font-size="14" lengthAdjust="spacing" textLength="276" x="466.5" y="212.1018">mousePressEvent(event : QMouseEvent*)</text><ellipse cx="457.5" cy="227.2377" fill="#84BE84" rx="3" ry="3" style="stroke:#038048;stroke-width:1.0;"/><text fill="#000000" font-family="sans-serif" font-size="14" lengthAdjust="spacing" textLength="260" x="466.5" y="231.1697">CameraMap(scene : QGraphicsScene*)</text><ellipse cx="457.5" cy="246.3056" fill="#84BE84" rx="3" ry="3" style="stroke:#038048;stroke-width:1.0;"/><text fill="#000000" font-family="sans-serif" font-size="14" lengthAdjust="spacing" textLength="285" x="466.5" y="250.2376">mouseMoved(mousePos : QPointF) {signal}</text><ellipse cx="457.5" cy="265.3735" fill="#84BE84" rx="3" ry="3" style="stroke:#038048;stroke-width:1.0;"/><text fill="#000000" font-family="sans-serif" font-size="14" lengthAdjust="spacing" textLength="293" x="466.5" y="269.3055">mousePressed(mousePos : QPointF) {signal}</text></g><!--class QGraphicsView--><g id="elem_QGraphicsView"><rect fill="#F1F1F1" height="48" id="QGraphicsView" rx="2.5" ry="2.5" style="stroke:#181818;stroke-width:0.5;" width="134" x="751" y="7"/><ellipse cx="766" cy="23" fill="#ADD1B2" rx="11" ry="11" style="stroke:#181818;stroke-width:1.0;"/><path d="M766.1094,18.5313 Q765.1875,18.5313 764.4531,18.8438 Q763.7344,19.1563 763.2344,19.75 Q762.7344,20.3281 762.4531,21.2031 Q762.1875,22.0781 762.1875,23.1719 Q762.1875,24.6094 762.625,25.6563 Q763.0781,26.7031 763.9219,27.25 Q764.7813,27.7969 766.0938,27.7969 Q766.875,27.7969 767.5625,27.6719 Q768.2656,27.5313 769.2656,27.2188 L769.2656,29.0938 Q768.4063,29.4219 767.6406,29.5469 Q766.8906,29.6719 765.875,29.6719 Q763.9531,29.6719 762.6406,28.875 Q761.3438,28.0625 760.6875,26.5938 Q760.0313,25.1094 760.0313,23.1406 Q760.0313,21.7188 760.4219,20.5469 Q760.8281,19.3594 761.6094,18.4844 Q762.3906,17.6094 763.5313,17.1406 Q764.6719,16.6563 766.1406,16.6563 Q767.0938,16.6563 767.9844,16.8594 Q768.8906,17.0469 769.8281,17.5156 L769,19.2969 Q768.2188,18.9219 767.5625,18.7344 Q766.9063,18.5313 766.1094,18.5313 Z " fill="#000000"/><text fill="#000000" font-family="sans-serif" font-size="14" lengthAdjust="spacing" textLength="102" x="780" y="28.432">QGraphicsView</text><line style="stroke:#181818;stroke-width:0.5;" x1="752" x2="884" y1="39" y2="39"/><line style="stroke:#181818;stroke-width:0.5;" x1="752" x2="884" y1="47" y2="47"/></g><!--class ChantierQGraphicsView--><g id="elem_ChantierQGraphicsView"><rect codeLine="22" fill="#F1F1F1" height="105.2038" id="ChantierQGraphicsView" rx="2.5" ry="2.5" style="stroke:#181818;stroke-width:0.5;" width="460" x="801" y="143.6"/><ellipse cx="946.75" cy="159.6" fill="#ADD1B2" rx="11" ry="11" style="stroke:#181818;stroke-width:1.0;"/><path d="M946.8594,155.1313 Q945.9375,155.1313 945.2031,155.4438 Q944.4844,155.7563 943.9844,156.35 Q943.4844,156.9281 943.2031,157.8031 Q942.9375,158.6781 942.9375,159.7719 Q942.9375,161.2094 943.375,162.2563 Q943.8281,163.3031 944.6719,163.85 Q945.5313,164.3969 946.8438,164.3969 Q947.625,164.3969 948.3125,164.2719 Q949.0156,164.1313 950.0156,163.8188 L950.0156,165.6938 Q949.1563,166.0219 948.3906,166.1469 Q947.6406,166.2719 946.625,166.2719 Q944.7031,166.2719 943.3906,165.475 Q942.0938,164.6625 941.4375,163.1938 Q940.7813,161.7094 940.7813,159.7406 Q940.7813,158.3188 941.1719,157.1469 Q941.5781,155.9594 942.3594,155.0844 Q943.1406,154.2094 944.2813,153.7406 Q945.4219,153.2563 946.8906,153.2563 Q947.8438,153.2563 948.7344,153.4594 Q949.6406,153.6469 950.5781,154.1156 L949.75,155.8969 Q948.9688,155.5219 948.3125,155.3344 Q947.6563,155.1313 946.8594,155.1313 Z " fill="#000000"/><text fill="#000000" font-family="sans-serif" font-size="14" lengthAdjust="spacing" textLength="160" x="967.25" y="165.032">ChantierQGraphicsView</text><line style="stroke:#181818;stroke-width:0.5;" x1="802" x2="1260" y1="175.6" y2="175.6"/><line style="stroke:#181818;stroke-width:0.5;" x1="802" x2="1260" y1="183.6" y2="183.6"/><polygon fill="#FFFF44" points="812,193.634,816,197.634,812,201.634,808,197.634" style="stroke:#B38D22;stroke-width:1.0;"/><text fill="#000000" font-family="sans-serif" font-size="14" lengthAdjust="spacing" textLength="276" x="821" y="202.5659">mousePressEvent(event : QMouseEvent*)</text><ellipse cx="812" cy="217.7019" fill="#84BE84" rx="3" ry="3" style="stroke:#038048;stroke-width:1.0;"/><text fill="#000000" font-family="sans-serif" font-size="14" lengthAdjust="spacing" textLength="434" x="821" y="221.6339">ChantierQGraphicsView(scene : QGraphicsScene*, p : QWidget*)</text><ellipse cx="812" cy="236.7698" fill="#84BE84" rx="3" ry="3" style="stroke:#038048;stroke-width:1.0;"/><text fill="#000000" font-family="sans-serif" font-size="14" lengthAdjust="spacing" textLength="128" x="821" y="240.7018">onClicked() {signal}</text></g><!--class EcranType--><g id="elem_EcranType"><rect codeLine="28" fill="#F1F1F1" height="86.1358" id="EcranType" rx="2.5" ry="2.5" style="stroke:#181818;stroke-width:0.5;" width="426" x="7" y="337.41"/><ellipse cx="180.75" cy="353.41" fill="#ADD1B2" rx="11" ry="11" style="stroke:#181818;stroke-width:1.0;"/><path d="M180.8594,348.9412 Q179.9375,348.9412 179.2031,349.2537 Q178.4844,349.5662 177.9844,350.16 Q177.4844,350.7381 177.2031,351.6131 Q176.9375,352.4881 176.9375,353.5819 Q176.9375,355.0194 177.375,356.0662 Q177.8281,357.1131 178.6719,357.66 Q179.5313,358.2069 180.8438,358.2069 Q181.625,358.2069 182.3125,358.0819 Q183.0156,357.9412 184.0156,357.6287 L184.0156,359.5037 Q183.1563,359.8319 182.3906,359.9569 Q181.6406,360.0819 180.625,360.0819 Q178.7031,360.0819 177.3906,359.285 Q176.0938,358.4725 175.4375,357.0037 Q174.7813,355.5194 174.7813,353.5506 Q174.7813,352.1287 175.1719,350.9569 Q175.5781,349.7694 176.3594,348.8944 Q177.1406,348.0194 178.2813,347.5506 Q179.4219,347.0662 180.8906,347.0662 Q181.8438,347.0662 182.7344,347.2694 Q183.6406,347.4569 184.5781,347.9256 L183.75,349.7069 Q182.9688,349.3319 182.3125,349.1444 Q181.6563,348.9412 180.8594,348.9412 Z " fill="#000000"/><text fill="#000000" font-family="sans-serif" font-size="14" lengthAdjust="spacing" textLength="70" x="201.25" y="358.842">EcranType</text><line style="stroke:#181818;stroke-width:0.5;" x1="8" x2="432" y1="369.41" y2="369.41"/><line style="stroke:#181818;stroke-width:0.5;" x1="8" x2="432" y1="377.41" y2="377.41"/><ellipse cx="18" cy="392.444" fill="#84BE84" rx="3" ry="3" style="stroke:#038048;stroke-width:1.0;"/><text fill="#000000" font-family="sans-serif" font-size="14" lengthAdjust="spacing" textLength="78" x="27" y="396.3759">EcranType()</text><ellipse cx="18" cy="411.5119" fill="#84BE84" rx="3" ry="3" style="stroke:#038048;stroke-width:1.0;"/><text fill="#000000" font-family="sans-serif" font-size="14" lengthAdjust="spacing" textLength="400" x="27" y="415.4439">signalDeCommunication(argumentDuSignal : Type) {signal}</text></g><!--class QWidget--><g id="elem_QWidget"><rect fill="#F1F1F1" height="48" id="QWidget" rx="2.5" ry="2.5" style="stroke:#181818;stroke-width:0.5;" width="91" x="271.5" y="172.2"/><ellipse cx="286.5" cy="188.2" fill="#ADD1B2" rx="11" ry="11" style="stroke:#181818;stroke-width:1.0;"/><path d="M286.6094,183.7312 Q285.6875,183.7312 284.9531,184.0437 Q284.2344,184.3562 283.7344,184.95 Q283.2344,185.5281 282.9531,186.4031 Q282.6875,187.2781 282.6875,188.3719 Q282.6875,189.8094 283.125,190.8562 Q283.5781,191.9031 284.4219,192.45 Q285.2813,192.9969 286.5938,192.9969 Q287.375,192.9969 288.0625,192.8719 Q288.7656,192.7312 289.7656,192.4187 L289.7656,194.2937 Q288.9063,194.6219 288.1406,194.7469 Q287.3906,194.8719 286.375,194.8719 Q284.4531,194.8719 283.1406,194.075 Q281.8438,193.2625 281.1875,191.7937 Q280.5313,190.3094 280.5313,188.3406 Q280.5313,186.9187 280.9219,185.7469 Q281.3281,184.5594 282.1094,183.6844 Q282.8906,182.8094 284.0313,182.3406 Q285.1719,181.8562 286.6406,181.8562 Q287.5938,181.8562 288.4844,182.0594 Q289.3906,182.2469 290.3281,182.7156 L289.5,184.4969 Q288.7188,184.1219 288.0625,183.9344 Q287.4063,183.7312 286.6094,183.7312 Z " fill="#000000"/><text fill="#000000" font-family="sans-serif" font-size="14" lengthAdjust="spacing" textLength="59" x="300.5" y="193.632">QWidget</text><line style="stroke:#181818;stroke-width:0.5;" x1="272.5" x2="361.5" y1="204.2" y2="204.2"/><line style="stroke:#181818;stroke-width:0.5;" x1="272.5" x2="361.5" y1="212.2" y2="212.2"/></g><!--class EcranJeu--><g id="elem_EcranJeu"><rect codeLine="33" fill="#F1F1F1" height="86.1358" id="EcranJeu" rx="2.5" ry="2.5" style="stroke:#181818;stroke-width:0.5;" width="374" x="468" y="337.41"/><ellipse cx="621.25" cy="353.41" fill="#ADD1B2" rx="11" ry="11" style="stroke:#181818;stroke-width:1.0;"/><path d="M621.3594,348.9412 Q620.4375,348.9412 619.7031,349.2537 Q618.9844,349.5662 618.4844,350.16 Q617.9844,350.7381 617.7031,351.6131 Q617.4375,352.4881 617.4375,353.5819 Q617.4375,355.0194 617.875,356.0662 Q618.3281,357.1131 619.1719,357.66 Q620.0313,358.2069 621.3438,358.2069 Q622.125,358.2069 622.8125,358.0819 Q623.5156,357.9412 624.5156,357.6287 L624.5156,359.5037 Q623.6563,359.8319 622.8906,359.9569 Q622.1406,360.0819 621.125,360.0819 Q619.2031,360.0819 617.8906,359.285 Q616.5938,358.4725 615.9375,357.0037 Q615.2813,355.5194 615.2813,353.5506 Q615.2813,352.1287 615.6719,350.9569 Q616.0781,349.7694 616.8594,348.8944 Q617.6406,348.0194 618.7813,347.5506 Q619.9219,347.0662 621.3906,347.0662 Q622.3438,347.0662 623.2344,347.2694 Q624.1406,347.4569 625.0781,347.9256 L624.25,349.7069 Q623.4688,349.3319 622.8125,349.1444 Q622.1563,348.9412 621.3594,348.9412 Z " fill="#000000"/><text fill="#000000" font-family="sans-serif" font-size="14" lengthAdjust="spacing" textLength="59" x="641.75" y="358.842">EcranJeu</text><line style="stroke:#181818;stroke-width:0.5;" x1="469" x2="841" y1="369.41" y2="369.41"/><line style="stroke:#181818;stroke-width:0.5;" x1="469" x2="841" y1="377.41" y2="377.41"/><ellipse cx="479" cy="392.444" fill="#84BE84" rx="3" ry="3" style="stroke:#038048;stroke-width:1.0;"/><text fill="#000000" font-family="sans-serif" font-size="14" lengthAdjust="spacing" textLength="67" x="488" y="396.3759">EcranJeu()</text><ellipse cx="479" cy="411.5119" fill="#84BE84" rx="3" ry="3" style="stroke:#038048;stroke-width:1.0;"/><text fill="#000000" font-family="sans-serif" font-size="14" lengthAdjust="spacing" textLength="348" x="488" y="415.4439">selectionFinished(chargeSauvegarde : bool) {signal}</text></g><!--class AffichageGUI--><g id="elem_AffichageGUI"><rect codeLine="39" fill="#F1F1F1" height="48" id="AffichageGUI" rx="2.5" ry="2.5" style="stroke:#181818;stroke-width:0.5;" width="121" x="190.5" y="591.54"/><ellipse cx="205.5" cy="607.54" fill="#ADD1B2" rx="11" ry="11" style="stroke:#181818;stroke-width:1.0;"/><path d="M205.6094,603.0713 Q204.6875,603.0713 203.9531,603.3838 Q203.2344,603.6963 202.7344,604.29 Q202.2344,604.8681 201.9531,605.7431 Q201.6875,606.6181 201.6875,607.7119 Q201.6875,609.1494 202.125,610.1963 Q202.5781,611.2431 203.4219,611.79 Q204.2813,612.3369 205.5938,612.3369 Q206.375,612.3369 207.0625,612.2119 Q207.7656,612.0713 208.7656,611.7588 L208.7656,613.6338 Q207.9063,613.9619 207.1406,614.0869 Q206.3906,614.2119 205.375,614.2119 Q203.4531,614.2119 202.1406,613.415 Q200.8438,612.6025 200.1875,611.1338 Q199.5313,609.6494 199.5313,607.6806 Q199.5313,606.2588 199.9219,605.0869 Q200.3281,603.8994 201.1094,603.0244 Q201.8906,602.1494 203.0313,601.6806 Q204.1719,601.1963 205.6406,601.1963 Q206.5938,601.1963 207.4844,601.3994 Q208.3906,601.5869 209.3281,602.0556 L208.5,603.8369 Q207.7188,603.4619 207.0625,603.2744 Q206.4063,603.0713 205.6094,603.0713 Z " fill="#000000"/><text fill="#000000" font-family="sans-serif" font-size="14" lengthAdjust="spacing" textLength="89" x="219.5" y="612.972">AffichageGUI</text><line style="stroke:#181818;stroke-width:0.5;" x1="191.5" x2="310.5" y1="623.54" y2="623.54"/><line style="stroke:#181818;stroke-width:0.5;" x1="191.5" x2="310.5" y1="631.54" y2="631.54"/></g><!--class Affichage--><g id="elem_Affichage"><rect fill="#F1F1F1" height="48" id="Affichage" rx="2.5" ry="2.5" style="stroke:#181818;stroke-width:0.5;" width="96" x="331" y="483.54"/><ellipse cx="346" cy="499.54" fill="#ADD1B2" rx="11" ry="11" style="stroke:#181818;stroke-width:1.0;"/><path d="M346.1094,495.0712 Q345.1875,495.0712 344.4531,495.3837 Q343.7344,495.6962 343.2344,496.29 Q342.7344,496.8681 342.4531,497.7431 Q342.1875,498.6181 342.1875,499.7119 Q342.1875,501.1494 342.625,502.1962 Q343.0781,503.2431 343.9219,503.79 Q344.7813,504.3369 346.0938,504.3369 Q346.875,504.3369 347.5625,504.2119 Q348.2656,504.0712 349.2656,503.7587 L349.2656,505.6337 Q348.4063,505.9619 347.6406,506.0869 Q346.8906,506.2119 345.875,506.2119 Q343.9531,506.2119 342.6406,505.415 Q341.3438,504.6025 340.6875,503.1337 Q340.0313,501.6494 340.0313,499.6806 Q340.0313,498.2587 340.4219,497.0869 Q340.8281,495.8994 341.6094,495.0244 Q342.3906,494.1494 343.5313,493.6806 Q344.6719,493.1962 346.1406,493.1962 Q347.0938,493.1962 347.9844,493.3994 Q348.8906,493.5869 349.8281,494.0556 L349,495.8369 Q348.2188,495.4619 347.5625,495.2744 Q346.9063,495.0712 346.1094,495.0712 Z " fill="#000000"/><text fill="#000000" font-family="sans-serif" font-size="14" lengthAdjust="spacing" textLength="64" x="360" y="504.972">Affichage</text><line style="stroke:#181818;stroke-width:0.5;" x1="332" x2="426" y1="515.54" y2="515.54"/><line style="stroke:#181818;stroke-width:0.5;" x1="332" x2="426" y1="523.54" y2="523.54"/></g><!--class Hexagone--><g id="elem_Hexagone"><rect fill="#F1F1F1" height="48" id="Hexagone" rx="2.5" ry="2.5" style="stroke:#181818;stroke-width:0.5;" width="99" x="461.5" y="483.54"/><ellipse cx="476.5" cy="499.54" fill="#ADD1B2" rx="11" ry="11" style="stroke:#181818;stroke-width:1.0;"/><path d="M476.6094,495.0712 Q475.6875,495.0712 474.9531,495.3837 Q474.2344,495.6962 473.7344,496.29 Q473.2344,496.8681 472.9531,497.7431 Q472.6875,498.6181 472.6875,499.7119 Q472.6875,501.1494 473.125,502.1962 Q473.5781,503.2431 474.4219,503.79 Q475.2813,504.3369 476.5938,504.3369 Q477.375,504.3369 478.0625,504.2119 Q478.7656,504.0712 479.7656,503.7587 L479.7656,505.6337 Q478.9063,505.9619 478.1406,506.0869 Q477.3906,506.2119 476.375,506.2119 Q474.4531,506.2119 473.1406,505.415 Q471.8438,504.6025 471.1875,503.1337 Q470.5313,501.6494 470.5313,499.6806 Q470.5313,498.2587 470.9219,497.0869 Q471.3281,495.8994 472.1094,495.0244 Q472.8906,494.1494 474.0313,493.6806 Q475.1719,493.1962 476.6406,493.1962 Q477.5938,493.1962 478.4844,493.3994 Q479.3906,493.5869 480.3281,494.0556 L479.5,495.8369 Q478.7188,495.4619 478.0625,495.2744 Q477.4063,495.0712 476.6094,495.0712 Z " fill="#000000"/><text fill="#000000" font-family="sans-serif" font-size="14" lengthAdjust="spacing" textLength="67" x="490.5" y="504.972">Hexagone</text><line style="stroke:#181818;stroke-width:0.5;" x1="462.5" x2="559.5" y1="515.54" y2="515.54"/><line style="stroke:#181818;stroke-width:0.5;" x1="462.5" x2="559.5" y1="523.54" y2="523.54"/></g><!--class JeuGUI--><g id="elem_JeuGUI"><rect fill="#F1F1F1" height="48" id="JeuGUI" rx="2.5" ry="2.5" style="stroke:#181818;stroke-width:0.5;" width="78" x="63" y="483.54"/><ellipse cx="78" cy="499.54" fill="#ADD1B2" rx="11" ry="11" style="stroke:#181818;stroke-width:1.0;"/><path d="M78.1094,495.0712 Q77.1875,495.0712 76.4531,495.3837 Q75.7344,495.6962 75.2344,496.29 Q74.7344,496.8681 74.4531,497.7431 Q74.1875,498.6181 74.1875,499.7119 Q74.1875,501.1494 74.625,502.1962 Q75.0781,503.2431 75.9219,503.79 Q76.7813,504.3369 78.0938,504.3369 Q78.875,504.3369 79.5625,504.2119 Q80.2656,504.0712 81.2656,503.7587 L81.2656,505.6337 Q80.4063,505.9619 79.6406,506.0869 Q78.8906,506.2119 77.875,506.2119 Q75.9531,506.2119 74.6406,505.415 Q73.3438,504.6025 72.6875,503.1337 Q72.0313,501.6494 72.0313,499.6806 Q72.0313,498.2587 72.4219,497.0869 Q72.8281,495.8994 73.6094,495.0244 Q74.3906,494.1494 75.5313,493.6806 Q76.6719,493.1962 78.1406,493.1962 Q79.0938,493.1962 79.9844,493.3994 Q80.8906,493.5869 81.8281,494.0556 L81,495.8369 Q80.2188,495.4619 79.5625,495.2744 Q78.9063,495.0712 78.1094,495.0712 Z " fill="#000000"/><text fill="#000000" font-family="sans-serif" font-size="14" lengthAdjust="spacing" textLength="46" x="92" y="504.972">JeuGUI</text><line style="stroke:#181818;stroke-width:0.5;" x1="64" x2="140" y1="515.54" y2="515.54"/><line style="stroke:#181818;stroke-width:0.5;" x1="64" x2="140" y1="523.54" y2="523.54"/></g><!--class MainWindow--><g id="elem_MainWindow"><rect fill="#F1F1F1" height="48" id="MainWindow" rx="2.5" ry="2.5" style="stroke:#181818;stroke-width:0.5;" width="120" x="176" y="483.54"/><ellipse cx="191" cy="499.54" fill="#ADD1B2" rx="11" ry="11" style="stroke:#181818;stroke-width:1.0;"/><path d="M191.1094,495.0712 Q190.1875,495.0712 189.4531,495.3837 Q188.7344,495.6962 188.2344,496.29 Q187.7344,496.8681 187.4531,497.7431 Q187.1875,498.6181 187.1875,499.7119 Q187.1875,501.1494 187.625,502.1962 Q188.0781,503.2431 188.9219,503.79 Q189.7813,504.3369 191.0938,504.3369 Q191.875,504.3369 192.5625,504.2119 Q193.2656,504.0712 194.2656,503.7587 L194.2656,505.6337 Q193.4063,505.9619 192.6406,506.0869 Q191.8906,506.2119 190.875,506.2119 Q188.9531,506.2119 187.6406,505.415 Q186.3438,504.6025 185.6875,503.1337 Q185.0313,501.6494 185.0313,499.6806 Q185.0313,498.2587 185.4219,497.0869 Q185.8281,495.8994 186.6094,495.0244 Q187.3906,494.1494 188.5313,493.6806 Q189.6719,493.1962 191.1406,493.1962 Q192.0938,493.1962 192.9844,493.3994 Q193.8906,493.5869 194.8281,494.0556 L194,495.8369 Q193.2188,495.4619 192.5625,495.2744 Q191.9063,495.0712 191.1094,495.0712 Z " fill="#000000"/><text fill="#000000" font-family="sans-serif" font-size="14" lengthAdjust="spacing" textLength="88" x="205" y="504.972">MainWindow</text><line style="stroke:#181818;stroke-width:0.5;" x1="177" x2="295" y1="515.54" y2="515.54"/><line style="stroke:#181818;stroke-width:0.5;" x1="177" x2="295" y1="523.54" y2="523.54"/></g><!--reverse link QObject to HexagoneGUIObject--><g id="link_QObject_HexagoneGUIObject"><path d="M406.6376,656.4535 C413.1676,672.1135 415.29,677.23 424.49,699.28 " fill="none" id="QObject-backto-HexagoneGUIObject" style="stroke:#181818;stroke-width:1.0;"/><polygon fill="none" points="399.71,639.84,401.0998,658.7627,412.1754,654.1443,399.71,639.84" style="stroke:#181818;stroke-width:1.0;"/></g><!--reverse link QGraphicsItem to HexagoneGUIObject--><g id="link_QGraphicsItem_HexagoneGUIObject"><path d="M518.1503,656.4233 C511.5403,672.0833 509.35,677.23 500.04,699.28 " fill="none" id="QGraphicsItem-backto-HexagoneGUIObject" style="stroke:#181818;stroke-width:1.0;"/><polygon fill="none" points="525.15,639.84,512.6226,654.09,523.6781,658.7565,525.15,639.84" style="stroke:#181818;stroke-width:1.0;"/></g><!--reverse link QGraphicsView to CameraMap--><g id="link_QGraphicsView_CameraMap"><path d="M773.3664,66.3595 C752.8664,82.1395 738.77,93 710.54,114.73 " fill="none" id="QGraphicsView-backto-CameraMap" style="stroke:#181818;stroke-width:1.0;"/><polygon fill="none" points="787.63,55.38,769.7066,61.605,777.0262,71.114,787.63,55.38" style="stroke:#181818;stroke-width:1.0;"/></g><!--reverse link QGraphicsView to ChantierQGraphicsView--><g id="link_QGraphicsView_ChantierQGraphicsView"><path d="M862.807,66.329 C892.597,89.159 924.66,113.72 963.19,143.25 " fill="none" id="QGraphicsView-backto-ChantierQGraphicsView" style="stroke:#181818;stroke-width:1.0;"/><polygon fill="none" points="848.52,55.38,859.1573,71.0914,866.4567,61.5667,848.52,55.38" style="stroke:#181818;stroke-width:1.0;"/></g><!--reverse link QWidget to EcranType--><g id="link_QWidget_EcranType"><path d="M296.0632,236.5497 C280.4532,265.8797 261.91,300.73 242.62,336.97 " fill="none" id="QWidget-backto-EcranType" style="stroke:#181818;stroke-width:1.0;"/><polygon fill="none" points="304.52,220.66,290.7666,233.7308,301.3598,239.3686,304.52,220.66" style="stroke:#181818;stroke-width:1.0;"/></g><!--reverse link QWidget to EcranJeu--><g id="link_QWidget_EcranJeu"><path d="M360.5932,231.663 C382.5832,248.623 399.58,260.45 429,277.41 C467.05,299.34 510.65,319.99 549.35,336.91 " fill="none" id="QWidget-backto-EcranJeu" style="stroke:#181818;stroke-width:1.0;"/><polygon fill="none" points="346.34,220.67,356.9289,236.414,364.2576,226.9119,346.34,220.67" style="stroke:#181818;stroke-width:1.0;"/></g><!--reverse link Affichage to AffichageGUI--><g id="link_Affichage_AffichageGUI"><path d="M337.0459,543.2898 C315.7059,560.9598 300.35,573.68 279.02,591.34 " fill="none" id="Affichage-backto-AffichageGUI" style="stroke:#181818;stroke-width:1.0;"/><polygon fill="none" points="350.91,531.81,333.2193,538.6684,340.8725,547.9112,350.91,531.81" style="stroke:#181818;stroke-width:1.0;"/></g><!--link Hexagone to AffichageGUI--><g id="link_Hexagone_AffichageGUI"><path codeLine="41" d="M461.18,528.86 C417.53,546.65 354.1,572.51 308.35,591.16 " fill="none" id="Hexagone-AffichageGUI" style="stroke:#181818;stroke-width:1.0;"/></g><!--reverse link AffichageGUI to HexagoneGUIObject--><g id="link_AffichageGUI_HexagoneGUIObject"><path codeLine="42" d="M288.7436,647.4436 C307.8636,663.1036 325.13,677.23 352.06,699.28 " fill="none" id="AffichageGUI-backto-HexagoneGUIObject" style="stroke:#181818;stroke-width:1.0;"/><polygon fill="#181818" points="279.46,639.84,281.5673,646.7363,288.7436,647.4436,286.6363,640.5473,279.46,639.84" style="stroke:#181818;stroke-width:1.0;"/></g><!--reverse link JeuGUI to AffichageGUI--><g id="link_JeuGUI_AffichageGUI"><path codeLine="43" d="M144.4789,538.765 C169.2389,556.375 193.32,573.51 218.12,591.15 " fill="none" id="JeuGUI-backto-AffichageGUI" style="stroke:#181818;stroke-width:1.0;"/><polygon fill="#181818" points="134.7,531.81,137.2711,538.5472,144.4789,538.765,141.9078,532.0279,134.7,531.81" style="stroke:#181818;stroke-width:1.0;"/></g><!--link EcranType to MainWindow--><g id="link_EcranType_MainWindow"><path codeLine="45" d="M225.42,423.82 C227.96,443.66 229.3582,454.6369 231.4882,471.2969 " fill="none" id="EcranType-to-MainWindow" style="stroke:#181818;stroke-width:1.0;"/><polygon fill="#181818" points="233.01,483.2,236.2168,476.7412,231.4882,471.2969,228.2814,477.7557,233.01,483.2" style="stroke:#181818;stroke-width:1.0;"/></g><!--link EcranJeu to MainWindow--><g id="link_EcranJeu_MainWindow"><path codeLine="46" d="M512.56,423.99 C438.78,446.02 364.0884,468.3068 307.7884,485.1168 " fill="none" id="EcranJeu-to-MainWindow" style="stroke:#181818;stroke-width:1.0;"/><polygon fill="#181818" points="296.29,488.55,303.1836,490.6662,307.7884,485.1168,300.8948,483.0006,296.29,488.55" style="stroke:#181818;stroke-width:1.0;"/></g><!--link CameraMap to EcranJeu--><g id="link_CameraMap_EcranJeu"><path codeLine="47" d="M627.63,277.68 C633.17,298.28 635.7945,308.0315 640.5745,325.8115 " fill="none" id="CameraMap-to-EcranJeu" style="stroke:#181818;stroke-width:1.0;"/><polygon fill="#181818" points="643.69,337.4,645.9951,330.5672,640.5745,325.8115,638.2694,332.6442,643.69,337.4" style="stroke:#181818;stroke-width:1.0;"/></g><!--link ChantierQGraphicsView to EcranJeu--><g id="link_ChantierQGraphicsView_EcranJeu"><path codeLine="48" d="M923.76,249.19 C866.45,276.97 807.5879,305.5049 753.5479,331.7049 " fill="none" id="ChantierQGraphicsView-to-EcranJeu" style="stroke:#181818;stroke-width:1.0;"/><polygon fill="#181818" points="742.75,336.94,749.894,337.9217,753.5479,331.7049,746.4039,330.7232,742.75,336.94" style="stroke:#181818;stroke-width:1.0;"/></g><!--link EcranJeu to HexagoneGUIObject--><g id="link_EcranJeu_HexagoneGUIObject"><path codeLine="49" d="M657.37,423.77 C658.57,477.07 654.61,570.11 619,639.54 C608,660.99 592.69,681.08 575.91,699.14 " fill="none" id="EcranJeu-HexagoneGUIObject" style="stroke:#181818;stroke-width:1.0;"/></g><!--reverse link MainWindow to AffichageGUI--><g id="link_MainWindow_AffichageGUI"><path codeLine="50" d="M240.9711,543.6917 C243.4711,561.3617 245.22,573.68 247.72,591.34 " fill="none" id="MainWindow-backto-AffichageGUI" style="stroke:#181818;stroke-width:1.0;"/><polygon fill="none" points="239.29,531.81,236.17,538.3112,240.9711,543.6917,244.0911,537.1905,239.29,531.81" style="stroke:#181818;stroke-width:1.0;"/></g><!--reverse link JeuGUI to MainWindow--><g id="link_JeuGUI_MainWindow"><path codeLine="51" d="M153.26,507.54 C164.73,507.54 164.2,507.54 175.68,507.54 " fill="none" id="JeuGUI-backto-MainWindow" style="stroke:#181818;stroke-width:1.0;"/><polygon fill="#181818" points="141.26,507.54,147.26,511.54,153.26,507.54,147.26,503.54,141.26,507.54" style="stroke:#181818;stroke-width:1.0;"/></g><!--SRC=[bPJ9Rjim48RlUee12ZJoXfnwwIrmuZG53DjrsXoA7cXgB36XILKalI38k_JQvyYBTIZ9MbovGNKGICutC_yC5owPCV09zopM2c-_tirMZyWjuDwYYWmiYlaG5hSPInF1pPt53Jm7GDy84jp3nzesr_90SJnI0jfPAHIs86QJ1c4fLTDyJ_E6EM7EeiiwYHmPdAgt8TTE5ZxZOcIkdZATQYdC428qF1Ef5LeHmBKo5epDX8hV3waU4ITUZb1KSwHdbVm2N6ajlt_uqIiphxHJ4Nb-eHQ5lP8XfNu-APcj5X6aZ0A6-H_pMkR5i3y4tPQoMDg3n5c-s6mvaJiHnPZ7VyX7_Lxm4WGyty4nss36fYojT-xe_KtWhjomTx1B4END5aaD-dyUhLhhzqfievt1gTxY2JhrwnteF4DZtc87jShGS6oVYgLVgC0gVnGMyRN9kwQfQvCUF1iHAoPVcdGkuIs-xbV2b1MOjRlqxzxzLwLTySzLFOIqjQj52At6Kl0dAgchW1kUCNL_IB4MNVYNSWSr4HuZ5a6kSQmt6wS4P_wGXIoBtOQqNxjbRYSftkjiqi_epkIyl83ezVTQA941H_dw2noLkzR2m4-7814UlI-TSi_0nMLJAOMjXQAa6qJY9iIPX5h04vA9I-Qs6BCiyatqTx5BvDLwBGYF_NjG2QqMW-3uNC1er6A3bcEVh7yzYm69F1fRha6z7QDH7wPqkn-4YlGkg5fsibvVM6yuKa7tkMmXZOWT2kiKe4zLLkgRGlu0]--></g></svg>