<?xml version="1.0" encoding="us-ascii" standalone="no"?><svg xmlns="http://www.w3.org/2000/svg" xmlns:xlink="http://www.w3.org/1999/xlink" contentStyleType="text/css" height="774px" preserveAspectRatio="none" style="width:1523px;height:774px;background:#FFFFFF;" version="1.1" viewBox="0 0 1523 774" width="1523px" zoomAndPan="magnify"><defs/><g><!--class Affichage--><g id="elem_Affichage"><rect codeLine="2" fill="#F1F1F1" height="181.4754" id="Affichage" rx="2.5" ry="2.5" style="stroke:#181818;stroke-width:0.5;" width="810" x="254.5" y="7"/><ellipse cx="623.25" cy="23" fill="#ADD1B2" rx="11" ry="11" style="stroke:#181818;stroke-width:1.0;"/><path d="M623.3594,18.5313 Q622.4375,18.5313 621.7031,18.8438 Q620.9844,19.1563 620.4844,19.75 Q619.9844,20.3281 619.7031,21.2031 Q619.4375,22.0781 619.4375,23.1719 Q619.4375,24.6094 619.875,25.6563 Q620.3281,26.7031 621.1719,27.25 Q622.0313,27.7969 623.3438,27.7969 Q624.125,27.7969 624.8125,27.6719 Q625.5156,27.5313 626.5156,27.2188 L626.5156,29.0938 Q625.6563,29.4219 624.8906,29.5469 Q624.1406,29.6719 623.125,29.6719 Q621.2031,29.6719 619.8906,28.875 Q618.5938,28.0625 617.9375,26.5938 Q617.2813,25.1094 617.2813,23.1406 Q617.2813,21.7188 617.6719,20.5469 Q618.0781,19.3594 618.8594,18.4844 Q619.6406,17.6094 620.7813,17.1406 Q621.9219,16.6563 623.3906,16.6563 Q624.3438,16.6563 625.2344,16.8594 Q626.1406,17.0469 627.0781,17.5156 L626.25,19.2969 Q625.4688,18.9219 624.8125,18.7344 Q624.1563,18.5313 623.3594,18.5313 Z " fill="#000000"/><text fill="#000000" font-family="sans-serif" font-size="14" lengthAdjust="spacing" textLength="64" x="643.75" y="28.432">Affichage</text><line style="stroke:#181818;stroke-width:0.5;" x1="255.5" x2="1063.5" y1="39" y2="39"/><line style="stroke:#181818;stroke-width:0.5;" x1="255.5" x2="1063.5" y1="47" y2="47"/><polygon fill="#FFFF44" points="265.5,57.034,269.5,61.034,265.5,65.034,261.5,61.034" style="stroke:#B38D22;stroke-width:1.0;"/><text fill="#000000" font-family="sans-serif" font-size="14" lengthAdjust="spacing" textLength="655" x="274.5" y="65.9659">affiche_joueur(joueur : Joueur&amp;, selectHexagone : bool, selectedHexagone : Vector2) {pure virtual}</text><polygon fill="#FFFF44" points="265.5,76.1019,269.5,80.1019,265.5,84.1019,261.5,80.1019" style="stroke:#B38D22;stroke-width:1.0;"/><text fill="#000000" font-family="sans-serif" font-size="14" lengthAdjust="spacing" textLength="784" x="274.5" y="85.0339">affiche_container(container : HexagoneContainer&amp;, selectHexagone : bool, selectedHexagone : Vector2) {pure virtual}</text><text fill="#000000" font-family="sans-serif" font-size="14" lengthAdjust="spacing" textLength="4" x="274.5" y="104.1018">&#160;</text><ellipse cx="265.5" cy="119.2377" fill="#84BE84" rx="3" ry="3" style="stroke:#038048;stroke-width:1.0;"/><text fill="#000000" font-family="sans-serif" font-size="14" lengthAdjust="spacing" textLength="343" x="274.5" y="123.1697">affiche_container(container : HexagoneContainer&amp;)</text><ellipse cx="265.5" cy="138.3056" fill="#84BE84" rx="3" ry="3" style="stroke:#038048;stroke-width:1.0;"/><text fill="#000000" font-family="sans-serif" font-size="14" lengthAdjust="spacing" textLength="536" x="274.5" y="142.2376">affiche_container(container : HexagoneContainer&amp;, selectedHexagone : Vector2)</text><ellipse cx="265.5" cy="157.3735" fill="#84BE84" rx="3" ry="3" style="stroke:#038048;stroke-width:1.0;"/><text fill="#000000" font-family="sans-serif" font-size="14" lengthAdjust="spacing" textLength="214" x="274.5" y="161.3055">affiche_joueur(joueur : Joueur&amp;)</text><ellipse cx="265.5" cy="176.4415" fill="#84BE84" rx="3" ry="3" style="stroke:#038048;stroke-width:1.0;"/><text fill="#000000" font-family="sans-serif" font-size="14" lengthAdjust="spacing" textLength="407" x="274.5" y="180.3734">affiche_joueur(joueur : Joueur&amp;, selectedHexagone : Vector2)</text></g><!--class AffichageConsole--><g id="elem_AffichageConsole"><rect codeLine="12" fill="#F1F1F1" height="181.4754" id="AffichageConsole" rx="2.5" ry="2.5" style="stroke:#181818;stroke-width:0.5;" width="717" x="9" y="354.35"/><ellipse cx="304.75" cy="370.35" fill="#ADD1B2" rx="11" ry="11" style="stroke:#181818;stroke-width:1.0;"/><path d="M304.8594,365.8813 Q303.9375,365.8813 303.2031,366.1938 Q302.4844,366.5063 301.9844,367.1 Q301.4844,367.6781 301.2031,368.5531 Q300.9375,369.4281 300.9375,370.5219 Q300.9375,371.9594 301.375,373.0063 Q301.8281,374.0531 302.6719,374.6 Q303.5313,375.1469 304.8438,375.1469 Q305.625,375.1469 306.3125,375.0219 Q307.0156,374.8813 308.0156,374.5688 L308.0156,376.4438 Q307.1563,376.7719 306.3906,376.8969 Q305.6406,377.0219 304.625,377.0219 Q302.7031,377.0219 301.3906,376.225 Q300.0938,375.4125 299.4375,373.9438 Q298.7813,372.4594 298.7813,370.4906 Q298.7813,369.0688 299.1719,367.8969 Q299.5781,366.7094 300.3594,365.8344 Q301.1406,364.9594 302.2813,364.4906 Q303.4219,364.0063 304.8906,364.0063 Q305.8438,364.0063 306.7344,364.2094 Q307.6406,364.3969 308.5781,364.8656 L307.75,366.6469 Q306.9688,366.2719 306.3125,366.0844 Q305.6563,365.8813 304.8594,365.8813 Z " fill="#000000"/><text fill="#000000" font-family="sans-serif" font-size="14" lengthAdjust="spacing" textLength="117" x="325.25" y="375.782">AffichageConsole</text><line style="stroke:#181818;stroke-width:0.5;" x1="10" x2="725" y1="386.35" y2="386.35"/><text fill="#000000" font-family="sans-serif" font-size="14" lengthAdjust="spacing" text-decoration="underline" textLength="194" x="15" y="405.3159">instance : AffichageConsole*</text><line style="stroke:#181818;stroke-width:0.5;" x1="10" x2="725" y1="413.4179" y2="413.4179"/><ellipse cx="20" cy="428.4519" fill="#84BE84" rx="3" ry="3" style="stroke:#038048;stroke-width:1.0;"/><text fill="#000000" font-family="sans-serif" font-size="14" lengthAdjust="spacing" text-decoration="underline" textLength="225" x="29" y="432.3839">getInstance() : AffichageConsole*</text><text fill="#000000" font-family="sans-serif" font-size="14" lengthAdjust="spacing" textLength="4" x="29" y="451.4518">&#160;</text><rect fill="#F24D5C" height="6" style="stroke:#C82930;stroke-width:1.0;" width="6" x="17" y="463.5877"/><text fill="#000000" font-family="sans-serif" font-size="14" lengthAdjust="spacing" textLength="125" x="29" y="470.5197">AffichageConsole()</text><text fill="#000000" font-family="sans-serif" font-size="14" lengthAdjust="spacing" textLength="4" x="29" y="489.5876">&#160;</text><polygon fill="#FFFF44" points="20,499.7235,24,503.7235,20,507.7235,16,503.7235" style="stroke:#B38D22;stroke-width:1.0;"/><text fill="#000000" font-family="sans-serif" font-size="14" lengthAdjust="spacing" textLength="562" x="29" y="508.6555">affiche_joueur(joueur : Joueur&amp;, selectHexagone : bool, selectedHexagone : Vector2)</text><polygon fill="#FFFF44" points="20,518.7915,24,522.7915,20,526.7915,16,522.7915" style="stroke:#B38D22;stroke-width:1.0;"/><text fill="#000000" font-family="sans-serif" font-size="14" lengthAdjust="spacing" textLength="691" x="29" y="527.7234">affiche_container(container : HexagoneContainer&amp;, selectHexagone : bool, selectedHexagone : Vector2)</text></g><g id="elem_GMN5"><path d="M304,729.85 L304,757.556 A0,0 0 0 0 304,757.556 L431,757.556 A0,0 0 0 0 431,757.556 L431,739.85 L421,729.85 L371.5,729.85 L367.5,536.29 L363.5,729.85 L304,729.85 A0,0 0 0 0 304,729.85 " fill="#FEFFDD" style="stroke:#181818;stroke-width:0.5;"/><path d="M421,729.85 L421,739.85 L431,739.85 L421,729.85 " fill="#FEFFDD" style="stroke:#181818;stroke-width:0.5;"/><text fill="#000000" font-family="sans-serif" font-size="13" lengthAdjust="spacing" textLength="106" x="310" y="748.747">"Est un singleton"</text></g><!--class AffichageGUI--><g id="elem_AffichageGUI"><rect codeLine="25" fill="#F1F1F1" height="391.2225" id="AffichageGUI" rx="2.5" ry="2.5" style="stroke:#181818;stroke-width:0.5;" width="756" x="760.5" y="249.48"/><ellipse cx="1089.75" cy="265.48" fill="#ADD1B2" rx="11" ry="11" style="stroke:#181818;stroke-width:1.0;"/><path d="M1089.8594,261.0113 Q1088.9375,261.0113 1088.2031,261.3238 Q1087.4844,261.6363 1086.9844,262.23 Q1086.4844,262.8081 1086.2031,263.6831 Q1085.9375,264.5581 1085.9375,265.6519 Q1085.9375,267.0894 1086.375,268.1363 Q1086.8281,269.1831 1087.6719,269.73 Q1088.5313,270.2769 1089.8438,270.2769 Q1090.625,270.2769 1091.3125,270.1519 Q1092.0156,270.0113 1093.0156,269.6988 L1093.0156,271.5738 Q1092.1563,271.9019 1091.3906,272.0269 Q1090.6406,272.1519 1089.625,272.1519 Q1087.7031,272.1519 1086.3906,271.355 Q1085.0938,270.5425 1084.4375,269.0738 Q1083.7813,267.5894 1083.7813,265.6206 Q1083.7813,264.1988 1084.1719,263.0269 Q1084.5781,261.8394 1085.3594,260.9644 Q1086.1406,260.0894 1087.2813,259.6206 Q1088.4219,259.1363 1089.8906,259.1363 Q1090.8438,259.1363 1091.7344,259.3394 Q1092.6406,259.5269 1093.5781,259.9956 L1092.75,261.7769 Q1091.9688,261.4019 1091.3125,261.2144 Q1090.6563,261.0113 1089.8594,261.0113 Z " fill="#000000"/><text fill="#000000" font-family="sans-serif" font-size="14" lengthAdjust="spacing" textLength="89" x="1110.25" y="270.912">AffichageGUI</text><line style="stroke:#181818;stroke-width:0.5;" x1="761.5" x2="1515.5" y1="281.48" y2="281.48"/><rect fill="none" height="6" style="stroke:#C82930;stroke-width:1.0;" width="6" x="768.5" y="293.514"/><text fill="#000000" font-family="sans-serif" font-size="14" lengthAdjust="spacing" textLength="200" x="780.5" y="300.4459">sceneMap : QGraphicsScene*</text><rect fill="none" height="6" style="stroke:#C82930;stroke-width:1.0;" width="6" x="768.5" y="312.5819"/><text fill="#000000" font-family="sans-serif" font-size="14" lengthAdjust="spacing" textLength="132" x="780.5" y="319.5139">labelNom : QLabel*</text><rect fill="none" height="6" style="stroke:#C82930;stroke-width:1.0;" width="6" x="768.5" y="331.6498"/><text fill="#000000" font-family="sans-serif" font-size="14" lengthAdjust="spacing" textLength="137" x="780.5" y="338.5818">labelScore : QLabel*</text><rect fill="none" height="6" style="stroke:#C82930;stroke-width:1.0;" width="6" x="768.5" y="350.7177"/><text fill="#000000" font-family="sans-serif" font-size="14" lengthAdjust="spacing" textLength="140" x="780.5" y="357.6497">labelPierre : QLabel*</text><line style="stroke:#181818;stroke-width:0.5;" x1="761.5" x2="1515.5" y1="365.7517" y2="365.7517"/><polygon fill="#FFFF44" points="771.5,375.7856,775.5,379.7856,771.5,383.7856,767.5,379.7856" style="stroke:#B38D22;stroke-width:1.0;"/><text fill="#000000" font-family="sans-serif" font-size="14" lengthAdjust="spacing" textLength="562" x="780.5" y="384.7176">affiche_joueur(joueur : Joueur&amp;, selectHexagone : bool, selectedHexagone : Vector2)</text><polygon fill="#FFFF44" points="771.5,394.8535,775.5,398.8535,771.5,402.8535,767.5,398.8535" style="stroke:#B38D22;stroke-width:1.0;"/><text fill="#000000" font-family="sans-serif" font-size="14" lengthAdjust="spacing" textLength="691" x="780.5" y="403.7855">affiche_container(container : HexagoneContainer&amp;, selectHexagone : bool, selectedHexagone : Vector2)</text><text fill="#000000" font-family="sans-serif" font-size="14" lengthAdjust="spacing" textLength="4" x="780.5" y="422.8534">&#160;</text><ellipse cx="771.5" cy="437.9894" fill="#84BE84" rx="3" ry="3" style="stroke:#038048;stroke-width:1.0;"/><text fill="#000000" font-family="sans-serif" font-size="14" lengthAdjust="spacing" textLength="97" x="780.5" y="441.9214">AffichageGUI()</text><ellipse cx="771.5" cy="457.0573" fill="#84BE84" rx="3" ry="3" style="stroke:#038048;stroke-width:1.0;"/><text fill="#000000" font-family="sans-serif" font-size="14" lengthAdjust="spacing" textLength="326" x="780.5" y="460.9893">AffichageGUI(newSceneMap : QGraphicsScene*)</text><ellipse cx="771.5" cy="476.1252" fill="#84BE84" rx="3" ry="3" style="stroke:#038048;stroke-width:1.0;"/><text fill="#000000" font-family="sans-serif" font-size="14" lengthAdjust="spacing" textLength="730" x="780.5" y="480.0572">AffichageGUI(sceneMap : QGraphicsScene*, labelNom : QLabel*, labelScore : QLabel*, labelPierre : QLabel*)</text><text fill="#000000" font-family="sans-serif" font-size="14" lengthAdjust="spacing" textLength="4" x="780.5" y="499.1251">&#160;</text><ellipse cx="771.5" cy="514.261" fill="#84BE84" rx="3" ry="3" style="stroke:#038048;stroke-width:1.0;"/><text fill="#000000" font-family="sans-serif" font-size="14" lengthAdjust="spacing" textLength="570" x="780.5" y="518.193">getContainerGraphicsItem(container : HexagoneContainer&amp;) : QGraphicsItemGroup*</text><ellipse cx="771.5" cy="533.329" fill="#84BE84" rx="3" ry="3" style="stroke:#038048;stroke-width:1.0;"/><text fill="#000000" font-family="sans-serif" font-size="14" lengthAdjust="spacing" textLength="340" x="780.5" y="537.2609">clearAffichage() {if (sceneMap) sceneMap-&gt;clear();}</text><text fill="#000000" font-family="sans-serif" font-size="14" lengthAdjust="spacing" textLength="4" x="780.5" y="556.3289">&#160;</text><ellipse cx="771.5" cy="571.4648" fill="#84BE84" rx="3" ry="3" style="stroke:#038048;stroke-width:1.0;"/><text fill="#000000" font-family="sans-serif" font-size="14" lengthAdjust="spacing" textLength="327" x="780.5" y="575.3968">setSceneMap(newSceneMap : QGraphicsScene*)</text><ellipse cx="771.5" cy="590.5327" fill="#84BE84" rx="3" ry="3" style="stroke:#038048;stroke-width:1.0;"/><text fill="#000000" font-family="sans-serif" font-size="14" lengthAdjust="spacing" textLength="256" x="780.5" y="594.4647">setLabelNom(newlabelNom : QLabel*)</text><ellipse cx="771.5" cy="609.6006" fill="#84BE84" rx="3" ry="3" style="stroke:#038048;stroke-width:1.0;"/><text fill="#000000" font-family="sans-serif" font-size="14" lengthAdjust="spacing" textLength="266" x="780.5" y="613.5326">setLabelScore(newlabelScore : QLabel*)</text><ellipse cx="771.5" cy="628.6685" fill="#84BE84" rx="3" ry="3" style="stroke:#038048;stroke-width:1.0;"/><text fill="#000000" font-family="sans-serif" font-size="14" lengthAdjust="spacing" textLength="272" x="780.5" y="632.6005">setLabelPierre(newlabelPierre : QLabel*)</text></g><!--class Hexagone--><g id="elem_Hexagone"><rect fill="#F1F1F1" height="48" id="Hexagone" rx="2.5" ry="2.5" style="stroke:#181818;stroke-width:0.5;" width="99" x="731" y="719.7"/><ellipse cx="746" cy="735.7" fill="#ADD1B2" rx="11" ry="11" style="stroke:#181818;stroke-width:1.0;"/><path d="M746.1094,731.2313 Q745.1875,731.2313 744.4531,731.5438 Q743.7344,731.8563 743.2344,732.45 Q742.7344,733.0281 742.4531,733.9031 Q742.1875,734.7781 742.1875,735.8719 Q742.1875,737.3094 742.625,738.3563 Q743.0781,739.4031 743.9219,739.95 Q744.7813,740.4969 746.0938,740.4969 Q746.875,740.4969 747.5625,740.3719 Q748.2656,740.2313 749.2656,739.9188 L749.2656,741.7938 Q748.4063,742.1219 747.6406,742.2469 Q746.8906,742.3719 745.875,742.3719 Q743.9531,742.3719 742.6406,741.575 Q741.3438,740.7625 740.6875,739.2938 Q740.0313,737.8094 740.0313,735.8406 Q740.0313,734.4188 740.4219,733.2469 Q740.8281,732.0594 741.6094,731.1844 Q742.3906,730.3094 743.5313,729.8406 Q744.6719,729.3563 746.1406,729.3563 Q747.0938,729.3563 747.9844,729.5594 Q748.8906,729.7469 749.8281,730.2156 L749,731.9969 Q748.2188,731.6219 747.5625,731.4344 Q746.9063,731.2313 746.1094,731.2313 Z " fill="#000000"/><text fill="#000000" font-family="sans-serif" font-size="14" lengthAdjust="spacing" textLength="67" x="760" y="741.132">Hexagone</text><line style="stroke:#181818;stroke-width:0.5;" x1="732" x2="829" y1="751.7" y2="751.7"/><line style="stroke:#181818;stroke-width:0.5;" x1="732" x2="829" y1="759.7" y2="759.7"/></g><!--class CameraMap--><g id="elem_CameraMap"><rect fill="#F1F1F1" height="48" id="CameraMap" rx="2.5" ry="2.5" style="stroke:#181818;stroke-width:0.5;" width="114" x="1169.5" y="719.7"/><ellipse cx="1184.5" cy="735.7" fill="#ADD1B2" rx="11" ry="11" style="stroke:#181818;stroke-width:1.0;"/><path d="M1184.6094,731.2313 Q1183.6875,731.2313 1182.9531,731.5438 Q1182.2344,731.8563 1181.7344,732.45 Q1181.2344,733.0281 1180.9531,733.9031 Q1180.6875,734.7781 1180.6875,735.8719 Q1180.6875,737.3094 1181.125,738.3563 Q1181.5781,739.4031 1182.4219,739.95 Q1183.2813,740.4969 1184.5938,740.4969 Q1185.375,740.4969 1186.0625,740.3719 Q1186.7656,740.2313 1187.7656,739.9188 L1187.7656,741.7938 Q1186.9063,742.1219 1186.1406,742.2469 Q1185.3906,742.3719 1184.375,742.3719 Q1182.4531,742.3719 1181.1406,741.575 Q1179.8438,740.7625 1179.1875,739.2938 Q1178.5313,737.8094 1178.5313,735.8406 Q1178.5313,734.4188 1178.9219,733.2469 Q1179.3281,732.0594 1180.1094,731.1844 Q1180.8906,730.3094 1182.0313,729.8406 Q1183.1719,729.3563 1184.6406,729.3563 Q1185.5938,729.3563 1186.4844,729.5594 Q1187.3906,729.7469 1188.3281,730.2156 L1187.5,731.9969 Q1186.7188,731.6219 1186.0625,731.4344 Q1185.4063,731.2313 1184.6094,731.2313 Z " fill="#000000"/><text fill="#000000" font-family="sans-serif" font-size="14" lengthAdjust="spacing" textLength="82" x="1198.5" y="741.132">CameraMap</text><line style="stroke:#181818;stroke-width:0.5;" x1="1170.5" x2="1282.5" y1="751.7" y2="751.7"/><line style="stroke:#181818;stroke-width:0.5;" x1="1170.5" x2="1282.5" y1="759.7" y2="759.7"/></g><!--class HexagoneGUIObject--><g id="elem_HexagoneGUIObject"><rect fill="#F1F1F1" height="48" id="HexagoneGUIObject" rx="2.5" ry="2.5" style="stroke:#181818;stroke-width:0.5;" width="168" x="966.5" y="719.7"/><ellipse cx="981.5" cy="735.7" fill="#ADD1B2" rx="11" ry="11" style="stroke:#181818;stroke-width:1.0;"/><path d="M981.6094,731.2313 Q980.6875,731.2313 979.9531,731.5438 Q979.2344,731.8563 978.7344,732.45 Q978.2344,733.0281 977.9531,733.9031 Q977.6875,734.7781 977.6875,735.8719 Q977.6875,737.3094 978.125,738.3563 Q978.5781,739.4031 979.4219,739.95 Q980.2813,740.4969 981.5938,740.4969 Q982.375,740.4969 983.0625,740.3719 Q983.7656,740.2313 984.7656,739.9188 L984.7656,741.7938 Q983.9063,742.1219 983.1406,742.2469 Q982.3906,742.3719 981.375,742.3719 Q979.4531,742.3719 978.1406,741.575 Q976.8438,740.7625 976.1875,739.2938 Q975.5313,737.8094 975.5313,735.8406 Q975.5313,734.4188 975.9219,733.2469 Q976.3281,732.0594 977.1094,731.1844 Q977.8906,730.3094 979.0313,729.8406 Q980.1719,729.3563 981.6406,729.3563 Q982.5938,729.3563 983.4844,729.5594 Q984.3906,729.7469 985.3281,730.2156 L984.5,731.9969 Q983.7188,731.6219 983.0625,731.4344 Q982.4063,731.2313 981.6094,731.2313 Z " fill="#000000"/><text fill="#000000" font-family="sans-serif" font-size="14" lengthAdjust="spacing" textLength="136" x="995.5" y="741.132">HexagoneGUIObject</text><line style="stroke:#181818;stroke-width:0.5;" x1="967.5" x2="1133.5" y1="751.7" y2="751.7"/><line style="stroke:#181818;stroke-width:0.5;" x1="967.5" x2="1133.5" y1="759.7" y2="759.7"/></g><!--class JeuConsole--><g id="elem_JeuConsole"><rect fill="#F1F1F1" height="48" id="JeuConsole" rx="2.5" ry="2.5" style="stroke:#181818;stroke-width:0.5;" width="106" x="113.5" y="73.74"/><ellipse cx="128.5" cy="89.74" fill="#ADD1B2" rx="11" ry="11" style="stroke:#181818;stroke-width:1.0;"/><path d="M128.6094,85.2713 Q127.6875,85.2713 126.9531,85.5838 Q126.2344,85.8963 125.7344,86.49 Q125.2344,87.0681 124.9531,87.9431 Q124.6875,88.8181 124.6875,89.9119 Q124.6875,91.3494 125.125,92.3963 Q125.5781,93.4431 126.4219,93.99 Q127.2813,94.5369 128.5938,94.5369 Q129.375,94.5369 130.0625,94.4119 Q130.7656,94.2713 131.7656,93.9588 L131.7656,95.8338 Q130.9063,96.1619 130.1406,96.2869 Q129.3906,96.4119 128.375,96.4119 Q126.4531,96.4119 125.1406,95.615 Q123.8438,94.8025 123.1875,93.3338 Q122.5313,91.8494 122.5313,89.8806 Q122.5313,88.4588 122.9219,87.2869 Q123.3281,86.0994 124.1094,85.2244 Q124.8906,84.3494 126.0313,83.8806 Q127.1719,83.3963 128.6406,83.3963 Q129.5938,83.3963 130.4844,83.5994 Q131.3906,83.7869 132.3281,84.2556 L131.5,86.0369 Q130.7188,85.6619 130.0625,85.4744 Q129.4063,85.2713 128.6094,85.2713 Z " fill="#000000"/><text fill="#000000" font-family="sans-serif" font-size="14" lengthAdjust="spacing" textLength="74" x="142.5" y="95.172">JeuConsole</text><line style="stroke:#181818;stroke-width:0.5;" x1="114.5" x2="218.5" y1="105.74" y2="105.74"/><line style="stroke:#181818;stroke-width:0.5;" x1="114.5" x2="218.5" y1="113.74" y2="113.74"/></g><!--class EcranJeu--><g id="elem_EcranJeu"><rect fill="#F1F1F1" height="48" id="EcranJeu" rx="2.5" ry="2.5" style="stroke:#181818;stroke-width:0.5;" width="91" x="1212" y="73.74"/><ellipse cx="1227" cy="89.74" fill="#ADD1B2" rx="11" ry="11" style="stroke:#181818;stroke-width:1.0;"/><path d="M1227.1094,85.2713 Q1226.1875,85.2713 1225.4531,85.5838 Q1224.7344,85.8963 1224.2344,86.49 Q1223.7344,87.0681 1223.4531,87.9431 Q1223.1875,88.8181 1223.1875,89.9119 Q1223.1875,91.3494 1223.625,92.3963 Q1224.0781,93.4431 1224.9219,93.99 Q1225.7813,94.5369 1227.0938,94.5369 Q1227.875,94.5369 1228.5625,94.4119 Q1229.2656,94.2713 1230.2656,93.9588 L1230.2656,95.8338 Q1229.4063,96.1619 1228.6406,96.2869 Q1227.8906,96.4119 1226.875,96.4119 Q1224.9531,96.4119 1223.6406,95.615 Q1222.3438,94.8025 1221.6875,93.3338 Q1221.0313,91.8494 1221.0313,89.8806 Q1221.0313,88.4588 1221.4219,87.2869 Q1221.8281,86.0994 1222.6094,85.2244 Q1223.3906,84.3494 1224.5313,83.8806 Q1225.6719,83.3963 1227.1406,83.3963 Q1228.0938,83.3963 1228.9844,83.5994 Q1229.8906,83.7869 1230.8281,84.2556 L1230,86.0369 Q1229.2188,85.6619 1228.5625,85.4744 Q1227.9063,85.2713 1227.1094,85.2713 Z " fill="#000000"/><text fill="#000000" font-family="sans-serif" font-size="14" lengthAdjust="spacing" textLength="59" x="1241" y="95.172">EcranJeu</text><line style="stroke:#181818;stroke-width:0.5;" x1="1213" x2="1302" y1="105.74" y2="105.74"/><line style="stroke:#181818;stroke-width:0.5;" x1="1213" x2="1302" y1="113.74" y2="113.74"/></g><!--class JeuGUI--><g id="elem_JeuGUI"><rect fill="#F1F1F1" height="48" id="JeuGUI" rx="2.5" ry="2.5" style="stroke:#181818;stroke-width:0.5;" width="78" x="1099.5" y="73.74"/><ellipse cx="1114.5" cy="89.74" fill="#ADD1B2" rx="11" ry="11" style="stroke:#181818;stroke-width:1.0;"/><path d="M1114.6094,85.2713 Q1113.6875,85.2713 1112.9531,85.5838 Q1112.2344,85.8963 1111.7344,86.49 Q1111.2344,87.0681 1110.9531,87.9431 Q1110.6875,88.8181 1110.6875,89.9119 Q1110.6875,91.3494 1111.125,92.3963 Q1111.5781,93.4431 1112.4219,93.99 Q1113.2813,94.5369 1114.5938,94.5369 Q1115.375,94.5369 1116.0625,94.4119 Q1116.7656,94.2713 1117.7656,93.9588 L1117.7656,95.8338 Q1116.9063,96.1619 1116.1406,96.2869 Q1115.3906,96.4119 1114.375,96.4119 Q1112.4531,96.4119 1111.1406,95.615 Q1109.8438,94.8025 1109.1875,93.3338 Q1108.5313,91.8494 1108.5313,89.8806 Q1108.5313,88.4588 1108.9219,87.2869 Q1109.3281,86.0994 1110.1094,85.2244 Q1110.8906,84.3494 1112.0313,83.8806 Q1113.1719,83.3963 1114.6406,83.3963 Q1115.5938,83.3963 1116.4844,83.5994 Q1117.3906,83.7869 1118.3281,84.2556 L1117.5,86.0369 Q1116.7188,85.6619 1116.0625,85.4744 Q1115.4063,85.2713 1114.6094,85.2713 Z " fill="#000000"/><text fill="#000000" font-family="sans-serif" font-size="14" lengthAdjust="spacing" textLength="46" x="1128.5" y="95.172">JeuGUI</text><line style="stroke:#181818;stroke-width:0.5;" x1="1100.5" x2="1176.5" y1="105.74" y2="105.74"/><line style="stroke:#181818;stroke-width:0.5;" x1="1100.5" x2="1176.5" y1="113.74" y2="113.74"/></g><!--reverse link Affichage to AffichageConsole--><g id="link_Affichage_AffichageConsole"><path d="M571.9191,202.3161 C528.8291,253.2861 486.69,303.12 443.58,354.1 " fill="none" id="Affichage-backto-AffichageConsole" style="stroke:#181818;stroke-width:1.0;"/><polygon fill="none" points="583.54,188.57,567.3371,198.4424,576.5011,206.1897,583.54,188.57" style="stroke:#181818;stroke-width:1.0;"/></g><!--reverse link Affichage to AffichageGUI--><g id="link_Affichage_AffichageGUI"><path d="M799.0105,199.3274 C825.0705,218.1174 838.89,228.08 867.94,249.02 " fill="none" id="Affichage-backto-AffichageGUI" style="stroke:#181818;stroke-width:1.0;"/><polygon fill="none" points="784.41,188.8,795.5014,204.1942,802.5196,194.4605,784.41,188.8" style="stroke:#181818;stroke-width:1.0;"/></g><!--link AffichageConsole to Hexagone--><g id="link_AffichageConsole_Hexagone"><path codeLine="47" d="M470.05,536.28 C527.89,584.85 602.77,644 674.5,689.7 C692.11,700.92 712.42,711.57 730.52,720.35 " fill="none" id="AffichageConsole-Hexagone" style="stroke:#181818;stroke-width:1.0;"/><text fill="#000000" font-family="sans-serif" font-size="13" lengthAdjust="spacing" textLength="164" x="675.5" y="685.597">Hexagone.affiche_console()</text></g><!--link AffichageGUI to Hexagone--><g id="link_AffichageGUI_Hexagone"><path codeLine="48" d="M903.2,641.04 C865.37,672.38 831.28,700.63 808.69,719.35 " fill="none" id="AffichageGUI-Hexagone" style="stroke:#181818;stroke-width:1.0;"/><text fill="#000000" font-family="sans-serif" font-size="13" lengthAdjust="spacing" textLength="141" x="868.02" y="685.597">Hexagone.affiche_GUI()</text></g><!--reverse link AffichageGUI to CameraMap--><g id="link_AffichageGUI_CameraMap"><path codeLine="49" d="M1199.7538,652.5442 C1209.0538,683.8842 1214.02,700.63 1219.57,719.35 " fill="none" id="AffichageGUI-backto-CameraMap" style="stroke:#181818;stroke-width:1.0;"/><polygon fill="none" points="1196.34,641.04,1194.2122,647.93,1199.7538,652.5442,1201.8816,645.6541,1196.34,641.04" style="stroke:#181818;stroke-width:1.0;"/></g><!--reverse link AffichageGUI to HexagoneGUIObject--><g id="link_AffichageGUI_HexagoneGUIObject"><path codeLine="50" d="M1077.2462,652.5442 C1067.9462,683.8842 1062.98,700.63 1057.43,719.35 " fill="none" id="AffichageGUI-backto-HexagoneGUIObject" style="stroke:#181818;stroke-width:1.0;"/><polygon fill="#181818" points="1080.66,641.04,1075.1184,645.6541,1077.2462,652.5442,1082.7878,647.93,1080.66,641.04" style="stroke:#181818;stroke-width:1.0;"/></g><!--reverse link JeuConsole to AffichageConsole--><g id="link_JeuConsole_AffichageConsole"><path codeLine="52" d="M186.1969,132.5809 C213.4569,179.4109 269.84,276.3 315.16,354.16 " fill="none" id="JeuConsole-backto-AffichageConsole" style="stroke:#181818;stroke-width:1.0;"/><polygon fill="none" points="180.16,122.21,179.7215,129.4078,186.1969,132.5809,186.6354,125.3831,180.16,122.21" style="stroke:#181818;stroke-width:1.0;"/></g><!--reverse link EcranJeu to AffichageGUI--><g id="link_EcranJeu_AffichageGUI"><path codeLine="53" d="M1245.5018,133.5557 C1236.0118,161.1057 1223.22,198.23 1205.61,249.32 " fill="none" id="EcranJeu-backto-AffichageGUI" style="stroke:#181818;stroke-width:1.0;"/><polygon fill="none" points="1249.41,122.21,1243.674,126.5801,1245.5018,133.5557,1251.2378,129.1856,1249.41,122.21" style="stroke:#181818;stroke-width:1.0;"/></g><!--reverse link JeuGUI to AffichageGUI--><g id="link_JeuGUI_AffichageGUI"><path codeLine="54" d="M1138.5,134.21 C1138.5,161.76 1138.5,198.23 1138.5,249.32 " fill="none" id="JeuGUI-backto-AffichageGUI" style="stroke:#181818;stroke-width:1.0;"/><polygon fill="#181818" points="1138.5,122.21,1134.5,128.21,1138.5,134.21,1142.5,128.21,1138.5,122.21" style="stroke:#181818;stroke-width:1.0;"/></g><!--SRC=[tLHDJyCm3BttLrWWeNQi73Y2X8GG6aDyQe8hoe8tWh9aIb90clZlk5qJ-ZKO23YmorBxFTjvjiCbinOE9nF17zWKOH41_JQ15HQyUzGPPYPU_i4Ud1Q7hJvObCZT2RwmgLP8dh7MqflnlkAu9OCskmaivfb1U1B6PKo-DX9nhHmJ2aqSJiJrOOwyxKSo5wctlvmw-IRlmzeQCLVelIRiuqnqSLvlDzLejKJ05uVglZq7Gbd75C-ZD3azM93F2HxadA8RblWuMOEHjX1n4ltU-FtXl97IIZiae7DwjWSRnzP1fi0ADPNejDg8MgqOt0nNjY45or7XEPjJakk1OVC7mUqej_LAW6HZb1TwbWFEydFDCUBQOBVhIg2f-Vv71ygPhCeR9rr6XS-ZbU9sCbRtej_HXdvd1_hTuY_plUzJ4C7d6JgSVVPALUlAyGEZitdFH-KIcGdteKLTY0c4EoLXqjA30Xad-s71BJelrNgo4U6i52GdjCLf0WkL0hIXMHEy52-WsrfIuQsNBasXCYx-k5EPoV8XgYtc9wpbSDKOcYX7R8Q6aK9rLwyIZRulnuyqj55qYfalCYStAu-EkM6AG7Kl1SYPFcxD_WO0]--></g></svg>