<?xml version="1.0" encoding="us-ascii" standalone="no"?><svg xmlns="http://www.w3.org/2000/svg" xmlns:xlink="http://www.w3.org/1999/xlink" contentStyleType="text/css" height="659px" preserveAspectRatio="none" style="width:784px;height:659px;background:#FFFFFF;" version="1.1" viewBox="0 0 784 659" width="784px" zoomAndPan="magnify"><defs/><g><!--class Serialisable--><g id="elem_Serialisable"><rect codeLine="2" fill="#F1F1F1" height="48" id="Serialisable" rx="2.5" ry="2.5" style="stroke:#181818;stroke-width:0.5;" width="105" x="292" y="7"/><ellipse cx="307" cy="23" fill="#A9DCDF" rx="11" ry="11" style="stroke:#181818;stroke-width:1.0;"/><path d="M310.3438,28.25 L308.875,24.5 L304.4375,24.5 L303,28.25 L300.875,28.25 L305.8281,15.5313 L307.5781,15.5313 L312.5,28.25 L310.3438,28.25 Z M307,19.2969 Q306.9531,19.1406 306.8281,18.7813 Q306.7031,18.4219 306.5938,18.0469 Q306.4844,17.6563 306.6875,17.5938 Q306.8438,17.7813 306.75,18.1406 Q306.6563,18.4844 306.5625,18.7813 Q306.4688,19.0625 306.3906,19.2969 L305.1563,22.6094 L308.2344,22.6094 L307,19.2969 Z " fill="#000000"/><text fill="#000000" font-family="sans-serif" font-size="14" font-style="italic" lengthAdjust="spacing" textLength="73" x="321" y="28.432">Serialisable</text><line style="stroke:#181818;stroke-width:0.5;" x1="293" x2="396" y1="39" y2="39"/><line style="stroke:#181818;stroke-width:0.5;" x1="293" x2="396" y1="47" y2="47"/></g><!--class Chantier--><g id="elem_Chantier"><rect codeLine="3" fill="#F1F1F1" height="429.3583" id="Chantier" rx="2.5" ry="2.5" style="stroke:#181818;stroke-width:0.5;" width="499" x="95" y="115"/><ellipse cx="311.25" cy="131" fill="#ADD1B2" rx="11" ry="11" style="stroke:#181818;stroke-width:1.0;"/><path d="M311.3594,126.5313 Q310.4375,126.5313 309.7031,126.8438 Q308.9844,127.1563 308.4844,127.75 Q307.9844,128.3281 307.7031,129.2031 Q307.4375,130.0781 307.4375,131.1719 Q307.4375,132.6094 307.875,133.6563 Q308.3281,134.7031 309.1719,135.25 Q310.0313,135.7969 311.3438,135.7969 Q312.125,135.7969 312.8125,135.6719 Q313.5156,135.5313 314.5156,135.2188 L314.5156,137.0938 Q313.6563,137.4219 312.8906,137.5469 Q312.1406,137.6719 311.125,137.6719 Q309.2031,137.6719 307.8906,136.875 Q306.5938,136.0625 305.9375,134.5938 Q305.2813,133.1094 305.2813,131.1406 Q305.2813,129.7188 305.6719,128.5469 Q306.0781,127.3594 306.8594,126.4844 Q307.6406,125.6094 308.7813,125.1406 Q309.9219,124.6563 311.3906,124.6563 Q312.3438,124.6563 313.2344,124.8594 Q314.1406,125.0469 315.0781,125.5156 L314.25,127.2969 Q313.4688,126.9219 312.8125,126.7344 Q312.1563,126.5313 311.3594,126.5313 Z " fill="#000000"/><text fill="#000000" font-family="sans-serif" font-size="14" lengthAdjust="spacing" textLength="58" x="331.75" y="136.432">Chantier</text><line style="stroke:#181818;stroke-width:0.5;" x1="96" x2="593" y1="147" y2="147"/><rect fill="none" height="6" style="stroke:#C82930;stroke-width:1.0;" width="6" x="103" y="159.034"/><text fill="#000000" font-family="sans-serif" font-size="14" lengthAdjust="spacing" textLength="82" x="115" y="165.9659">taille : size_t</text><rect fill="none" height="6" style="stroke:#C82930;stroke-width:1.0;" width="6" x="103" y="178.1019"/><text fill="#000000" font-family="sans-serif" font-size="14" lengthAdjust="spacing" textLength="142" x="115" y="185.0339">nombreTuiles : size_t</text><rect fill="none" height="6" style="stroke:#C82930;stroke-width:1.0;" width="6" x="103" y="197.1698"/><text fill="#000000" font-family="sans-serif" font-size="14" lengthAdjust="spacing" textLength="283" x="115" y="204.1018">tuiles : TuileJeu*[max_tuiles_par_chantier]</text><line style="stroke:#181818;stroke-width:0.5;" x1="96" x2="593" y1="212.2038" y2="212.2038"/><rect fill="#F24D5C" height="6" style="stroke:#C82930;stroke-width:1.0;" width="6" x="103" y="224.2377"/><text fill="#000000" font-family="sans-serif" font-size="14" lengthAdjust="spacing" textLength="180" x="115" y="231.1697">set_taille(newTaille : size_t)</text><text fill="#000000" font-family="sans-serif" font-size="14" lengthAdjust="spacing" textLength="4" x="115" y="250.2376">&#160;</text><ellipse cx="106" cy="265.3735" fill="#84BE84" rx="3" ry="3" style="stroke:#038048;stroke-width:1.0;"/><text fill="#000000" font-family="sans-serif" font-size="14" lengthAdjust="spacing" textLength="276" x="115" y="269.3055">set_nombre_joueurs(int nombre_joueurs)</text><ellipse cx="106" cy="284.4415" fill="#84BE84" rx="3" ry="3" style="stroke:#038048;stroke-width:1.0;"/><text fill="#000000" font-family="sans-serif" font-size="14" lengthAdjust="spacing" textLength="158" x="115" y="288.3734">get_taille() const : size_t</text><ellipse cx="106" cy="303.5094" fill="#84BE84" rx="3" ry="3" style="stroke:#038048;stroke-width:1.0;"/><text fill="#000000" font-family="sans-serif" font-size="14" lengthAdjust="spacing" textLength="221" x="115" y="307.4414">get_nombre_tuiles() const : size_t</text><ellipse cx="106" cy="322.5773" fill="#84BE84" rx="3" ry="3" style="stroke:#038048;stroke-width:1.0;"/><text fill="#000000" font-family="sans-serif" font-size="14" lengthAdjust="spacing" textLength="143" x="115" y="326.5093">est_vide() const : bool</text><ellipse cx="106" cy="341.6452" fill="#84BE84" rx="3" ry="3" style="stroke:#038048;stroke-width:1.0;"/><text fill="#000000" font-family="sans-serif" font-size="14" lengthAdjust="spacing" textLength="245" x="115" y="345.5772">get_tuile(index : size_t) const : Tuile*</text><ellipse cx="106" cy="360.7131" fill="#84BE84" rx="3" ry="3" style="stroke:#038048;stroke-width:1.0;"/><text fill="#000000" font-family="sans-serif" font-size="14" lengthAdjust="spacing" textLength="242" x="115" y="364.6451">prendre_tuile(index : size_t ) : Tuile*</text><ellipse cx="106" cy="379.781" fill="#84BE84" rx="3" ry="3" style="stroke:#038048;stroke-width:1.0;"/><text fill="#000000" font-family="sans-serif" font-size="14" lengthAdjust="spacing" textLength="188" x="115" y="383.713">ajouter_tuile(TuileJeu* tuile)</text><ellipse cx="106" cy="398.849" fill="#84BE84" rx="3" ry="3" style="stroke:#038048;stroke-width:1.0;"/><text fill="#000000" font-family="sans-serif" font-size="14" lengthAdjust="spacing" textLength="298" x="115" y="402.7809">ajouter_tuile(TuileJeu** tuile, size_t nombre)</text><text fill="#000000" font-family="sans-serif" font-size="14" lengthAdjust="spacing" textLength="4" x="115" y="421.8489">&#160;</text><ellipse cx="106" cy="436.9848" fill="#84BE84" rx="3" ry="3" style="stroke:#038048;stroke-width:1.0;"/><text fill="#000000" font-family="sans-serif" font-size="14" lengthAdjust="spacing" textLength="175" x="115" y="440.9168">begin() : Chantier::iterator</text><ellipse cx="106" cy="456.0527" fill="#84BE84" rx="3" ry="3" style="stroke:#038048;stroke-width:1.0;"/><text fill="#000000" font-family="sans-serif" font-size="14" lengthAdjust="spacing" textLength="162" x="115" y="459.9847">end() : Chantier::iterator</text><text fill="#000000" font-family="sans-serif" font-size="14" lengthAdjust="spacing" textLength="4" x="115" y="479.0526">&#160;</text><ellipse cx="106" cy="494.1885" fill="#84BE84" rx="3" ry="3" style="stroke:#038048;stroke-width:1.0;"/><text fill="#000000" font-family="sans-serif" font-size="14" lengthAdjust="spacing" textLength="416" x="115" y="498.1205">serialize(data : QVariantMap&amp;, context : SerializationContext*)</text><ellipse cx="106" cy="513.2565" fill="#84BE84" rx="3" ry="3" style="stroke:#038048;stroke-width:1.0;"/><text fill="#000000" font-family="sans-serif" font-size="14" lengthAdjust="spacing" textLength="473" x="115" y="517.1884">deserialize(data : const QVariantMap&amp;, context : SerializationContext*)</text><ellipse cx="106" cy="532.3244" fill="#84BE84" rx="3" ry="3" style="stroke:#038048;stroke-width:1.0;"/><text fill="#000000" font-family="sans-serif" font-size="14" lengthAdjust="spacing" textLength="133" x="115" y="536.2564">className() : string</text></g><!--class Chantier::iterator--><g id="elem_Chantier::iterator"><rect codeLine="27" fill="#F1F1F1" height="48" id="Chantier::iterator" rx="2.5" ry="2.5" style="stroke:#181818;stroke-width:0.5;" width="148" x="629.5" y="305.68"/><ellipse cx="644.5" cy="321.68" fill="#ADD1B2" rx="11" ry="11" style="stroke:#181818;stroke-width:1.0;"/><path d="M644.6094,317.2113 Q643.6875,317.2113 642.9531,317.5238 Q642.2344,317.8363 641.7344,318.43 Q641.2344,319.0081 640.9531,319.8831 Q640.6875,320.7581 640.6875,321.8519 Q640.6875,323.2894 641.125,324.3363 Q641.5781,325.3831 642.4219,325.93 Q643.2813,326.4769 644.5938,326.4769 Q645.375,326.4769 646.0625,326.3519 Q646.7656,326.2113 647.7656,325.8988 L647.7656,327.7738 Q646.9063,328.1019 646.1406,328.2269 Q645.3906,328.3519 644.375,328.3519 Q642.4531,328.3519 641.1406,327.555 Q639.8438,326.7425 639.1875,325.2738 Q638.5313,323.7894 638.5313,321.8206 Q638.5313,320.3988 638.9219,319.2269 Q639.3281,318.0394 640.1094,317.1644 Q640.8906,316.2894 642.0313,315.8206 Q643.1719,315.3363 644.6406,315.3363 Q645.5938,315.3363 646.4844,315.5394 Q647.3906,315.7269 648.3281,316.1956 L647.5,317.9769 Q646.7188,317.6019 646.0625,317.4144 Q645.4063,317.2113 644.6094,317.2113 Z " fill="#000000"/><text fill="#000000" font-family="sans-serif" font-size="14" lengthAdjust="spacing" textLength="116" x="658.5" y="327.112">Chantier::iterator</text><line style="stroke:#181818;stroke-width:0.5;" x1="630.5" x2="776.5" y1="337.68" y2="337.68"/><line style="stroke:#181818;stroke-width:0.5;" x1="630.5" x2="776.5" y1="345.68" y2="345.68"/></g><!--class TuileJeu--><g id="elem_TuileJeu"><rect fill="#F1F1F1" height="48" id="TuileJeu" rx="2.5" ry="2.5" style="stroke:#181818;stroke-width:0.5;" width="86" x="301.5" y="604.36"/><ellipse cx="316.5" cy="620.36" fill="#ADD1B2" rx="11" ry="11" style="stroke:#181818;stroke-width:1.0;"/><path d="M316.6094,615.8913 Q315.6875,615.8913 314.9531,616.2038 Q314.2344,616.5163 313.7344,617.11 Q313.2344,617.6881 312.9531,618.5631 Q312.6875,619.4381 312.6875,620.5319 Q312.6875,621.9694 313.125,623.0163 Q313.5781,624.0631 314.4219,624.61 Q315.2813,625.1569 316.5938,625.1569 Q317.375,625.1569 318.0625,625.0319 Q318.7656,624.8913 319.7656,624.5788 L319.7656,626.4538 Q318.9063,626.7819 318.1406,626.9069 Q317.3906,627.0319 316.375,627.0319 Q314.4531,627.0319 313.1406,626.235 Q311.8438,625.4225 311.1875,623.9538 Q310.5313,622.4694 310.5313,620.5006 Q310.5313,619.0788 310.9219,617.9069 Q311.3281,616.7194 312.1094,615.8444 Q312.8906,614.9694 314.0313,614.5006 Q315.1719,614.0163 316.6406,614.0163 Q317.5938,614.0163 318.4844,614.2194 Q319.3906,614.4069 320.3281,614.8756 L319.5,616.6569 Q318.7188,616.2819 318.0625,616.0944 Q317.4063,615.8913 316.6094,615.8913 Z " fill="#000000"/><text fill="#000000" font-family="sans-serif" font-size="14" lengthAdjust="spacing" textLength="54" x="330.5" y="625.792">TuileJeu</text><line style="stroke:#181818;stroke-width:0.5;" x1="302.5" x2="386.5" y1="636.36" y2="636.36"/><line style="stroke:#181818;stroke-width:0.5;" x1="302.5" x2="386.5" y1="644.36" y2="644.36"/></g><!--class Jeu--><g id="elem_Jeu"><rect fill="#F1F1F1" height="48" id="Jeu" rx="2.5" ry="2.5" style="stroke:#181818;stroke-width:0.5;" width="53" x="7" y="305.68"/><ellipse cx="22" cy="321.68" fill="#ADD1B2" rx="11" ry="11" style="stroke:#181818;stroke-width:1.0;"/><path d="M22.1094,317.2113 Q21.1875,317.2113 20.4531,317.5238 Q19.7344,317.8363 19.2344,318.43 Q18.7344,319.0081 18.4531,319.8831 Q18.1875,320.7581 18.1875,321.8519 Q18.1875,323.2894 18.625,324.3363 Q19.0781,325.3831 19.9219,325.93 Q20.7813,326.4769 22.0938,326.4769 Q22.875,326.4769 23.5625,326.3519 Q24.2656,326.2113 25.2656,325.8988 L25.2656,327.7738 Q24.4063,328.1019 23.6406,328.2269 Q22.8906,328.3519 21.875,328.3519 Q19.9531,328.3519 18.6406,327.555 Q17.3438,326.7425 16.6875,325.2738 Q16.0313,323.7894 16.0313,321.8206 Q16.0313,320.3988 16.4219,319.2269 Q16.8281,318.0394 17.6094,317.1644 Q18.3906,316.2894 19.5313,315.8206 Q20.6719,315.3363 22.1406,315.3363 Q23.0938,315.3363 23.9844,315.5394 Q24.8906,315.7269 25.8281,316.1956 L25,317.9769 Q24.2188,317.6019 23.5625,317.4144 Q22.9063,317.2113 22.1094,317.2113 Z " fill="#000000"/><text fill="#000000" font-family="sans-serif" font-size="14" lengthAdjust="spacing" textLength="21" x="36" y="327.112">Jeu</text><line style="stroke:#181818;stroke-width:0.5;" x1="8" x2="59" y1="337.68" y2="337.68"/><line style="stroke:#181818;stroke-width:0.5;" x1="8" x2="59" y1="345.68" y2="345.68"/></g><!--reverse link Serialisable to Chantier--><g id="link_Serialisable_Chantier"><path d="M344.5,73.28 C344.5,88.1 344.5,90.92 344.5,114.53 " fill="none" id="Serialisable-backto-Chantier" style="stroke:#181818;stroke-width:1.0;"/><polygon fill="none" points="344.5,55.28,338.5,73.28,350.5,73.28,344.5,55.28" style="stroke:#181818;stroke-width:1.0;"/></g><!--reverse link Chantier to Chantier::iterator--><g id="link_Chantier_Chantier::iterator"><path codeLine="29" d="M606.47,329.68 C618.11,329.68 617.75,329.68 629.39,329.68 " fill="none" id="Chantier-backto-Chantier::iterator" style="stroke:#181818;stroke-width:1.0;"/><polygon fill="#181818" points="594.47,329.68,600.47,333.68,606.47,329.68,600.47,325.68,594.47,329.68" style="stroke:#181818;stroke-width:1.0;"/><text fill="#000000" font-family="sans-serif" font-size="13" lengthAdjust="spacing" textLength="7" x="614.3865" y="325.7369">*</text></g><!--reverse link Chantier to TuileJeu--><g id="link_Chantier_TuileJeu"><path codeLine="30" d="M344.5,556.72 C344.5,580.29 344.5,589.09 344.5,603.93 " fill="none" id="Chantier-backto-TuileJeu" style="stroke:#181818;stroke-width:1.0;"/><polygon fill="#181818" points="344.5,544.72,340.5,550.72,344.5,556.72,348.5,550.72,344.5,544.72" style="stroke:#181818;stroke-width:1.0;"/><text fill="#000000" font-family="sans-serif" font-size="13" lengthAdjust="spacing" textLength="7" x="336.6031" y="592.4792">*</text></g><!--reverse link Jeu to Chantier--><g id="link_Jeu_Chantier"><path codeLine="31" d="M72.23,329.68 C83.7,329.68 83.18,329.68 94.65,329.68 " fill="none" id="Jeu-backto-Chantier" style="stroke:#181818;stroke-width:1.0;"/><polygon fill="#181818" points="60.23,329.68,66.23,333.68,72.23,329.68,66.23,325.68,60.23,329.68" style="stroke:#181818;stroke-width:1.0;"/><text fill="#000000" font-family="sans-serif" font-size="13" lengthAdjust="spacing" textLength="7" x="80.1287" y="326.3352">1</text></g><!--SRC=[dPDDJyCm38Rl-HLH3wWjsu7hhhiXWOIOk20KkQqrWjfaIboOXlZlPFbQrsaSgDH3dSUlxRSED9OCjCIVqKZefOMcHzRsO2rVluCYYORZdb1rzepXtuoxPya9PEy-LzpA0mgAKQM7nk1cb3tQ-Hcbg3- -nx5-7M0lGbZim8WsLdvZCSKYYL2eLFYrEIzP1UhMKw6m-D0ZZiQMKX4_3rKHtfuaAzvgPIaByWaIaqDpLqcq93vbDvLgjEwdGbx1zTFX_jHvfhqLTSHtnjcTYivIU3MdmGr6Q2ATFGqsLtz3aLeayJ1jDhJ1hLJbiMBQXTLAEXaWRTBaghi6vB_Yj-Q0PGS43drw0HTHz02xcyNH0N8Bvk9nlGv0Kgjr2DTfW0ulT89t_rBp2_u80_hUtHMGQij-s6pnJxDmnl9jg9Uyg0jUN5B550fKSfgvrsVU5LcU_G80]--></g></svg>