<?xml version="1.0" encoding="us-ascii" standalone="no"?><svg xmlns="http://www.w3.org/2000/svg" xmlns:xlink="http://www.w3.org/1999/xlink" contentStyleType="text/css" height="525px" preserveAspectRatio="none" style="width:601px;height:525px;background:#FFFFFF;" version="1.1" viewBox="0 0 601 525" width="601px" zoomAndPan="magnify"><defs/><g><!--class Serializable--><g id="elem_Serializable"><rect codeLine="2" fill="#F1F1F1" height="48" id="Serializable" rx="2.5" ry="2.5" style="stroke:#181818;stroke-width:0.5;" width="105" x="292" y="7"/><ellipse cx="307" cy="23" fill="#A9DCDF" rx="11" ry="11" style="stroke:#181818;stroke-width:1.0;"/><path d="M310.3438,28.25 L308.875,24.5 L304.4375,24.5 L303,28.25 L300.875,28.25 L305.8281,15.5313 L307.5781,15.5313 L312.5,28.25 L310.3438,28.25 Z M307,19.2969 Q306.9531,19.1406 306.8281,18.7813 Q306.7031,18.4219 306.5938,18.0469 Q306.4844,17.6563 306.6875,17.5938 Q306.8438,17.7813 306.75,18.1406 Q306.6563,18.4844 306.5625,18.7813 Q306.4688,19.0625 306.3906,19.2969 L305.1563,22.6094 L308.2344,22.6094 L307,19.2969 Z " fill="#000000"/><text fill="#000000" font-family="sans-serif" font-size="14" font-style="italic" lengthAdjust="spacing" textLength="73" x="321" y="28.432">Serializable</text><line style="stroke:#181818;stroke-width:0.5;" x1="293" x2="396" y1="39" y2="39"/><line style="stroke:#181818;stroke-width:0.5;" x1="293" x2="396" y1="47" y2="47"/></g><!--class Deck--><g id="elem_Deck"><rect codeLine="3" fill="#F1F1F1" height="295.8829" id="Deck" rx="2.5" ry="2.5" style="stroke:#181818;stroke-width:0.5;" width="499" x="95" y="115"/><ellipse cx="324.25" cy="131" fill="#ADD1B2" rx="11" ry="11" style="stroke:#181818;stroke-width:1.0;"/><path d="M324.3594,126.5313 Q323.4375,126.5313 322.7031,126.8438 Q321.9844,127.1563 321.4844,127.75 Q320.9844,128.3281 320.7031,129.2031 Q320.4375,130.0781 320.4375,131.1719 Q320.4375,132.6094 320.875,133.6563 Q321.3281,134.7031 322.1719,135.25 Q323.0313,135.7969 324.3438,135.7969 Q325.125,135.7969 325.8125,135.6719 Q326.5156,135.5313 327.5156,135.2188 L327.5156,137.0938 Q326.6563,137.4219 325.8906,137.5469 Q325.1406,137.6719 324.125,137.6719 Q322.2031,137.6719 320.8906,136.875 Q319.5938,136.0625 318.9375,134.5938 Q318.2813,133.1094 318.2813,131.1406 Q318.2813,129.7188 318.6719,128.5469 Q319.0781,127.3594 319.8594,126.4844 Q320.6406,125.6094 321.7813,125.1406 Q322.9219,124.6563 324.3906,124.6563 Q325.3438,124.6563 326.2344,124.8594 Q327.1406,125.0469 328.0781,125.5156 L327.25,127.2969 Q326.4688,126.9219 325.8125,126.7344 Q325.1563,126.5313 324.3594,126.5313 Z " fill="#000000"/><text fill="#000000" font-family="sans-serif" font-size="14" lengthAdjust="spacing" textLength="32" x="344.75" y="136.432">Deck</text><line style="stroke:#181818;stroke-width:0.5;" x1="96" x2="593" y1="147" y2="147"/><rect fill="none" height="6" style="stroke:#C82930;stroke-width:1.0;" width="6" x="103" y="159.034"/><text fill="#000000" font-family="sans-serif" font-size="14" lengthAdjust="spacing" textLength="74" x="115" y="165.9659">taille size_t</text><rect fill="none" height="6" style="stroke:#C82930;stroke-width:1.0;" width="6" x="103" y="178.1019"/><text fill="#000000" font-family="sans-serif" font-size="14" lengthAdjust="spacing" textLength="134" x="115" y="185.0339">nombreTuiles size_t</text><rect fill="none" height="6" style="stroke:#C82930;stroke-width:1.0;" width="6" x="103" y="197.1698"/><text fill="#000000" font-family="sans-serif" font-size="14" lengthAdjust="spacing" textLength="111" x="115" y="204.1018">tuiles TuileJeu**</text><line style="stroke:#181818;stroke-width:0.5;" x1="96" x2="593" y1="212.2038" y2="212.2038"/><ellipse cx="106" cy="227.2377" fill="#84BE84" rx="3" ry="3" style="stroke:#038048;stroke-width:1.0;"/><text fill="#000000" font-family="sans-serif" font-size="14" lengthAdjust="spacing" textLength="40" x="115" y="231.1697">Deck()</text><ellipse cx="106" cy="246.3056" fill="#84BE84" rx="3" ry="3" style="stroke:#038048;stroke-width:1.0;"/><text fill="#000000" font-family="sans-serif" font-size="14" lengthAdjust="spacing" textLength="293" x="115" y="250.2376">Deck(nombre_joueurs : int, vitesse : Vitesse)</text><ellipse cx="106" cy="265.3735" fill="#84BE84" rx="3" ry="3" style="stroke:#038048;stroke-width:1.0;"/><text fill="#000000" font-family="sans-serif" font-size="14" lengthAdjust="spacing" textLength="197" x="115" y="269.3055">get_taille() {return taille;} : int</text><ellipse cx="106" cy="284.4415" fill="#84BE84" rx="3" ry="3" style="stroke:#038048;stroke-width:1.0;"/><text fill="#000000" font-family="sans-serif" font-size="14" lengthAdjust="spacing" textLength="316" x="115" y="288.3734">get_nombre_tuiles(){return nombreTuiles;} : int</text><ellipse cx="106" cy="303.5094" fill="#84BE84" rx="3" ry="3" style="stroke:#038048;stroke-width:1.0;"/><text fill="#000000" font-family="sans-serif" font-size="14" lengthAdjust="spacing" textLength="147" x="115" y="307.4414">tirer_tuile() : TuileJeu*</text><ellipse cx="106" cy="322.5773" fill="#84BE84" rx="3" ry="3" style="stroke:#038048;stroke-width:1.0;"/><text fill="#000000" font-family="sans-serif" font-size="14" lengthAdjust="spacing" textLength="307" x="115" y="326.5093">tirer_tuiles(nombre_tuiles : size_t) : TuileJeu**</text><text fill="#000000" font-family="sans-serif" font-size="14" lengthAdjust="spacing" textLength="4" x="115" y="345.5772">&#160;</text><ellipse cx="106" cy="360.7131" fill="#84BE84" rx="3" ry="3" style="stroke:#038048;stroke-width:1.0;"/><text fill="#000000" font-family="sans-serif" font-size="14" lengthAdjust="spacing" textLength="416" x="115" y="364.6451">serialize(data : QVariantMap&amp;, context : SerializationContext*)</text><ellipse cx="106" cy="379.781" fill="#84BE84" rx="3" ry="3" style="stroke:#038048;stroke-width:1.0;"/><text fill="#000000" font-family="sans-serif" font-size="14" lengthAdjust="spacing" textLength="473" x="115" y="383.713">deserialize(data : const QVariantMap&amp;, context : SerializationContext*)</text><ellipse cx="106" cy="398.849" fill="#84BE84" rx="3" ry="3" style="stroke:#038048;stroke-width:1.0;"/><text fill="#000000" font-family="sans-serif" font-size="14" lengthAdjust="spacing" textLength="133" x="115" y="402.7809">className() : string</text></g><!--class TuileJeu--><g id="elem_TuileJeu"><rect fill="#F1F1F1" height="48" id="TuileJeu" rx="2.5" ry="2.5" style="stroke:#181818;stroke-width:0.5;" width="86" x="301.5" y="470.88"/><ellipse cx="316.5" cy="486.88" fill="#ADD1B2" rx="11" ry="11" style="stroke:#181818;stroke-width:1.0;"/><path d="M316.6094,482.4113 Q315.6875,482.4113 314.9531,482.7238 Q314.2344,483.0363 313.7344,483.63 Q313.2344,484.2081 312.9531,485.0831 Q312.6875,485.9581 312.6875,487.0519 Q312.6875,488.4894 313.125,489.5363 Q313.5781,490.5831 314.4219,491.13 Q315.2813,491.6769 316.5938,491.6769 Q317.375,491.6769 318.0625,491.5519 Q318.7656,491.4113 319.7656,491.0988 L319.7656,492.9738 Q318.9063,493.3019 318.1406,493.4269 Q317.3906,493.5519 316.375,493.5519 Q314.4531,493.5519 313.1406,492.755 Q311.8438,491.9425 311.1875,490.4738 Q310.5313,488.9894 310.5313,487.0206 Q310.5313,485.5988 310.9219,484.4269 Q311.3281,483.2394 312.1094,482.3644 Q312.8906,481.4894 314.0313,481.0206 Q315.1719,480.5363 316.6406,480.5363 Q317.5938,480.5363 318.4844,480.7394 Q319.3906,480.9269 320.3281,481.3956 L319.5,483.1769 Q318.7188,482.8019 318.0625,482.6144 Q317.4063,482.4113 316.6094,482.4113 Z " fill="#000000"/><text fill="#000000" font-family="sans-serif" font-size="14" lengthAdjust="spacing" textLength="54" x="330.5" y="492.312">TuileJeu</text><line style="stroke:#181818;stroke-width:0.5;" x1="302.5" x2="386.5" y1="502.88" y2="502.88"/><line style="stroke:#181818;stroke-width:0.5;" x1="302.5" x2="386.5" y1="510.88" y2="510.88"/></g><!--class Jeu--><g id="elem_Jeu"><rect fill="#F1F1F1" height="48" id="Jeu" rx="2.5" ry="2.5" style="stroke:#181818;stroke-width:0.5;" width="53" x="7" y="238.94"/><ellipse cx="22" cy="254.94" fill="#ADD1B2" rx="11" ry="11" style="stroke:#181818;stroke-width:1.0;"/><path d="M22.1094,250.4713 Q21.1875,250.4713 20.4531,250.7838 Q19.7344,251.0963 19.2344,251.69 Q18.7344,252.2681 18.4531,253.1431 Q18.1875,254.0181 18.1875,255.1119 Q18.1875,256.5494 18.625,257.5963 Q19.0781,258.6431 19.9219,259.19 Q20.7813,259.7369 22.0938,259.7369 Q22.875,259.7369 23.5625,259.6119 Q24.2656,259.4713 25.2656,259.1588 L25.2656,261.0338 Q24.4063,261.3619 23.6406,261.4869 Q22.8906,261.6119 21.875,261.6119 Q19.9531,261.6119 18.6406,260.815 Q17.3438,260.0025 16.6875,258.5338 Q16.0313,257.0494 16.0313,255.0806 Q16.0313,253.6588 16.4219,252.4869 Q16.8281,251.2994 17.6094,250.4244 Q18.3906,249.5494 19.5313,249.0806 Q20.6719,248.5963 22.1406,248.5963 Q23.0938,248.5963 23.9844,248.7994 Q24.8906,248.9869 25.8281,249.4556 L25,251.2369 Q24.2188,250.8619 23.5625,250.6744 Q22.9063,250.4713 22.1094,250.4713 Z " fill="#000000"/><text fill="#000000" font-family="sans-serif" font-size="14" lengthAdjust="spacing" textLength="21" x="36" y="260.372">Jeu</text><line style="stroke:#181818;stroke-width:0.5;" x1="8" x2="59" y1="270.94" y2="270.94"/><line style="stroke:#181818;stroke-width:0.5;" x1="8" x2="59" y1="278.94" y2="278.94"/></g><!--reverse link Serializable to Deck--><g id="link_Serializable_Deck"><path d="M344.5,73.31 C344.5,88.44 344.5,91.58 344.5,114.6 " fill="none" id="Serializable-backto-Deck" style="stroke:#181818;stroke-width:1.0;"/><polygon fill="none" points="344.5,55.31,338.5,73.31,350.5,73.31,344.5,55.31" style="stroke:#181818;stroke-width:1.0;"/></g><!--reverse link Deck to TuileJeu--><g id="link_Deck_TuileJeu"><path codeLine="20" d="M344.5,423.19 C344.5,446.18 344.5,455.29 344.5,470.43 " fill="none" id="Deck-backto-TuileJeu" style="stroke:#181818;stroke-width:1.0;"/><polygon fill="#181818" points="344.5,411.19,340.5,417.19,344.5,423.19,348.5,417.19,344.5,411.19" style="stroke:#181818;stroke-width:1.0;"/><text fill="#000000" font-family="sans-serif" font-size="13" lengthAdjust="spacing" textLength="7" x="336.6031" y="458.974">*</text></g><!--reverse link Jeu to Deck--><g id="link_Jeu_Deck"><path codeLine="21" d="M72.23,262.94 C83.7,262.94 83.18,262.94 94.65,262.94 " fill="none" id="Jeu-backto-Deck" style="stroke:#181818;stroke-width:1.0;"/><polygon fill="#181818" points="60.23,262.94,66.23,266.94,72.23,262.94,66.23,258.94,60.23,262.94" style="stroke:#181818;stroke-width:1.0;"/><text fill="#000000" font-family="sans-serif" font-size="13" lengthAdjust="spacing" textLength="7" x="80.1287" y="259.5951">1</text></g><!--SRC=[dL9DIyGm4BtdLmmzI5kt1w_hKK-2WYXxBTDsME9cKybCHNRP_-wGjBLrRnO2dVVclSn7i649s0gyKR3ex0aRHwPro0oFr1w0leLynoiUpWRqgq3GEWtPdgYM4VFziGdqFbX7l6OaOP5weg4iJIHkuqLviGoIIVtH3pG4XYrOBnluiaBCfE4k_KsQFKcTQiaBE0UI8VYnkFjBKYyoH_DKJbvC-Sl2_wZ41Wf9e1TiVrkuvZbVsMjoci5ADdVEurGfxr1GKrvtg8YNP_oysK3RUz45A3wFNspl7n9SJkrtTEMZIfR_kSNbl-0njQhFm_gzkHWJdqDPLP2LsToAqQCWP7TPt9pv0G00]--></g></svg>