<?xml version="1.0" encoding="us-ascii" standalone="no"?><svg xmlns="http://www.w3.org/2000/svg" xmlns:xlink="http://www.w3.org/1999/xlink" contentStyleType="text/css" height="902px" preserveAspectRatio="none" style="width:1656px;height:902px;background:#FFFFFF;" version="1.1" viewBox="0 0 1656 902" width="1656px" zoomAndPan="magnify"><defs/><g><!--class Serializable--><g id="elem_Serializable"><rect codeLine="2" fill="#F1F1F1" height="48" id="Serializable" rx="2.5" ry="2.5" style="stroke:#181818;stroke-width:0.5;" width="105" x="488" y="116"/><ellipse cx="503" cy="132" fill="#A9DCDF" rx="11" ry="11" style="stroke:#181818;stroke-width:1.0;"/><path d="M506.3438,137.25 L504.875,133.5 L500.4375,133.5 L499,137.25 L496.875,137.25 L501.8281,124.5313 L503.5781,124.5313 L508.5,137.25 L506.3438,137.25 Z M503,128.2969 Q502.9531,128.1406 502.8281,127.7813 Q502.7031,127.4219 502.5938,127.0469 Q502.4844,126.6563 502.6875,126.5938 Q502.8438,126.7813 502.75,127.1406 Q502.6563,127.4844 502.5625,127.7813 Q502.4688,128.0625 502.3906,128.2969 L501.1563,131.6094 L504.2344,131.6094 L503,128.2969 Z " fill="#000000"/><text fill="#000000" font-family="sans-serif" font-size="14" font-style="italic" lengthAdjust="spacing" textLength="73" x="517" y="137.432">Serializable</text><line style="stroke:#181818;stroke-width:0.5;" x1="489" x2="592" y1="148" y2="148"/><line style="stroke:#181818;stroke-width:0.5;" x1="489" x2="592" y1="156" y2="156"/></g><!--class Hexagone--><g id="elem_Hexagone"><rect codeLine="4" fill="#F1F1F1" height="391.2225" id="Hexagone" rx="2.5" ry="2.5" style="stroke:#181818;stroke-width:0.5;" width="606" x="428.5" y="243"/><ellipse cx="695.75" cy="259" fill="#A9DCDF" rx="11" ry="11" style="stroke:#181818;stroke-width:1.0;"/><path d="M699.0938,264.25 L697.625,260.5 L693.1875,260.5 L691.75,264.25 L689.625,264.25 L694.5781,251.5313 L696.3281,251.5313 L701.25,264.25 L699.0938,264.25 Z M695.75,255.2969 Q695.7031,255.1406 695.5781,254.7813 Q695.4531,254.4219 695.3438,254.0469 Q695.2344,253.6563 695.4375,253.5938 Q695.5938,253.7813 695.5,254.1406 Q695.4063,254.4844 695.3125,254.7813 Q695.2188,255.0625 695.1406,255.2969 L693.9063,258.6094 L696.9844,258.6094 L695.75,255.2969 Z " fill="#000000"/><text fill="#000000" font-family="sans-serif" font-size="14" font-style="italic" lengthAdjust="spacing" textLength="63" x="716.25" y="264.432">Hexagone</text><line style="stroke:#181818;stroke-width:0.5;" x1="429.5" x2="1033.5" y1="275" y2="275"/><polygon fill="none" points="439.5,285.034,443.5,289.034,439.5,293.034,435.5,289.034" style="stroke:#B38D22;stroke-width:1.0;"/><text fill="#000000" font-family="sans-serif" font-size="14" lengthAdjust="spacing" textLength="185" x="448.5" y="293.9659">couleur : CouleursAkropolis</text><polygon fill="none" points="439.5,304.1019,443.5,308.1019,439.5,312.1019,435.5,308.1019" style="stroke:#B38D22;stroke-width:1.0;"/><text fill="#000000" font-family="sans-serif" font-size="14" lengthAdjust="spacing" textLength="116" x="448.5" y="313.0339">localPos : Vector2</text><polygon fill="none" points="439.5,323.1698,443.5,327.1698,439.5,331.1698,435.5,327.1698" style="stroke:#B38D22;stroke-width:1.0;"/><text fill="#000000" font-family="sans-serif" font-size="14" lengthAdjust="spacing" textLength="127" x="448.5" y="332.1018">tuileParent : Tuile*</text><line style="stroke:#181818;stroke-width:0.5;" x1="429.5" x2="1033.5" y1="340.2038" y2="340.2038"/><polygon fill="#FFFF44" points="439.5,350.2377,443.5,354.2377,439.5,358.2377,435.5,354.2377" style="stroke:#B38D22;stroke-width:1.0;"/><text fill="#000000" font-family="sans-serif" font-size="14" lengthAdjust="spacing" textLength="272" x="448.5" y="359.1697">set_local_position(newLocalPos : Vector2)</text><ellipse cx="439.5" cy="374.3056" fill="#84BE84" rx="3" ry="3" style="stroke:#038048;stroke-width:1.0;"/><text fill="#000000" font-family="sans-serif" font-size="14" lengthAdjust="spacing" textLength="75" x="448.5" y="378.2376">Hexagone()</text><ellipse cx="439.5" cy="393.3735" fill="#84BE84" rx="3" ry="3" style="stroke:#038048;stroke-width:1.0;"/><text fill="#000000" font-family="sans-serif" font-size="14" lengthAdjust="spacing" textLength="580" x="448.5" y="397.3055">Hexagone (tuile_parent : Tuile*, localPos : const Vector2&amp;, couleur : CouleursAkropolis)</text><ellipse cx="439.5" cy="412.4415" fill="#84BE84" rx="3" ry="3" style="stroke:#038048;stroke-width:1.0;"/><text fill="#000000" font-family="sans-serif" font-size="14" lengthAdjust="spacing" textLength="117" x="448.5" y="416.3734">get_couleur() : int</text><ellipse cx="439.5" cy="431.5094" fill="#84BE84" rx="3" ry="3" style="stroke:#038048;stroke-width:1.0;"/><text fill="#000000" font-family="sans-serif" font-size="14" lengthAdjust="spacing" textLength="119" x="448.5" y="435.4414">get_tuile() : Tuile*</text><ellipse cx="439.5" cy="450.5773" fill="#84BE84" rx="3" ry="3" style="stroke:#038048;stroke-width:1.0;"/><text fill="#000000" font-family="sans-serif" font-size="14" lengthAdjust="spacing" textLength="239" x="448.5" y="454.5093">get_local_position() : const Vector2&amp;</text><ellipse cx="439.5" cy="469.6452" fill="#84BE84" rx="3" ry="3" style="stroke:#038048;stroke-width:1.0;"/><text fill="#000000" font-family="sans-serif" font-size="14" lengthAdjust="spacing" textLength="120" x="448.5" y="473.5772">get_hauteur() : int</text><ellipse cx="439.5" cy="488.7131" fill="#84BE84" rx="3" ry="3" style="stroke:#038048;stroke-width:1.0;"/><text fill="#000000" font-family="sans-serif" font-size="14" lengthAdjust="spacing" textLength="448" x="448.5" y="492.6451">peut_etre_plac&#233;e(map:Map*, position:Vector2) const : bool {virtual}</text><ellipse cx="439.5" cy="507.781" fill="#84BE84" rx="3" ry="3" style="stroke:#038048;stroke-width:1.0;"/><text fill="#000000" font-family="sans-serif" font-size="14" lengthAdjust="spacing" textLength="430" x="448.5" y="511.713">quand_recouvert(joueur_qui_la_recouvre:Joueur*) const {virtual}</text><ellipse cx="439.5" cy="526.849" fill="#84BE84" rx="3" ry="3" style="stroke:#038048;stroke-width:1.0;"/><text fill="#000000" font-family="sans-serif" font-size="14" lengthAdjust="spacing" textLength="246" x="448.5" y="530.7809">get_text() : const string {pure virtual}</text><ellipse cx="439.5" cy="545.9169" fill="#84BE84" rx="3" ry="3" style="stroke:#038048;stroke-width:1.0;"/><text fill="#000000" font-family="sans-serif" font-size="14" lengthAdjust="spacing" textLength="420" x="448.5" y="549.8489">affiche_console(highlighted : bool) const : const vector&lt;string&gt;</text><ellipse cx="439.5" cy="564.9848" fill="#84BE84" rx="3" ry="3" style="stroke:#038048;stroke-width:1.0;"/><text fill="#000000" font-family="sans-serif" font-size="14" lengthAdjust="spacing" textLength="231" x="448.5" y="568.9168">affiche_gui() : HexagoneGUIObjet*</text><ellipse cx="439.5" cy="584.0527" fill="#84BE84" rx="3" ry="3" style="stroke:#038048;stroke-width:1.0;"/><text fill="#000000" font-family="sans-serif" font-size="14" lengthAdjust="spacing" textLength="273" x="448.5" y="587.9847">get_type() const : TypeHexagone {virtual}</text><ellipse cx="439.5" cy="603.1206" fill="#84BE84" rx="3" ry="3" style="stroke:#038048;stroke-width:1.0;"/><text fill="#000000" font-family="sans-serif" font-size="14" lengthAdjust="spacing" textLength="416" x="448.5" y="607.0526">serialize(data : QVariantMap&amp;, context : SerializationContext*)</text><ellipse cx="439.5" cy="622.1885" fill="#84BE84" rx="3" ry="3" style="stroke:#038048;stroke-width:1.0;"/><text fill="#000000" font-family="sans-serif" font-size="14" lengthAdjust="spacing" textLength="477" x="448.5" y="626.1205">deserialize(data : const QVariantMap&amp;, context : SerializationContext*);</text></g><!--class Carriere--><g id="elem_Carriere"><rect codeLine="26" fill="#F1F1F1" height="162.4075" id="Carriere" rx="2.5" ry="2.5" style="stroke:#181818;stroke-width:0.5;" width="401" x="9" y="714.29"/><ellipse cx="177.75" cy="730.29" fill="#ADD1B2" rx="11" ry="11" style="stroke:#181818;stroke-width:1.0;"/><path d="M177.8594,725.8213 Q176.9375,725.8213 176.2031,726.1338 Q175.4844,726.4463 174.9844,727.04 Q174.4844,727.6181 174.2031,728.4931 Q173.9375,729.3681 173.9375,730.4619 Q173.9375,731.8994 174.375,732.9463 Q174.8281,733.9931 175.6719,734.54 Q176.5313,735.0869 177.8438,735.0869 Q178.625,735.0869 179.3125,734.9619 Q180.0156,734.8213 181.0156,734.5088 L181.0156,736.3838 Q180.1563,736.7119 179.3906,736.8369 Q178.6406,736.9619 177.625,736.9619 Q175.7031,736.9619 174.3906,736.165 Q173.0938,735.3525 172.4375,733.8838 Q171.7813,732.3994 171.7813,730.4306 Q171.7813,729.0088 172.1719,727.8369 Q172.5781,726.6494 173.3594,725.7744 Q174.1406,724.8994 175.2813,724.4306 Q176.4219,723.9463 177.8906,723.9463 Q178.8438,723.9463 179.7344,724.1494 Q180.6406,724.3369 181.5781,724.8056 L180.75,726.5869 Q179.9688,726.2119 179.3125,726.0244 Q178.6563,725.8213 177.8594,725.8213 Z " fill="#000000"/><text fill="#000000" font-family="sans-serif" font-size="14" lengthAdjust="spacing" textLength="55" x="198.25" y="735.722">Carriere</text><line style="stroke:#181818;stroke-width:0.5;" x1="10" x2="409" y1="746.29" y2="746.29"/><polygon fill="none" points="20,756.324,24,760.324,20,764.324,16,760.324" style="stroke:#B38D22;stroke-width:1.0;"/><text fill="#000000" font-family="sans-serif" font-size="14" lengthAdjust="spacing" textLength="115" x="29" y="765.2559">pierre_count : int</text><line style="stroke:#181818;stroke-width:0.5;" x1="10" x2="409" y1="773.3579" y2="773.3579"/><ellipse cx="20" cy="788.3919" fill="#84BE84" rx="3" ry="3" style="stroke:#038048;stroke-width:1.0;"/><text fill="#000000" font-family="sans-serif" font-size="14" lengthAdjust="spacing" textLength="375" x="29" y="792.3239">Carriere (tuile_parent : Tuile*, localPos : const Vector2&amp;)</text><ellipse cx="20" cy="807.4598" fill="#84BE84" rx="3" ry="3" style="stroke:#038048;stroke-width:1.0;"/><text fill="#000000" font-family="sans-serif" font-size="14" lengthAdjust="spacing" textLength="176" x="29" y="811.3918">get_type() : TypeHexagone</text><ellipse cx="20" cy="826.5277" fill="#84BE84" rx="3" ry="3" style="stroke:#038048;stroke-width:1.0;"/><text fill="#000000" font-family="sans-serif" font-size="14" lengthAdjust="spacing" textLength="153" x="29" y="830.4597">get_text() : const string</text><ellipse cx="20" cy="845.5956" fill="#84BE84" rx="3" ry="3" style="stroke:#038048;stroke-width:1.0;"/><text fill="#000000" font-family="sans-serif" font-size="14" lengthAdjust="spacing" textLength="373" x="29" y="849.5276">quand_recouvert(joueur_qui_la_recouvre:Joueur*) const</text><ellipse cx="20" cy="864.6635" fill="#84BE84" rx="3" ry="3" style="stroke:#038048;stroke-width:1.0;"/><text fill="#000000" font-family="sans-serif" font-size="14" lengthAdjust="spacing" textLength="133" x="29" y="868.5955">className() : string</text></g><!--class Place--><g id="elem_Place"><rect codeLine="36" fill="#F1F1F1" height="200.5433" id="Place" rx="2.5" ry="2.5" style="stroke:#181818;stroke-width:0.5;" width="574" x="444.5" y="695.23"/><ellipse cx="709.75" cy="711.23" fill="#ADD1B2" rx="11" ry="11" style="stroke:#181818;stroke-width:1.0;"/><path d="M709.8594,706.7613 Q708.9375,706.7613 708.2031,707.0738 Q707.4844,707.3863 706.9844,707.98 Q706.4844,708.5581 706.2031,709.4331 Q705.9375,710.3081 705.9375,711.4019 Q705.9375,712.8394 706.375,713.8863 Q706.8281,714.9331 707.6719,715.48 Q708.5313,716.0269 709.8438,716.0269 Q710.625,716.0269 711.3125,715.9019 Q712.0156,715.7613 713.0156,715.4488 L713.0156,717.3238 Q712.1563,717.6519 711.3906,717.7769 Q710.6406,717.9019 709.625,717.9019 Q707.7031,717.9019 706.3906,717.105 Q705.0938,716.2925 704.4375,714.8238 Q703.7813,713.3394 703.7813,711.3706 Q703.7813,709.9488 704.1719,708.7769 Q704.5781,707.5894 705.3594,706.7144 Q706.1406,705.8394 707.2813,705.3706 Q708.4219,704.8863 709.8906,704.8863 Q710.8438,704.8863 711.7344,705.0894 Q712.6406,705.2769 713.5781,705.7456 L712.75,707.5269 Q711.9688,707.1519 711.3125,706.9644 Q710.6563,706.7613 709.8594,706.7613 Z " fill="#000000"/><text fill="#000000" font-family="sans-serif" font-size="14" lengthAdjust="spacing" textLength="35" x="730.25" y="716.662">Place</text><line style="stroke:#181818;stroke-width:0.5;" x1="445.5" x2="1017.5" y1="727.23" y2="727.23"/><polygon fill="none" points="455.5,737.264,459.5,741.264,455.5,745.264,451.5,741.264" style="stroke:#B38D22;stroke-width:1.0;"/><text fill="#000000" font-family="sans-serif" font-size="14" lengthAdjust="spacing" textLength="74" x="464.5" y="746.1959">etoiles : int</text><line style="stroke:#181818;stroke-width:0.5;" x1="445.5" x2="1017.5" y1="754.2979" y2="754.2979"/><ellipse cx="455.5" cy="769.3319" fill="#84BE84" rx="3" ry="3" style="stroke:#038048;stroke-width:1.0;"/><text fill="#000000" font-family="sans-serif" font-size="14" lengthAdjust="spacing" textLength="548" x="464.5" y="773.2639">Place (tuile_parent : Tuile*, localPos : const Vector2&amp;, couleur : CouleursAkropolis)</text><ellipse cx="455.5" cy="788.3998" fill="#84BE84" rx="3" ry="3" style="stroke:#038048;stroke-width:1.0;"/><text fill="#000000" font-family="sans-serif" font-size="14" lengthAdjust="spacing" textLength="110" x="464.5" y="792.3318">get_etoiles() : int</text><ellipse cx="455.5" cy="807.4677" fill="#84BE84" rx="3" ry="3" style="stroke:#038048;stroke-width:1.0;"/><text fill="#000000" font-family="sans-serif" font-size="14" lengthAdjust="spacing" textLength="176" x="464.5" y="811.3997">get_type() : TypeHexagone</text><ellipse cx="455.5" cy="826.5356" fill="#84BE84" rx="3" ry="3" style="stroke:#038048;stroke-width:1.0;"/><text fill="#000000" font-family="sans-serif" font-size="14" lengthAdjust="spacing" textLength="153" x="464.5" y="830.4676">get_text() : const string</text><ellipse cx="455.5" cy="845.6035" fill="#84BE84" rx="3" ry="3" style="stroke:#038048;stroke-width:1.0;"/><text fill="#000000" font-family="sans-serif" font-size="14" lengthAdjust="spacing" textLength="416" x="464.5" y="849.5355">serialize(data : QVariantMap&amp;, context : SerializationContext*)</text><ellipse cx="455.5" cy="864.6715" fill="#84BE84" rx="3" ry="3" style="stroke:#038048;stroke-width:1.0;"/><text fill="#000000" font-family="sans-serif" font-size="14" lengthAdjust="spacing" textLength="477" x="464.5" y="868.6034">deserialize(data : const QVariantMap&amp;, context : SerializationContext*);</text><ellipse cx="455.5" cy="883.7394" fill="#84BE84" rx="3" ry="3" style="stroke:#038048;stroke-width:1.0;"/><text fill="#000000" font-family="sans-serif" font-size="14" lengthAdjust="spacing" textLength="133" x="464.5" y="887.6714">className() : string</text></g><!--class Quartier--><g id="elem_Quartier"><rect codeLine="48" fill="#F1F1F1" height="124.2717" id="Quartier" rx="2.5" ry="2.5" style="stroke:#181818;stroke-width:0.5;" width="596" x="1053.5" y="733.36"/><ellipse cx="1318.75" cy="749.36" fill="#ADD1B2" rx="11" ry="11" style="stroke:#181818;stroke-width:1.0;"/><path d="M1318.8594,744.8913 Q1317.9375,744.8913 1317.2031,745.2038 Q1316.4844,745.5163 1315.9844,746.11 Q1315.4844,746.6881 1315.2031,747.5631 Q1314.9375,748.4381 1314.9375,749.5319 Q1314.9375,750.9694 1315.375,752.0163 Q1315.8281,753.0631 1316.6719,753.61 Q1317.5313,754.1569 1318.8438,754.1569 Q1319.625,754.1569 1320.3125,754.0319 Q1321.0156,753.8913 1322.0156,753.5788 L1322.0156,755.4538 Q1321.1563,755.7819 1320.3906,755.9069 Q1319.6406,756.0319 1318.625,756.0319 Q1316.7031,756.0319 1315.3906,755.235 Q1314.0938,754.4225 1313.4375,752.9538 Q1312.7813,751.4694 1312.7813,749.5006 Q1312.7813,748.0788 1313.1719,746.9069 Q1313.5781,745.7194 1314.3594,744.8444 Q1315.1406,743.9694 1316.2813,743.5006 Q1317.4219,743.0163 1318.8906,743.0163 Q1319.8438,743.0163 1320.7344,743.2194 Q1321.6406,743.4069 1322.5781,743.8756 L1321.75,745.6569 Q1320.9688,745.2819 1320.3125,745.0944 Q1319.6563,744.8913 1318.8594,744.8913 Z " fill="#000000"/><text fill="#000000" font-family="sans-serif" font-size="14" lengthAdjust="spacing" textLength="57" x="1339.25" y="754.792">Quartier</text><line style="stroke:#181818;stroke-width:0.5;" x1="1054.5" x2="1648.5" y1="765.36" y2="765.36"/><line style="stroke:#181818;stroke-width:0.5;" x1="1054.5" x2="1648.5" y1="773.36" y2="773.36"/><ellipse cx="1064.5" cy="788.394" fill="#84BE84" rx="3" ry="3" style="stroke:#038048;stroke-width:1.0;"/><text fill="#000000" font-family="sans-serif" font-size="14" lengthAdjust="spacing" textLength="570" x="1073.5" y="792.3259">Quartier (tuile_parent : Tuile*, localPos : const Vector2&amp;, couleur : CouleursAkropolis)</text><ellipse cx="1064.5" cy="807.4619" fill="#84BE84" rx="3" ry="3" style="stroke:#038048;stroke-width:1.0;"/><text fill="#000000" font-family="sans-serif" font-size="14" lengthAdjust="spacing" textLength="176" x="1073.5" y="811.3939">get_type() : TypeHexagone</text><ellipse cx="1064.5" cy="826.5298" fill="#84BE84" rx="3" ry="3" style="stroke:#038048;stroke-width:1.0;"/><text fill="#000000" font-family="sans-serif" font-size="14" lengthAdjust="spacing" textLength="153" x="1073.5" y="830.4618">get_text() : const string</text><ellipse cx="1064.5" cy="845.5977" fill="#84BE84" rx="3" ry="3" style="stroke:#038048;stroke-width:1.0;"/><text fill="#000000" font-family="sans-serif" font-size="14" lengthAdjust="spacing" textLength="133" x="1073.5" y="849.5297">className() : string</text></g><!--class HexagoneContainer--><g id="elem_HexagoneContainer"><rect codeLine="55" fill="#F1F1F1" height="48" id="HexagoneContainer" rx="2.5" ry="2.5" style="stroke:#181818;stroke-width:0.5;" width="157" x="587" y="7"/><ellipse cx="602" cy="23" fill="#A9DCDF" rx="11" ry="11" style="stroke:#181818;stroke-width:1.0;"/><path d="M605.3438,28.25 L603.875,24.5 L599.4375,24.5 L598,28.25 L595.875,28.25 L600.8281,15.5313 L602.5781,15.5313 L607.5,28.25 L605.3438,28.25 Z M602,19.2969 Q601.9531,19.1406 601.8281,18.7813 Q601.7031,18.4219 601.5938,18.0469 Q601.4844,17.6563 601.6875,17.5938 Q601.8438,17.7813 601.75,18.1406 Q601.6563,18.4844 601.5625,18.7813 Q601.4688,19.0625 601.3906,19.2969 L600.1563,22.6094 L603.2344,22.6094 L602,19.2969 Z " fill="#000000"/><text fill="#000000" font-family="sans-serif" font-size="14" font-style="italic" lengthAdjust="spacing" textLength="125" x="616" y="28.432">HexagoneContainer</text><line style="stroke:#181818;stroke-width:0.5;" x1="588" x2="743" y1="39" y2="39"/><line style="stroke:#181818;stroke-width:0.5;" x1="588" x2="743" y1="47" y2="47"/></g><!--class Tuile--><g id="elem_Tuile"><rect codeLine="56" fill="#F1F1F1" height="48" id="Tuile" rx="2.5" ry="2.5" style="stroke:#181818;stroke-width:0.5;" width="65" x="699" y="116"/><ellipse cx="714" cy="132" fill="#ADD1B2" rx="11" ry="11" style="stroke:#181818;stroke-width:1.0;"/><path d="M714.1094,127.5313 Q713.1875,127.5313 712.4531,127.8438 Q711.7344,128.1563 711.2344,128.75 Q710.7344,129.3281 710.4531,130.2031 Q710.1875,131.0781 710.1875,132.1719 Q710.1875,133.6094 710.625,134.6563 Q711.0781,135.7031 711.9219,136.25 Q712.7813,136.7969 714.0938,136.7969 Q714.875,136.7969 715.5625,136.6719 Q716.2656,136.5313 717.2656,136.2188 L717.2656,138.0938 Q716.4063,138.4219 715.6406,138.5469 Q714.8906,138.6719 713.875,138.6719 Q711.9531,138.6719 710.6406,137.875 Q709.3438,137.0625 708.6875,135.5938 Q708.0313,134.1094 708.0313,132.1406 Q708.0313,130.7188 708.4219,129.5469 Q708.8281,128.3594 709.6094,127.4844 Q710.3906,126.6094 711.5313,126.1406 Q712.6719,125.6563 714.1406,125.6563 Q715.0938,125.6563 715.9844,125.8594 Q716.8906,126.0469 717.8281,126.5156 L717,128.2969 Q716.2188,127.9219 715.5625,127.7344 Q714.9063,127.5313 714.1094,127.5313 Z " fill="#000000"/><text fill="#000000" font-family="sans-serif" font-size="14" lengthAdjust="spacing" textLength="33" x="728" y="137.432">Tuile</text><line style="stroke:#181818;stroke-width:0.5;" x1="700" x2="763" y1="148" y2="148"/><line style="stroke:#181818;stroke-width:0.5;" x1="700" x2="763" y1="156" y2="156"/></g><!--class HexagoneGUIObjet--><g id="elem_HexagoneGUIObjet"><rect fill="#F1F1F1" height="48" id="HexagoneGUIObjet" rx="2.5" ry="2.5" style="stroke:#181818;stroke-width:0.5;" width="161" x="1070" y="414.62"/><ellipse cx="1085" cy="430.62" fill="#ADD1B2" rx="11" ry="11" style="stroke:#181818;stroke-width:1.0;"/><path d="M1085.1094,426.1513 Q1084.1875,426.1513 1083.4531,426.4638 Q1082.7344,426.7763 1082.2344,427.37 Q1081.7344,427.9481 1081.4531,428.8231 Q1081.1875,429.6981 1081.1875,430.7919 Q1081.1875,432.2294 1081.625,433.2763 Q1082.0781,434.3231 1082.9219,434.87 Q1083.7813,435.4169 1085.0938,435.4169 Q1085.875,435.4169 1086.5625,435.2919 Q1087.2656,435.1513 1088.2656,434.8388 L1088.2656,436.7138 Q1087.4063,437.0419 1086.6406,437.1669 Q1085.8906,437.2919 1084.875,437.2919 Q1082.9531,437.2919 1081.6406,436.495 Q1080.3438,435.6825 1079.6875,434.2138 Q1079.0313,432.7294 1079.0313,430.7606 Q1079.0313,429.3388 1079.4219,428.1669 Q1079.8281,426.9794 1080.6094,426.1044 Q1081.3906,425.2294 1082.5313,424.7606 Q1083.6719,424.2763 1085.1406,424.2763 Q1086.0938,424.2763 1086.9844,424.4794 Q1087.8906,424.6669 1088.8281,425.1356 L1088,426.9169 Q1087.2188,426.5419 1086.5625,426.3544 Q1085.9063,426.1513 1085.1094,426.1513 Z " fill="#000000"/><text fill="#000000" font-family="sans-serif" font-size="14" lengthAdjust="spacing" textLength="129" x="1099" y="436.052">HexagoneGUIObjet</text><line style="stroke:#181818;stroke-width:0.5;" x1="1071" x2="1230" y1="446.62" y2="446.62"/><line style="stroke:#181818;stroke-width:0.5;" x1="1071" x2="1230" y1="454.62" y2="454.62"/></g><!--class Affichage--><g id="elem_Affichage"><rect codeLine="61" fill="#F1F1F1" height="48" id="Affichage" rx="2.5" ry="2.5" style="stroke:#181818;stroke-width:0.5;" width="89" x="799" y="116"/><ellipse cx="814" cy="132" fill="#A9DCDF" rx="11" ry="11" style="stroke:#181818;stroke-width:1.0;"/><path d="M817.3438,137.25 L815.875,133.5 L811.4375,133.5 L810,137.25 L807.875,137.25 L812.8281,124.5313 L814.5781,124.5313 L819.5,137.25 L817.3438,137.25 Z M814,128.2969 Q813.9531,128.1406 813.8281,127.7813 Q813.7031,127.4219 813.5938,127.0469 Q813.4844,126.6563 813.6875,126.5938 Q813.8438,126.7813 813.75,127.1406 Q813.6563,127.4844 813.5625,127.7813 Q813.4688,128.0625 813.3906,128.2969 L812.1563,131.6094 L815.2344,131.6094 L814,128.2969 Z " fill="#000000"/><text fill="#000000" font-family="sans-serif" font-size="14" font-style="italic" lengthAdjust="spacing" textLength="57" x="828" y="137.432">Affichage</text><line style="stroke:#181818;stroke-width:0.5;" x1="800" x2="887" y1="148" y2="148"/><line style="stroke:#181818;stroke-width:0.5;" x1="800" x2="887" y1="156" y2="156"/></g><!--class Score--><g id="elem_Score"><rect codeLine="62" fill="#F1F1F1" height="48" id="Score" rx="2.5" ry="2.5" style="stroke:#181818;stroke-width:0.5;" width="66" x="923.5" y="116"/><ellipse cx="938.5" cy="132" fill="#A9DCDF" rx="11" ry="11" style="stroke:#181818;stroke-width:1.0;"/><path d="M941.8438,137.25 L940.375,133.5 L935.9375,133.5 L934.5,137.25 L932.375,137.25 L937.3281,124.5313 L939.0781,124.5313 L944,137.25 L941.8438,137.25 Z M938.5,128.2969 Q938.4531,128.1406 938.3281,127.7813 Q938.2031,127.4219 938.0938,127.0469 Q937.9844,126.6563 938.1875,126.5938 Q938.3438,126.7813 938.25,127.1406 Q938.1563,127.4844 938.0625,127.7813 Q937.9688,128.0625 937.8906,128.2969 L936.6563,131.6094 L939.7344,131.6094 L938.5,128.2969 Z " fill="#000000"/><text fill="#000000" font-family="sans-serif" font-size="14" font-style="italic" lengthAdjust="spacing" textLength="34" x="952.5" y="137.432">Score</text><line style="stroke:#181818;stroke-width:0.5;" x1="924.5" x2="988.5" y1="148" y2="148"/><line style="stroke:#181818;stroke-width:0.5;" x1="924.5" x2="988.5" y1="156" y2="156"/></g><!--reverse link Serializable to Hexagone--><g id="link_Serializable_Hexagone"><path d="M565.2363,179.4131 C577.2863,198.1231 585.74,211.26 605.94,242.63 " fill="none" id="Serializable-backto-Hexagone" style="stroke:#181818;stroke-width:1.0;"/><polygon fill="none" points="555.49,164.28,560.192,182.6618,570.2807,176.1643,555.49,164.28" style="stroke:#181818;stroke-width:1.0;"/></g><!--reverse link Hexagone to Carriere--><g id="link_Hexagone_Carriere"><path d="M429.654,644.8296 C388.554,672.7696 363.2,690 327.96,713.96 " fill="none" id="Hexagone-backto-Carriere" style="stroke:#181818;stroke-width:1.0;"/><polygon fill="none" points="444.54,634.71,426.2808,639.8676,433.0272,649.7916,444.54,634.71" style="stroke:#181818;stroke-width:1.0;"/></g><!--reverse link Hexagone to Place--><g id="link_Hexagone_Place"><path d="M731.5,652.71 C731.5,673.48 731.5,675.93 731.5,694.9 " fill="none" id="Hexagone-backto-Place" style="stroke:#181818;stroke-width:1.0;"/><polygon fill="none" points="731.5,634.71,725.5,652.71,737.5,652.71,731.5,634.71" style="stroke:#181818;stroke-width:1.0;"/></g><!--reverse link Hexagone to Quartier--><g id="link_Hexagone_Quartier"><path d="M1050.5491,633.1588 C1056.4391,636.5588 1046.7,630.92 1052.5,634.23 C1111.46,667.87 1177.93,703.7 1233.2,732.94 " fill="none" id="Hexagone-backto-Quartier" style="stroke:#181818;stroke-width:1.0;"/><polygon fill="none" points="1034.96,624.16,1047.5495,638.3552,1053.5487,627.9624,1034.96,624.16" style="stroke:#181818;stroke-width:1.0;"/></g><!--reverse link HexagoneContainer to Tuile--><g id="link_HexagoneContainer_Tuile"><path d="M689.4334,70.8078 C700.4434,88.6478 706.05,97.75 717.05,115.58 " fill="none" id="HexagoneContainer-backto-Tuile" style="stroke:#181818;stroke-width:1.0;"/><polygon fill="none" points="679.98,55.49,684.3275,73.9589,694.5393,67.6566,679.98,55.49" style="stroke:#181818;stroke-width:1.0;"/></g><!--reverse link HexagoneContainer to Hexagone--><g id="link_HexagoneContainer_Hexagone"><path codeLine="57" d="M669.1831,67.3623 C672.0031,93.7923 675.75,126.12 681.5,164 C685.38,189.55 689.82,216.36 694.42,242.8 " fill="none" id="HexagoneContainer-backto-Hexagone" style="stroke:#181818;stroke-width:1.0;"/><polygon fill="none" points="667.91,55.43,664.5691,61.8205,669.1831,67.3623,672.524,60.9718,667.91,55.43" style="stroke:#181818;stroke-width:1.0;"/><text fill="#000000" font-family="sans-serif" font-size="13" lengthAdjust="spacing" textLength="7" x="685.708" y="231.0925">*</text></g><!--reverse link Tuile to Hexagone--><g id="link_Tuile_Hexagone"><path codeLine="58" d="M731.5,176.28 C731.5,194.99 731.5,211.26 731.5,242.63 " fill="none" id="Tuile-backto-Hexagone" style="stroke:#181818;stroke-width:1.0;"/><polygon fill="#181818" points="731.5,164.28,727.5,170.28,731.5,176.28,735.5,170.28,731.5,164.28" style="stroke:#181818;stroke-width:1.0;"/><text fill="#000000" font-family="sans-serif" font-size="13" lengthAdjust="spacing" textLength="7" x="724.3523" y="230.9154">*</text></g><!--reverse link Hexagone to HexagoneGUIObjet--><g id="link_Hexagone_HexagoneGUIObjet"><path codeLine="59" d="M1046.7,438.62 C1058.31,438.62 1057.92,438.62 1069.53,438.62 " fill="none" id="Hexagone-backto-HexagoneGUIObjet" style="stroke:#181818;stroke-width:1.0;"/><polygon fill="none" points="1034.7,438.62,1040.7,442.62,1046.7,438.62,1040.7,434.62,1034.7,438.62" style="stroke:#181818;stroke-width:1.0;"/></g><!--link Affichage to Hexagone--><g id="link_Affichage_Hexagone"><path codeLine="63" d="M834.71,164.28 C827.65,182.99 816.97,211.26 805.13,242.63 " fill="none" id="Affichage-Hexagone" style="stroke:#181818;stroke-width:1.0;"/><polygon fill="#000000" points="825.304,208.5307,831.2482,201.1067,825.7492,199.0306,825.304,208.5307" style="stroke:#000000;stroke-width:1.0;"/><text fill="#000000" font-family="sans-serif" font-size="13" lengthAdjust="spacing" textLength="39" x="836.07" y="208.897">affiche</text></g><!--link Score to Hexagone--><g id="link_Score_Hexagone"><path codeLine="64" d="M938.84,164.28 C924.65,182.99 903.21,211.26 879.41,242.63 " fill="none" id="Score-Hexagone" style="stroke:#181818;stroke-width:1.0;"/><polygon fill="#000000" points="915.4383,207.8367,923.2461,202.4063,918.5631,198.8541,915.4383,207.8367" style="stroke:#000000;stroke-width:1.0;"/><text fill="#000000" font-family="sans-serif" font-size="13" lengthAdjust="spacing" textLength="51" x="927.46" y="208.897">consulte</text></g><!--SRC=[pLN_Rjem4FxVJs4nQGgqL9IrqvHDrJhwOsEmqfNoRsJ25Tm5EtLirgxg0-qvzcAxE4w0PErMLPM6X21tvxlxFdztOUD4AnPg6aOiIUWPACuY_eED8w2tTuImTVz7k6PJAO32jGOnAHyW53ylQ2XD14PHdtQoVyd-DoLZ6V74HKGoPD509XWoWb1BrNOERNW40wP0QFGDqwS6SRu4T60F1h5CkEPIU0A-zogfwZP-esZMAnkePyi4yNgTpTMsGYaIdMTykVaGfZpz5FjpOLuT0xdGAnvRqjeTggMh1AfUARyIEsD6Lml4O7G0MY6cY8M_Ve8tPx7VPp62olFwEJqkkK_7KaRqTi6LDYowSwck31EJG04YMO3ItgKqM2-uCZo8cBChyBlMtCYJbRDOn2YI5J0e92wcz3Os2cWfd5rSy706GHefaQOPdyuY_6gOk3wNNMU_2mlcNPPqhvHcQhWjd5_uyVcda_4bw5NIzKsSNaUUTOYFXJxAQ1AdSl0cJ3ECFXqnj0YD35jjY1GhsejnI0dlPEP6hey9LF9arH-NxIt1kSp6iSEKug2MuxX4u6OcHhTAUJLMwAbYN3V5sKSFGxtAuZf_VzF0KvJcpbhyNzWyA-xI5hmCS0WU80MqH8Z9EX_PcUVR3AxedpR34pZypvJvBvTpQfZIgBpxxcTZ6V5yj_4Kpk-3Ty-xCgM7SO5my8MQkIoE2luY4EEgXsMpIMkDMX5DiYIDihbWKpOh-s-bntsxAjaKbgQpK2eWXOCsbmaGPyqjLxfN8pQox4-PCf6s0UyH624uKaAVztkuh5M2Gg7RM-rMUsVhbJUS6Ne4OxgzIzijVwVbjtPfvt18KtUTUCU3tg9D4saKZkI4fnIFJIgrEkco1QDVSPlnEVZq90RHFVYS6-YXmCqjnHpbGhgZ_ZBWzKxp0zUfRh4NEkgJ0xXWs2sU2EK4Bz2dvyEZvXlIOs9g4BrFGP1EkZRL3VhEVWC0]--></g></svg>