<?xml version="1.0" encoding="us-ascii" standalone="no"?><svg xmlns="http://www.w3.org/2000/svg" xmlns:xlink="http://www.w3.org/1999/xlink" contentStyleType="text/css" height="970px" preserveAspectRatio="none" style="width:1481px;height:970px;background:#FFFFFF;" version="1.1" viewBox="0 0 1481 970" width="1481px" zoomAndPan="magnify"><defs/><g><!--class Serializable--><g id="elem_Serializable"><rect codeLine="2" fill="#F1F1F1" height="48" id="Serializable" rx="2.5" ry="2.5" style="stroke:#181818;stroke-width:0.5;" width="105" x="360" y="7"/><ellipse cx="375" cy="23" fill="#A9DCDF" rx="11" ry="11" style="stroke:#181818;stroke-width:1.0;"/><path d="M378.3438,28.25 L376.875,24.5 L372.4375,24.5 L371,28.25 L368.875,28.25 L373.8281,15.5313 L375.5781,15.5313 L380.5,28.25 L378.3438,28.25 Z M375,19.2969 Q374.9531,19.1406 374.8281,18.7813 Q374.7031,18.4219 374.5938,18.0469 Q374.4844,17.6563 374.6875,17.5938 Q374.8438,17.7813 374.75,18.1406 Q374.6563,18.4844 374.5625,18.7813 Q374.4688,19.0625 374.3906,19.2969 L373.1563,22.6094 L376.2344,22.6094 L375,19.2969 Z " fill="#000000"/><text fill="#000000" font-family="sans-serif" font-size="14" font-style="italic" lengthAdjust="spacing" textLength="73" x="389" y="28.432">Serializable</text><line style="stroke:#181818;stroke-width:0.5;" x1="361" x2="464" y1="39" y2="39"/><line style="stroke:#181818;stroke-width:0.5;" x1="361" x2="464" y1="47" y2="47"/></g><!--class HexagoneContainer--><g id="elem_HexagoneContainer"><rect codeLine="3" fill="#F1F1F1" height="314.9508" id="HexagoneContainer" rx="2.5" ry="2.5" style="stroke:#181818;stroke-width:0.5;" width="562" x="131.5" y="115"/><ellipse cx="345.75" cy="131" fill="#A9DCDF" rx="11" ry="11" style="stroke:#181818;stroke-width:1.0;"/><path d="M349.0938,136.25 L347.625,132.5 L343.1875,132.5 L341.75,136.25 L339.625,136.25 L344.5781,123.5313 L346.3281,123.5313 L351.25,136.25 L349.0938,136.25 Z M345.75,127.2969 Q345.7031,127.1406 345.5781,126.7813 Q345.4531,126.4219 345.3438,126.0469 Q345.2344,125.6563 345.4375,125.5938 Q345.5938,125.7813 345.5,126.1406 Q345.4063,126.4844 345.3125,126.7813 Q345.2188,127.0625 345.1406,127.2969 L343.9063,130.6094 L346.9844,130.6094 L345.75,127.2969 Z " fill="#000000"/><text fill="#000000" font-family="sans-serif" font-size="14" font-style="italic" lengthAdjust="spacing" textLength="125" x="366.25" y="136.432">HexagoneContainer</text><line style="stroke:#181818;stroke-width:0.5;" x1="132.5" x2="692.5" y1="147" y2="147"/><polygon fill="none" points="142.5,157.034,146.5,161.034,142.5,165.034,138.5,161.034" style="stroke:#B38D22;stroke-width:1.0;"/><text fill="#000000" font-family="sans-serif" font-size="14" lengthAdjust="spacing" textLength="255" x="151.5" y="165.9659">container : map&lt;Vector2, Hexagone*&gt;</text><polygon fill="none" points="142.5,176.1019,146.5,180.1019,142.5,184.1019,138.5,180.1019" style="stroke:#B38D22;stroke-width:1.0;"/><text fill="#000000" font-family="sans-serif" font-size="14" lengthAdjust="spacing" textLength="90" x="151.5" y="185.0339">roation : float</text><line style="stroke:#181818;stroke-width:0.5;" x1="132.5" x2="692.5" y1="193.1358" y2="193.1358"/><ellipse cx="142.5" cy="208.1698" fill="#84BE84" rx="3" ry="3" style="stroke:#038048;stroke-width:1.0;"/><text fill="#000000" font-family="sans-serif" font-size="14" lengthAdjust="spacing" textLength="330" x="151.5" y="212.1018">hasHexagone(coordonees : const Vector2&amp;) : bool</text><ellipse cx="142.5" cy="227.2377" fill="#84BE84" rx="3" ry="3" style="stroke:#038048;stroke-width:1.0;"/><text fill="#000000" font-family="sans-serif" font-size="14" lengthAdjust="spacing" textLength="378" x="151.5" y="231.1697">getHexagone(coordonees : const Vector2 &amp;) : Hexagone*</text><ellipse cx="142.5" cy="246.3056" fill="#84BE84" rx="3" ry="3" style="stroke:#038048;stroke-width:1.0;"/><text fill="#000000" font-family="sans-serif" font-size="14" lengthAdjust="spacing" textLength="146" x="151.5" y="250.2376">getSize() const : size_t</text><ellipse cx="142.5" cy="265.3735" fill="#84BE84" rx="3" ry="3" style="stroke:#038048;stroke-width:1.0;"/><text fill="#000000" font-family="sans-serif" font-size="14" lengthAdjust="spacing" textLength="536" x="151.5" y="269.3055">tourne(sens_horaire : bool = true, centre_rotation : constVector2&amp; = Vector2(0,0))</text><ellipse cx="142.5" cy="284.4415" fill="#84BE84" rx="3" ry="3" style="stroke:#038048;stroke-width:1.0;"/><text fill="#000000" font-family="sans-serif" font-size="14" lengthAdjust="spacing" textLength="296" x="151.5" y="288.3734">begin() : map::iterator&lt;Vector2, Hexagone*&gt;</text><ellipse cx="142.5" cy="303.5094" fill="#84BE84" rx="3" ry="3" style="stroke:#038048;stroke-width:1.0;"/><text fill="#000000" font-family="sans-serif" font-size="14" lengthAdjust="spacing" textLength="283" x="151.5" y="307.4414">end() : map::iterator&lt;Vector2, Hexagone*&gt;</text><ellipse cx="142.5" cy="322.5773" fill="#84BE84" rx="3" ry="3" style="stroke:#038048;stroke-width:1.0;"/><text fill="#000000" font-family="sans-serif" font-size="14" lengthAdjust="spacing" textLength="338" x="151.5" y="326.5093">begin() : map::const_iterator&lt;Vector2, Hexagone*&gt;</text><ellipse cx="142.5" cy="341.6452" fill="#84BE84" rx="3" ry="3" style="stroke:#038048;stroke-width:1.0;"/><text fill="#000000" font-family="sans-serif" font-size="14" lengthAdjust="spacing" textLength="325" x="151.5" y="345.5772">end() : map::const_iterator&lt;Vector2, Hexagone*&gt;</text><ellipse cx="142.5" cy="360.7131" fill="#84BE84" rx="3" ry="3" style="stroke:#038048;stroke-width:1.0;"/><text fill="#000000" font-family="sans-serif" font-size="14" lengthAdjust="spacing" textLength="345" x="151.5" y="364.6451">cbegin() : map::const_iterator&lt;Vector2, Hexagone*&gt;</text><ellipse cx="142.5" cy="379.781" fill="#84BE84" rx="3" ry="3" style="stroke:#038048;stroke-width:1.0;"/><text fill="#000000" font-family="sans-serif" font-size="14" lengthAdjust="spacing" textLength="332" x="151.5" y="383.713">cend() : map::const_iterator&lt;Vector2, Hexagone*&gt;</text><ellipse cx="142.5" cy="398.849" fill="#84BE84" rx="3" ry="3" style="stroke:#038048;stroke-width:1.0;"/><text fill="#000000" font-family="sans-serif" font-size="14" lengthAdjust="spacing" textLength="416" x="151.5" y="402.7809">serialize(data : QVariantMap&amp;, context : SerializationContext*)</text><ellipse cx="142.5" cy="417.9169" fill="#84BE84" rx="3" ry="3" style="stroke:#038048;stroke-width:1.0;"/><text fill="#000000" font-family="sans-serif" font-size="14" lengthAdjust="spacing" textLength="477" x="151.5" y="421.8489">deserialize(data : const QVariantMap&amp;, context : SerializationContext*);</text></g><!--class Hexagone--><g id="elem_Hexagone"><rect fill="#F1F1F1" height="48" id="Hexagone" rx="2.5" ry="2.5" style="stroke:#181818;stroke-width:0.5;" width="99" x="729" y="248.48"/><ellipse cx="744" cy="264.48" fill="#ADD1B2" rx="11" ry="11" style="stroke:#181818;stroke-width:1.0;"/><path d="M744.1094,260.0113 Q743.1875,260.0113 742.4531,260.3238 Q741.7344,260.6363 741.2344,261.23 Q740.7344,261.8081 740.4531,262.6831 Q740.1875,263.5581 740.1875,264.6519 Q740.1875,266.0894 740.625,267.1363 Q741.0781,268.1831 741.9219,268.73 Q742.7813,269.2769 744.0938,269.2769 Q744.875,269.2769 745.5625,269.1519 Q746.2656,269.0113 747.2656,268.6988 L747.2656,270.5738 Q746.4063,270.9019 745.6406,271.0269 Q744.8906,271.1519 743.875,271.1519 Q741.9531,271.1519 740.6406,270.355 Q739.3438,269.5425 738.6875,268.0738 Q738.0313,266.5894 738.0313,264.6206 Q738.0313,263.1988 738.4219,262.0269 Q738.8281,260.8394 739.6094,259.9644 Q740.3906,259.0894 741.5313,258.6206 Q742.6719,258.1363 744.1406,258.1363 Q745.0938,258.1363 745.9844,258.3394 Q746.8906,258.5269 747.8281,258.9956 L747,260.7769 Q746.2188,260.4019 745.5625,260.2144 Q744.9063,260.0113 744.1094,260.0113 Z " fill="#000000"/><text fill="#000000" font-family="sans-serif" font-size="14" lengthAdjust="spacing" textLength="67" x="758" y="269.912">Hexagone</text><line style="stroke:#181818;stroke-width:0.5;" x1="730" x2="827" y1="280.48" y2="280.48"/><line style="stroke:#181818;stroke-width:0.5;" x1="730" x2="827" y1="288.48" y2="288.48"/></g><!--class Tuile--><g id="elem_Tuile"><rect codeLine="22" fill="#F1F1F1" height="238.6792" id="Tuile" rx="2.5" ry="2.5" style="stroke:#181818;stroke-width:0.5;" width="503" x="161" y="489.95"/><ellipse cx="393.25" cy="505.95" fill="#A9DCDF" rx="11" ry="11" style="stroke:#181818;stroke-width:1.0;"/><path d="M396.5938,511.2 L395.125,507.45 L390.6875,507.45 L389.25,511.2 L387.125,511.2 L392.0781,498.4813 L393.8281,498.4813 L398.75,511.2 L396.5938,511.2 Z M393.25,502.2469 Q393.2031,502.0906 393.0781,501.7313 Q392.9531,501.3719 392.8438,500.9969 Q392.7344,500.6063 392.9375,500.5438 Q393.0938,500.7313 393,501.0906 Q392.9063,501.4344 392.8125,501.7313 Q392.7188,502.0125 392.6406,502.2469 L391.4063,505.5594 L394.4844,505.5594 L393.25,502.2469 Z " fill="#000000"/><text fill="#000000" font-family="sans-serif" font-size="14" font-style="italic" lengthAdjust="spacing" textLength="30" x="413.75" y="511.382">Tuile</text><line style="stroke:#181818;stroke-width:0.5;" x1="162" x2="663" y1="521.95" y2="521.95"/><polygon fill="none" points="172,531.984,176,535.984,172,539.984,168,535.984" style="stroke:#B38D22;stroke-width:1.0;"/><text fill="#000000" font-family="sans-serif" font-size="14" lengthAdjust="spacing" textLength="114" x="181" y="540.9159">static nextID : int</text><polygon fill="none" points="172,551.0519,176,555.0519,172,559.0519,168,555.0519" style="stroke:#B38D22;stroke-width:1.0;"/><text fill="#000000" font-family="sans-serif" font-size="14" lengthAdjust="spacing" textLength="105" x="181" y="559.9839">id : int {unique}</text><polygon fill="none" points="172,570.1198,176,574.1198,172,578.1198,168,574.1198" style="stroke:#B38D22;stroke-width:1.0;"/><text fill="#000000" font-family="sans-serif" font-size="14" lengthAdjust="spacing" textLength="84" x="181" y="579.0518">hauteur : int</text><line style="stroke:#181818;stroke-width:0.5;" x1="162" x2="663" y1="587.1538" y2="587.1538"/><ellipse cx="172" cy="602.1877" fill="#84BE84" rx="3" ry="3" style="stroke:#038048;stroke-width:1.0;"/><text fill="#000000" font-family="sans-serif" font-size="14" lengthAdjust="spacing" textLength="212" x="181" y="606.1197">set_hauteur(hauteur : const int)</text><ellipse cx="172" cy="621.2556" fill="#84BE84" rx="3" ry="3" style="stroke:#038048;stroke-width:1.0;"/><text fill="#000000" font-family="sans-serif" font-size="14" lengthAdjust="spacing" textLength="120" x="181" y="625.1876">get_hauteur() : int</text><ellipse cx="172" cy="640.3235" fill="#84BE84" rx="3" ry="3" style="stroke:#038048;stroke-width:1.0;"/><text fill="#000000" font-family="sans-serif" font-size="14" lengthAdjust="spacing" textLength="119" x="181" y="644.2555">get_id() const : int</text><ellipse cx="172" cy="659.3915" fill="#84BE84" rx="3" ry="3" style="stroke:#038048;stroke-width:1.0;"/><text fill="#000000" font-family="sans-serif" font-size="14" lengthAdjust="spacing" textLength="272" x="181" y="663.3234">operator==(t : const Tuile &amp;t) const : bool</text><ellipse cx="172" cy="678.4594" fill="#84BE84" rx="3" ry="3" style="stroke:#038048;stroke-width:1.0;"/><text fill="#000000" font-family="sans-serif" font-size="14" lengthAdjust="spacing" textLength="268" x="181" y="682.3914">operator!=(t : const Tuile &amp;t) const : bool</text><ellipse cx="172" cy="697.5273" fill="#84BE84" rx="3" ry="3" style="stroke:#038048;stroke-width:1.0;"/><text fill="#000000" font-family="sans-serif" font-size="14" lengthAdjust="spacing" textLength="416" x="181" y="701.4593">serialize(data : QVariantMap&amp;, context : SerializationContext*)</text><ellipse cx="172" cy="716.5952" fill="#84BE84" rx="3" ry="3" style="stroke:#038048;stroke-width:1.0;"/><text fill="#000000" font-family="sans-serif" font-size="14" lengthAdjust="spacing" textLength="477" x="181" y="720.5272">deserialize(data : const QVariantMap&amp;, context : SerializationContext*);</text></g><!--class TuileD?part--><g id="elem_TuileD&#233;part"><rect codeLine="36" fill="#F1F1F1" height="67.0679" id="TuileD&#233;part" rx="2.5" ry="2.5" style="stroke:#181818;stroke-width:0.5;" width="159" x="593" y="788.63"/><ellipse cx="629.6" cy="804.63" fill="#ADD1B2" rx="11" ry="11" style="stroke:#181818;stroke-width:1.0;"/><path d="M629.7094,800.1613 Q628.7875,800.1613 628.0531,800.4738 Q627.3344,800.7863 626.8344,801.38 Q626.3344,801.9581 626.0531,802.8331 Q625.7875,803.7081 625.7875,804.8019 Q625.7875,806.2394 626.225,807.2863 Q626.6781,808.3331 627.5219,808.88 Q628.3813,809.4269 629.6938,809.4269 Q630.475,809.4269 631.1625,809.3019 Q631.8656,809.1613 632.8656,808.8488 L632.8656,810.7238 Q632.0063,811.0519 631.2406,811.1769 Q630.4906,811.3019 629.475,811.3019 Q627.5531,811.3019 626.2406,810.505 Q624.9438,809.6925 624.2875,808.2238 Q623.6313,806.7394 623.6313,804.7706 Q623.6313,803.3488 624.0219,802.1769 Q624.4281,800.9894 625.2094,800.1144 Q625.9906,799.2394 627.1313,798.7706 Q628.2719,798.2863 629.7406,798.2863 Q630.6938,798.2863 631.5844,798.4894 Q632.4906,798.6769 633.4281,799.1456 L632.6,800.9269 Q631.8188,800.5519 631.1625,800.3644 Q630.5063,800.1613 629.7094,800.1613 Z " fill="#000000"/><text fill="#000000" font-family="sans-serif" font-size="14" lengthAdjust="spacing" textLength="79" x="648.4" y="810.062">TuileD&#233;part</text><line style="stroke:#181818;stroke-width:0.5;" x1="594" x2="751" y1="820.63" y2="820.63"/><line style="stroke:#181818;stroke-width:0.5;" x1="594" x2="751" y1="828.63" y2="828.63"/><ellipse cx="604" cy="843.664" fill="#84BE84" rx="3" ry="3" style="stroke:#038048;stroke-width:1.0;"/><text fill="#000000" font-family="sans-serif" font-size="14" lengthAdjust="spacing" textLength="133" x="613" y="847.5959">className() : string</text></g><!--class TuileJeu--><g id="elem_TuileJeu"><rect codeLine="40" fill="#F1F1F1" height="67.0679" id="TuileJeu" rx="2.5" ry="2.5" style="stroke:#181818;stroke-width:0.5;" width="159" x="333" y="788.63"/><ellipse cx="381.25" cy="804.63" fill="#ADD1B2" rx="11" ry="11" style="stroke:#181818;stroke-width:1.0;"/><path d="M381.3594,800.1613 Q380.4375,800.1613 379.7031,800.4738 Q378.9844,800.7863 378.4844,801.38 Q377.9844,801.9581 377.7031,802.8331 Q377.4375,803.7081 377.4375,804.8019 Q377.4375,806.2394 377.875,807.2863 Q378.3281,808.3331 379.1719,808.88 Q380.0313,809.4269 381.3438,809.4269 Q382.125,809.4269 382.8125,809.3019 Q383.5156,809.1613 384.5156,808.8488 L384.5156,810.7238 Q383.6563,811.0519 382.8906,811.1769 Q382.1406,811.3019 381.125,811.3019 Q379.2031,811.3019 377.8906,810.505 Q376.5938,809.6925 375.9375,808.2238 Q375.2813,806.7394 375.2813,804.7706 Q375.2813,803.3488 375.6719,802.1769 Q376.0781,800.9894 376.8594,800.1144 Q377.6406,799.2394 378.7813,798.7706 Q379.9219,798.2863 381.3906,798.2863 Q382.3438,798.2863 383.2344,798.4894 Q384.1406,798.6769 385.0781,799.1456 L384.25,800.9269 Q383.4688,800.5519 382.8125,800.3644 Q382.1563,800.1613 381.3594,800.1613 Z " fill="#000000"/><text fill="#000000" font-family="sans-serif" font-size="14" lengthAdjust="spacing" textLength="54" x="401.75" y="810.062">TuileJeu</text><line style="stroke:#181818;stroke-width:0.5;" x1="334" x2="491" y1="820.63" y2="820.63"/><line style="stroke:#181818;stroke-width:0.5;" x1="334" x2="491" y1="828.63" y2="828.63"/><ellipse cx="344" cy="843.664" fill="#84BE84" rx="3" ry="3" style="stroke:#038048;stroke-width:1.0;"/><text fill="#000000" font-family="sans-serif" font-size="14" lengthAdjust="spacing" textLength="133" x="353" y="847.5959">className() : string</text></g><!--class Plateau--><g id="elem_Plateau"><rect codeLine="44" fill="#F1F1F1" height="105.2038" id="Plateau" rx="2.5" ry="2.5" style="stroke:#181818;stroke-width:0.5;" width="775" x="699" y="556.69"/><ellipse cx="1057.25" cy="572.69" fill="#ADD1B2" rx="11" ry="11" style="stroke:#181818;stroke-width:1.0;"/><path d="M1057.3594,568.2213 Q1056.4375,568.2213 1055.7031,568.5338 Q1054.9844,568.8463 1054.4844,569.44 Q1053.9844,570.0181 1053.7031,570.8931 Q1053.4375,571.7681 1053.4375,572.8619 Q1053.4375,574.2994 1053.875,575.3463 Q1054.3281,576.3931 1055.1719,576.94 Q1056.0313,577.4869 1057.3438,577.4869 Q1058.125,577.4869 1058.8125,577.3619 Q1059.5156,577.2213 1060.5156,576.9088 L1060.5156,578.7838 Q1059.6563,579.1119 1058.8906,579.2369 Q1058.1406,579.3619 1057.125,579.3619 Q1055.2031,579.3619 1053.8906,578.565 Q1052.5938,577.7525 1051.9375,576.2838 Q1051.2813,574.7994 1051.2813,572.8306 Q1051.2813,571.4088 1051.6719,570.2369 Q1052.0781,569.0494 1052.8594,568.1744 Q1053.6406,567.2994 1054.7813,566.8306 Q1055.9219,566.3463 1057.3906,566.3463 Q1058.3438,566.3463 1059.2344,566.5494 Q1060.1406,566.7369 1061.0781,567.2056 L1060.25,568.9869 Q1059.4688,568.6119 1058.8125,568.4244 Q1058.1563,568.2213 1057.3594,568.2213 Z " fill="#000000"/><text fill="#000000" font-family="sans-serif" font-size="14" lengthAdjust="spacing" textLength="50" x="1077.75" y="578.122">Plateau</text><line style="stroke:#181818;stroke-width:0.5;" x1="700" x2="1473" y1="588.69" y2="588.69"/><line style="stroke:#181818;stroke-width:0.5;" x1="700" x2="1473" y1="596.69" y2="596.69"/><ellipse cx="710" cy="611.724" fill="#84BE84" rx="3" ry="3" style="stroke:#038048;stroke-width:1.0;"/><text fill="#000000" font-family="sans-serif" font-size="14" lengthAdjust="spacing" textLength="608" x="719" y="615.6559">peut_placer(tuile : Tuile&amp;, position : const Vector2&amp;, premierPlacement : bool = false) : bool</text><ellipse cx="710" cy="630.7919" fill="#84BE84" rx="3" ry="3" style="stroke:#038048;stroke-width:1.0;"/><text fill="#000000" font-family="sans-serif" font-size="14" lengthAdjust="spacing" textLength="749" x="719" y="634.7239">placer(tuile : Tuile&amp;, position : const Vector2&amp;, premierPlacement : bool = false, joueur : Joueur* = nullptr) : bool</text><ellipse cx="710" cy="649.8598" fill="#84BE84" rx="3" ry="3" style="stroke:#038048;stroke-width:1.0;"/><text fill="#000000" font-family="sans-serif" font-size="14" lengthAdjust="spacing" textLength="133" x="719" y="653.7918">className() : string</text></g><!--class Affichage--><g id="elem_Affichage"><rect codeLine="50" fill="#F1F1F1" height="48" id="Affichage" rx="2.5" ry="2.5" style="stroke:#181818;stroke-width:0.5;" width="89" x="7" y="248.48"/><ellipse cx="22" cy="264.48" fill="#A9DCDF" rx="11" ry="11" style="stroke:#181818;stroke-width:1.0;"/><path d="M25.3438,269.73 L23.875,265.98 L19.4375,265.98 L18,269.73 L15.875,269.73 L20.8281,257.0113 L22.5781,257.0113 L27.5,269.73 L25.3438,269.73 Z M22,260.7769 Q21.9531,260.6206 21.8281,260.2613 Q21.7031,259.9019 21.5938,259.5269 Q21.4844,259.1363 21.6875,259.0738 Q21.8438,259.2613 21.75,259.6206 Q21.6563,259.9644 21.5625,260.2613 Q21.4688,260.5425 21.3906,260.7769 L20.1563,264.0894 L23.2344,264.0894 L22,260.7769 Z " fill="#000000"/><text fill="#000000" font-family="sans-serif" font-size="14" font-style="italic" lengthAdjust="spacing" textLength="57" x="36" y="269.912">Affichage</text><line style="stroke:#181818;stroke-width:0.5;" x1="8" x2="95" y1="280.48" y2="280.48"/><line style="stroke:#181818;stroke-width:0.5;" x1="8" x2="95" y1="288.48" y2="288.48"/></g><!--class Joueur--><g id="elem_Joueur"><rect fill="#F1F1F1" height="48" id="Joueur" rx="2.5" ry="2.5" style="stroke:#181818;stroke-width:0.5;" width="76" x="1048.5" y="248.48"/><ellipse cx="1063.5" cy="264.48" fill="#ADD1B2" rx="11" ry="11" style="stroke:#181818;stroke-width:1.0;"/><path d="M1063.6094,260.0113 Q1062.6875,260.0113 1061.9531,260.3238 Q1061.2344,260.6363 1060.7344,261.23 Q1060.2344,261.8081 1059.9531,262.6831 Q1059.6875,263.5581 1059.6875,264.6519 Q1059.6875,266.0894 1060.125,267.1363 Q1060.5781,268.1831 1061.4219,268.73 Q1062.2813,269.2769 1063.5938,269.2769 Q1064.375,269.2769 1065.0625,269.1519 Q1065.7656,269.0113 1066.7656,268.6988 L1066.7656,270.5738 Q1065.9063,270.9019 1065.1406,271.0269 Q1064.3906,271.1519 1063.375,271.1519 Q1061.4531,271.1519 1060.1406,270.355 Q1058.8438,269.5425 1058.1875,268.0738 Q1057.5313,266.5894 1057.5313,264.6206 Q1057.5313,263.1988 1057.9219,262.0269 Q1058.3281,260.8394 1059.1094,259.9644 Q1059.8906,259.0894 1061.0313,258.6206 Q1062.1719,258.1363 1063.6406,258.1363 Q1064.5938,258.1363 1065.4844,258.3394 Q1066.3906,258.5269 1067.3281,258.9956 L1066.5,260.7769 Q1065.7188,260.4019 1065.0625,260.2144 Q1064.4063,260.0113 1063.6094,260.0113 Z " fill="#000000"/><text fill="#000000" font-family="sans-serif" font-size="14" lengthAdjust="spacing" textLength="44" x="1077.5" y="269.912">Joueur</text><line style="stroke:#181818;stroke-width:0.5;" x1="1049.5" x2="1123.5" y1="280.48" y2="280.48"/><line style="stroke:#181818;stroke-width:0.5;" x1="1049.5" x2="1123.5" y1="288.48" y2="288.48"/></g><!--class Jeu--><g id="elem_Jeu"><rect fill="#F1F1F1" height="48" id="Jeu" rx="2.5" ry="2.5" style="stroke:#181818;stroke-width:0.5;" width="53" x="712" y="915.7"/><ellipse cx="727" cy="931.7" fill="#ADD1B2" rx="11" ry="11" style="stroke:#181818;stroke-width:1.0;"/><path d="M727.1094,927.2313 Q726.1875,927.2313 725.4531,927.5438 Q724.7344,927.8563 724.2344,928.45 Q723.7344,929.0281 723.4531,929.9031 Q723.1875,930.7781 723.1875,931.8719 Q723.1875,933.3094 723.625,934.3563 Q724.0781,935.4031 724.9219,935.95 Q725.7813,936.4969 727.0938,936.4969 Q727.875,936.4969 728.5625,936.3719 Q729.2656,936.2313 730.2656,935.9188 L730.2656,937.7938 Q729.4063,938.1219 728.6406,938.2469 Q727.8906,938.3719 726.875,938.3719 Q724.9531,938.3719 723.6406,937.575 Q722.3438,936.7625 721.6875,935.2938 Q721.0313,933.8094 721.0313,931.8406 Q721.0313,930.4188 721.4219,929.2469 Q721.8281,928.0594 722.6094,927.1844 Q723.3906,926.3094 724.5313,925.8406 Q725.6719,925.3563 727.1406,925.3563 Q728.0938,925.3563 728.9844,925.5594 Q729.8906,925.7469 730.8281,926.2156 L730,927.9969 Q729.2188,927.6219 728.5625,927.4344 Q727.9063,927.2313 727.1094,927.2313 Z " fill="#000000"/><text fill="#000000" font-family="sans-serif" font-size="14" lengthAdjust="spacing" textLength="21" x="741" y="937.132">Jeu</text><line style="stroke:#181818;stroke-width:0.5;" x1="713" x2="764" y1="947.7" y2="947.7"/><line style="stroke:#181818;stroke-width:0.5;" x1="713" x2="764" y1="955.7" y2="955.7"/></g><!--class Score--><g id="elem_Score"><rect fill="#F1F1F1" height="48" id="Score" rx="2.5" ry="2.5" style="stroke:#181818;stroke-width:0.5;" width="69" x="1052" y="798.17"/><ellipse cx="1067" cy="814.17" fill="#ADD1B2" rx="11" ry="11" style="stroke:#181818;stroke-width:1.0;"/><path d="M1067.1094,809.7013 Q1066.1875,809.7013 1065.4531,810.0138 Q1064.7344,810.3263 1064.2344,810.92 Q1063.7344,811.4981 1063.4531,812.3731 Q1063.1875,813.2481 1063.1875,814.3419 Q1063.1875,815.7794 1063.625,816.8263 Q1064.0781,817.8731 1064.9219,818.42 Q1065.7813,818.9669 1067.0938,818.9669 Q1067.875,818.9669 1068.5625,818.8419 Q1069.2656,818.7013 1070.2656,818.3888 L1070.2656,820.2638 Q1069.4063,820.5919 1068.6406,820.7169 Q1067.8906,820.8419 1066.875,820.8419 Q1064.9531,820.8419 1063.6406,820.045 Q1062.3438,819.2325 1061.6875,817.7638 Q1061.0313,816.2794 1061.0313,814.3106 Q1061.0313,812.8888 1061.4219,811.7169 Q1061.8281,810.5294 1062.6094,809.6544 Q1063.3906,808.7794 1064.5313,808.3106 Q1065.6719,807.8263 1067.1406,807.8263 Q1068.0938,807.8263 1068.9844,808.0294 Q1069.8906,808.2169 1070.8281,808.6856 L1070,810.4669 Q1069.2188,810.0919 1068.5625,809.9044 Q1067.9063,809.7013 1067.1094,809.7013 Z " fill="#000000"/><text fill="#000000" font-family="sans-serif" font-size="14" lengthAdjust="spacing" textLength="37" x="1081" y="819.602">Score</text><line style="stroke:#181818;stroke-width:0.5;" x1="1053" x2="1120" y1="830.17" y2="830.17"/><line style="stroke:#181818;stroke-width:0.5;" x1="1053" x2="1120" y1="838.17" y2="838.17"/></g><!--class Chantier--><g id="elem_Chantier"><rect fill="#F1F1F1" height="48" id="Chantier" rx="2.5" ry="2.5" style="stroke:#181818;stroke-width:0.5;" width="90" x="311.5" y="915.7"/><ellipse cx="326.5" cy="931.7" fill="#ADD1B2" rx="11" ry="11" style="stroke:#181818;stroke-width:1.0;"/><path d="M326.6094,927.2313 Q325.6875,927.2313 324.9531,927.5438 Q324.2344,927.8563 323.7344,928.45 Q323.2344,929.0281 322.9531,929.9031 Q322.6875,930.7781 322.6875,931.8719 Q322.6875,933.3094 323.125,934.3563 Q323.5781,935.4031 324.4219,935.95 Q325.2813,936.4969 326.5938,936.4969 Q327.375,936.4969 328.0625,936.3719 Q328.7656,936.2313 329.7656,935.9188 L329.7656,937.7938 Q328.9063,938.1219 328.1406,938.2469 Q327.3906,938.3719 326.375,938.3719 Q324.4531,938.3719 323.1406,937.575 Q321.8438,936.7625 321.1875,935.2938 Q320.5313,933.8094 320.5313,931.8406 Q320.5313,930.4188 320.9219,929.2469 Q321.3281,928.0594 322.1094,927.1844 Q322.8906,926.3094 324.0313,925.8406 Q325.1719,925.3563 326.6406,925.3563 Q327.5938,925.3563 328.4844,925.5594 Q329.3906,925.7469 330.3281,926.2156 L329.5,927.9969 Q328.7188,927.6219 328.0625,927.4344 Q327.4063,927.2313 326.6094,927.2313 Z " fill="#000000"/><text fill="#000000" font-family="sans-serif" font-size="14" lengthAdjust="spacing" textLength="58" x="340.5" y="937.132">Chantier</text><line style="stroke:#181818;stroke-width:0.5;" x1="312.5" x2="400.5" y1="947.7" y2="947.7"/><line style="stroke:#181818;stroke-width:0.5;" x1="312.5" x2="400.5" y1="955.7" y2="955.7"/></g><!--class Deck--><g id="elem_Deck"><rect fill="#F1F1F1" height="48" id="Deck" rx="2.5" ry="2.5" style="stroke:#181818;stroke-width:0.5;" width="64" x="436.5" y="915.7"/><ellipse cx="451.5" cy="931.7" fill="#ADD1B2" rx="11" ry="11" style="stroke:#181818;stroke-width:1.0;"/><path d="M451.6094,927.2313 Q450.6875,927.2313 449.9531,927.5438 Q449.2344,927.8563 448.7344,928.45 Q448.2344,929.0281 447.9531,929.9031 Q447.6875,930.7781 447.6875,931.8719 Q447.6875,933.3094 448.125,934.3563 Q448.5781,935.4031 449.4219,935.95 Q450.2813,936.4969 451.5938,936.4969 Q452.375,936.4969 453.0625,936.3719 Q453.7656,936.2313 454.7656,935.9188 L454.7656,937.7938 Q453.9063,938.1219 453.1406,938.2469 Q452.3906,938.3719 451.375,938.3719 Q449.4531,938.3719 448.1406,937.575 Q446.8438,936.7625 446.1875,935.2938 Q445.5313,933.8094 445.5313,931.8406 Q445.5313,930.4188 445.9219,929.2469 Q446.3281,928.0594 447.1094,927.1844 Q447.8906,926.3094 449.0313,925.8406 Q450.1719,925.3563 451.6406,925.3563 Q452.5938,925.3563 453.4844,925.5594 Q454.3906,925.7469 455.3281,926.2156 L454.5,927.9969 Q453.7188,927.6219 453.0625,927.4344 Q452.4063,927.2313 451.6094,927.2313 Z " fill="#000000"/><text fill="#000000" font-family="sans-serif" font-size="14" lengthAdjust="spacing" textLength="32" x="465.5" y="937.132">Deck</text><line style="stroke:#181818;stroke-width:0.5;" x1="437.5" x2="499.5" y1="947.7" y2="947.7"/><line style="stroke:#181818;stroke-width:0.5;" x1="437.5" x2="499.5" y1="955.7" y2="955.7"/></g><!--reverse link Serializable to HexagoneContainer--><g id="link_Serializable_HexagoneContainer"><path d="M412.5,73.4 C412.5,88.46 412.5,91.5 412.5,114.58 " fill="none" id="Serializable-backto-HexagoneContainer" style="stroke:#181818;stroke-width:1.0;"/><polygon fill="none" points="412.5,55.4,406.5,73.4,418.5,73.4,412.5,55.4" style="stroke:#181818;stroke-width:1.0;"/></g><!--reverse link HexagoneContainer to Hexagone--><g id="link_HexagoneContainer_Hexagone"><path codeLine="20" d="M705.79,272.48 C717.37,272.48 716.95,272.48 728.53,272.48 " fill="none" id="HexagoneContainer-backto-Hexagone" style="stroke:#181818;stroke-width:1.0;"/><polygon fill="none" points="693.79,272.48,699.79,276.48,705.79,272.48,699.79,268.48,693.79,272.48" style="stroke:#181818;stroke-width:1.0;"/><text fill="#000000" font-family="sans-serif" font-size="13" lengthAdjust="spacing" textLength="7" x="714.0108" y="268.2313">*</text></g><!--reverse link HexagoneContainer to Tuile--><g id="link_HexagoneContainer_Tuile"><path d="M412.5,448.1 C412.5,468.18 412.5,470.48 412.5,489.81 " fill="none" id="HexagoneContainer-backto-Tuile" style="stroke:#181818;stroke-width:1.0;"/><polygon fill="none" points="412.5,430.1,406.5,448.1,418.5,448.1,412.5,430.1" style="stroke:#181818;stroke-width:1.0;"/></g><!--reverse link Tuile to TuileD?part--><g id="link_Tuile_TuileD&#233;part"><path d="M572.8193,740.3193 C599.7193,762.1393 611.7,771.85 632,788.32 " fill="none" id="Tuile-backto-TuileD&#233;part" style="stroke:#181818;stroke-width:1.0;"/><polygon fill="none" points="558.84,728.98,569.0395,744.9791,576.599,735.6596,558.84,728.98" style="stroke:#181818;stroke-width:1.0;"/></g><!--reverse link Tuile to TuileJeu--><g id="link_Tuile_TuileJeu"><path d="M412.5,746.98 C412.5,768.9 412.5,772.03 412.5,788.53 " fill="none" id="Tuile-backto-TuileJeu" style="stroke:#181818;stroke-width:1.0;"/><polygon fill="none" points="412.5,728.98,406.5,746.98,418.5,746.98,412.5,728.98" style="stroke:#181818;stroke-width:1.0;"/></g><!--reverse link HexagoneContainer to Plateau--><g id="link_HexagoneContainer_Plateau"><path d="M709.7282,429.0927 C715.7282,432.1127 705.6,427.01 711.5,429.95 C799.22,473.75 899.57,521.34 974.38,556.34 " fill="none" id="HexagoneContainer-backto-Plateau" style="stroke:#181818;stroke-width:1.0;"/><polygon fill="none" points="693.65,421,707.0306,434.4521,712.4258,423.7333,693.65,421" style="stroke:#181818;stroke-width:1.0;"/></g><!--link Affichage to HexagoneContainer--><g id="link_Affichage_HexagoneContainer"><path codeLine="51" d="M96.27,272.48 C107.9,272.48 119.54,272.48 131.17,272.48 " fill="none" id="Affichage-HexagoneContainer" style="stroke:#181818;stroke-width:1.0;"/></g><!--reverse link Joueur to Plateau--><g id="link_Joueur_Plateau"><path codeLine="53" d="M1086.5,308.76 C1086.5,362.14 1086.5,482.47 1086.5,556.34 " fill="none" id="Joueur-backto-Plateau" style="stroke:#181818;stroke-width:1.0;"/><polygon fill="#181818" points="1086.5,296.76,1082.5,302.76,1086.5,308.76,1090.5,302.76,1086.5,296.76" style="stroke:#181818;stroke-width:1.0;"/><text fill="#000000" font-family="sans-serif" font-size="13" lengthAdjust="spacing" textLength="7" x="1079.0297" y="545.0269">1</text></g><!--link Plateau to Jeu--><g id="link_Plateau_Jeu"><path codeLine="54" d="M1031.36,662.33 C954.51,734.86 818.39,863.3 762.99,915.59 " fill="none" id="Plateau-Jeu" style="stroke:#181818;stroke-width:1.0;"/></g><!--link Plateau to Score--><g id="link_Plateau_Score"><path codeLine="55" d="M1086.5,662.15 C1086.5,705.44 1086.5,765.15 1086.5,797.69 " fill="none" id="Plateau-Score" style="stroke:#181818;stroke-width:1.0;"/></g><!--link Hexagone to Tuile--><g id="link_Hexagone_Tuile"><path codeLine="57" d="M773.35,296.9 C765.1,329.84 746.23,390.25 711.5,429.95 C692.4,451.79 679.5423,464.4897 655.6623,482.4397 " fill="none" id="Hexagone-to-Tuile" style="stroke:#181818;stroke-width:1.0;"/><polygon fill="#181818" points="646.07,489.65,653.2696,489.2423,655.6623,482.4397,648.4627,482.8474,646.07,489.65" style="stroke:#181818;stroke-width:1.0;"/><text fill="#000000" font-family="sans-serif" font-size="13" lengthAdjust="spacing" textLength="7" x="764.3497" y="318.4914">*</text></g><!--link TuileJeu to Chantier--><g id="link_TuileJeu_Chantier"><path codeLine="58" d="M396.6,855.96 C387.42,874.91 381.312,887.4907 373.042,904.5607 " fill="none" id="TuileJeu-to-Chantier" style="stroke:#181818;stroke-width:1.0;"/><polygon fill="none" points="367.81,915.36,374.0258,911.7043,373.042,904.5607,366.8262,908.2163,367.81,915.36" style="stroke:#181818;stroke-width:1.0;"/><text fill="#000000" font-family="sans-serif" font-size="13" lengthAdjust="spacing" textLength="7" x="386.0231" y="877.7204">*</text></g><!--link TuileJeu to Deck--><g id="link_TuileJeu_Deck"><path codeLine="59" d="M428.4,855.96 C437.58,874.91 443.688,887.4907 451.958,904.5607 " fill="none" id="TuileJeu-to-Deck" style="stroke:#181818;stroke-width:1.0;"/><polygon fill="#181818" points="457.19,915.36,458.1738,908.2163,451.958,904.5607,450.9742,911.7043,457.19,915.36" style="stroke:#181818;stroke-width:1.0;"/><text fill="#000000" font-family="sans-serif" font-size="13" lengthAdjust="spacing" textLength="7" x="423.6863" y="877.7204">*</text></g><!--link TuileD?part to Jeu--><g id="link_TuileD&#233;part_Jeu"><path codeLine="60" d="M691.24,855.96 C702.06,874.91 709.4683,887.87 719.2183,904.94 " fill="none" id="TuileD&#233;part-to-Jeu" style="stroke:#181818;stroke-width:1.0;"/><polygon fill="#181818" points="725.17,915.36,725.6675,908.1661,719.2183,904.94,718.7208,912.1339,725.17,915.36" style="stroke:#181818;stroke-width:1.0;"/><text fill="#000000" font-family="sans-serif" font-size="13" lengthAdjust="spacing" textLength="7" x="687.0499" y="877.7204">1</text></g><!--link Tuile to Plateau--><g id="link_Tuile_Plateau"><path codeLine="61" d="M664.26,609.29 C675.81,609.29 687.35,609.29 698.9,609.29 " fill="none" id="Tuile-Plateau" style="stroke:#181818;stroke-width:1.0;"/></g><!--SRC=[pLJDRXCn4BxxAKoGgjrj8XMEWI2XzW2LG4MfUeqcpYGnREp5dfMgHdqWdeCNOtRjzQO9hPgA0tlopdpVD-FvCSmzEL0af-WqbFeEvYKAwAog1E_b9xo5bJLuRWs1DkWatXAQXN_0abiX-NijLOADvGQgzpUeoBgtmwHJV8X8Pu6qDOnRbdmKhVbKhi5tq4nPwnPyGCyeLlOaezv9pfQvjMLahP2UmP8jBMNISwVw3hCyWiVIy- -CefjixLZLe_6pjNMW7SROSYB9rJYK2Wqvd3bBtPLQfIvNniLZTZOyo_CeFCULDbaU2ZKUQq8737gqPAUIotuKVYz2czJiAPxyMw3dqzIB0weNHlHn1Z5R007plzq0MmnzWUfas4uZZolRqx0s3JeFvgBhn08FTC8e7AVsJjoBmtMn8pae1YbtiRzWrxNc_UcMwf3VRPPlXaj9myZF5vo3DXGzUX5-vROs-cUDzz6-XfgmTX6RAaQpwCXwGBWkm_9-AH8ituaMF7gnioszorQXOvD9HaaqtE-4UiBEtdQCLyzc_7ST5pjjlFZzgm97gPlX9jjko1lWLzXWMr4U0crMUmANM1z1RZozm5K9X50_CKf9hCAQPbK92br6RPXn2CTthgpNkwzOUdBPvN2ZqLqrn0s_UVqxk8JIuzwR_C_rX_AxhSEyNhQ7WZscBikAt5xinqgTTk_ZSgdL6bOeqacE3aicH8WaYn6lyPj1LsJH5PlDtBFTtwcoZhUyasgNVpGgmlr5wd8mMtc-vcdZI-zx2dc1weTuC5PD0esdYHYcOvGI4dy0]--></g></svg>