<?xml version="1.0" encoding="us-ascii" standalone="no"?><svg xmlns="http://www.w3.org/2000/svg" xmlns:xlink="http://www.w3.org/1999/xlink" contentStyleType="text/css" hauteur="843px" preserveAspectRatio="none" style="width:1656px;hauteur:843px;background:#FFFFFF;" version="1.1" viewBox="0 0 1656 843" width="1656px" zoomAndPan="magnify"><defs/><g><!--class Serializable--><g id="elem_Serializable"><rect codeLine="2" fill="#F1F1F1" hauteur="48" id="Serializable" rx="2.5" ry="2.5" style="stroke:#181818;stroke-width:0.5;" width="105" x="574" y="115"/><ellipse cx="589" cy="131" fill="#A9DCDF" rx="11" ry="11" style="stroke:#181818;stroke-width:1.0;"/><path d="M592.3438,136.25 L590.875,132.5 L586.4375,132.5 L585,136.25 L582.875,136.25 L587.8281,123.5313 L589.5781,123.5313 L594.5,136.25 L592.3438,136.25 Z M589,127.2969 Q588.9531,127.1406 588.8281,126.7813 Q588.7031,126.4219 588.5938,126.0469 Q588.4844,125.6563 588.6875,125.5938 Q588.8438,125.7813 588.75,126.1406 Q588.6563,126.4844 588.5625,126.7813 Q588.4688,127.0625 588.3906,127.2969 L587.1563,130.6094 L590.2344,130.6094 L589,127.2969 Z " fill="#000000"/><text fill="#000000" font-family="sans-serif" font-size="14" font-style="italic" lengthAdjust="spacing" textLength="73" x="603" y="136.432">Serializable</text><line style="stroke:#181818;stroke-width:0.5;" x1="575" x2="678" y1="147" y2="147"/><line style="stroke:#181818;stroke-width:0.5;" x1="575" x2="678" y1="155" y2="155"/></g><!--class Hexagone--><g id="elem_Hexagone"><rect codeLine="4" fill="#F1F1F1" hauteur="353.0867" id="Hexagone" rx="2.5" ry="2.5" style="stroke:#181818;stroke-width:0.5;" width="606" x="428.5" y="223"/><ellipse cx="695.75" cy="239" fill="#A9DCDF" rx="11" ry="11" style="stroke:#181818;stroke-width:1.0;"/><path d="M699.0938,244.25 L697.625,240.5 L693.1875,240.5 L691.75,244.25 L689.625,244.25 L694.5781,231.5313 L696.3281,231.5313 L701.25,244.25 L699.0938,244.25 Z M695.75,235.2969 Q695.7031,235.1406 695.5781,234.7813 Q695.4531,234.4219 695.3438,234.0469 Q695.2344,233.6563 695.4375,233.5938 Q695.5938,233.7813 695.5,234.1406 Q695.4063,234.4844 695.3125,234.7813 Q695.2188,235.0625 695.1406,235.2969 L693.9063,238.6094 L696.9844,238.6094 L695.75,235.2969 Z " fill="#000000"/><text fill="#000000" font-family="sans-serif" font-size="14" font-style="italic" lengthAdjust="spacing" textLength="63" x="716.25" y="244.432">Hexagone</text><line style="stroke:#181818;stroke-width:0.5;" x1="429.5" x2="1033.5" y1="255" y2="255"/><polygon fill="none" points="439.5,265.034,443.5,269.034,439.5,273.034,435.5,269.034" style="stroke:#B38D22;stroke-width:1.0;"/><text fill="#000000" font-family="sans-serif" font-size="14" lengthAdjust="spacing" textLength="185" x="448.5" y="273.9659">couleur : CouleursAkropolis</text><polygon fill="none" points="439.5,284.1019,443.5,288.1019,439.5,292.1019,435.5,288.1019" style="stroke:#B38D22;stroke-width:1.0;"/><text fill="#000000" font-family="sans-serif" font-size="14" lengthAdjust="spacing" textLength="116" x="448.5" y="293.0339">localPos : Vector2</text><polygon fill="none" points="439.5,303.1698,443.5,307.1698,439.5,311.1698,435.5,307.1698" style="stroke:#B38D22;stroke-width:1.0;"/><text fill="#000000" font-family="sans-serif" font-size="14" lengthAdjust="spacing" textLength="127" x="448.5" y="312.1018">tuileParent : Tuile*</text><line style="stroke:#181818;stroke-width:0.5;" x1="429.5" x2="1033.5" y1="320.2038" y2="320.2038"/><ellipse cx="439.5" cy="335.2377" fill="#84BE84" rx="3" ry="3" style="stroke:#038048;stroke-width:1.0;"/><text fill="#000000" font-family="sans-serif" font-size="14" lengthAdjust="spacing" textLength="75" x="448.5" y="339.1697">Hexagone()</text><ellipse cx="439.5" cy="354.3056" fill="#84BE84" rx="3" ry="3" style="stroke:#038048;stroke-width:1.0;"/><text fill="#000000" font-family="sans-serif" font-size="14" lengthAdjust="spacing" textLength="580" x="448.5" y="358.2376">Hexagone (tuile_parent : Tuile*, localPos : const Vector2&amp;, couleur : CouleursAkropolis)</text><ellipse cx="439.5" cy="373.3735" fill="#84BE84" rx="3" ry="3" style="stroke:#038048;stroke-width:1.0;"/><text fill="#000000" font-family="sans-serif" font-size="14" lengthAdjust="spacing" textLength="117" x="448.5" y="377.3055">get_couleur() : int</text><ellipse cx="439.5" cy="392.4415" fill="#84BE84" rx="3" ry="3" style="stroke:#038048;stroke-width:1.0;"/><text fill="#000000" font-family="sans-serif" font-size="14" lengthAdjust="spacing" textLength="119" x="448.5" y="396.3734">get_tuile() : Tuile*</text><ellipse cx="439.5" cy="411.5094" fill="#84BE84" rx="3" ry="3" style="stroke:#038048;stroke-width:1.0;"/><text fill="#000000" font-family="sans-serif" font-size="14" lengthAdjust="spacing" textLength="239" x="448.5" y="415.4414">get_local_position() : const Vector2&amp;</text><ellipse cx="439.5" cy="430.5773" fill="#84BE84" rx="3" ry="3" style="stroke:#038048;stroke-width:1.0;"/><text fill="#000000" font-family="sans-serif" font-size="14" lengthAdjust="spacing" textLength="120" x="448.5" y="434.5093">get_hauteur() : int</text><ellipse cx="439.5" cy="449.6452" fill="#84BE84" rx="3" ry="3" style="stroke:#038048;stroke-width:1.0;"/><text fill="#000000" font-family="sans-serif" font-size="14" lengthAdjust="spacing" textLength="448" x="448.5" y="453.5772">peut_etre_plac&#233;e(map:Map*, position:Vector2) const : bool {virtual}</text><ellipse cx="439.5" cy="468.7131" fill="#84BE84" rx="3" ry="3" style="stroke:#038048;stroke-width:1.0;"/><text fill="#000000" font-family="sans-serif" font-size="14" lengthAdjust="spacing" textLength="430" x="448.5" y="472.6451">quand_recouvert(joueur_qui_la_recouvre:Joueur*) const {virtual}</text><ellipse cx="439.5" cy="487.781" fill="#84BE84" rx="3" ry="3" style="stroke:#038048;stroke-width:1.0;"/><text fill="#000000" font-family="sans-serif" font-size="14" lengthAdjust="spacing" textLength="246" x="448.5" y="491.713">get_text() : const string {pure virtual}</text><ellipse cx="439.5" cy="506.849" fill="#84BE84" rx="3" ry="3" style="stroke:#038048;stroke-width:1.0;"/><text fill="#000000" font-family="sans-serif" font-size="14" lengthAdjust="spacing" textLength="420" x="448.5" y="510.7809">affiche_console(highlighted : bool) const : const vector&lt;string&gt;</text><ellipse cx="439.5" cy="525.9169" fill="#84BE84" rx="3" ry="3" style="stroke:#038048;stroke-width:1.0;"/><text fill="#000000" font-family="sans-serif" font-size="14" lengthAdjust="spacing" textLength="273" x="448.5" y="529.8489">get_type() const : TypeHexagone {virtual}</text><ellipse cx="439.5" cy="544.9848" fill="#84BE84" rx="3" ry="3" style="stroke:#038048;stroke-width:1.0;"/><text fill="#000000" font-family="sans-serif" font-size="14" lengthAdjust="spacing" textLength="416" x="448.5" y="548.9168">serialize(data : QVariantMap&amp;, context : SerializationContext*)</text><ellipse cx="439.5" cy="564.0527" fill="#84BE84" rx="3" ry="3" style="stroke:#038048;stroke-width:1.0;"/><text fill="#000000" font-family="sans-serif" font-size="14" lengthAdjust="spacing" textLength="477" x="448.5" y="567.9847">deserialize(data : const QVariantMap&amp;, context : SerializationContext*);</text></g><!--class Carriere--><g id="elem_Carriere"><rect codeLine="24" fill="#F1F1F1" hauteur="162.4075" id="Carriere" rx="2.5" ry="2.5" style="stroke:#181818;stroke-width:0.5;" width="401" x="9" y="655.15"/><ellipse cx="177.75" cy="671.15" fill="#ADD1B2" rx="11" ry="11" style="stroke:#181818;stroke-width:1.0;"/><path d="M177.8594,666.6813 Q176.9375,666.6813 176.2031,666.9938 Q175.4844,667.3063 174.9844,667.9 Q174.4844,668.4781 174.2031,669.3531 Q173.9375,670.2281 173.9375,671.3219 Q173.9375,672.7594 174.375,673.8063 Q174.8281,674.8531 175.6719,675.4 Q176.5313,675.9469 177.8438,675.9469 Q178.625,675.9469 179.3125,675.8219 Q180.0156,675.6813 181.0156,675.3688 L181.0156,677.2438 Q180.1563,677.5719 179.3906,677.6969 Q178.6406,677.8219 177.625,677.8219 Q175.7031,677.8219 174.3906,677.025 Q173.0938,676.2125 172.4375,674.7438 Q171.7813,673.2594 171.7813,671.2906 Q171.7813,669.8688 172.1719,668.6969 Q172.5781,667.5094 173.3594,666.6344 Q174.1406,665.7594 175.2813,665.2906 Q176.4219,664.8063 177.8906,664.8063 Q178.8438,664.8063 179.7344,665.0094 Q180.6406,665.1969 181.5781,665.6656 L180.75,667.4469 Q179.9688,667.0719 179.3125,666.8844 Q178.6563,666.6813 177.8594,666.6813 Z " fill="#000000"/><text fill="#000000" font-family="sans-serif" font-size="14" lengthAdjust="spacing" textLength="55" x="198.25" y="676.582">Carriere</text><line style="stroke:#181818;stroke-width:0.5;" x1="10" x2="409" y1="687.15" y2="687.15"/><polygon fill="none" points="20,697.184,24,701.184,20,705.184,16,701.184" style="stroke:#B38D22;stroke-width:1.0;"/><text fill="#000000" font-family="sans-serif" font-size="14" lengthAdjust="spacing" textLength="115" x="29" y="706.1159">pierre_count : int</text><line style="stroke:#181818;stroke-width:0.5;" x1="10" x2="409" y1="714.2179" y2="714.2179"/><ellipse cx="20" cy="729.2519" fill="#84BE84" rx="3" ry="3" style="stroke:#038048;stroke-width:1.0;"/><text fill="#000000" font-family="sans-serif" font-size="14" lengthAdjust="spacing" textLength="375" x="29" y="733.1839">Carriere (tuile_parent : Tuile*, localPos : const Vector2&amp;)</text><ellipse cx="20" cy="748.3198" fill="#84BE84" rx="3" ry="3" style="stroke:#038048;stroke-width:1.0;"/><text fill="#000000" font-family="sans-serif" font-size="14" lengthAdjust="spacing" textLength="176" x="29" y="752.2518">get_type() : TypeHexagone</text><ellipse cx="20" cy="767.3877" fill="#84BE84" rx="3" ry="3" style="stroke:#038048;stroke-width:1.0;"/><text fill="#000000" font-family="sans-serif" font-size="14" lengthAdjust="spacing" textLength="153" x="29" y="771.3197">get_text() : const string</text><ellipse cx="20" cy="786.4556" fill="#84BE84" rx="3" ry="3" style="stroke:#038048;stroke-width:1.0;"/><text fill="#000000" font-family="sans-serif" font-size="14" lengthAdjust="spacing" textLength="373" x="29" y="790.3876">quand_recouvert(joueur_qui_la_recouvre:Joueur*) const</text><ellipse cx="20" cy="805.5235" fill="#84BE84" rx="3" ry="3" style="stroke:#038048;stroke-width:1.0;"/><text fill="#000000" font-family="sans-serif" font-size="14" lengthAdjust="spacing" textLength="133" x="29" y="809.4555">className() : string</text></g><!--class Place--><g id="elem_Place"><rect codeLine="34" fill="#F1F1F1" hauteur="200.5433" id="Place" rx="2.5" ry="2.5" style="stroke:#181818;stroke-width:0.5;" width="574" x="444.5" y="636.09"/><ellipse cx="709.75" cy="652.09" fill="#ADD1B2" rx="11" ry="11" style="stroke:#181818;stroke-width:1.0;"/><path d="M709.8594,647.6213 Q708.9375,647.6213 708.2031,647.9338 Q707.4844,648.2463 706.9844,648.84 Q706.4844,649.4181 706.2031,650.2931 Q705.9375,651.1681 705.9375,652.2619 Q705.9375,653.6994 706.375,654.7463 Q706.8281,655.7931 707.6719,656.34 Q708.5313,656.8869 709.8438,656.8869 Q710.625,656.8869 711.3125,656.7619 Q712.0156,656.6213 713.0156,656.3088 L713.0156,658.1838 Q712.1563,658.5119 711.3906,658.6369 Q710.6406,658.7619 709.625,658.7619 Q707.7031,658.7619 706.3906,657.965 Q705.0938,657.1525 704.4375,655.6838 Q703.7813,654.1994 703.7813,652.2306 Q703.7813,650.8088 704.1719,649.6369 Q704.5781,648.4494 705.3594,647.5744 Q706.1406,646.6994 707.2813,646.2306 Q708.4219,645.7463 709.8906,645.7463 Q710.8438,645.7463 711.7344,645.9494 Q712.6406,646.1369 713.5781,646.6056 L712.75,648.3869 Q711.9688,648.0119 711.3125,647.8244 Q710.6563,647.6213 709.8594,647.6213 Z " fill="#000000"/><text fill="#000000" font-family="sans-serif" font-size="14" lengthAdjust="spacing" textLength="35" x="730.25" y="657.522">Place</text><line style="stroke:#181818;stroke-width:0.5;" x1="445.5" x2="1017.5" y1="668.09" y2="668.09"/><polygon fill="none" points="455.5,678.124,459.5,682.124,455.5,686.124,451.5,682.124" style="stroke:#B38D22;stroke-width:1.0;"/><text fill="#000000" font-family="sans-serif" font-size="14" lengthAdjust="spacing" textLength="74" x="464.5" y="687.0559">etoiles : int</text><line style="stroke:#181818;stroke-width:0.5;" x1="445.5" x2="1017.5" y1="695.1579" y2="695.1579"/><ellipse cx="455.5" cy="710.1919" fill="#84BE84" rx="3" ry="3" style="stroke:#038048;stroke-width:1.0;"/><text fill="#000000" font-family="sans-serif" font-size="14" lengthAdjust="spacing" textLength="548" x="464.5" y="714.1239">Place (tuile_parent : Tuile*, localPos : const Vector2&amp;, couleur : CouleursAkropolis)</text><ellipse cx="455.5" cy="729.2598" fill="#84BE84" rx="3" ry="3" style="stroke:#038048;stroke-width:1.0;"/><text fill="#000000" font-family="sans-serif" font-size="14" lengthAdjust="spacing" textLength="110" x="464.5" y="733.1918">get_etoiles() : int</text><ellipse cx="455.5" cy="748.3277" fill="#84BE84" rx="3" ry="3" style="stroke:#038048;stroke-width:1.0;"/><text fill="#000000" font-family="sans-serif" font-size="14" lengthAdjust="spacing" textLength="176" x="464.5" y="752.2597">get_type() : TypeHexagone</text><ellipse cx="455.5" cy="767.3956" fill="#84BE84" rx="3" ry="3" style="stroke:#038048;stroke-width:1.0;"/><text fill="#000000" font-family="sans-serif" font-size="14" lengthAdjust="spacing" textLength="153" x="464.5" y="771.3276">get_text() : const string</text><ellipse cx="455.5" cy="786.4635" fill="#84BE84" rx="3" ry="3" style="stroke:#038048;stroke-width:1.0;"/><text fill="#000000" font-family="sans-serif" font-size="14" lengthAdjust="spacing" textLength="416" x="464.5" y="790.3955">serialize(data : QVariantMap&amp;, context : SerializationContext*)</text><ellipse cx="455.5" cy="805.5315" fill="#84BE84" rx="3" ry="3" style="stroke:#038048;stroke-width:1.0;"/><text fill="#000000" font-family="sans-serif" font-size="14" lengthAdjust="spacing" textLength="477" x="464.5" y="809.4634">deserialize(data : const QVariantMap&amp;, context : SerializationContext*);</text><ellipse cx="455.5" cy="824.5994" fill="#84BE84" rx="3" ry="3" style="stroke:#038048;stroke-width:1.0;"/><text fill="#000000" font-family="sans-serif" font-size="14" lengthAdjust="spacing" textLength="133" x="464.5" y="828.5314">className() : string</text></g><!--class Quartier--><g id="elem_Quartier"><rect codeLine="46" fill="#F1F1F1" hauteur="124.2717" id="Quartier" rx="2.5" ry="2.5" style="stroke:#181818;stroke-width:0.5;" width="596" x="1053.5" y="674.22"/><ellipse cx="1318.75" cy="690.22" fill="#ADD1B2" rx="11" ry="11" style="stroke:#181818;stroke-width:1.0;"/><path d="M1318.8594,685.7513 Q1317.9375,685.7513 1317.2031,686.0638 Q1316.4844,686.3763 1315.9844,686.97 Q1315.4844,687.5481 1315.2031,688.4231 Q1314.9375,689.2981 1314.9375,690.3919 Q1314.9375,691.8294 1315.375,692.8763 Q1315.8281,693.9231 1316.6719,694.47 Q1317.5313,695.0169 1318.8438,695.0169 Q1319.625,695.0169 1320.3125,694.8919 Q1321.0156,694.7513 1322.0156,694.4388 L1322.0156,696.3138 Q1321.1563,696.6419 1320.3906,696.7669 Q1319.6406,696.8919 1318.625,696.8919 Q1316.7031,696.8919 1315.3906,696.095 Q1314.0938,695.2825 1313.4375,693.8138 Q1312.7813,692.3294 1312.7813,690.3606 Q1312.7813,688.9388 1313.1719,687.7669 Q1313.5781,686.5794 1314.3594,685.7044 Q1315.1406,684.8294 1316.2813,684.3606 Q1317.4219,683.8763 1318.8906,683.8763 Q1319.8438,683.8763 1320.7344,684.0794 Q1321.6406,684.2669 1322.5781,684.7356 L1321.75,686.5169 Q1320.9688,686.1419 1320.3125,685.9544 Q1319.6563,685.7513 1318.8594,685.7513 Z " fill="#000000"/><text fill="#000000" font-family="sans-serif" font-size="14" lengthAdjust="spacing" textLength="57" x="1339.25" y="695.652">Quartier</text><line style="stroke:#181818;stroke-width:0.5;" x1="1054.5" x2="1648.5" y1="706.22" y2="706.22"/><line style="stroke:#181818;stroke-width:0.5;" x1="1054.5" x2="1648.5" y1="714.22" y2="714.22"/><ellipse cx="1064.5" cy="729.254" fill="#84BE84" rx="3" ry="3" style="stroke:#038048;stroke-width:1.0;"/><text fill="#000000" font-family="sans-serif" font-size="14" lengthAdjust="spacing" textLength="570" x="1073.5" y="733.1859">Quartier (tuile_parent : Tuile*, localPos : const Vector2&amp;, couleur : CouleursAkropolis)</text><ellipse cx="1064.5" cy="748.3219" fill="#84BE84" rx="3" ry="3" style="stroke:#038048;stroke-width:1.0;"/><text fill="#000000" font-family="sans-serif" font-size="14" lengthAdjust="spacing" textLength="176" x="1073.5" y="752.2539">get_type() : TypeHexagone</text><ellipse cx="1064.5" cy="767.3898" fill="#84BE84" rx="3" ry="3" style="stroke:#038048;stroke-width:1.0;"/><text fill="#000000" font-family="sans-serif" font-size="14" lengthAdjust="spacing" textLength="153" x="1073.5" y="771.3218">get_text() : const string</text><ellipse cx="1064.5" cy="786.4577" fill="#84BE84" rx="3" ry="3" style="stroke:#038048;stroke-width:1.0;"/><text fill="#000000" font-family="sans-serif" font-size="14" lengthAdjust="spacing" textLength="133" x="1073.5" y="790.3897">className() : string</text></g><!--class HexagoneContainer--><g id="elem_HexagoneContainer"><rect codeLine="53" fill="#F1F1F1" hauteur="48" id="HexagoneContainer" rx="2.5" ry="2.5" style="stroke:#181818;stroke-width:0.5;" width="157" x="696" y="7"/><ellipse cx="711" cy="23" fill="#A9DCDF" rx="11" ry="11" style="stroke:#181818;stroke-width:1.0;"/><path d="M714.3438,28.25 L712.875,24.5 L708.4375,24.5 L707,28.25 L704.875,28.25 L709.8281,15.5313 L711.5781,15.5313 L716.5,28.25 L714.3438,28.25 Z M711,19.2969 Q710.9531,19.1406 710.8281,18.7813 Q710.7031,18.4219 710.5938,18.0469 Q710.4844,17.6563 710.6875,17.5938 Q710.8438,17.7813 710.75,18.1406 Q710.6563,18.4844 710.5625,18.7813 Q710.4688,19.0625 710.3906,19.2969 L709.1563,22.6094 L712.2344,22.6094 L711,19.2969 Z " fill="#000000"/><text fill="#000000" font-family="sans-serif" font-size="14" font-style="italic" lengthAdjust="spacing" textLength="125" x="725" y="28.432">HexagoneContainer</text><line style="stroke:#181818;stroke-width:0.5;" x1="697" x2="852" y1="39" y2="39"/><line style="stroke:#181818;stroke-width:0.5;" x1="697" x2="852" y1="47" y2="47"/></g><!--class Tuile--><g id="elem_Tuile"><rect codeLine="54" fill="#F1F1F1" hauteur="48" id="Tuile" rx="2.5" ry="2.5" style="stroke:#181818;stroke-width:0.5;" width="65" x="785" y="115"/><ellipse cx="800" cy="131" fill="#ADD1B2" rx="11" ry="11" style="stroke:#181818;stroke-width:1.0;"/><path d="M800.1094,126.5313 Q799.1875,126.5313 798.4531,126.8438 Q797.7344,127.1563 797.2344,127.75 Q796.7344,128.3281 796.4531,129.2031 Q796.1875,130.0781 796.1875,131.1719 Q796.1875,132.6094 796.625,133.6563 Q797.0781,134.7031 797.9219,135.25 Q798.7813,135.7969 800.0938,135.7969 Q800.875,135.7969 801.5625,135.6719 Q802.2656,135.5313 803.2656,135.2188 L803.2656,137.0938 Q802.4063,137.4219 801.6406,137.5469 Q800.8906,137.6719 799.875,137.6719 Q797.9531,137.6719 796.6406,136.875 Q795.3438,136.0625 794.6875,134.5938 Q794.0313,133.1094 794.0313,131.1406 Q794.0313,129.7188 794.4219,128.5469 Q794.8281,127.3594 795.6094,126.4844 Q796.3906,125.6094 797.5313,125.1406 Q798.6719,124.6563 800.1406,124.6563 Q801.0938,124.6563 801.9844,124.8594 Q802.8906,125.0469 803.8281,125.5156 L803,127.2969 Q802.2188,126.9219 801.5625,126.7344 Q800.9063,126.5313 800.1094,126.5313 Z " fill="#000000"/><text fill="#000000" font-family="sans-serif" font-size="14" lengthAdjust="spacing" textLength="33" x="814" y="136.432">Tuile</text><line style="stroke:#181818;stroke-width:0.5;" x1="786" x2="849" y1="147" y2="147"/><line style="stroke:#181818;stroke-width:0.5;" x1="786" x2="849" y1="155" y2="155"/></g><!--reverse link Serializable to Hexagone--><g id="link_Serializable_Hexagone"><path d="M642.779,180.0747 C648.869,195.0547 650.6,199.33 660.05,222.62 " fill="none" id="Serializable-backto-Hexagone" style="stroke:#181818;stroke-width:1.0;"/><polygon fill="none" points="636,163.4,637.2207,182.3344,648.3372,177.815,636,163.4" style="stroke:#181818;stroke-width:1.0;"/></g><!--reverse link Hexagone to Carriere--><g id="link_Hexagone_Carriere"><path d="M441.9684,586.2475 C399.3084,613.6075 372.28,630.95 335.15,654.77 " fill="none" id="Hexagone-backto-Carriere" style="stroke:#181818;stroke-width:1.0;"/><polygon fill="none" points="457.12,576.53,438.7293,581.1969,445.2076,591.298,457.12,576.53" style="stroke:#181818;stroke-width:1.0;"/></g><!--reverse link Hexagone to Place--><g id="link_Hexagone_Place"><path d="M731.5,594.29 C731.5,614.65 731.5,616.85 731.5,635.68 " fill="none" id="Hexagone-backto-Place" style="stroke:#181818;stroke-width:1.0;"/><polygon fill="none" points="731.5,576.29,725.5,594.29,737.5,594.29,731.5,576.29" style="stroke:#181818;stroke-width:1.0;"/></g><!--reverse link Hexagone to Quartier--><g id="link_Hexagone_Quartier"><path d="M1050.5276,572.8239 C1122.8476,611.8839 1179.83,642.65 1237.39,673.73 " fill="none" id="Hexagone-backto-Quartier" style="stroke:#181818;stroke-width:1.0;"/><polygon fill="none" points="1034.69,564.27,1047.6763,578.1031,1053.3789,567.5447,1034.69,564.27" style="stroke:#181818;stroke-width:1.0;"/></g><!--reverse link HexagoneContainer to Tuile--><g id="link_HexagoneContainer_Tuile"><path d="M790.7047,71.9405 C797.8747,89.6205 800.92,97.13 808.09,114.79 " fill="none" id="HexagoneContainer-backto-Tuile" style="stroke:#181818;stroke-width:1.0;"/><polygon fill="none" points="783.94,55.26,785.1445,74.1954,796.2648,69.6856,783.94,55.26" style="stroke:#181818;stroke-width:1.0;"/></g><!--reverse link HexagoneContainer to Hexagone--><g id="link_HexagoneContainer_Hexagone"><path codeLine="55" d="M770.3421,67.4083 C766.3121,101.7683 759.84,156.93 752.13,222.72 " fill="none" id="HexagoneContainer-backto-Hexagone" style="stroke:#181818;stroke-width:1.0;"/><polygon fill="none" points="771.74,55.49,767.0683,60.9832,770.3421,67.4083,775.0138,61.9151,771.74,55.49" style="stroke:#181818;stroke-width:1.0;"/><text fill="#000000" font-family="sans-serif" font-size="13" lengthAdjust="spacing" textLength="7" x="745.9062" y="211.2355">*</text></g><!--reverse link Tuile to Hexagone--><g id="link_Tuile_Hexagone"><path codeLine="56" d="M805.9275,174.785 C800.9375,189.765 797.76,199.33 790.02,222.62 " fill="none" id="Tuile-backto-Hexagone" style="stroke:#181818;stroke-width:1.0;"/><polygon fill="#181818" points="809.72,163.4,804.0288,167.8283,805.9275,174.785,811.6188,170.3566,809.72,163.4" style="stroke:#181818;stroke-width:1.0;"/><text fill="#000000" font-family="sans-serif" font-size="13" lengthAdjust="spacing" textLength="7" x="785.5131" y="211.131">*</text></g><!--SRC=[pLLjRzCm4FxkNs4D2QNTEdLbGoWW17G3L5ReMDUlqJMvjGRNpXoxsfZsW_WT_34kYPE-iS4qJQ9IrURkkPVdkRC3uymQY2sF9MGPFqKZG8eVC9R8hsyOWrN_Hxo4YLR8yTAYIjO36AVF4nvh9z4P7l9k-Izx-zteL4kHUOJKCSY1pWWomjXgq_4EwuJ40HXKbdp3_Ad92jzsNJneh1buK8H5wMhSpdAPMAlCLiMUxjpLOvL-WZRoiA11GA7iagSeMTXzbmjNKJPATIQiqAh0h9PVmax1sSq2AJeReJN4IKBywoS6CqZ3FgH4gieR-cmDdppaOwqblvuBOnt86v_gme5A8eF4P8x61j-qethHXHEH16yt6FOASxDAjfwbO4n3No93Yo7KX5-dpY1VWyFvkOYd6EL8JJ9DnMGgwMinyNqkkYv_vmMPLsNIryjLhz9SvWezfCTwxkjTPduRCKZ00g5FHa0MPKcvOkOgvq3sUcrp8RkbkLdDFS6DF6Nr-sLxoUZybCUc2yO8D8jZis3WzpubjydrSiK2vvlWkwbZxxtaZKqLL_NxssmVia4-jk3_6MPbSP-srcL0ots7A6WrKSnMzIXZ7k_4-w9_El4FqF0_syn_6Sw90sDfyswRp_O2yNZJU8Zcjz6xvPsMomD24HrwyPMkWiS6_nf8kCrWtMhnhUPMZMPbakQw-GtbP8osMTcp_Z7TVoQZ6V6ztKwxix_xB1XE7N-FOxvtm3ljSByTjWzuzsZ8StU31Hy6n_CEpxGpT1eIaRCRktpA3TQ3EV2lT9686ORyIuggT_YfCl0ZHPUcLZEQ5EkD-Wl0y_tMEs7pbQ5U-AZF3l4SdBGK4Uk4j0lvsV1zwmKx1ZLnCA7Sg5Wtlx7C5VbEVmC0]--></g></svg>