<?xml version="1.0" encoding="us-ascii" standalone="no"?><svg xmlns="http://www.w3.org/2000/svg" xmlns:xlink="http://www.w3.org/1999/xlink" contentStyleType="text/css" height="883px" preserveAspectRatio="none" style="width:1656px;height:883px;background:#FFFFFF;" version="1.1" viewBox="0 0 1656 883" width="1656px" zoomAndPan="magnify"><defs/><g><!--class Serializable--><g id="elem_Serializable"><rect codeLine="2" fill="#F1F1F1" height="48" id="Serializable" rx="2.5" ry="2.5" style="stroke:#181818;stroke-width:0.5;" width="105" x="488" y="116"/><ellipse cx="503" cy="132" fill="#A9DCDF" rx="11" ry="11" style="stroke:#181818;stroke-width:1.0;"/><path d="M506.3438,137.25 L504.875,133.5 L500.4375,133.5 L499,137.25 L496.875,137.25 L501.8281,124.5313 L503.5781,124.5313 L508.5,137.25 L506.3438,137.25 Z M503,128.2969 Q502.9531,128.1406 502.8281,127.7813 Q502.7031,127.4219 502.5938,127.0469 Q502.4844,126.6563 502.6875,126.5938 Q502.8438,126.7813 502.75,127.1406 Q502.6563,127.4844 502.5625,127.7813 Q502.4688,128.0625 502.3906,128.2969 L501.1563,131.6094 L504.2344,131.6094 L503,128.2969 Z " fill="#000000"/><text fill="#000000" font-family="sans-serif" font-size="14" font-style="italic" lengthAdjust="spacing" textLength="73" x="517" y="137.432">Serializable</text><line style="stroke:#181818;stroke-width:0.5;" x1="489" x2="592" y1="148" y2="148"/><line style="stroke:#181818;stroke-width:0.5;" x1="489" x2="592" y1="156" y2="156"/></g><!--class Hexagone--><g id="elem_Hexagone"><rect codeLine="4" fill="#F1F1F1" height="372.1546" id="Hexagone" rx="2.5" ry="2.5" style="stroke:#181818;stroke-width:0.5;" width="606" x="428.5" y="243"/><ellipse cx="695.75" cy="259" fill="#A9DCDF" rx="11" ry="11" style="stroke:#181818;stroke-width:1.0;"/><path d="M699.0938,264.25 L697.625,260.5 L693.1875,260.5 L691.75,264.25 L689.625,264.25 L694.5781,251.5313 L696.3281,251.5313 L701.25,264.25 L699.0938,264.25 Z M695.75,255.2969 Q695.7031,255.1406 695.5781,254.7813 Q695.4531,254.4219 695.3438,254.0469 Q695.2344,253.6563 695.4375,253.5938 Q695.5938,253.7813 695.5,254.1406 Q695.4063,254.4844 695.3125,254.7813 Q695.2188,255.0625 695.1406,255.2969 L693.9063,258.6094 L696.9844,258.6094 L695.75,255.2969 Z " fill="#000000"/><text fill="#000000" font-family="sans-serif" font-size="14" font-style="italic" lengthAdjust="spacing" textLength="63" x="716.25" y="264.432">Hexagone</text><line style="stroke:#181818;stroke-width:0.5;" x1="429.5" x2="1033.5" y1="275" y2="275"/><polygon fill="none" points="439.5,285.034,443.5,289.034,439.5,293.034,435.5,289.034" style="stroke:#B38D22;stroke-width:1.0;"/><text fill="#000000" font-family="sans-serif" font-size="14" lengthAdjust="spacing" textLength="185" x="448.5" y="293.9659">couleur : CouleursAkropolis</text><polygon fill="none" points="439.5,304.1019,443.5,308.1019,439.5,312.1019,435.5,308.1019" style="stroke:#B38D22;stroke-width:1.0;"/><text fill="#000000" font-family="sans-serif" font-size="14" lengthAdjust="spacing" textLength="116" x="448.5" y="313.0339">localPos : Vector2</text><polygon fill="none" points="439.5,323.1698,443.5,327.1698,439.5,331.1698,435.5,327.1698" style="stroke:#B38D22;stroke-width:1.0;"/><text fill="#000000" font-family="sans-serif" font-size="14" lengthAdjust="spacing" textLength="127" x="448.5" y="332.1018">tuileParent : Tuile*</text><line style="stroke:#181818;stroke-width:0.5;" x1="429.5" x2="1033.5" y1="340.2038" y2="340.2038"/><ellipse cx="439.5" cy="355.2377" fill="#84BE84" rx="3" ry="3" style="stroke:#038048;stroke-width:1.0;"/><text fill="#000000" font-family="sans-serif" font-size="14" lengthAdjust="spacing" textLength="75" x="448.5" y="359.1697">Hexagone()</text><ellipse cx="439.5" cy="374.3056" fill="#84BE84" rx="3" ry="3" style="stroke:#038048;stroke-width:1.0;"/><text fill="#000000" font-family="sans-serif" font-size="14" lengthAdjust="spacing" textLength="580" x="448.5" y="378.2376">Hexagone (tuile_parent : Tuile*, localPos : const Vector2&amp;, couleur : CouleursAkropolis)</text><ellipse cx="439.5" cy="393.3735" fill="#84BE84" rx="3" ry="3" style="stroke:#038048;stroke-width:1.0;"/><text fill="#000000" font-family="sans-serif" font-size="14" lengthAdjust="spacing" textLength="117" x="448.5" y="397.3055">get_couleur() : int</text><ellipse cx="439.5" cy="412.4415" fill="#84BE84" rx="3" ry="3" style="stroke:#038048;stroke-width:1.0;"/><text fill="#000000" font-family="sans-serif" font-size="14" lengthAdjust="spacing" textLength="119" x="448.5" y="416.3734">get_tuile() : Tuile*</text><ellipse cx="439.5" cy="431.5094" fill="#84BE84" rx="3" ry="3" style="stroke:#038048;stroke-width:1.0;"/><text fill="#000000" font-family="sans-serif" font-size="14" lengthAdjust="spacing" textLength="239" x="448.5" y="435.4414">get_local_position() : const Vector2&amp;</text><ellipse cx="439.5" cy="450.5773" fill="#84BE84" rx="3" ry="3" style="stroke:#038048;stroke-width:1.0;"/><text fill="#000000" font-family="sans-serif" font-size="14" lengthAdjust="spacing" textLength="120" x="448.5" y="454.5093">get_hauteur() : int</text><ellipse cx="439.5" cy="469.6452" fill="#84BE84" rx="3" ry="3" style="stroke:#038048;stroke-width:1.0;"/><text fill="#000000" font-family="sans-serif" font-size="14" lengthAdjust="spacing" textLength="448" x="448.5" y="473.5772">peut_etre_plac&#233;e(map:Map*, position:Vector2) const : bool {virtual}</text><ellipse cx="439.5" cy="488.7131" fill="#84BE84" rx="3" ry="3" style="stroke:#038048;stroke-width:1.0;"/><text fill="#000000" font-family="sans-serif" font-size="14" lengthAdjust="spacing" textLength="430" x="448.5" y="492.6451">quand_recouvert(joueur_qui_la_recouvre:Joueur*) const {virtual}</text><ellipse cx="439.5" cy="507.781" fill="#84BE84" rx="3" ry="3" style="stroke:#038048;stroke-width:1.0;"/><text fill="#000000" font-family="sans-serif" font-size="14" lengthAdjust="spacing" textLength="246" x="448.5" y="511.713">get_text() : const string {pure virtual}</text><ellipse cx="439.5" cy="526.849" fill="#84BE84" rx="3" ry="3" style="stroke:#038048;stroke-width:1.0;"/><text fill="#000000" font-family="sans-serif" font-size="14" lengthAdjust="spacing" textLength="420" x="448.5" y="530.7809">affiche_console(highlighted : bool) const : const vector&lt;string&gt;</text><ellipse cx="439.5" cy="545.9169" fill="#84BE84" rx="3" ry="3" style="stroke:#038048;stroke-width:1.0;"/><text fill="#000000" font-family="sans-serif" font-size="14" lengthAdjust="spacing" textLength="231" x="448.5" y="549.8489">affiche_gui() : HexagoneGUIObjet*</text><ellipse cx="439.5" cy="564.9848" fill="#84BE84" rx="3" ry="3" style="stroke:#038048;stroke-width:1.0;"/><text fill="#000000" font-family="sans-serif" font-size="14" lengthAdjust="spacing" textLength="273" x="448.5" y="568.9168">get_type() const : TypeHexagone {virtual}</text><ellipse cx="439.5" cy="584.0527" fill="#84BE84" rx="3" ry="3" style="stroke:#038048;stroke-width:1.0;"/><text fill="#000000" font-family="sans-serif" font-size="14" lengthAdjust="spacing" textLength="416" x="448.5" y="587.9847">serialize(data : QVariantMap&amp;, context : SerializationContext*)</text><ellipse cx="439.5" cy="603.1206" fill="#84BE84" rx="3" ry="3" style="stroke:#038048;stroke-width:1.0;"/><text fill="#000000" font-family="sans-serif" font-size="14" lengthAdjust="spacing" textLength="477" x="448.5" y="607.0526">deserialize(data : const QVariantMap&amp;, context : SerializationContext*);</text></g><!--class Carriere--><g id="elem_Carriere"><rect codeLine="25" fill="#F1F1F1" height="162.4075" id="Carriere" rx="2.5" ry="2.5" style="stroke:#181818;stroke-width:0.5;" width="401" x="9" y="695.22"/><ellipse cx="177.75" cy="711.22" fill="#ADD1B2" rx="11" ry="11" style="stroke:#181818;stroke-width:1.0;"/><path d="M177.8594,706.7513 Q176.9375,706.7513 176.2031,707.0638 Q175.4844,707.3763 174.9844,707.97 Q174.4844,708.5481 174.2031,709.4231 Q173.9375,710.2981 173.9375,711.3919 Q173.9375,712.8294 174.375,713.8763 Q174.8281,714.9231 175.6719,715.47 Q176.5313,716.0169 177.8438,716.0169 Q178.625,716.0169 179.3125,715.8919 Q180.0156,715.7513 181.0156,715.4388 L181.0156,717.3138 Q180.1563,717.6419 179.3906,717.7669 Q178.6406,717.8919 177.625,717.8919 Q175.7031,717.8919 174.3906,717.095 Q173.0938,716.2825 172.4375,714.8138 Q171.7813,713.3294 171.7813,711.3606 Q171.7813,709.9388 172.1719,708.7669 Q172.5781,707.5794 173.3594,706.7044 Q174.1406,705.8294 175.2813,705.3606 Q176.4219,704.8763 177.8906,704.8763 Q178.8438,704.8763 179.7344,705.0794 Q180.6406,705.2669 181.5781,705.7356 L180.75,707.5169 Q179.9688,707.1419 179.3125,706.9544 Q178.6563,706.7513 177.8594,706.7513 Z " fill="#000000"/><text fill="#000000" font-family="sans-serif" font-size="14" lengthAdjust="spacing" textLength="55" x="198.25" y="716.652">Carriere</text><line style="stroke:#181818;stroke-width:0.5;" x1="10" x2="409" y1="727.22" y2="727.22"/><polygon fill="none" points="20,737.254,24,741.254,20,745.254,16,741.254" style="stroke:#B38D22;stroke-width:1.0;"/><text fill="#000000" font-family="sans-serif" font-size="14" lengthAdjust="spacing" textLength="115" x="29" y="746.1859">pierre_count : int</text><line style="stroke:#181818;stroke-width:0.5;" x1="10" x2="409" y1="754.2879" y2="754.2879"/><ellipse cx="20" cy="769.3219" fill="#84BE84" rx="3" ry="3" style="stroke:#038048;stroke-width:1.0;"/><text fill="#000000" font-family="sans-serif" font-size="14" lengthAdjust="spacing" textLength="375" x="29" y="773.2539">Carriere (tuile_parent : Tuile*, localPos : const Vector2&amp;)</text><ellipse cx="20" cy="788.3898" fill="#84BE84" rx="3" ry="3" style="stroke:#038048;stroke-width:1.0;"/><text fill="#000000" font-family="sans-serif" font-size="14" lengthAdjust="spacing" textLength="176" x="29" y="792.3218">get_type() : TypeHexagone</text><ellipse cx="20" cy="807.4577" fill="#84BE84" rx="3" ry="3" style="stroke:#038048;stroke-width:1.0;"/><text fill="#000000" font-family="sans-serif" font-size="14" lengthAdjust="spacing" textLength="153" x="29" y="811.3897">get_text() : const string</text><ellipse cx="20" cy="826.5256" fill="#84BE84" rx="3" ry="3" style="stroke:#038048;stroke-width:1.0;"/><text fill="#000000" font-family="sans-serif" font-size="14" lengthAdjust="spacing" textLength="373" x="29" y="830.4576">quand_recouvert(joueur_qui_la_recouvre:Joueur*) const</text><ellipse cx="20" cy="845.5935" fill="#84BE84" rx="3" ry="3" style="stroke:#038048;stroke-width:1.0;"/><text fill="#000000" font-family="sans-serif" font-size="14" lengthAdjust="spacing" textLength="133" x="29" y="849.5255">className() : string</text></g><!--class Place--><g id="elem_Place"><rect codeLine="35" fill="#F1F1F1" height="200.5433" id="Place" rx="2.5" ry="2.5" style="stroke:#181818;stroke-width:0.5;" width="574" x="444.5" y="676.16"/><ellipse cx="709.75" cy="692.16" fill="#ADD1B2" rx="11" ry="11" style="stroke:#181818;stroke-width:1.0;"/><path d="M709.8594,687.6913 Q708.9375,687.6913 708.2031,688.0038 Q707.4844,688.3163 706.9844,688.91 Q706.4844,689.4881 706.2031,690.3631 Q705.9375,691.2381 705.9375,692.3319 Q705.9375,693.7694 706.375,694.8163 Q706.8281,695.8631 707.6719,696.41 Q708.5313,696.9569 709.8438,696.9569 Q710.625,696.9569 711.3125,696.8319 Q712.0156,696.6913 713.0156,696.3788 L713.0156,698.2538 Q712.1563,698.5819 711.3906,698.7069 Q710.6406,698.8319 709.625,698.8319 Q707.7031,698.8319 706.3906,698.035 Q705.0938,697.2225 704.4375,695.7538 Q703.7813,694.2694 703.7813,692.3006 Q703.7813,690.8788 704.1719,689.7069 Q704.5781,688.5194 705.3594,687.6444 Q706.1406,686.7694 707.2813,686.3006 Q708.4219,685.8163 709.8906,685.8163 Q710.8438,685.8163 711.7344,686.0194 Q712.6406,686.2069 713.5781,686.6756 L712.75,688.4569 Q711.9688,688.0819 711.3125,687.8944 Q710.6563,687.6913 709.8594,687.6913 Z " fill="#000000"/><text fill="#000000" font-family="sans-serif" font-size="14" lengthAdjust="spacing" textLength="35" x="730.25" y="697.592">Place</text><line style="stroke:#181818;stroke-width:0.5;" x1="445.5" x2="1017.5" y1="708.16" y2="708.16"/><polygon fill="none" points="455.5,718.194,459.5,722.194,455.5,726.194,451.5,722.194" style="stroke:#B38D22;stroke-width:1.0;"/><text fill="#000000" font-family="sans-serif" font-size="14" lengthAdjust="spacing" textLength="74" x="464.5" y="727.1259">etoiles : int</text><line style="stroke:#181818;stroke-width:0.5;" x1="445.5" x2="1017.5" y1="735.2279" y2="735.2279"/><ellipse cx="455.5" cy="750.2619" fill="#84BE84" rx="3" ry="3" style="stroke:#038048;stroke-width:1.0;"/><text fill="#000000" font-family="sans-serif" font-size="14" lengthAdjust="spacing" textLength="548" x="464.5" y="754.1939">Place (tuile_parent : Tuile*, localPos : const Vector2&amp;, couleur : CouleursAkropolis)</text><ellipse cx="455.5" cy="769.3298" fill="#84BE84" rx="3" ry="3" style="stroke:#038048;stroke-width:1.0;"/><text fill="#000000" font-family="sans-serif" font-size="14" lengthAdjust="spacing" textLength="110" x="464.5" y="773.2618">get_etoiles() : int</text><ellipse cx="455.5" cy="788.3977" fill="#84BE84" rx="3" ry="3" style="stroke:#038048;stroke-width:1.0;"/><text fill="#000000" font-family="sans-serif" font-size="14" lengthAdjust="spacing" textLength="176" x="464.5" y="792.3297">get_type() : TypeHexagone</text><ellipse cx="455.5" cy="807.4656" fill="#84BE84" rx="3" ry="3" style="stroke:#038048;stroke-width:1.0;"/><text fill="#000000" font-family="sans-serif" font-size="14" lengthAdjust="spacing" textLength="153" x="464.5" y="811.3976">get_text() : const string</text><ellipse cx="455.5" cy="826.5335" fill="#84BE84" rx="3" ry="3" style="stroke:#038048;stroke-width:1.0;"/><text fill="#000000" font-family="sans-serif" font-size="14" lengthAdjust="spacing" textLength="416" x="464.5" y="830.4655">serialize(data : QVariantMap&amp;, context : SerializationContext*)</text><ellipse cx="455.5" cy="845.6015" fill="#84BE84" rx="3" ry="3" style="stroke:#038048;stroke-width:1.0;"/><text fill="#000000" font-family="sans-serif" font-size="14" lengthAdjust="spacing" textLength="477" x="464.5" y="849.5334">deserialize(data : const QVariantMap&amp;, context : SerializationContext*);</text><ellipse cx="455.5" cy="864.6694" fill="#84BE84" rx="3" ry="3" style="stroke:#038048;stroke-width:1.0;"/><text fill="#000000" font-family="sans-serif" font-size="14" lengthAdjust="spacing" textLength="133" x="464.5" y="868.6014">className() : string</text></g><!--class Quartier--><g id="elem_Quartier"><rect codeLine="47" fill="#F1F1F1" height="124.2717" id="Quartier" rx="2.5" ry="2.5" style="stroke:#181818;stroke-width:0.5;" width="596" x="1053.5" y="714.29"/><ellipse cx="1318.75" cy="730.29" fill="#ADD1B2" rx="11" ry="11" style="stroke:#181818;stroke-width:1.0;"/><path d="M1318.8594,725.8213 Q1317.9375,725.8213 1317.2031,726.1338 Q1316.4844,726.4463 1315.9844,727.04 Q1315.4844,727.6181 1315.2031,728.4931 Q1314.9375,729.3681 1314.9375,730.4619 Q1314.9375,731.8994 1315.375,732.9463 Q1315.8281,733.9931 1316.6719,734.54 Q1317.5313,735.0869 1318.8438,735.0869 Q1319.625,735.0869 1320.3125,734.9619 Q1321.0156,734.8213 1322.0156,734.5088 L1322.0156,736.3838 Q1321.1563,736.7119 1320.3906,736.8369 Q1319.6406,736.9619 1318.625,736.9619 Q1316.7031,736.9619 1315.3906,736.165 Q1314.0938,735.3525 1313.4375,733.8838 Q1312.7813,732.3994 1312.7813,730.4306 Q1312.7813,729.0088 1313.1719,727.8369 Q1313.5781,726.6494 1314.3594,725.7744 Q1315.1406,724.8994 1316.2813,724.4306 Q1317.4219,723.9463 1318.8906,723.9463 Q1319.8438,723.9463 1320.7344,724.1494 Q1321.6406,724.3369 1322.5781,724.8056 L1321.75,726.5869 Q1320.9688,726.2119 1320.3125,726.0244 Q1319.6563,725.8213 1318.8594,725.8213 Z " fill="#000000"/><text fill="#000000" font-family="sans-serif" font-size="14" lengthAdjust="spacing" textLength="57" x="1339.25" y="735.722">Quartier</text><line style="stroke:#181818;stroke-width:0.5;" x1="1054.5" x2="1648.5" y1="746.29" y2="746.29"/><line style="stroke:#181818;stroke-width:0.5;" x1="1054.5" x2="1648.5" y1="754.29" y2="754.29"/><ellipse cx="1064.5" cy="769.324" fill="#84BE84" rx="3" ry="3" style="stroke:#038048;stroke-width:1.0;"/><text fill="#000000" font-family="sans-serif" font-size="14" lengthAdjust="spacing" textLength="570" x="1073.5" y="773.2559">Quartier (tuile_parent : Tuile*, localPos : const Vector2&amp;, couleur : CouleursAkropolis)</text><ellipse cx="1064.5" cy="788.3919" fill="#84BE84" rx="3" ry="3" style="stroke:#038048;stroke-width:1.0;"/><text fill="#000000" font-family="sans-serif" font-size="14" lengthAdjust="spacing" textLength="176" x="1073.5" y="792.3239">get_type() : TypeHexagone</text><ellipse cx="1064.5" cy="807.4598" fill="#84BE84" rx="3" ry="3" style="stroke:#038048;stroke-width:1.0;"/><text fill="#000000" font-family="sans-serif" font-size="14" lengthAdjust="spacing" textLength="153" x="1073.5" y="811.3918">get_text() : const string</text><ellipse cx="1064.5" cy="826.5277" fill="#84BE84" rx="3" ry="3" style="stroke:#038048;stroke-width:1.0;"/><text fill="#000000" font-family="sans-serif" font-size="14" lengthAdjust="spacing" textLength="133" x="1073.5" y="830.4597">className() : string</text></g><!--class HexagoneContainer--><g id="elem_HexagoneContainer"><rect codeLine="54" fill="#F1F1F1" height="48" id="HexagoneContainer" rx="2.5" ry="2.5" style="stroke:#181818;stroke-width:0.5;" width="157" x="587" y="7"/><ellipse cx="602" cy="23" fill="#A9DCDF" rx="11" ry="11" style="stroke:#181818;stroke-width:1.0;"/><path d="M605.3438,28.25 L603.875,24.5 L599.4375,24.5 L598,28.25 L595.875,28.25 L600.8281,15.5313 L602.5781,15.5313 L607.5,28.25 L605.3438,28.25 Z M602,19.2969 Q601.9531,19.1406 601.8281,18.7813 Q601.7031,18.4219 601.5938,18.0469 Q601.4844,17.6563 601.6875,17.5938 Q601.8438,17.7813 601.75,18.1406 Q601.6563,18.4844 601.5625,18.7813 Q601.4688,19.0625 601.3906,19.2969 L600.1563,22.6094 L603.2344,22.6094 L602,19.2969 Z " fill="#000000"/><text fill="#000000" font-family="sans-serif" font-size="14" font-style="italic" lengthAdjust="spacing" textLength="125" x="616" y="28.432">HexagoneContainer</text><line style="stroke:#181818;stroke-width:0.5;" x1="588" x2="743" y1="39" y2="39"/><line style="stroke:#181818;stroke-width:0.5;" x1="588" x2="743" y1="47" y2="47"/></g><!--class Tuile--><g id="elem_Tuile"><rect codeLine="55" fill="#F1F1F1" height="48" id="Tuile" rx="2.5" ry="2.5" style="stroke:#181818;stroke-width:0.5;" width="65" x="699" y="116"/><ellipse cx="714" cy="132" fill="#ADD1B2" rx="11" ry="11" style="stroke:#181818;stroke-width:1.0;"/><path d="M714.1094,127.5313 Q713.1875,127.5313 712.4531,127.8438 Q711.7344,128.1563 711.2344,128.75 Q710.7344,129.3281 710.4531,130.2031 Q710.1875,131.0781 710.1875,132.1719 Q710.1875,133.6094 710.625,134.6563 Q711.0781,135.7031 711.9219,136.25 Q712.7813,136.7969 714.0938,136.7969 Q714.875,136.7969 715.5625,136.6719 Q716.2656,136.5313 717.2656,136.2188 L717.2656,138.0938 Q716.4063,138.4219 715.6406,138.5469 Q714.8906,138.6719 713.875,138.6719 Q711.9531,138.6719 710.6406,137.875 Q709.3438,137.0625 708.6875,135.5938 Q708.0313,134.1094 708.0313,132.1406 Q708.0313,130.7188 708.4219,129.5469 Q708.8281,128.3594 709.6094,127.4844 Q710.3906,126.6094 711.5313,126.1406 Q712.6719,125.6563 714.1406,125.6563 Q715.0938,125.6563 715.9844,125.8594 Q716.8906,126.0469 717.8281,126.5156 L717,128.2969 Q716.2188,127.9219 715.5625,127.7344 Q714.9063,127.5313 714.1094,127.5313 Z " fill="#000000"/><text fill="#000000" font-family="sans-serif" font-size="14" lengthAdjust="spacing" textLength="33" x="728" y="137.432">Tuile</text><line style="stroke:#181818;stroke-width:0.5;" x1="700" x2="763" y1="148" y2="148"/><line style="stroke:#181818;stroke-width:0.5;" x1="700" x2="763" y1="156" y2="156"/></g><!--class HexagoneGUIObjet--><g id="elem_HexagoneGUIObjet"><rect fill="#F1F1F1" height="48" id="HexagoneGUIObjet" rx="2.5" ry="2.5" style="stroke:#181818;stroke-width:0.5;" width="161" x="1070" y="405.08"/><ellipse cx="1085" cy="421.08" fill="#ADD1B2" rx="11" ry="11" style="stroke:#181818;stroke-width:1.0;"/><path d="M1085.1094,416.6113 Q1084.1875,416.6113 1083.4531,416.9238 Q1082.7344,417.2363 1082.2344,417.83 Q1081.7344,418.4081 1081.4531,419.2831 Q1081.1875,420.1581 1081.1875,421.2519 Q1081.1875,422.6894 1081.625,423.7363 Q1082.0781,424.7831 1082.9219,425.33 Q1083.7813,425.8769 1085.0938,425.8769 Q1085.875,425.8769 1086.5625,425.7519 Q1087.2656,425.6113 1088.2656,425.2988 L1088.2656,427.1738 Q1087.4063,427.5019 1086.6406,427.6269 Q1085.8906,427.7519 1084.875,427.7519 Q1082.9531,427.7519 1081.6406,426.955 Q1080.3438,426.1425 1079.6875,424.6738 Q1079.0313,423.1894 1079.0313,421.2206 Q1079.0313,419.7988 1079.4219,418.6269 Q1079.8281,417.4394 1080.6094,416.5644 Q1081.3906,415.6894 1082.5313,415.2206 Q1083.6719,414.7363 1085.1406,414.7363 Q1086.0938,414.7363 1086.9844,414.9394 Q1087.8906,415.1269 1088.8281,415.5956 L1088,417.3769 Q1087.2188,417.0019 1086.5625,416.8144 Q1085.9063,416.6113 1085.1094,416.6113 Z " fill="#000000"/><text fill="#000000" font-family="sans-serif" font-size="14" lengthAdjust="spacing" textLength="129" x="1099" y="426.512">HexagoneGUIObjet</text><line style="stroke:#181818;stroke-width:0.5;" x1="1071" x2="1230" y1="437.08" y2="437.08"/><line style="stroke:#181818;stroke-width:0.5;" x1="1071" x2="1230" y1="445.08" y2="445.08"/></g><!--class Affichage--><g id="elem_Affichage"><rect codeLine="60" fill="#F1F1F1" height="48" id="Affichage" rx="2.5" ry="2.5" style="stroke:#181818;stroke-width:0.5;" width="89" x="799" y="116"/><ellipse cx="814" cy="132" fill="#A9DCDF" rx="11" ry="11" style="stroke:#181818;stroke-width:1.0;"/><path d="M817.3438,137.25 L815.875,133.5 L811.4375,133.5 L810,137.25 L807.875,137.25 L812.8281,124.5313 L814.5781,124.5313 L819.5,137.25 L817.3438,137.25 Z M814,128.2969 Q813.9531,128.1406 813.8281,127.7813 Q813.7031,127.4219 813.5938,127.0469 Q813.4844,126.6563 813.6875,126.5938 Q813.8438,126.7813 813.75,127.1406 Q813.6563,127.4844 813.5625,127.7813 Q813.4688,128.0625 813.3906,128.2969 L812.1563,131.6094 L815.2344,131.6094 L814,128.2969 Z " fill="#000000"/><text fill="#000000" font-family="sans-serif" font-size="14" font-style="italic" lengthAdjust="spacing" textLength="57" x="828" y="137.432">Affichage</text><line style="stroke:#181818;stroke-width:0.5;" x1="800" x2="887" y1="148" y2="148"/><line style="stroke:#181818;stroke-width:0.5;" x1="800" x2="887" y1="156" y2="156"/></g><!--class Score--><g id="elem_Score"><rect codeLine="61" fill="#F1F1F1" height="48" id="Score" rx="2.5" ry="2.5" style="stroke:#181818;stroke-width:0.5;" width="66" x="923.5" y="116"/><ellipse cx="938.5" cy="132" fill="#A9DCDF" rx="11" ry="11" style="stroke:#181818;stroke-width:1.0;"/><path d="M941.8438,137.25 L940.375,133.5 L935.9375,133.5 L934.5,137.25 L932.375,137.25 L937.3281,124.5313 L939.0781,124.5313 L944,137.25 L941.8438,137.25 Z M938.5,128.2969 Q938.4531,128.1406 938.3281,127.7813 Q938.2031,127.4219 938.0938,127.0469 Q937.9844,126.6563 938.1875,126.5938 Q938.3438,126.7813 938.25,127.1406 Q938.1563,127.4844 938.0625,127.7813 Q937.9688,128.0625 937.8906,128.2969 L936.6563,131.6094 L939.7344,131.6094 L938.5,128.2969 Z " fill="#000000"/><text fill="#000000" font-family="sans-serif" font-size="14" font-style="italic" lengthAdjust="spacing" textLength="34" x="952.5" y="137.432">Score</text><line style="stroke:#181818;stroke-width:0.5;" x1="924.5" x2="988.5" y1="148" y2="148"/><line style="stroke:#181818;stroke-width:0.5;" x1="924.5" x2="988.5" y1="156" y2="156"/></g><!--reverse link Serializable to Hexagone--><g id="link_Serializable_Hexagone"><path d="M566.098,179.478 C578.568,198.228 587.37,211.45 608.05,242.53 " fill="none" id="Serializable-backto-Hexagone" style="stroke:#181818;stroke-width:1.0;"/><polygon fill="none" points="556.13,164.49,561.102,182.8006,571.094,176.1553,556.13,164.49" style="stroke:#181818;stroke-width:1.0;"/></g><!--reverse link Hexagone to Carriere--><g id="link_Hexagone_Carriere"><path d="M436.0075,625.571 C393.9675,653.381 367.62,670.82 331.34,694.82 " fill="none" id="Hexagone-backto-Carriere" style="stroke:#181818;stroke-width:1.0;"/><polygon fill="none" points="451.02,615.64,432.6972,620.5668,439.3178,630.5751,451.02,615.64" style="stroke:#181818;stroke-width:1.0;"/></g><!--reverse link Hexagone to Place--><g id="link_Hexagone_Place"><path d="M731.5,633.64 C731.5,654.42 731.5,656.95 731.5,676.01 " fill="none" id="Hexagone-backto-Place" style="stroke:#181818;stroke-width:1.0;"/><polygon fill="none" points="731.5,615.64,725.5,633.64,737.5,633.64,731.5,615.64" style="stroke:#181818;stroke-width:1.0;"/></g><!--reverse link Hexagone to Quartier--><g id="link_Hexagone_Quartier"><path d="M1050.3451,613.9849 C1056.3451,617.3449 1046.6,611.87 1052.5,615.16 C1112.21,648.36 1179.2,684.38 1234.61,713.85 " fill="none" id="Hexagone-backto-Quartier" style="stroke:#181818;stroke-width:1.0;"/><polygon fill="none" points="1034.64,605.19,1047.4135,619.2199,1053.2767,608.7498,1034.64,605.19" style="stroke:#181818;stroke-width:1.0;"/></g><!--reverse link HexagoneContainer to Tuile--><g id="link_HexagoneContainer_Tuile"><path d="M689.4334,70.7978 C700.4434,88.6378 706.05,97.75 717.05,115.58 " fill="none" id="HexagoneContainer-backto-Tuile" style="stroke:#181818;stroke-width:1.0;"/><polygon fill="none" points="679.98,55.48,684.3275,73.9489,694.5393,67.6466,679.98,55.48" style="stroke:#181818;stroke-width:1.0;"/></g><!--reverse link HexagoneContainer to Hexagone--><g id="link_HexagoneContainer_Hexagone"><path codeLine="56" d="M669.1148,67.3642 C671.8948,93.8042 675.63,126.13 681.5,164 C685.45,189.48 690.03,216.26 694.77,242.59 " fill="none" id="HexagoneContainer-backto-Hexagone" style="stroke:#181818;stroke-width:1.0;"/><polygon fill="none" points="667.86,55.43,664.5093,61.8154,669.1148,67.3642,672.4655,60.9788,667.86,55.43" style="stroke:#181818;stroke-width:1.0;"/><text fill="#000000" font-family="sans-serif" font-size="13" lengthAdjust="spacing" textLength="7" x="686.0728" y="231.2759">*</text></g><!--reverse link Tuile to Hexagone--><g id="link_Tuile_Hexagone"><path codeLine="57" d="M731.5,176.49 C731.5,195.24 731.5,211.45 731.5,242.53 " fill="none" id="Tuile-backto-Hexagone" style="stroke:#181818;stroke-width:1.0;"/><polygon fill="#181818" points="731.5,164.49,727.5,170.49,731.5,176.49,735.5,170.49,731.5,164.49" style="stroke:#181818;stroke-width:1.0;"/><text fill="#000000" font-family="sans-serif" font-size="13" lengthAdjust="spacing" textLength="7" x="724.3523" y="231.2133">*</text></g><!--reverse link Hexagone to HexagoneGUIObjet--><g id="link_Hexagone_HexagoneGUIObjet"><path codeLine="58" d="M1046.7,429.08 C1058.31,429.08 1057.92,429.08 1069.53,429.08 " fill="none" id="Hexagone-backto-HexagoneGUIObjet" style="stroke:#181818;stroke-width:1.0;"/><polygon fill="none" points="1034.7,429.08,1040.7,433.08,1046.7,429.08,1040.7,425.08,1034.7,429.08" style="stroke:#181818;stroke-width:1.0;"/></g><!--link Affichage to Hexagone--><g id="link_Affichage_Hexagone"><path codeLine="62" d="M834.33,164.49 C827.02,183.24 816.02,211.45 803.89,242.53 " fill="none" id="Affichage-Hexagone" style="stroke:#181818;stroke-width:1.0;"/><polygon fill="#000000" points="825.253,208.5112,831.278,201.1524,825.8019,199.0165,825.253,208.5112" style="stroke:#000000;stroke-width:1.0;"/><text fill="#000000" font-family="sans-serif" font-size="13" lengthAdjust="spacing" textLength="39" x="836.07" y="208.897">affiche</text></g><!--link Score to Hexagone--><g id="link_Score_Hexagone"><path codeLine="63" d="M938.09,164.49 C923.39,183.24 901.29,211.45 876.93,242.53 " fill="none" id="Score-Hexagone" style="stroke:#181818;stroke-width:1.0;"/><polygon fill="#000000" points="915.3758,207.7884,923.2684,202.482,918.642,198.8563,915.3758,207.7884" style="stroke:#000000;stroke-width:1.0;"/><text fill="#000000" font-family="sans-serif" font-size="13" lengthAdjust="spacing" textLength="51" x="927.46" y="208.897">consulte</text></g><!--SRC=[pLNXJjim4Fxlfx0wQKeBHQM3QSecD5OOMqT76QL_8pSvMhFK3evTmH0FjEVOY-tYE4cR3ZQ4a5QfQdFt-Uw-ytSNDacrOg6cOSpIb9w1uYpcFzWa1dfxHmXRzN-2QpQL0YXSQn1H_G2X-7b1GsbYC8hwj9V_I_U_Avd8cASE4SkGnKEP8cGCePQgwnpQy1Y6J87Gw1jbJorYVHjbSgzPCr3F7WkIrNERosb2AL9T97kv-L2DHVWfwC31l2O2kT1B7flIsbsLbSkc3HAPSisbi9ZLz4lO6JDwFK42HWUW5NAAMVZh9tXpblW3bY2f8gxleZLTS9zEf8pfxO8hRLXyvq9T6IQYG04oMO3ItgKqc2-uCZo8cRChyFlMt2g2rQDOndZfIsHG65nCwMrY5D0Qd5rSy706GOQKsAOPdyvY_6g8N9rLrVdlmf9vbmVTguMP6cuJ5nT-TFxvP789Uhdf-YR9hgE8EiB7KXzrDgbJBNWHqmpHfsE65g6nmrOR8kEAzbBUMSDxkRbLw2E2jJXvziT5UqjmplBnwZ6bEAXgl2e6RZuITAkihyOAFLECgwOy- -XXQAvtSRL_VzF0KvJcpbh-NzayJ-x2bdqPuX0yq1JG4Yccg_t8pppVPd19_xGPdj33_qoP_t8vfuOfZSgxxtusAiJptSPJUduVlNlUVLbx61T81r-GkSloMEDV0X6tVbYssxJHQfHeaWTfrSrbDsLxRVyjrRXlLoMRGcKw2wK2KZfekmg0F1jkkTAz1h78kZ_hb8cr1Rn7OeJWI0bzFZZ6PQrI50hTtkfskZjRhxpHpD2FCA7RkxJRyNSwVcUNzWv7D7CtYNSqF5vqQIgDmf6CUDRYYScarYHzjc3q6supFWUVdYGW-WTV2WCz5BYvfPYZN4X_FAW0htVQ7xZET8krqF607C05mshnH2WZl42Vdey-jj-GOoQc1jdx50JfPMjJtQ3lx3S0]--></g></svg>