<?xml version="1.0" encoding="us-ascii" standalone="no"?><svg xmlns="http://www.w3.org/2000/svg" xmlns:xlink="http://www.w3.org/1999/xlink" contentStyleType="text/css" height="1606px" preserveAspectRatio="none" style="width:841px;height:1606px;background:#FFFFFF;" version="1.1" viewBox="0 0 841 1606" width="841px" zoomAndPan="magnify"><defs/><g><!--class Jeu--><g id="elem_Jeu"><rect codeLine="2" fill="#F1F1F1" height="848.8525" id="Jeu" rx="2.5" ry="2.5" style="stroke:#181818;stroke-width:0.5;" width="547" x="158" y="115"/><ellipse cx="417.75" cy="131" fill="#A9DCDF" rx="11" ry="11" style="stroke:#181818;stroke-width:1.0;"/><path d="M421.0938,136.25 L419.625,132.5 L415.1875,132.5 L413.75,136.25 L411.625,136.25 L416.5781,123.5313 L418.3281,123.5313 L423.25,136.25 L421.0938,136.25 Z M417.75,127.2969 Q417.7031,127.1406 417.5781,126.7813 Q417.4531,126.4219 417.3438,126.0469 Q417.2344,125.6563 417.4375,125.5938 Q417.5938,125.7813 417.5,126.1406 Q417.4063,126.4844 417.3125,126.7813 Q417.2188,127.0625 417.1406,127.2969 L415.9063,130.6094 L418.9844,130.6094 L417.75,127.2969 Z " fill="#000000"/><text fill="#000000" font-family="sans-serif" font-size="14" font-style="italic" lengthAdjust="spacing" textLength="19" x="438.25" y="136.432">Jeu</text><line style="stroke:#181818;stroke-width:0.5;" x1="159" x2="704" y1="147" y2="147"/><polygon fill="none" points="169,157.034,173,161.034,169,165.034,165,161.034" style="stroke:#B38D22;stroke-width:1.0;"/><text fill="#000000" font-family="sans-serif" font-size="14" lengthAdjust="spacing" textLength="102" x="178" y="165.9659">jeu : static Jeu*</text><polygon fill="none" points="169,176.1019,173,180.1019,169,184.1019,165,180.1019" style="stroke:#B38D22;stroke-width:1.0;"/><text fill="#000000" font-family="sans-serif" font-size="14" lengthAdjust="spacing" textLength="166" x="178" y="185.0339">modeDeJeu : GameMode</text><polygon fill="none" points="169,195.1698,173,199.1698,169,203.1698,165,199.1698" style="stroke:#B38D22;stroke-width:1.0;"/><text fill="#000000" font-family="sans-serif" font-size="14" lengthAdjust="spacing" textLength="125" x="178" y="204.1018">backPressed : bool</text><text fill="#000000" font-family="sans-serif" font-size="14" lengthAdjust="spacing" textLength="4" x="178" y="223.1697">&#160;</text><polygon fill="none" points="169,233.3056,173,237.3056,169,241.3056,165,237.3056" style="stroke:#B38D22;stroke-width:1.0;"/><text fill="#000000" font-family="sans-serif" font-size="14" lengthAdjust="spacing" textLength="140" x="178" y="242.2376">nombreTours : size_t</text><polygon fill="none" points="169,252.3735,173,256.3735,169,260.3735,165,256.3735" style="stroke:#B38D22;stroke-width:1.0;"/><text fill="#000000" font-family="sans-serif" font-size="14" lengthAdjust="spacing" textLength="170" x="178" y="261.3055">maxNombreTours : size_t</text><text fill="#000000" font-family="sans-serif" font-size="14" lengthAdjust="spacing" textLength="4" x="178" y="280.3734">&#160;</text><polygon fill="none" points="169,290.5094,173,294.5094,169,298.5094,165,294.5094" style="stroke:#B38D22;stroke-width:1.0;"/><text fill="#000000" font-family="sans-serif" font-size="14" lengthAdjust="spacing" textLength="153" x="178" y="299.4414">nombreJoueurs : size_t</text><polygon fill="none" points="169,309.5773,173,313.5773,169,317.5773,165,313.5773" style="stroke:#B38D22;stroke-width:1.0;"/><text fill="#000000" font-family="sans-serif" font-size="14" lengthAdjust="spacing" textLength="322" x="178" y="318.5093">joueurs : Joueur*[constJeu::nombreJoueursMax]</text><polygon fill="none" points="169,328.6452,173,332.6452,169,336.6452,165,332.6452" style="stroke:#B38D22;stroke-width:1.0;"/><text fill="#000000" font-family="sans-serif" font-size="14" lengthAdjust="spacing" textLength="135" x="178" y="337.5772">joueurActuel : size_t</text><polygon fill="none" points="169,347.7131,173,351.7131,169,355.7131,165,351.7131" style="stroke:#B38D22;stroke-width:1.0;"/><text fill="#000000" font-family="sans-serif" font-size="14" lengthAdjust="spacing" textLength="147" x="178" y="356.6451">premierJoueur : size_t</text><text fill="#000000" font-family="sans-serif" font-size="14" lengthAdjust="spacing" textLength="4" x="178" y="375.713">&#160;</text><polygon fill="none" points="169,385.849,173,389.849,169,393.849,165,389.849" style="stroke:#B38D22;stroke-width:1.0;"/><text fill="#000000" font-family="sans-serif" font-size="14" lengthAdjust="spacing" textLength="175" x="178" y="394.7809">tuileDepart : TuileDepart*</text><polygon fill="none" points="169,404.9169,173,408.9169,169,412.9169,165,408.9169" style="stroke:#B38D22;stroke-width:1.0;"/><text fill="#000000" font-family="sans-serif" font-size="14" lengthAdjust="spacing" textLength="75" x="178" y="413.8489">deck : Deck</text><polygon fill="none" points="169,423.9848,173,427.9848,169,431.9848,165,427.9848" style="stroke:#B38D22;stroke-width:1.0;"/><text fill="#000000" font-family="sans-serif" font-size="14" lengthAdjust="spacing" textLength="126" x="178" y="432.9168">chantier : Chantier</text><line style="stroke:#181818;stroke-width:0.5;" x1="159" x2="704" y1="441.0188" y2="441.0188"/><rect fill="#F24D5C" height="6" style="stroke:#C82930;stroke-width:1.0;" width="6" x="166" y="453.0527"/><text fill="#000000" font-family="sans-serif" font-size="14" lengthAdjust="spacing" textLength="264" x="178" y="459.9847">calculerScores() : multimap&lt;int, string&gt;</text><text fill="#000000" font-family="sans-serif" font-size="14" lengthAdjust="spacing" textLength="4" x="178" y="479.0526">&#160;</text><polygon fill="#FFFF44" points="169,489.1885,173,493.1885,169,497.1885,165,493.1885" style="stroke:#B38D22;stroke-width:1.0;"/><text fill="#000000" font-family="sans-serif" font-size="14" lengthAdjust="spacing" textLength="29" x="178" y="498.1205">Jeu()</text><text fill="#000000" font-family="sans-serif" font-size="14" lengthAdjust="spacing" textLength="4" x="178" y="517.1884">&#160;</text><polygon fill="#FFFF44" points="169,527.3244,173,531.3244,169,535.3244,165,531.3244" style="stroke:#B38D22;stroke-width:1.0;"/><text fill="#000000" font-family="sans-serif" font-size="14" lengthAdjust="spacing" textLength="119" x="178" y="536.2564">initialisePlateau();</text><polygon fill="#FFFF44" points="169,546.3923,173,550.3923,169,554.3923,165,550.3923" style="stroke:#B38D22;stroke-width:1.0;"/><text fill="#000000" font-family="sans-serif" font-size="14" lengthAdjust="spacing" textLength="173" x="178" y="555.3243">titleScreen() {pure virtual}</text><polygon fill="#FFFF44" points="169,565.4602,173,569.4602,169,573.4602,165,569.4602" style="stroke:#B38D22;stroke-width:1.0;"/><text fill="#000000" font-family="sans-serif" font-size="14" lengthAdjust="spacing" textLength="267" x="178" y="574.3922">bool selectChargerPartie() {pure virtual}</text><polygon fill="#FFFF44" points="169,584.5281,173,588.5281,169,592.5281,165,588.5281" style="stroke:#B38D22;stroke-width:1.0;"/><text fill="#000000" font-family="sans-serif" font-size="14" lengthAdjust="spacing" textLength="217" x="178" y="593.4601">selectGameMode() {pure virtual}</text><polygon fill="#FFFF44" points="169,603.596,173,607.596,169,611.596,165,607.596" style="stroke:#B38D22;stroke-width:1.0;"/><text fill="#000000" font-family="sans-serif" font-size="14" lengthAdjust="spacing" textLength="191" x="178" y="612.528">selectJoueurs() {pure virtual}</text><polygon fill="#FFFF44" points="169,622.664,173,626.664,169,630.664,165,626.664" style="stroke:#B38D22;stroke-width:1.0;"/><text fill="#000000" font-family="sans-serif" font-size="14" lengthAdjust="spacing" textLength="230" x="178" y="631.5959">selectNomsJoueurs() {pure virtual}</text><polygon fill="#FFFF44" points="169,641.7319,173,645.7319,169,649.7319,165,645.7319" style="stroke:#B38D22;stroke-width:1.0;"/><text fill="#000000" font-family="sans-serif" font-size="14" lengthAdjust="spacing" textLength="385" x="178" y="650.6639">selectNiveauIllustreArchitechte() : Difficulte {pure virtual}</text><polygon fill="#FFFF44" points="169,660.7998,173,664.7998,169,668.7998,165,664.7998" style="stroke:#B38D22;stroke-width:1.0;"/><text fill="#000000" font-family="sans-serif" font-size="14" lengthAdjust="spacing" textLength="289" x="178" y="669.7318">selectVitessePartie() : Vitesse  {pure virtual}</text><polygon fill="#FFFF44" points="169,679.8677,173,683.8677,169,687.8677,165,683.8677" style="stroke:#B38D22;stroke-width:1.0;"/><text fill="#000000" font-family="sans-serif" font-size="14" lengthAdjust="spacing" textLength="222" x="178" y="688.7997">selectReglesScore() {pure virtual}</text><polygon fill="#FFFF44" points="169,698.9356,173,702.9356,169,706.9356,165,702.9356" style="stroke:#B38D22;stroke-width:1.0;"/><text fill="#000000" font-family="sans-serif" font-size="14" lengthAdjust="spacing" textLength="208" x="178" y="707.8676">afficheSceneJeu() {pure virtual}</text><polygon fill="#FFFF44" points="169,718.0035,173,722.0035,169,726.0035,165,722.0035" style="stroke:#B38D22;stroke-width:1.0;"/><text fill="#000000" font-family="sans-serif" font-size="14" lengthAdjust="spacing" textLength="296" x="178" y="726.9355">selectTuile(joueur : size_t) : int {pure virtual}</text><polygon fill="#FFFF44" points="169,737.0715,173,741.0715,169,745.0715,165,741.0715" style="stroke:#B38D22;stroke-width:1.0;"/><text fill="#000000" font-family="sans-serif" font-size="14" lengthAdjust="spacing" textLength="452" x="178" y="746.0034">placeTuile(joueur : size_t, tuileSelected : Tuile*) : bool {pure virtual}</text><polygon fill="#FFFF44" points="169,756.1394,173,760.1394,169,764.1394,165,760.1394" style="stroke:#B38D22;stroke-width:1.0;"/><text fill="#000000" font-family="sans-serif" font-size="14" lengthAdjust="spacing" textLength="358" x="178" y="765.0714">afficheTourAutomatique(joueur : size_t) {pure virtual}</text><polygon fill="#FFFF44" points="169,775.2073,173,779.2073,169,783.2073,165,779.2073" style="stroke:#B38D22;stroke-width:1.0;"/><text fill="#000000" font-family="sans-serif" font-size="14" lengthAdjust="spacing" textLength="378" x="178" y="784.1393">finDePartie(scores : multimap&lt;int, string&gt;) {pure virtual}</text><text fill="#000000" font-family="sans-serif" font-size="14" lengthAdjust="spacing" textLength="4" x="178" y="803.2072">&#160;</text><polygon fill="#FFFF44" points="169,813.3431,173,817.3431,169,821.3431,165,817.3431" style="stroke:#B38D22;stroke-width:1.0;"/><text fill="#000000" font-family="sans-serif" font-size="14" lengthAdjust="spacing" text-decoration="underline" textLength="108" x="178" y="822.2751">chargerPartie() ;</text><polygon fill="#FFFF44" points="169,832.411,173,836.411,169,840.411,165,836.411" style="stroke:#B38D22;stroke-width:1.0;"/><text fill="#000000" font-family="sans-serif" font-size="14" lengthAdjust="spacing" text-decoration="underline" textLength="140" x="178" y="841.343">sauvegarderPartie() ;</text><polygon fill="#FFFF44" points="169,851.479,173,855.479,169,859.479,165,855.479" style="stroke:#B38D22;stroke-width:1.0;"/><text fill="#000000" font-family="sans-serif" font-size="14" lengthAdjust="spacing" textLength="504" x="178" y="860.4109">serialize(QVariantMap&amp; data, SerializationContext* context) const override;</text><polygon fill="#FFFF44" points="169,870.5469,173,874.5469,169,878.5469,165,874.5469" style="stroke:#B38D22;stroke-width:1.0;"/><text fill="#000000" font-family="sans-serif" font-size="14" lengthAdjust="spacing" textLength="521" x="178" y="879.4789">deserialize(const QVariantMap&amp; data, SerializationContext* context) override;</text><text fill="#000000" font-family="sans-serif" font-size="14" lengthAdjust="spacing" textLength="4" x="178" y="898.5468">&#160;</text><ellipse cx="169" cy="913.6827" fill="#84BE84" rx="3" ry="3" style="stroke:#038048;stroke-width:1.0;"/><text fill="#000000" font-family="sans-serif" font-size="14" lengthAdjust="spacing" text-decoration="underline" textLength="100" x="178" y="917.6147">getJeu() : Jeu* ;</text><ellipse cx="169" cy="932.7506" fill="#84BE84" rx="3" ry="3" style="stroke:#038048;stroke-width:1.0;"/><text fill="#000000" font-family="sans-serif" font-size="14" lengthAdjust="spacing" textLength="283" x="178" y="936.6826">gameLoop(argc : int, argv : char*) {virtual}</text><ellipse cx="169" cy="951.8186" fill="#84BE84" rx="3" ry="3" style="stroke:#038048;stroke-width:1.0;"/><text fill="#000000" font-family="sans-serif" font-size="14" lengthAdjust="spacing" textLength="133" x="178" y="955.7505">className() : string</text></g><g id="elem_GMN3"><path d="M6,525.58 L6,553.286 A0,0 0 0 0 6,553.286 L123,553.286 A0,0 0 0 0 123,553.286 L123,543.58 L157.59,539.43 L123,535.58 L123,535.58 L113,525.58 L6,525.58 A0,0 0 0 0 6,525.58 " fill="#FEFFDD" style="stroke:#181818;stroke-width:0.5;"/><path d="M113,525.58 L113,535.58 L123,535.58 L113,525.58 " fill="#FEFFDD" style="stroke:#181818;stroke-width:0.5;"/><text fill="#000000" font-family="sans-serif" font-size="13" lengthAdjust="spacing" textLength="96" x="12" y="544.477">est un singleton</text></g><!--class JeuConsole--><g id="elem_JeuConsole"><rect codeLine="50" fill="#F1F1F1" height="334.0188" id="JeuConsole" rx="2.5" ry="2.5" style="stroke:#181818;stroke-width:0.5;" width="385" x="29" y="1090.59"/><ellipse cx="180.25" cy="1106.59" fill="#ADD1B2" rx="11" ry="11" style="stroke:#181818;stroke-width:1.0;"/><path d="M180.3594,1102.1213 Q179.4375,1102.1213 178.7031,1102.4338 Q177.9844,1102.7463 177.4844,1103.34 Q176.9844,1103.9181 176.7031,1104.7931 Q176.4375,1105.6681 176.4375,1106.7619 Q176.4375,1108.1994 176.875,1109.2463 Q177.3281,1110.2931 178.1719,1110.84 Q179.0313,1111.3869 180.3438,1111.3869 Q181.125,1111.3869 181.8125,1111.2619 Q182.5156,1111.1213 183.5156,1110.8088 L183.5156,1112.6838 Q182.6563,1113.0119 181.8906,1113.1369 Q181.1406,1113.2619 180.125,1113.2619 Q178.2031,1113.2619 176.8906,1112.465 Q175.5938,1111.6525 174.9375,1110.1838 Q174.2813,1108.6994 174.2813,1106.7306 Q174.2813,1105.3088 174.6719,1104.1369 Q175.0781,1102.9494 175.8594,1102.0744 Q176.6406,1101.1994 177.7813,1100.7306 Q178.9219,1100.2463 180.3906,1100.2463 Q181.3438,1100.2463 182.2344,1100.4494 Q183.1406,1100.6369 184.0781,1101.1056 L183.25,1102.8869 Q182.4688,1102.5119 181.8125,1102.3244 Q181.1563,1102.1213 180.3594,1102.1213 Z " fill="#000000"/><text fill="#000000" font-family="sans-serif" font-size="14" lengthAdjust="spacing" textLength="74" x="200.75" y="1112.022">JeuConsole</text><line style="stroke:#181818;stroke-width:0.5;" x1="30" x2="413" y1="1122.59" y2="1122.59"/><line style="stroke:#181818;stroke-width:0.5;" x1="30" x2="413" y1="1130.59" y2="1130.59"/><polygon fill="#FFFF44" points="40,1140.624,44,1144.624,40,1148.624,36,1144.624" style="stroke:#B38D22;stroke-width:1.0;"/><text fill="#000000" font-family="sans-serif" font-size="14" lengthAdjust="spacing" textLength="80" x="49" y="1149.5559">titleScreen()</text><polygon fill="#FFFF44" points="40,1159.6919,44,1163.6919,40,1167.6919,36,1163.6919" style="stroke:#B38D22;stroke-width:1.0;"/><text fill="#000000" font-family="sans-serif" font-size="14" lengthAdjust="spacing" textLength="174" x="49" y="1168.6239">bool selectChargerPartie()</text><polygon fill="#FFFF44" points="40,1178.7598,44,1182.7598,40,1186.7598,36,1182.7598" style="stroke:#B38D22;stroke-width:1.0;"/><text fill="#000000" font-family="sans-serif" font-size="14" lengthAdjust="spacing" textLength="124" x="49" y="1187.6918">selectGameMode()</text><polygon fill="#FFFF44" points="40,1197.8277,44,1201.8277,40,1205.8277,36,1201.8277" style="stroke:#B38D22;stroke-width:1.0;"/><text fill="#000000" font-family="sans-serif" font-size="14" lengthAdjust="spacing" textLength="98" x="49" y="1206.7597">selectJoueurs()</text><polygon fill="#FFFF44" points="40,1216.8956,44,1220.8956,40,1224.8956,36,1220.8956" style="stroke:#B38D22;stroke-width:1.0;"/><text fill="#000000" font-family="sans-serif" font-size="14" lengthAdjust="spacing" textLength="137" x="49" y="1225.8276">selectNomsJoueurs()</text><polygon fill="#FFFF44" points="40,1235.9635,44,1239.9635,40,1243.9635,36,1239.9635" style="stroke:#B38D22;stroke-width:1.0;"/><text fill="#000000" font-family="sans-serif" font-size="14" lengthAdjust="spacing" textLength="292" x="49" y="1244.8955">selectNiveauIllustreArchitechte() : Difficulte</text><polygon fill="#FFFF44" points="40,1255.0315,44,1259.0315,40,1263.0315,36,1259.0315" style="stroke:#B38D22;stroke-width:1.0;"/><text fill="#000000" font-family="sans-serif" font-size="14" lengthAdjust="spacing" textLength="192" x="49" y="1263.9634">selectVitessePartie() : Vitesse</text><polygon fill="#FFFF44" points="40,1274.0994,44,1278.0994,40,1282.0994,36,1278.0994" style="stroke:#B38D22;stroke-width:1.0;"/><text fill="#000000" font-family="sans-serif" font-size="14" lengthAdjust="spacing" textLength="129" x="49" y="1283.0314">selectReglesScore()</text><polygon fill="#FFFF44" points="40,1293.1673,44,1297.1673,40,1301.1673,36,1297.1673" style="stroke:#B38D22;stroke-width:1.0;"/><text fill="#000000" font-family="sans-serif" font-size="14" lengthAdjust="spacing" textLength="115" x="49" y="1302.0993">afficheSceneJeu()</text><polygon fill="#FFFF44" points="40,1312.2352,44,1316.2352,40,1320.2352,36,1316.2352" style="stroke:#B38D22;stroke-width:1.0;"/><text fill="#000000" font-family="sans-serif" font-size="14" lengthAdjust="spacing" textLength="203" x="49" y="1321.1672">selectTuile(joueur : size_t) : int</text><polygon fill="#FFFF44" points="40,1331.3031,44,1335.3031,40,1339.3031,36,1335.3031" style="stroke:#B38D22;stroke-width:1.0;"/><text fill="#000000" font-family="sans-serif" font-size="14" lengthAdjust="spacing" textLength="359" x="49" y="1340.2351">placeTuile(joueur : size_t, tuileSelected : Tuile*) : bool</text><polygon fill="#FFFF44" points="40,1350.371,44,1354.371,40,1358.371,36,1354.371" style="stroke:#B38D22;stroke-width:1.0;"/><text fill="#000000" font-family="sans-serif" font-size="14" lengthAdjust="spacing" textLength="265" x="49" y="1359.303">afficheTourAutomatique(joueur : size_t)</text><polygon fill="#FFFF44" points="40,1369.439,44,1373.439,40,1377.439,36,1373.439" style="stroke:#B38D22;stroke-width:1.0;"/><text fill="#000000" font-family="sans-serif" font-size="14" lengthAdjust="spacing" textLength="285" x="49" y="1378.3709">finDePartie(scores : multimap&lt;int, string&gt;)</text><text fill="#000000" font-family="sans-serif" font-size="14" lengthAdjust="spacing" textLength="4" x="49" y="1397.4389">&#160;</text><ellipse cx="40" cy="1412.5748" fill="#84BE84" rx="3" ry="3" style="stroke:#038048;stroke-width:1.0;"/><text fill="#000000" font-family="sans-serif" font-size="14" lengthAdjust="spacing" text-decoration="underline" textLength="100" x="49" y="1416.5068">getJeu() : Jeu* ;</text></g><!--class JeuGUI--><g id="elem_JeuGUI"><rect codeLine="69" fill="#F1F1F1" height="467.4942" id="JeuGUI" rx="2.5" ry="2.5" style="stroke:#181818;stroke-width:0.5;" width="385" x="449" y="1023.86"/><ellipse cx="614.25" cy="1039.86" fill="#ADD1B2" rx="11" ry="11" style="stroke:#181818;stroke-width:1.0;"/><path d="M614.3594,1035.3913 Q613.4375,1035.3913 612.7031,1035.7038 Q611.9844,1036.0163 611.4844,1036.61 Q610.9844,1037.1881 610.7031,1038.0631 Q610.4375,1038.9381 610.4375,1040.0319 Q610.4375,1041.4694 610.875,1042.5163 Q611.3281,1043.5631 612.1719,1044.11 Q613.0313,1044.6569 614.3438,1044.6569 Q615.125,1044.6569 615.8125,1044.5319 Q616.5156,1044.3913 617.5156,1044.0788 L617.5156,1045.9538 Q616.6563,1046.2819 615.8906,1046.4069 Q615.1406,1046.5319 614.125,1046.5319 Q612.2031,1046.5319 610.8906,1045.735 Q609.5938,1044.9225 608.9375,1043.4538 Q608.2813,1041.9694 608.2813,1040.0006 Q608.2813,1038.5788 608.6719,1037.4069 Q609.0781,1036.2194 609.8594,1035.3444 Q610.6406,1034.4694 611.7813,1034.0006 Q612.9219,1033.5163 614.3906,1033.5163 Q615.3438,1033.5163 616.2344,1033.7194 Q617.1406,1033.9069 618.0781,1034.3756 L617.25,1036.1569 Q616.4688,1035.7819 615.8125,1035.5944 Q615.1563,1035.3913 614.3594,1035.3913 Z " fill="#000000"/><text fill="#000000" font-family="sans-serif" font-size="14" lengthAdjust="spacing" textLength="46" x="634.75" y="1045.292">JeuGUI</text><line style="stroke:#181818;stroke-width:0.5;" x1="450" x2="833" y1="1055.86" y2="1055.86"/><polygon fill="none" points="460,1065.894,464,1069.894,460,1073.894,456,1069.894" style="stroke:#B38D22;stroke-width:1.0;"/><text fill="#000000" font-family="sans-serif" font-size="14" lengthAdjust="spacing" textLength="133" x="469" y="1074.8259">app : QApplication*</text><polygon fill="none" points="460,1084.9619,464,1088.9619,460,1092.9619,456,1088.9619" style="stroke:#B38D22;stroke-width:1.0;"/><text fill="#000000" font-family="sans-serif" font-size="14" lengthAdjust="spacing" textLength="160" x="469" y="1093.8939">window : MainWindow*</text><polygon fill="none" points="460,1104.0298,464,1108.0298,460,1112.0298,456,1108.0298" style="stroke:#B38D22;stroke-width:1.0;"/><text fill="#000000" font-family="sans-serif" font-size="14" lengthAdjust="spacing" textLength="130" x="469" y="1112.9618">runApp : QThread*</text><text fill="#000000" font-family="sans-serif" font-size="14" lengthAdjust="spacing" textLength="4" x="469" y="1132.0297">&#160;</text><polygon fill="none" points="460,1142.1656,464,1146.1656,460,1150.1656,456,1146.1656" style="stroke:#B38D22;stroke-width:1.0;"/><text fill="#000000" font-family="sans-serif" font-size="14" lengthAdjust="spacing" textLength="216" x="469" y="1151.0976">affichageJoueur : AffichageGUI*</text><polygon fill="none" points="460,1161.2335,464,1165.2335,460,1169.2335,456,1165.2335" style="stroke:#B38D22;stroke-width:1.0;"/><text fill="#000000" font-family="sans-serif" font-size="14" lengthAdjust="spacing" textLength="238" x="469" y="1170.1655">affichageChantier : AffichageGUI**</text><polygon fill="none" points="460,1180.3015,464,1184.3015,460,1188.3015,456,1184.3015" style="stroke:#B38D22;stroke-width:1.0;"/><text fill="#000000" font-family="sans-serif" font-size="14" lengthAdjust="spacing" textLength="292" x="469" y="1189.2334">affichageJoueursAdverses : AffichageGUI**</text><line style="stroke:#181818;stroke-width:0.5;" x1="450" x2="833" y1="1197.3354" y2="1197.3354"/><polygon fill="#FFFF44" points="460,1207.3694,464,1211.3694,460,1215.3694,456,1211.3694" style="stroke:#B38D22;stroke-width:1.0;"/><text fill="#000000" font-family="sans-serif" font-size="14" lengthAdjust="spacing" textLength="80" x="469" y="1216.3014">titleScreen()</text><polygon fill="#FFFF44" points="460,1226.4373,464,1230.4373,460,1234.4373,456,1230.4373" style="stroke:#B38D22;stroke-width:1.0;"/><text fill="#000000" font-family="sans-serif" font-size="14" lengthAdjust="spacing" textLength="174" x="469" y="1235.3693">bool selectChargerPartie()</text><polygon fill="#FFFF44" points="460,1245.5052,464,1249.5052,460,1253.5052,456,1249.5052" style="stroke:#B38D22;stroke-width:1.0;"/><text fill="#000000" font-family="sans-serif" font-size="14" lengthAdjust="spacing" textLength="124" x="469" y="1254.4372">selectGameMode()</text><polygon fill="#FFFF44" points="460,1264.5731,464,1268.5731,460,1272.5731,456,1268.5731" style="stroke:#B38D22;stroke-width:1.0;"/><text fill="#000000" font-family="sans-serif" font-size="14" lengthAdjust="spacing" textLength="98" x="469" y="1273.5051">selectJoueurs()</text><polygon fill="#FFFF44" points="460,1283.641,464,1287.641,460,1291.641,456,1287.641" style="stroke:#B38D22;stroke-width:1.0;"/><text fill="#000000" font-family="sans-serif" font-size="14" lengthAdjust="spacing" textLength="137" x="469" y="1292.573">selectNomsJoueurs()</text><polygon fill="#FFFF44" points="460,1302.709,464,1306.709,460,1310.709,456,1306.709" style="stroke:#B38D22;stroke-width:1.0;"/><text fill="#000000" font-family="sans-serif" font-size="14" lengthAdjust="spacing" textLength="292" x="469" y="1311.6409">selectNiveauIllustreArchitechte() : Difficulte</text><polygon fill="#FFFF44" points="460,1321.7769,464,1325.7769,460,1329.7769,456,1325.7769" style="stroke:#B38D22;stroke-width:1.0;"/><text fill="#000000" font-family="sans-serif" font-size="14" lengthAdjust="spacing" textLength="192" x="469" y="1330.7089">selectVitessePartie() : Vitesse</text><polygon fill="#FFFF44" points="460,1340.8448,464,1344.8448,460,1348.8448,456,1344.8448" style="stroke:#B38D22;stroke-width:1.0;"/><text fill="#000000" font-family="sans-serif" font-size="14" lengthAdjust="spacing" textLength="129" x="469" y="1349.7768">selectReglesScore()</text><polygon fill="#FFFF44" points="460,1359.9127,464,1363.9127,460,1367.9127,456,1363.9127" style="stroke:#B38D22;stroke-width:1.0;"/><text fill="#000000" font-family="sans-serif" font-size="14" lengthAdjust="spacing" textLength="115" x="469" y="1368.8447">afficheSceneJeu()</text><polygon fill="#FFFF44" points="460,1378.9806,464,1382.9806,460,1386.9806,456,1382.9806" style="stroke:#B38D22;stroke-width:1.0;"/><text fill="#000000" font-family="sans-serif" font-size="14" lengthAdjust="spacing" textLength="203" x="469" y="1387.9126">selectTuile(joueur : size_t) : int</text><polygon fill="#FFFF44" points="460,1398.0485,464,1402.0485,460,1406.0485,456,1402.0485" style="stroke:#B38D22;stroke-width:1.0;"/><text fill="#000000" font-family="sans-serif" font-size="14" lengthAdjust="spacing" textLength="359" x="469" y="1406.9805">placeTuile(joueur : size_t, tuileSelected : Tuile*) : bool</text><polygon fill="#FFFF44" points="460,1417.1165,464,1421.1165,460,1425.1165,456,1421.1165" style="stroke:#B38D22;stroke-width:1.0;"/><text fill="#000000" font-family="sans-serif" font-size="14" lengthAdjust="spacing" textLength="265" x="469" y="1426.0484">afficheTourAutomatique(joueur : size_t)</text><polygon fill="#FFFF44" points="460,1436.1844,464,1440.1844,460,1444.1844,456,1440.1844" style="stroke:#B38D22;stroke-width:1.0;"/><text fill="#000000" font-family="sans-serif" font-size="14" lengthAdjust="spacing" textLength="285" x="469" y="1445.1164">finDePartie(scores : multimap&lt;int, string&gt;)</text><text fill="#000000" font-family="sans-serif" font-size="14" lengthAdjust="spacing" textLength="4" x="469" y="1464.1843">&#160;</text><ellipse cx="460" cy="1479.3202" fill="#84BE84" rx="3" ry="3" style="stroke:#038048;stroke-width:1.0;"/><text fill="#000000" font-family="sans-serif" font-size="14" lengthAdjust="spacing" text-decoration="underline" textLength="100" x="469" y="1483.2522">getJeu() : Jeu* ;</text></g><!--class Deck--><g id="elem_Deck"><rect fill="#F1F1F1" height="48" id="Deck" rx="2.5" ry="2.5" style="stroke:#181818;stroke-width:0.5;" width="64" x="152.5" y="7"/><ellipse cx="167.5" cy="23" fill="#ADD1B2" rx="11" ry="11" style="stroke:#181818;stroke-width:1.0;"/><path d="M167.6094,18.5313 Q166.6875,18.5313 165.9531,18.8438 Q165.2344,19.1563 164.7344,19.75 Q164.2344,20.3281 163.9531,21.2031 Q163.6875,22.0781 163.6875,23.1719 Q163.6875,24.6094 164.125,25.6563 Q164.5781,26.7031 165.4219,27.25 Q166.2813,27.7969 167.5938,27.7969 Q168.375,27.7969 169.0625,27.6719 Q169.7656,27.5313 170.7656,27.2188 L170.7656,29.0938 Q169.9063,29.4219 169.1406,29.5469 Q168.3906,29.6719 167.375,29.6719 Q165.4531,29.6719 164.1406,28.875 Q162.8438,28.0625 162.1875,26.5938 Q161.5313,25.1094 161.5313,23.1406 Q161.5313,21.7188 161.9219,20.5469 Q162.3281,19.3594 163.1094,18.4844 Q163.8906,17.6094 165.0313,17.1406 Q166.1719,16.6563 167.6406,16.6563 Q168.5938,16.6563 169.4844,16.8594 Q170.3906,17.0469 171.3281,17.5156 L170.5,19.2969 Q169.7188,18.9219 169.0625,18.7344 Q168.4063,18.5313 167.6094,18.5313 Z " fill="#000000"/><text fill="#000000" font-family="sans-serif" font-size="14" lengthAdjust="spacing" textLength="32" x="181.5" y="28.432">Deck</text><line style="stroke:#181818;stroke-width:0.5;" x1="153.5" x2="215.5" y1="39" y2="39"/><line style="stroke:#181818;stroke-width:0.5;" x1="153.5" x2="215.5" y1="47" y2="47"/></g><!--class Chantier--><g id="elem_Chantier"><rect fill="#F1F1F1" height="48" id="Chantier" rx="2.5" ry="2.5" style="stroke:#181818;stroke-width:0.5;" width="90" x="251.5" y="7"/><ellipse cx="266.5" cy="23" fill="#ADD1B2" rx="11" ry="11" style="stroke:#181818;stroke-width:1.0;"/><path d="M266.6094,18.5313 Q265.6875,18.5313 264.9531,18.8438 Q264.2344,19.1563 263.7344,19.75 Q263.2344,20.3281 262.9531,21.2031 Q262.6875,22.0781 262.6875,23.1719 Q262.6875,24.6094 263.125,25.6563 Q263.5781,26.7031 264.4219,27.25 Q265.2813,27.7969 266.5938,27.7969 Q267.375,27.7969 268.0625,27.6719 Q268.7656,27.5313 269.7656,27.2188 L269.7656,29.0938 Q268.9063,29.4219 268.1406,29.5469 Q267.3906,29.6719 266.375,29.6719 Q264.4531,29.6719 263.1406,28.875 Q261.8438,28.0625 261.1875,26.5938 Q260.5313,25.1094 260.5313,23.1406 Q260.5313,21.7188 260.9219,20.5469 Q261.3281,19.3594 262.1094,18.4844 Q262.8906,17.6094 264.0313,17.1406 Q265.1719,16.6563 266.6406,16.6563 Q267.5938,16.6563 268.4844,16.8594 Q269.3906,17.0469 270.3281,17.5156 L269.5,19.2969 Q268.7188,18.9219 268.0625,18.7344 Q267.4063,18.5313 266.6094,18.5313 Z " fill="#000000"/><text fill="#000000" font-family="sans-serif" font-size="14" lengthAdjust="spacing" textLength="58" x="280.5" y="28.432">Chantier</text><line style="stroke:#181818;stroke-width:0.5;" x1="252.5" x2="340.5" y1="39" y2="39"/><line style="stroke:#181818;stroke-width:0.5;" x1="252.5" x2="340.5" y1="47" y2="47"/></g><!--class Serializable--><g id="elem_Serializable"><rect fill="#F1F1F1" height="48" id="Serializable" rx="2.5" ry="2.5" style="stroke:#181818;stroke-width:0.5;" width="110" x="376.5" y="7"/><ellipse cx="391.5" cy="23" fill="#ADD1B2" rx="11" ry="11" style="stroke:#181818;stroke-width:1.0;"/><path d="M391.6094,18.5313 Q390.6875,18.5313 389.9531,18.8438 Q389.2344,19.1563 388.7344,19.75 Q388.2344,20.3281 387.9531,21.2031 Q387.6875,22.0781 387.6875,23.1719 Q387.6875,24.6094 388.125,25.6563 Q388.5781,26.7031 389.4219,27.25 Q390.2813,27.7969 391.5938,27.7969 Q392.375,27.7969 393.0625,27.6719 Q393.7656,27.5313 394.7656,27.2188 L394.7656,29.0938 Q393.9063,29.4219 393.1406,29.5469 Q392.3906,29.6719 391.375,29.6719 Q389.4531,29.6719 388.1406,28.875 Q386.8438,28.0625 386.1875,26.5938 Q385.5313,25.1094 385.5313,23.1406 Q385.5313,21.7188 385.9219,20.5469 Q386.3281,19.3594 387.1094,18.4844 Q387.8906,17.6094 389.0313,17.1406 Q390.1719,16.6563 391.6406,16.6563 Q392.5938,16.6563 393.4844,16.8594 Q394.3906,17.0469 395.3281,17.5156 L394.5,19.2969 Q393.7188,18.9219 393.0625,18.7344 Q392.4063,18.5313 391.6094,18.5313 Z " fill="#000000"/><text fill="#000000" font-family="sans-serif" font-size="14" lengthAdjust="spacing" textLength="78" x="405.5" y="28.432">Serializable</text><line style="stroke:#181818;stroke-width:0.5;" x1="377.5" x2="485.5" y1="39" y2="39"/><line style="stroke:#181818;stroke-width:0.5;" x1="377.5" x2="485.5" y1="47" y2="47"/></g><!--class TuileDepart--><g id="elem_TuileDepart"><rect fill="#F1F1F1" height="48" id="TuileDepart" rx="2.5" ry="2.5" style="stroke:#181818;stroke-width:0.5;" width="111" x="522" y="7"/><ellipse cx="537" cy="23" fill="#ADD1B2" rx="11" ry="11" style="stroke:#181818;stroke-width:1.0;"/><path d="M537.1094,18.5313 Q536.1875,18.5313 535.4531,18.8438 Q534.7344,19.1563 534.2344,19.75 Q533.7344,20.3281 533.4531,21.2031 Q533.1875,22.0781 533.1875,23.1719 Q533.1875,24.6094 533.625,25.6563 Q534.0781,26.7031 534.9219,27.25 Q535.7813,27.7969 537.0938,27.7969 Q537.875,27.7969 538.5625,27.6719 Q539.2656,27.5313 540.2656,27.2188 L540.2656,29.0938 Q539.4063,29.4219 538.6406,29.5469 Q537.8906,29.6719 536.875,29.6719 Q534.9531,29.6719 533.6406,28.875 Q532.3438,28.0625 531.6875,26.5938 Q531.0313,25.1094 531.0313,23.1406 Q531.0313,21.7188 531.4219,20.5469 Q531.8281,19.3594 532.6094,18.4844 Q533.3906,17.6094 534.5313,17.1406 Q535.6719,16.6563 537.1406,16.6563 Q538.0938,16.6563 538.9844,16.8594 Q539.8906,17.0469 540.8281,17.5156 L540,19.2969 Q539.2188,18.9219 538.5625,18.7344 Q537.9063,18.5313 537.1094,18.5313 Z " fill="#000000"/><text fill="#000000" font-family="sans-serif" font-size="14" lengthAdjust="spacing" textLength="79" x="551" y="28.432">TuileDepart</text><line style="stroke:#181818;stroke-width:0.5;" x1="523" x2="632" y1="39" y2="39"/><line style="stroke:#181818;stroke-width:0.5;" x1="523" x2="632" y1="47" y2="47"/></g><!--class Joueur--><g id="elem_Joueur"><rect fill="#F1F1F1" height="48" id="Joueur" rx="2.5" ry="2.5" style="stroke:#181818;stroke-width:0.5;" width="76" x="668.5" y="7"/><ellipse cx="683.5" cy="23" fill="#ADD1B2" rx="11" ry="11" style="stroke:#181818;stroke-width:1.0;"/><path d="M683.6094,18.5313 Q682.6875,18.5313 681.9531,18.8438 Q681.2344,19.1563 680.7344,19.75 Q680.2344,20.3281 679.9531,21.2031 Q679.6875,22.0781 679.6875,23.1719 Q679.6875,24.6094 680.125,25.6563 Q680.5781,26.7031 681.4219,27.25 Q682.2813,27.7969 683.5938,27.7969 Q684.375,27.7969 685.0625,27.6719 Q685.7656,27.5313 686.7656,27.2188 L686.7656,29.0938 Q685.9063,29.4219 685.1406,29.5469 Q684.3906,29.6719 683.375,29.6719 Q681.4531,29.6719 680.1406,28.875 Q678.8438,28.0625 678.1875,26.5938 Q677.5313,25.1094 677.5313,23.1406 Q677.5313,21.7188 677.9219,20.5469 Q678.3281,19.3594 679.1094,18.4844 Q679.8906,17.6094 681.0313,17.1406 Q682.1719,16.6563 683.6406,16.6563 Q684.5938,16.6563 685.4844,16.8594 Q686.3906,17.0469 687.3281,17.5156 L686.5,19.2969 Q685.7188,18.9219 685.0625,18.7344 Q684.4063,18.5313 683.6094,18.5313 Z " fill="#000000"/><text fill="#000000" font-family="sans-serif" font-size="14" lengthAdjust="spacing" textLength="44" x="697.5" y="28.432">Joueur</text><line style="stroke:#181818;stroke-width:0.5;" x1="669.5" x2="743.5" y1="39" y2="39"/><line style="stroke:#181818;stroke-width:0.5;" x1="669.5" x2="743.5" y1="47" y2="47"/></g><!--class AffichageConsole--><g id="elem_AffichageConsole"><rect fill="#F1F1F1" height="48" id="AffichageConsole" rx="2.5" ry="2.5" style="stroke:#181818;stroke-width:0.5;" width="149" x="147" y="1551.35"/><ellipse cx="162" cy="1567.35" fill="#ADD1B2" rx="11" ry="11" style="stroke:#181818;stroke-width:1.0;"/><path d="M162.1094,1562.8813 Q161.1875,1562.8813 160.4531,1563.1938 Q159.7344,1563.5063 159.2344,1564.1 Q158.7344,1564.6781 158.4531,1565.5531 Q158.1875,1566.4281 158.1875,1567.5219 Q158.1875,1568.9594 158.625,1570.0063 Q159.0781,1571.0531 159.9219,1571.6 Q160.7813,1572.1469 162.0938,1572.1469 Q162.875,1572.1469 163.5625,1572.0219 Q164.2656,1571.8813 165.2656,1571.5688 L165.2656,1573.4438 Q164.4063,1573.7719 163.6406,1573.8969 Q162.8906,1574.0219 161.875,1574.0219 Q159.9531,1574.0219 158.6406,1573.225 Q157.3438,1572.4125 156.6875,1570.9438 Q156.0313,1569.4594 156.0313,1567.4906 Q156.0313,1566.0688 156.4219,1564.8969 Q156.8281,1563.7094 157.6094,1562.8344 Q158.3906,1561.9594 159.5313,1561.4906 Q160.6719,1561.0063 162.1406,1561.0063 Q163.0938,1561.0063 163.9844,1561.2094 Q164.8906,1561.3969 165.8281,1561.8656 L165,1563.6469 Q164.2188,1563.2719 163.5625,1563.0844 Q162.9063,1562.8813 162.1094,1562.8813 Z " fill="#000000"/><text fill="#000000" font-family="sans-serif" font-size="14" lengthAdjust="spacing" textLength="117" x="176" y="1572.782">AffichageConsole</text><line style="stroke:#181818;stroke-width:0.5;" x1="148" x2="295" y1="1583.35" y2="1583.35"/><line style="stroke:#181818;stroke-width:0.5;" x1="148" x2="295" y1="1591.35" y2="1591.35"/></g><!--class MainWindow--><g id="elem_MainWindow"><rect fill="#F1F1F1" height="48" id="MainWindow" rx="2.5" ry="2.5" style="stroke:#181818;stroke-width:0.5;" width="120" x="503.5" y="1551.35"/><ellipse cx="518.5" cy="1567.35" fill="#ADD1B2" rx="11" ry="11" style="stroke:#181818;stroke-width:1.0;"/><path d="M518.6094,1562.8813 Q517.6875,1562.8813 516.9531,1563.1938 Q516.2344,1563.5063 515.7344,1564.1 Q515.2344,1564.6781 514.9531,1565.5531 Q514.6875,1566.4281 514.6875,1567.5219 Q514.6875,1568.9594 515.125,1570.0063 Q515.5781,1571.0531 516.4219,1571.6 Q517.2813,1572.1469 518.5938,1572.1469 Q519.375,1572.1469 520.0625,1572.0219 Q520.7656,1571.8813 521.7656,1571.5688 L521.7656,1573.4438 Q520.9063,1573.7719 520.1406,1573.8969 Q519.3906,1574.0219 518.375,1574.0219 Q516.4531,1574.0219 515.1406,1573.225 Q513.8438,1572.4125 513.1875,1570.9438 Q512.5313,1569.4594 512.5313,1567.4906 Q512.5313,1566.0688 512.9219,1564.8969 Q513.3281,1563.7094 514.1094,1562.8344 Q514.8906,1561.9594 516.0313,1561.4906 Q517.1719,1561.0063 518.6406,1561.0063 Q519.5938,1561.0063 520.4844,1561.2094 Q521.3906,1561.3969 522.3281,1561.8656 L521.5,1563.6469 Q520.7188,1563.2719 520.0625,1563.0844 Q519.4063,1562.8813 518.6094,1562.8813 Z " fill="#000000"/><text fill="#000000" font-family="sans-serif" font-size="14" lengthAdjust="spacing" textLength="88" x="532.5" y="1572.782">MainWindow</text><line style="stroke:#181818;stroke-width:0.5;" x1="504.5" x2="622.5" y1="1583.35" y2="1583.35"/><line style="stroke:#181818;stroke-width:0.5;" x1="504.5" x2="622.5" y1="1591.35" y2="1591.35"/></g><!--class AffichageGUI--><g id="elem_AffichageGUI"><rect fill="#F1F1F1" height="48" id="AffichageGUI" rx="2.5" ry="2.5" style="stroke:#181818;stroke-width:0.5;" width="121" x="659" y="1551.35"/><ellipse cx="674" cy="1567.35" fill="#ADD1B2" rx="11" ry="11" style="stroke:#181818;stroke-width:1.0;"/><path d="M674.1094,1562.8813 Q673.1875,1562.8813 672.4531,1563.1938 Q671.7344,1563.5063 671.2344,1564.1 Q670.7344,1564.6781 670.4531,1565.5531 Q670.1875,1566.4281 670.1875,1567.5219 Q670.1875,1568.9594 670.625,1570.0063 Q671.0781,1571.0531 671.9219,1571.6 Q672.7813,1572.1469 674.0938,1572.1469 Q674.875,1572.1469 675.5625,1572.0219 Q676.2656,1571.8813 677.2656,1571.5688 L677.2656,1573.4438 Q676.4063,1573.7719 675.6406,1573.8969 Q674.8906,1574.0219 673.875,1574.0219 Q671.9531,1574.0219 670.6406,1573.225 Q669.3438,1572.4125 668.6875,1570.9438 Q668.0313,1569.4594 668.0313,1567.4906 Q668.0313,1566.0688 668.4219,1564.8969 Q668.8281,1563.7094 669.6094,1562.8344 Q670.3906,1561.9594 671.5313,1561.4906 Q672.6719,1561.0063 674.1406,1561.0063 Q675.0938,1561.0063 675.9844,1561.2094 Q676.8906,1561.3969 677.8281,1561.8656 L677,1563.6469 Q676.2188,1563.2719 675.5625,1563.0844 Q674.9063,1562.8813 674.1094,1562.8813 Z " fill="#000000"/><text fill="#000000" font-family="sans-serif" font-size="14" lengthAdjust="spacing" textLength="89" x="688" y="1572.782">AffichageGUI</text><line style="stroke:#181818;stroke-width:0.5;" x1="660" x2="779" y1="1583.35" y2="1583.35"/><line style="stroke:#181818;stroke-width:0.5;" x1="660" x2="779" y1="1591.35" y2="1591.35"/></g><!--reverse link Jeu to JeuConsole--><g id="link_Jeu_JeuConsole"><path d="M302.1549,981.5427 C289.1349,1025.9427 281.59,1051.67 270.23,1090.42 " fill="none" id="Jeu-backto-JeuConsole" style="stroke:#181818;stroke-width:1.0;"/><polygon fill="none" points="307.22,964.27,296.3974,979.8543,307.9125,983.231,307.22,964.27" style="stroke:#181818;stroke-width:1.0;"/></g><!--reverse link Jeu to JeuGUI--><g id="link_Jeu_JeuGUI"><path d="M560.8441,981.543 C566.7341,1001.633 567.48,1004.16 573.12,1023.41 " fill="none" id="Jeu-backto-JeuGUI" style="stroke:#181818;stroke-width:1.0;"/><polygon fill="none" points="555.78,964.27,555.0864,983.231,566.6017,979.8549,555.78,964.27" style="stroke:#181818;stroke-width:1.0;"/></g><!--link Deck to Jeu--><g id="link_Deck_Jeu"><path codeLine="96" d="M195.92,55.41 C202.99,69.91 207.7314,79.6236 219.6514,104.0736 " fill="none" id="Deck-to-Jeu" style="stroke:#181818;stroke-width:1.0;"/><polygon fill="#181818" points="224.91,114.86,225.8761,107.7139,219.6514,104.0736,218.6852,111.2197,224.91,114.86" style="stroke:#181818;stroke-width:1.0;"/><text fill="#000000" font-family="sans-serif" font-size="13" lengthAdjust="spacing" textLength="7" x="190.7515" y="76.9991">1</text></g><!--link Chantier to Jeu--><g id="link_Chantier_Jeu"><path codeLine="97" d="M302.74,55.41 C306.6,69.91 308.978,78.8152 315.498,103.2652 " fill="none" id="Chantier-to-Jeu" style="stroke:#181818;stroke-width:1.0;"/><polygon fill="#181818" points="318.59,114.86,320.909,108.0319,315.498,103.2652,313.1791,110.0932,318.59,114.86" style="stroke:#181818;stroke-width:1.0;"/><text fill="#000000" font-family="sans-serif" font-size="13" lengthAdjust="spacing" textLength="7" x="296.3736" y="76.9991">1</text></g><!--reverse link Serializable to Jeu--><g id="link_Serializable_Jeu"><path codeLine="98" d="M431.5,73.41 C431.5,87.91 431.5,90.41 431.5,114.86 " fill="none" id="Serializable-backto-Jeu" style="stroke:#181818;stroke-width:1.0;"/><polygon fill="none" points="431.5,55.41,425.5,73.41,437.5,73.41,431.5,55.41" style="stroke:#181818;stroke-width:1.0;"/></g><!--link TuileDepart to Jeu--><g id="link_TuileDepart_Jeu"><path codeLine="99" d="M570.75,55.41 C566.57,69.91 563.9847,78.8798 556.9347,103.3298 " fill="none" id="TuileDepart-to-Jeu" style="stroke:#181818;stroke-width:1.0;"/><polygon fill="#181818" points="553.61,114.86,559.1158,110.2031,556.9347,103.3298,551.4289,107.9867,553.61,114.86" style="stroke:#181818;stroke-width:1.0;"/><text fill="#000000" font-family="sans-serif" font-size="13" lengthAdjust="spacing" textLength="7" x="561.3797" y="76.9991">1</text></g><!--link Joueur to Jeu--><g id="link_Joueur_Jeu"><path codeLine="100" d="M693.79,55.41 C685.92,69.91 680.5175,79.8651 667.2375,104.3151 " fill="none" id="Joueur-to-Jeu" style="stroke:#181818;stroke-width:1.0;"/><polygon fill="#181818" points="661.51,114.86,667.8887,111.4967,667.2375,104.3151,660.8588,107.6784,661.51,114.86" style="stroke:#181818;stroke-width:1.0;"/><text fill="#000000" font-family="sans-serif" font-size="13" lengthAdjust="spacing" textLength="7" x="683.0414" y="76.9991">*</text></g><!--reverse link JeuConsole to AffichageConsole--><g id="link_JeuConsole_AffichageConsole"><path codeLine="102" d="M221.5,1436.8 C221.5,1486.57 221.5,1523.23 221.5,1550.93 " fill="none" id="JeuConsole-backto-AffichageConsole" style="stroke:#181818;stroke-width:1.0;"/><polygon fill="none" points="221.5,1424.8,217.5,1430.8,221.5,1436.8,225.5,1430.8,221.5,1424.8" style="stroke:#181818;stroke-width:1.0;"/></g><!--reverse link JeuGUI to MainWindow--><g id="link_JeuGUI_MainWindow"><path codeLine="104" d="M581.0154,1503.4506 C575.1554,1527.2006 572.89,1536.32 569.25,1551.09 " fill="none" id="JeuGUI-backto-MainWindow" style="stroke:#181818;stroke-width:1.0;"/><polygon fill="#181818" points="583.89,1491.8,578.5692,1496.6671,581.0154,1503.4506,586.3362,1498.5835,583.89,1491.8" style="stroke:#181818;stroke-width:1.0;"/></g><!--reverse link JeuGUI to AffichageGUI--><g id="link_JeuGUI_AffichageGUI"><path codeLine="105" d="M701.9846,1503.4506 C707.8446,1527.2006 710.11,1536.32 713.75,1551.09 " fill="none" id="JeuGUI-backto-AffichageGUI" style="stroke:#181818;stroke-width:1.0;"/><polygon fill="#181818" points="699.11,1491.8,696.6638,1498.5835,701.9846,1503.4506,704.4308,1496.6671,699.11,1491.8" style="stroke:#181818;stroke-width:1.0;"/></g><!--SRC=[xLPDJzj04BtxLwoeL2KcEVGQK2MBI0ZK86WeFLHLjLbFaeNDhhiV0K7vxnsllNOCje7ssEOIxtoypCwyDp5T6Aifi-GK77c88eAVT-GQ3nDYBBMSvPwuj6zK2bCuzTvZke4PdalNWhARSmt6G8hEXLA213IfDWiDbyffawFoU_XXIK2aTsUjxaRkgNBGbdrTsOk8-1jJqbWiS39fPCxetVT6JiAi0_4CCDEmuQ2BhEVLMCS5DY2ZsgBpiZx50I05TeEkQVvLcjYQIekWQ3uAZmNWc30gc1EWvqnXxmP3ZDauOVc6PeTSsX7EG7Ev-bXLW5SR3CE1Isuv5Tp0kQ0MABeEGgNS2fWp3I0HzI5p6iYMQ-keU0mJosTaG02pM9TUWJx7ct3eYYz2mzZxeygszmVXuCth0laMBtSYXCDsGABPcbjWQmk-OLE-N7BieeK-Z2jCGN9MLvoGqaBwiZx3Ie3nq-agaUQ_liPUWmG_dJuyJvd1TPDUUJ4uxFQyJ506hMcZWevp3-nLvyFYOT1VNxcvt19drGOb_jErbDIQlEHo6bfeF6Mx2FiCe1P3asd5adaCl3NKRM55TTeN0pfd_JqCBgueFaexezbxab9BHsHUEZ53oICbBToXEbdnC2H-Fn2r1Qrv2WULQclC8kBjo3Mc1zqdAx057oP-XJwv1lfHIP-KoWRO4LPGO4JmUOlFUPjma0-D_kyJ9gWnPvZdKOjMHu-HLCXz0Kix8O2rEubJb4XSgsGK-Poy0YpPA044gmMPcdBZjwoB5_T3nq9etm3TalyZZRzIrDqgxfBjgtNwry9ycnBVBhsN2OXoh7bn_EMabHCqop3p8iaomPadVNWDkEKoLRVed54kl_f3S6adaoBlSgs1fd7Kk2rTGVNVcWGB5X0_ZJgg_pGRSN4xd4bIb9_nJNaI_v_X_oh3_KlOteSzCXx7kJ-gIBLhhDRw0dVZuQ_ns5jttkqQqILxz-BQ5EtiLeNf5VzAem_8HHQZirRChdMNij5l]--></g></svg>