<?xml version="1.0" encoding="us-ascii" standalone="no"?><svg xmlns="http://www.w3.org/2000/svg" xmlns:xlink="http://www.w3.org/1999/xlink" contentStyleType="text/css" height="773px" preserveAspectRatio="none" style="width:825px;height:773px;background:#FFFFFF;" version="1.1" viewBox="0 0 825 773" width="825px" zoomAndPan="magnify"><defs/><g><!--class Serializable--><g id="elem_Serializable"><rect codeLine="2" fill="#F1F1F1" height="48" id="Serializable" rx="2.5" ry="2.5" style="stroke:#181818;stroke-width:0.5;" width="105" x="309.5" y="7"/><ellipse cx="324.5" cy="23" fill="#A9DCDF" rx="11" ry="11" style="stroke:#181818;stroke-width:1.0;"/><path d="M327.8438,28.25 L326.375,24.5 L321.9375,24.5 L320.5,28.25 L318.375,28.25 L323.3281,15.5313 L325.0781,15.5313 L330,28.25 L327.8438,28.25 Z M324.5,19.2969 Q324.4531,19.1406 324.3281,18.7813 Q324.2031,18.4219 324.0938,18.0469 Q323.9844,17.6563 324.1875,17.5938 Q324.3438,17.7813 324.25,18.1406 Q324.1563,18.4844 324.0625,18.7813 Q323.9688,19.0625 323.8906,19.2969 L322.6563,22.6094 L325.7344,22.6094 L324.5,19.2969 Z " fill="#000000"/><text fill="#000000" font-family="sans-serif" font-size="14" font-style="italic" lengthAdjust="spacing" textLength="73" x="338.5" y="28.432">Serializable</text><line style="stroke:#181818;stroke-width:0.5;" x1="310.5" x2="413.5" y1="39" y2="39"/><line style="stroke:#181818;stroke-width:0.5;" x1="310.5" x2="413.5" y1="47" y2="47"/></g><!--class Joueur--><g id="elem_Joueur"><rect codeLine="3" fill="#F1F1F1" height="334.0188" id="Joueur" rx="2.5" ry="2.5" style="stroke:#181818;stroke-width:0.5;" width="591" x="123.5" y="115"/><ellipse cx="394.25" cy="131" fill="#A9DCDF" rx="11" ry="11" style="stroke:#181818;stroke-width:1.0;"/><path d="M397.5938,136.25 L396.125,132.5 L391.6875,132.5 L390.25,136.25 L388.125,136.25 L393.0781,123.5313 L394.8281,123.5313 L399.75,136.25 L397.5938,136.25 Z M394.25,127.2969 Q394.2031,127.1406 394.0781,126.7813 Q393.9531,126.4219 393.8438,126.0469 Q393.7344,125.6563 393.9375,125.5938 Q394.0938,125.7813 394,126.1406 Q393.9063,126.4844 393.8125,126.7813 Q393.7188,127.0625 393.6406,127.2969 L392.4063,130.6094 L395.4844,130.6094 L394.25,127.2969 Z " fill="#000000"/><text fill="#000000" font-family="sans-serif" font-size="14" font-style="italic" lengthAdjust="spacing" textLength="41" x="414.75" y="136.432">Joueur</text><line style="stroke:#181818;stroke-width:0.5;" x1="124.5" x2="713.5" y1="147" y2="147"/><polygon fill="none" points="134.5,157.034,138.5,161.034,134.5,165.034,130.5,161.034" style="stroke:#B38D22;stroke-width:1.0;"/><text fill="#000000" font-family="sans-serif" font-size="14" lengthAdjust="spacing" textLength="78" x="143.5" y="165.9659">pierres : int</text><polygon fill="none" points="134.5,176.1019,138.5,180.1019,134.5,184.1019,130.5,180.1019" style="stroke:#B38D22;stroke-width:1.0;"/><text fill="#000000" font-family="sans-serif" font-size="14" lengthAdjust="spacing" textLength="126" x="143.5" y="185.0339">nomJoueur : string</text><polygon fill="none" points="134.5,195.1698,138.5,199.1698,134.5,203.1698,130.5,199.1698" style="stroke:#B38D22;stroke-width:1.0;"/><text fill="#000000" font-family="sans-serif" font-size="14" lengthAdjust="spacing" textLength="157" x="143.5" y="204.1018">plateauJoueur : Plateau</text><polygon fill="none" points="134.5,214.2377,138.5,218.2377,134.5,222.2377,130.5,218.2377" style="stroke:#B38D22;stroke-width:1.0;"/><text fill="#000000" font-family="sans-serif" font-size="14" lengthAdjust="spacing" textLength="137" x="143.5" y="223.1697">scoreJoueur : Score*</text><line style="stroke:#181818;stroke-width:0.5;" x1="124.5" x2="713.5" y1="231.2717" y2="231.2717"/><ellipse cx="134.5" cy="246.3056" fill="#84BE84" rx="3" ry="3" style="stroke:#038048;stroke-width:1.0;"/><text fill="#000000" font-family="sans-serif" font-size="14" lengthAdjust="spacing" textLength="266" x="143.5" y="250.2376">get_joue_tout_seul() : bool {pure virtual}</text><ellipse cx="134.5" cy="265.3735" fill="#84BE84" rx="3" ry="3" style="stroke:#038048;stroke-width:1.0;"/><text fill="#000000" font-family="sans-serif" font-size="14" lengthAdjust="spacing" textLength="142" x="143.5" y="269.3055">get_score() const : int</text><ellipse cx="134.5" cy="284.4415" fill="#84BE84" rx="3" ry="3" style="stroke:#038048;stroke-width:1.0;"/><text fill="#000000" font-family="sans-serif" font-size="14" lengthAdjust="spacing" textLength="208" x="143.5" y="288.3734">get_nom() const : const string&amp;</text><ellipse cx="134.5" cy="303.5094" fill="#84BE84" rx="3" ry="3" style="stroke:#038048;stroke-width:1.0;"/><text fill="#000000" font-family="sans-serif" font-size="14" lengthAdjust="spacing" textLength="107" x="143.5" y="307.4414">get_pierre() : int</text><ellipse cx="134.5" cy="322.5773" fill="#84BE84" rx="3" ry="3" style="stroke:#038048;stroke-width:1.0;"/><text fill="#000000" font-family="sans-serif" font-size="14" lengthAdjust="spacing" textLength="146" x="143.5" y="326.5093">set_pierre(pierre : int)</text><ellipse cx="134.5" cy="341.6452" fill="#84BE84" rx="3" ry="3" style="stroke:#038048;stroke-width:1.0;"/><text fill="#000000" font-family="sans-serif" font-size="14" lengthAdjust="spacing" textLength="174" x="143.5" y="345.5772">ajouter_pierre(pierre : int)</text><ellipse cx="134.5" cy="360.7131" fill="#84BE84" rx="3" ry="3" style="stroke:#038048;stroke-width:1.0;"/><text fill="#000000" font-family="sans-serif" font-size="14" lengthAdjust="spacing" textLength="159" x="143.5" y="364.6451">get_plateau() : Plateau&amp;</text><ellipse cx="134.5" cy="379.781" fill="#84BE84" rx="3" ry="3" style="stroke:#038048;stroke-width:1.0;"/><text fill="#000000" font-family="sans-serif" font-size="14" lengthAdjust="spacing" textLength="565" x="143.5" y="383.713">place_tuile(tuile : Tuile, coordon&#233;es : Vector2, premierPlacement : bool = false) : bool</text><ellipse cx="134.5" cy="398.849" fill="#84BE84" rx="3" ry="3" style="stroke:#038048;stroke-width:1.0;"/><text fill="#000000" font-family="sans-serif" font-size="14" lengthAdjust="spacing" textLength="236" x="143.5" y="402.7809">jouer(chantier : Chantier&amp;) {virtual}</text><ellipse cx="134.5" cy="417.9169" fill="#84BE84" rx="3" ry="3" style="stroke:#038048;stroke-width:1.0;"/><text fill="#000000" font-family="sans-serif" font-size="14" lengthAdjust="spacing" textLength="416" x="143.5" y="421.8489">serialize(data : QVariantMap&amp;, context : SerializationContext*)</text><ellipse cx="134.5" cy="436.9848" fill="#84BE84" rx="3" ry="3" style="stroke:#038048;stroke-width:1.0;"/><text fill="#000000" font-family="sans-serif" font-size="14" lengthAdjust="spacing" textLength="477" x="143.5" y="440.9168">deserialize(data : const QVariantMap&amp;, context : SerializationContext*);</text></g><!--class JoueurSimple--><g id="elem_JoueurSimple"><rect codeLine="22" fill="#F1F1F1" height="124.2717" id="JoueurSimple" rx="2.5" ry="2.5" style="stroke:#181818;stroke-width:0.5;" width="262" x="114" y="575.76"/><ellipse cx="195.75" cy="591.76" fill="#ADD1B2" rx="11" ry="11" style="stroke:#181818;stroke-width:1.0;"/><path d="M195.8594,587.2913 Q194.9375,587.2913 194.2031,587.6038 Q193.4844,587.9163 192.9844,588.51 Q192.4844,589.0881 192.2031,589.9631 Q191.9375,590.8381 191.9375,591.9319 Q191.9375,593.3694 192.375,594.4163 Q192.8281,595.4631 193.6719,596.01 Q194.5313,596.5569 195.8438,596.5569 Q196.625,596.5569 197.3125,596.4319 Q198.0156,596.2913 199.0156,595.9788 L199.0156,597.8538 Q198.1563,598.1819 197.3906,598.3069 Q196.6406,598.4319 195.625,598.4319 Q193.7031,598.4319 192.3906,597.635 Q191.0938,596.8225 190.4375,595.3538 Q189.7813,593.8694 189.7813,591.9006 Q189.7813,590.4788 190.1719,589.3069 Q190.5781,588.1194 191.3594,587.2444 Q192.1406,586.3694 193.2813,585.9006 Q194.4219,585.4163 195.8906,585.4163 Q196.8438,585.4163 197.7344,585.6194 Q198.6406,585.8069 199.5781,586.2756 L198.75,588.0569 Q197.9688,587.6819 197.3125,587.4944 Q196.6563,587.2913 195.8594,587.2913 Z " fill="#000000"/><text fill="#000000" font-family="sans-serif" font-size="14" lengthAdjust="spacing" textLength="90" x="216.25" y="597.192">JoueurSimple</text><line style="stroke:#181818;stroke-width:0.5;" x1="115" x2="375" y1="607.76" y2="607.76"/><line style="stroke:#181818;stroke-width:0.5;" x1="115" x2="375" y1="615.76" y2="615.76"/><ellipse cx="125" cy="630.794" fill="#84BE84" rx="3" ry="3" style="stroke:#038048;stroke-width:1.0;"/><text fill="#000000" font-family="sans-serif" font-size="14" lengthAdjust="spacing" textLength="173" x="134" y="634.7259">get_joue_tout_seul() : bool</text><ellipse cx="125" cy="649.8619" fill="#84BE84" rx="3" ry="3" style="stroke:#038048;stroke-width:1.0;"/><text fill="#000000" font-family="sans-serif" font-size="14" lengthAdjust="spacing" textLength="236" x="134" y="653.7939">setNomJoueur(nom : const string&amp;)</text><ellipse cx="125" cy="668.9298" fill="#84BE84" rx="3" ry="3" style="stroke:#038048;stroke-width:1.0;"/><text fill="#000000" font-family="sans-serif" font-size="14" lengthAdjust="spacing" textLength="163" x="134" y="672.8618">set_score(score : Score*)</text><ellipse cx="125" cy="687.9977" fill="#84BE84" rx="3" ry="3" style="stroke:#038048;stroke-width:1.0;"/><text fill="#000000" font-family="sans-serif" font-size="14" lengthAdjust="spacing" textLength="133" x="134" y="691.9297">className() : string</text></g><!--class IllustreArchitecte--><g id="elem_IllustreArchitecte"><rect codeLine="29" fill="#F1F1F1" height="257.7471" id="IllustreArchitecte" rx="2.5" ry="2.5" style="stroke:#181818;stroke-width:0.5;" width="364" x="411" y="509.02"/><ellipse cx="530.75" cy="525.02" fill="#ADD1B2" rx="11" ry="11" style="stroke:#181818;stroke-width:1.0;"/><path d="M530.8594,520.5513 Q529.9375,520.5513 529.2031,520.8638 Q528.4844,521.1763 527.9844,521.77 Q527.4844,522.3481 527.2031,523.2231 Q526.9375,524.0981 526.9375,525.1919 Q526.9375,526.6294 527.375,527.6763 Q527.8281,528.7231 528.6719,529.27 Q529.5313,529.8169 530.8438,529.8169 Q531.625,529.8169 532.3125,529.6919 Q533.0156,529.5513 534.0156,529.2388 L534.0156,531.1138 Q533.1563,531.4419 532.3906,531.5669 Q531.6406,531.6919 530.625,531.6919 Q528.7031,531.6919 527.3906,530.895 Q526.0938,530.0825 525.4375,528.6138 Q524.7813,527.1294 524.7813,525.1606 Q524.7813,523.7388 525.1719,522.5669 Q525.5781,521.3794 526.3594,520.5044 Q527.1406,519.6294 528.2813,519.1606 Q529.4219,518.6763 530.8906,518.6763 Q531.8438,518.6763 532.7344,518.8794 Q533.6406,519.0669 534.5781,519.5356 L533.75,521.3169 Q532.9688,520.9419 532.3125,520.7544 Q531.6563,520.5513 530.8594,520.5513 Z " fill="#000000"/><text fill="#000000" font-family="sans-serif" font-size="14" lengthAdjust="spacing" textLength="116" x="551.25" y="530.452">IllustreArchitecte</text><line style="stroke:#181818;stroke-width:0.5;" x1="412" x2="774" y1="541.02" y2="541.02"/><polygon fill="none" points="422,551.054,426,555.054,422,559.054,418,555.054" style="stroke:#B38D22;stroke-width:1.0;"/><text fill="#000000" font-family="sans-serif" font-size="14" lengthAdjust="spacing" textLength="133" x="431" y="559.9859">difficulte : Difficulte</text><line style="stroke:#181818;stroke-width:0.5;" x1="412" x2="774" y1="568.0879" y2="568.0879"/><polygon fill="#FFFF44" points="422,578.1219,426,582.1219,422,586.1219,418,582.1219" style="stroke:#B38D22;stroke-width:1.0;"/><text fill="#000000" font-family="sans-serif" font-size="14" lengthAdjust="spacing" textLength="278" x="431" y="587.0539">choisir_tuile(chantier : Chantier&amp;) : Tuile*</text><polygon fill="#FFFF44" points="422,597.1898,426,601.1898,422,605.1898,418,601.1898" style="stroke:#B38D22;stroke-width:1.0;"/><text fill="#000000" font-family="sans-serif" font-size="14" lengthAdjust="spacing" textLength="338" x="431" y="606.1218">trouver_emplacement_tuile(tuile : Tuile&amp;) : Vector2</text><ellipse cx="422" cy="621.2577" fill="#84BE84" rx="3" ry="3" style="stroke:#038048;stroke-width:1.0;"/><text fill="#000000" font-family="sans-serif" font-size="14" lengthAdjust="spacing" textLength="124" x="431" y="625.1897">IllustreArchitecte()</text><ellipse cx="422" cy="640.3256" fill="#84BE84" rx="3" ry="3" style="stroke:#038048;stroke-width:1.0;"/><text fill="#000000" font-family="sans-serif" font-size="14" lengthAdjust="spacing" textLength="234" x="431" y="644.2576">IllustreArchitecte(niveau:Difficulte)</text><ellipse cx="422" cy="659.3935" fill="#84BE84" rx="3" ry="3" style="stroke:#038048;stroke-width:1.0;"/><text fill="#000000" font-family="sans-serif" font-size="14" lengthAdjust="spacing" textLength="173" x="431" y="663.3255">get_joue_tout_seul() : bool</text><ellipse cx="422" cy="678.4615" fill="#84BE84" rx="3" ry="3" style="stroke:#038048;stroke-width:1.0;"/><text fill="#000000" font-family="sans-serif" font-size="14" lengthAdjust="spacing" textLength="102" x="431" y="682.3934">get_score() : int</text><ellipse cx="422" cy="697.5294" fill="#84BE84" rx="3" ry="3" style="stroke:#038048;stroke-width:1.0;"/><text fill="#000000" font-family="sans-serif" font-size="14" lengthAdjust="spacing" textLength="154" x="431" y="701.4614">set_niveau(niveau : int)</text><ellipse cx="422" cy="716.5973" fill="#84BE84" rx="3" ry="3" style="stroke:#038048;stroke-width:1.0;"/><text fill="#000000" font-family="sans-serif" font-size="14" lengthAdjust="spacing" textLength="169" x="431" y="720.5293">get_difficulte() : Difficulte</text><ellipse cx="422" cy="735.6652" fill="#84BE84" rx="3" ry="3" style="stroke:#038048;stroke-width:1.0;"/><text fill="#000000" font-family="sans-serif" font-size="14" lengthAdjust="spacing" textLength="179" x="431" y="739.5972">jouer(chantier : Chantier&amp;)</text><ellipse cx="422" cy="754.7331" fill="#84BE84" rx="3" ry="3" style="stroke:#038048;stroke-width:1.0;"/><text fill="#000000" font-family="sans-serif" font-size="14" lengthAdjust="spacing" textLength="133" x="431" y="758.6651">className() : string</text></g><!--class Plateau--><g id="elem_Plateau"><rect fill="#F1F1F1" height="48" id="Plateau" rx="2.5" ry="2.5" style="stroke:#181818;stroke-width:0.5;" width="82" x="7" y="258.01"/><ellipse cx="22" cy="274.01" fill="#ADD1B2" rx="11" ry="11" style="stroke:#181818;stroke-width:1.0;"/><path d="M22.1094,269.5413 Q21.1875,269.5413 20.4531,269.8538 Q19.7344,270.1663 19.2344,270.76 Q18.7344,271.3381 18.4531,272.2131 Q18.1875,273.0881 18.1875,274.1819 Q18.1875,275.6194 18.625,276.6663 Q19.0781,277.7131 19.9219,278.26 Q20.7813,278.8069 22.0938,278.8069 Q22.875,278.8069 23.5625,278.6819 Q24.2656,278.5413 25.2656,278.2288 L25.2656,280.1038 Q24.4063,280.4319 23.6406,280.5569 Q22.8906,280.6819 21.875,280.6819 Q19.9531,280.6819 18.6406,279.885 Q17.3438,279.0725 16.6875,277.6038 Q16.0313,276.1194 16.0313,274.1506 Q16.0313,272.7288 16.4219,271.5569 Q16.8281,270.3694 17.6094,269.4944 Q18.3906,268.6194 19.5313,268.1506 Q20.6719,267.6663 22.1406,267.6663 Q23.0938,267.6663 23.9844,267.8694 Q24.8906,268.0569 25.8281,268.5256 L25,270.3069 Q24.2188,269.9319 23.5625,269.7444 Q22.9063,269.5413 22.1094,269.5413 Z " fill="#000000"/><text fill="#000000" font-family="sans-serif" font-size="14" lengthAdjust="spacing" textLength="50" x="36" y="279.442">Plateau</text><line style="stroke:#181818;stroke-width:0.5;" x1="8" x2="88" y1="290.01" y2="290.01"/><line style="stroke:#181818;stroke-width:0.5;" x1="8" x2="88" y1="298.01" y2="298.01"/></g><!--class Score--><g id="elem_Score"><rect fill="#F1F1F1" height="48" id="Score" rx="2.5" ry="2.5" style="stroke:#181818;stroke-width:0.5;" width="69" x="749.5" y="258.01"/><ellipse cx="764.5" cy="274.01" fill="#ADD1B2" rx="11" ry="11" style="stroke:#181818;stroke-width:1.0;"/><path d="M764.6094,269.5413 Q763.6875,269.5413 762.9531,269.8538 Q762.2344,270.1663 761.7344,270.76 Q761.2344,271.3381 760.9531,272.2131 Q760.6875,273.0881 760.6875,274.1819 Q760.6875,275.6194 761.125,276.6663 Q761.5781,277.7131 762.4219,278.26 Q763.2813,278.8069 764.5938,278.8069 Q765.375,278.8069 766.0625,278.6819 Q766.7656,278.5413 767.7656,278.2288 L767.7656,280.1038 Q766.9063,280.4319 766.1406,280.5569 Q765.3906,280.6819 764.375,280.6819 Q762.4531,280.6819 761.1406,279.885 Q759.8438,279.0725 759.1875,277.6038 Q758.5313,276.1194 758.5313,274.1506 Q758.5313,272.7288 758.9219,271.5569 Q759.3281,270.3694 760.1094,269.4944 Q760.8906,268.6194 762.0313,268.1506 Q763.1719,267.6663 764.6406,267.6663 Q765.5938,267.6663 766.4844,267.8694 Q767.3906,268.0569 768.3281,268.5256 L767.5,270.3069 Q766.7188,269.9319 766.0625,269.7444 Q765.4063,269.5413 764.6094,269.5413 Z " fill="#000000"/><text fill="#000000" font-family="sans-serif" font-size="14" lengthAdjust="spacing" textLength="37" x="778.5" y="279.442">Score</text><line style="stroke:#181818;stroke-width:0.5;" x1="750.5" x2="817.5" y1="290.01" y2="290.01"/><line style="stroke:#181818;stroke-width:0.5;" x1="750.5" x2="817.5" y1="298.01" y2="298.01"/></g><!--class Jeu--><g id="elem_Jeu"><rect fill="#F1F1F1" height="48" id="Jeu" rx="2.5" ry="2.5" style="stroke:#181818;stroke-width:0.5;" width="53" x="449.5" y="7"/><ellipse cx="464.5" cy="23" fill="#ADD1B2" rx="11" ry="11" style="stroke:#181818;stroke-width:1.0;"/><path d="M464.6094,18.5313 Q463.6875,18.5313 462.9531,18.8438 Q462.2344,19.1563 461.7344,19.75 Q461.2344,20.3281 460.9531,21.2031 Q460.6875,22.0781 460.6875,23.1719 Q460.6875,24.6094 461.125,25.6563 Q461.5781,26.7031 462.4219,27.25 Q463.2813,27.7969 464.5938,27.7969 Q465.375,27.7969 466.0625,27.6719 Q466.7656,27.5313 467.7656,27.2188 L467.7656,29.0938 Q466.9063,29.4219 466.1406,29.5469 Q465.3906,29.6719 464.375,29.6719 Q462.4531,29.6719 461.1406,28.875 Q459.8438,28.0625 459.1875,26.5938 Q458.5313,25.1094 458.5313,23.1406 Q458.5313,21.7188 458.9219,20.5469 Q459.3281,19.3594 460.1094,18.4844 Q460.8906,17.6094 462.0313,17.1406 Q463.1719,16.6563 464.6406,16.6563 Q465.5938,16.6563 466.4844,16.8594 Q467.3906,17.0469 468.3281,17.5156 L467.5,19.2969 Q466.7188,18.9219 466.0625,18.7344 Q465.4063,18.5313 464.6094,18.5313 Z " fill="#000000"/><text fill="#000000" font-family="sans-serif" font-size="14" lengthAdjust="spacing" textLength="21" x="478.5" y="28.432">Jeu</text><line style="stroke:#181818;stroke-width:0.5;" x1="450.5" x2="501.5" y1="39" y2="39"/><line style="stroke:#181818;stroke-width:0.5;" x1="450.5" x2="501.5" y1="47" y2="47"/></g><!--reverse link Serializable to Joueur--><g id="link_Serializable_Joueur"><path d="M371.381,72.9751 C374.821,87.9851 375.6,91.42 380.9,114.58 " fill="none" id="Serializable-backto-Joueur" style="stroke:#181818;stroke-width:1.0;"/><polygon fill="none" points="367.36,55.43,365.5326,74.3155,377.2294,71.6348,367.36,55.43" style="stroke:#181818;stroke-width:1.0;"/></g><!--reverse link Joueur to JoueurSimple--><g id="link_Joueur_JoueurSimple"><path d="M329.2794,465.4838 C307.1394,510.5238 292.48,540.33 275.2,575.48 " fill="none" id="Joueur-backto-JoueurSimple" style="stroke:#181818;stroke-width:1.0;"/><polygon fill="none" points="337.22,449.33,323.8948,462.837,334.664,468.1307,337.22,449.33" style="stroke:#181818;stroke-width:1.0;"/></g><!--reverse link Joueur to IllustreArchitecte--><g id="link_Joueur_IllustreArchitecte"><path d="M508.7194,465.4845 C518.5094,485.4045 520.45,489.35 529.92,508.61 " fill="none" id="Joueur-backto-IllustreArchitecte" style="stroke:#181818;stroke-width:1.0;"/><polygon fill="none" points="500.78,449.33,503.3345,468.1309,514.1042,462.838,500.78,449.33" style="stroke:#181818;stroke-width:1.0;"/></g><!--link Plateau to Joueur--><g id="link_Plateau_Joueur"><path codeLine="44" d="M89.3,282.01 C100.57,282.01 99.84,282.01 111.11,282.01 " fill="none" id="Plateau-to-Joueur" style="stroke:#181818;stroke-width:1.0;"/><polygon fill="#181818" points="123.11,282.01,117.11,278.01,111.11,282.01,117.11,286.01,123.11,282.01" style="stroke:#181818;stroke-width:1.0;"/><text fill="#000000" font-family="sans-serif" font-size="13" lengthAdjust="spacing" textLength="7" x="97" y="277.5067">1</text></g><!--reverse link Joueur to Score--><g id="link_Joueur_Score"><path codeLine="45" d="M726.85,282.01 C738.28,282.01 737.72,282.01 749.15,282.01 " fill="none" id="Joueur-backto-Score" style="stroke:#181818;stroke-width:1.0;"/><polygon fill="#181818" points="714.85,282.01,720.85,286.01,726.85,282.01,720.85,278.01,714.85,282.01" style="stroke:#181818;stroke-width:1.0;"/><text fill="#000000" font-family="sans-serif" font-size="13" lengthAdjust="spacing" textLength="7" x="734.5998" y="277.3031">1</text></g><!--reverse link Jeu to Joueur--><g id="link_Jeu_Joueur"><path codeLine="46" d="M467.9593,67.1268 C464.5193,82.1368 462.4,91.42 457.1,114.58 " fill="none" id="Jeu-backto-Joueur" style="stroke:#181818;stroke-width:1.0;"/><polygon fill="#181818" points="470.64,55.43,465.4007,60.3848,467.9593,67.1268,473.1986,62.1719,470.64,55.43" style="stroke:#181818;stroke-width:1.0;"/><text fill="#000000" font-family="sans-serif" font-size="13" lengthAdjust="spacing" textLength="7" x="451.7759" y="102.9725">*</text></g><!--SRC=[bPF1Rjim38RlVWeX1GBRQm_RCSCEGtTPWHKTClGQA3RJg90bGwA2OK4VQC-n5nijKR6RjCkQWnNn9ocA_2JN7friK2p1AQdLBxdMKCXiRRJqNjpO0C49-8bWMl_CLUmBGRyBqIjm3hnO26MGRSPs7BeGb52PX-oi9O8C1_4kxLdrZNLmq9R3hYwYzauy0AuUILgX3RZo47HPaTFQMYtsVN0WTifXaFff4X0JabzZZST9XKcbAYTQMbErSp5nInUCfutnVXJIajIAPKcb8hX_kSJKwVenDxTYpZ993LqsA0rb_9BBZs6zf4gjQwtvypjs_HuQjEx3fUWTT7JEtH3OWS7SdKzY8xM7t2tEF_JIbSrM6gGWqgxvxxmI-wDMUfuxbAr4IRxVxoLP37wJ_Noeno0XCemi0uBAckjahlE5MpZ9ath-jcmVYwUYcEAvL5rFxScGCZ_xyzoCexpDl9R4n34BrMJa2QZuFH2QzLZJhUmIAepzeTQlMWUomMVNR1NIp5wf-4AqQhDHJT0u7F7bi2bORhPMUUKOZPS7oAZK78BEXXtH25sVuNY9h1Z8EF6TJgikgzSbetP4y6AikVhl8KnVw_4xIsav- -aZ6liLOoSTEqlwcSdnanIpzpDnLGiULC7pgg-Y424eRY2GWIprBBlz1G00]--></g></svg>