<?xml version="1.0" encoding="us-ascii" standalone="no"?><svg xmlns="http://www.w3.org/2000/svg" xmlns:xlink="http://www.w3.org/1999/xlink" contentStyleType="text/css" height="449px" preserveAspectRatio="none" style="width:859px;height:449px;background:#FFFFFF;" version="1.1" viewBox="0 0 859 449" width="859px" zoomAndPan="magnify"><defs/><g><!--class Serializable--><g id="elem_Serializable"><rect codeLine="2" fill="#F1F1F1" height="48" id="Serializable" rx="2.5" ry="2.5" style="stroke:#181818;stroke-width:0.5;" width="105" x="316" y="7"/><ellipse cx="331" cy="23" fill="#A9DCDF" rx="11" ry="11" style="stroke:#181818;stroke-width:1.0;"/><path d="M334.3438,28.25 L332.875,24.5 L328.4375,24.5 L327,28.25 L324.875,28.25 L329.8281,15.5313 L331.5781,15.5313 L336.5,28.25 L334.3438,28.25 Z M331,19.2969 Q330.9531,19.1406 330.8281,18.7813 Q330.7031,18.4219 330.5938,18.0469 Q330.4844,17.6563 330.6875,17.5938 Q330.8438,17.7813 330.75,18.1406 Q330.6563,18.4844 330.5625,18.7813 Q330.4688,19.0625 330.3906,19.2969 L329.1563,22.6094 L332.2344,22.6094 L331,19.2969 Z " fill="#000000"/><text fill="#000000" font-family="sans-serif" font-size="14" font-style="italic" lengthAdjust="spacing" textLength="73" x="345" y="28.432">Serializable</text><line style="stroke:#181818;stroke-width:0.5;" x1="317" x2="420" y1="39" y2="39"/><line style="stroke:#181818;stroke-width:0.5;" x1="317" x2="420" y1="47" y2="47"/></g><!--class Score--><g id="elem_Score"><rect codeLine="3" fill="#F1F1F1" height="143.3396" id="Score" rx="2.5" ry="2.5" style="stroke:#181818;stroke-width:0.5;" width="348" x="256.5" y="115"/><ellipse cx="409.25" cy="131" fill="#A9DCDF" rx="11" ry="11" style="stroke:#181818;stroke-width:1.0;"/><path d="M412.5938,136.25 L411.125,132.5 L406.6875,132.5 L405.25,136.25 L403.125,136.25 L408.0781,123.5313 L409.8281,123.5313 L414.75,136.25 L412.5938,136.25 Z M409.25,127.2969 Q409.2031,127.1406 409.0781,126.7813 Q408.9531,126.4219 408.8438,126.0469 Q408.7344,125.6563 408.9375,125.5938 Q409.0938,125.7813 409,126.1406 Q408.9063,126.4844 408.8125,126.7813 Q408.7188,127.0625 408.6406,127.2969 L407.4063,130.6094 L410.4844,130.6094 L409.25,127.2969 Z " fill="#000000"/><text fill="#000000" font-family="sans-serif" font-size="14" font-style="italic" lengthAdjust="spacing" textLength="34" x="429.75" y="136.432">Score</text><line style="stroke:#181818;stroke-width:0.5;" x1="257.5" x2="603.5" y1="147" y2="147"/><polygon fill="none" points="267.5,157.034,271.5,161.034,267.5,165.034,263.5,161.034" style="stroke:#B38D22;stroke-width:1.0;"/><text fill="#000000" font-family="sans-serif" font-size="14" lengthAdjust="spacing" textLength="140" x="276.5" y="165.9659">scoreD&#233;cor&#233; : Score*</text><line style="stroke:#181818;stroke-width:0.5;" x1="257.5" x2="603.5" y1="174.0679" y2="174.0679"/><polygon fill="#FFFF44" points="267.5,184.1019,271.5,188.1019,267.5,192.1019,263.5,188.1019" style="stroke:#B38D22;stroke-width:1.0;"/><text fill="#000000" font-family="sans-serif" font-size="14" lengthAdjust="spacing" textLength="322" x="276.5" y="193.0339">scoreLocal(plateau : Plateau*) : int {pure virtual}</text><ellipse cx="267.5" cy="208.1698" fill="#84BE84" rx="3" ry="3" style="stroke:#038048;stroke-width:1.0;"/><text fill="#000000" font-family="sans-serif" font-size="14" lengthAdjust="spacing" textLength="45" x="276.5" y="212.1018">Score()</text><ellipse cx="267.5" cy="227.2377" fill="#84BE84" rx="3" ry="3" style="stroke:#038048;stroke-width:1.0;"/><text fill="#000000" font-family="sans-serif" font-size="14" lengthAdjust="spacing" textLength="177" x="276.5" y="231.1697">Score(Score *scoreDecore)</text><ellipse cx="267.5" cy="246.3056" fill="#84BE84" rx="3" ry="3" style="stroke:#038048;stroke-width:1.0;"/><text fill="#000000" font-family="sans-serif" font-size="14" lengthAdjust="spacing" textLength="195" x="276.5" y="250.2376">score(plateau : Plateau*) : int</text></g><g id="elem_GMN5"><path d="M95,172.82 L95,200.526 A0,0 0 0 0 95,200.526 L222,200.526 A0,0 0 0 0 222,200.526 L222,190.82 L256.01,186.67 L222,182.82 L222,182.82 L212,172.82 L95,172.82 A0,0 0 0 0 95,172.82 " fill="#FEFFDD" style="stroke:#181818;stroke-width:0.5;"/><path d="M212,172.82 L212,182.82 L222,182.82 L212,172.82 " fill="#FEFFDD" style="stroke:#181818;stroke-width:0.5;"/><text fill="#000000" font-family="sans-serif" font-size="13" lengthAdjust="spacing" textLength="106" x="101" y="191.717">Est un d&#233;corateur</text></g><!--class ScoreCouleur--><g id="elem_ScoreCouleur"><rect codeLine="13" fill="#F1F1F1" height="124.2717" id="ScoreCouleur" rx="2.5" ry="2.5" style="stroke:#181818;stroke-width:0.5;" width="255" x="9" y="318.34"/><ellipse cx="87.25" cy="334.34" fill="#ADD1B2" rx="11" ry="11" style="stroke:#181818;stroke-width:1.0;"/><path d="M87.3594,329.8713 Q86.4375,329.8713 85.7031,330.1838 Q84.9844,330.4963 84.4844,331.09 Q83.9844,331.6681 83.7031,332.5431 Q83.4375,333.4181 83.4375,334.5119 Q83.4375,335.9494 83.875,336.9963 Q84.3281,338.0431 85.1719,338.59 Q86.0313,339.1369 87.3438,339.1369 Q88.125,339.1369 88.8125,339.0119 Q89.5156,338.8713 90.5156,338.5588 L90.5156,340.4338 Q89.6563,340.7619 88.8906,340.8869 Q88.1406,341.0119 87.125,341.0119 Q85.2031,341.0119 83.8906,340.215 Q82.5938,339.4025 81.9375,337.9338 Q81.2813,336.4494 81.2813,334.4806 Q81.2813,333.0588 81.6719,331.8869 Q82.0781,330.6994 82.8594,329.8244 Q83.6406,328.9494 84.7813,328.4806 Q85.9219,327.9963 87.3906,327.9963 Q88.3438,327.9963 89.2344,328.1994 Q90.1406,328.3869 91.0781,328.8556 L90.25,330.6369 Q89.4688,330.2619 88.8125,330.0744 Q88.1563,329.8713 87.3594,329.8713 Z " fill="#000000"/><text fill="#000000" font-family="sans-serif" font-size="14" lengthAdjust="spacing" textLength="90" x="107.75" y="339.772">ScoreCouleur</text><line style="stroke:#181818;stroke-width:0.5;" x1="10" x2="263" y1="350.34" y2="350.34"/><line style="stroke:#181818;stroke-width:0.5;" x1="10" x2="263" y1="358.34" y2="358.34"/><polygon fill="#FFFF44" points="20,368.374,24,372.374,20,376.374,16,372.374" style="stroke:#B38D22;stroke-width:1.0;"/><text fill="#000000" font-family="sans-serif" font-size="14" lengthAdjust="spacing" textLength="229" x="29" y="377.3059">scoreLocal(plateau : Plateau*) : int</text><ellipse cx="20" cy="392.4419" fill="#84BE84" rx="3" ry="3" style="stroke:#038048;stroke-width:1.0;"/><text fill="#000000" font-family="sans-serif" font-size="14" lengthAdjust="spacing" textLength="98" x="29" y="396.3739">ScoreCouleur()</text><ellipse cx="20" cy="411.5098" fill="#84BE84" rx="3" ry="3" style="stroke:#038048;stroke-width:1.0;"/><text fill="#000000" font-family="sans-serif" font-size="14" lengthAdjust="spacing" textLength="181" x="29" y="415.4418">ScoreCouleur(scoreDecore)</text><ellipse cx="20" cy="430.5777" fill="#84BE84" rx="3" ry="3" style="stroke:#038048;stroke-width:1.0;"/><text fill="#000000" font-family="sans-serif" font-size="14" lengthAdjust="spacing" textLength="133" x="29" y="434.5097">className() : string</text></g><!--class ScoreCouleurVariante--><g id="elem_ScoreCouleurVariante"><rect codeLine="20" fill="#F1F1F1" height="124.2717" id="ScoreCouleurVariante" rx="2.5" ry="2.5" style="stroke:#181818;stroke-width:0.5;" width="263" x="299" y="318.34"/><ellipse cx="353.25" cy="334.34" fill="#ADD1B2" rx="11" ry="11" style="stroke:#181818;stroke-width:1.0;"/><path d="M353.3594,329.8713 Q352.4375,329.8713 351.7031,330.1838 Q350.9844,330.4963 350.4844,331.09 Q349.9844,331.6681 349.7031,332.5431 Q349.4375,333.4181 349.4375,334.5119 Q349.4375,335.9494 349.875,336.9963 Q350.3281,338.0431 351.1719,338.59 Q352.0313,339.1369 353.3438,339.1369 Q354.125,339.1369 354.8125,339.0119 Q355.5156,338.8713 356.5156,338.5588 L356.5156,340.4338 Q355.6563,340.7619 354.8906,340.8869 Q354.1406,341.0119 353.125,341.0119 Q351.2031,341.0119 349.8906,340.215 Q348.5938,339.4025 347.9375,337.9338 Q347.2813,336.4494 347.2813,334.4806 Q347.2813,333.0588 347.6719,331.8869 Q348.0781,330.6994 348.8594,329.8244 Q349.6406,328.9494 350.7813,328.4806 Q351.9219,327.9963 353.3906,327.9963 Q354.3438,327.9963 355.2344,328.1994 Q356.1406,328.3869 357.0781,328.8556 L356.25,330.6369 Q355.4688,330.2619 354.8125,330.0744 Q354.1563,329.8713 353.3594,329.8713 Z " fill="#000000"/><text fill="#000000" font-family="sans-serif" font-size="14" lengthAdjust="spacing" textLength="146" x="373.75" y="339.772">ScoreCouleurVariante</text><line style="stroke:#181818;stroke-width:0.5;" x1="300" x2="561" y1="350.34" y2="350.34"/><line style="stroke:#181818;stroke-width:0.5;" x1="300" x2="561" y1="358.34" y2="358.34"/><polygon fill="#FFFF44" points="310,368.374,314,372.374,310,376.374,306,372.374" style="stroke:#B38D22;stroke-width:1.0;"/><text fill="#000000" font-family="sans-serif" font-size="14" lengthAdjust="spacing" textLength="229" x="319" y="377.3059">scoreLocal(plateau : Plateau*) : int</text><ellipse cx="310" cy="392.4419" fill="#84BE84" rx="3" ry="3" style="stroke:#038048;stroke-width:1.0;"/><text fill="#000000" font-family="sans-serif" font-size="14" lengthAdjust="spacing" textLength="154" x="319" y="396.3739">ScoreCouleurVariante()</text><ellipse cx="310" cy="411.5098" fill="#84BE84" rx="3" ry="3" style="stroke:#038048;stroke-width:1.0;"/><text fill="#000000" font-family="sans-serif" font-size="14" lengthAdjust="spacing" textLength="237" x="319" y="415.4418">ScoreCouleurVariante(scoreDecore)</text><ellipse cx="310" cy="430.5777" fill="#84BE84" rx="3" ry="3" style="stroke:#038048;stroke-width:1.0;"/><text fill="#000000" font-family="sans-serif" font-size="14" lengthAdjust="spacing" textLength="133" x="319" y="434.5097">className() : string</text></g><!--class ScoreSoloArchitechteSpecifique--><g id="elem_ScoreSoloArchitechteSpecifique"><rect codeLine="27" fill="#F1F1F1" height="86.1358" id="ScoreSoloArchitechteSpecifique" rx="2.5" ry="2.5" style="stroke:#181818;stroke-width:0.5;" width="255" x="597" y="337.41"/><ellipse cx="616.5" cy="353.41" fill="#ADD1B2" rx="11" ry="11" style="stroke:#181818;stroke-width:1.0;"/><path d="M616.6094,348.9413 Q615.6875,348.9413 614.9531,349.2538 Q614.2344,349.5663 613.7344,350.16 Q613.2344,350.7381 612.9531,351.6131 Q612.6875,352.4881 612.6875,353.5819 Q612.6875,355.0194 613.125,356.0663 Q613.5781,357.1131 614.4219,357.66 Q615.2813,358.2069 616.5938,358.2069 Q617.375,358.2069 618.0625,358.0819 Q618.7656,357.9413 619.7656,357.6288 L619.7656,359.5038 Q618.9063,359.8319 618.1406,359.9569 Q617.3906,360.0819 616.375,360.0819 Q614.4531,360.0819 613.1406,359.285 Q611.8438,358.4725 611.1875,357.0038 Q610.5313,355.5194 610.5313,353.5506 Q610.5313,352.1288 610.9219,350.9569 Q611.3281,349.7694 612.1094,348.8944 Q612.8906,348.0194 614.0313,347.5506 Q615.1719,347.0663 616.6406,347.0663 Q617.5938,347.0663 618.4844,347.2694 Q619.3906,347.4569 620.3281,347.9256 L619.5,349.7069 Q618.7188,349.3319 618.0625,349.1444 Q617.4063,348.9413 616.6094,348.9413 Z " fill="#000000"/><text fill="#000000" font-family="sans-serif" font-size="14" lengthAdjust="spacing" textLength="213" x="631.5" y="358.842">ScoreSoloArchitechteSpecifique</text><line style="stroke:#181818;stroke-width:0.5;" x1="598" x2="851" y1="369.41" y2="369.41"/><line style="stroke:#181818;stroke-width:0.5;" x1="598" x2="851" y1="377.41" y2="377.41"/><polygon fill="#FFFF44" points="608,387.444,612,391.444,608,395.444,604,391.444" style="stroke:#B38D22;stroke-width:1.0;"/><text fill="#000000" font-family="sans-serif" font-size="14" lengthAdjust="spacing" textLength="229" x="617" y="396.3759">scoreLocal(plateau : Plateau*) : int</text><ellipse cx="608" cy="411.5119" fill="#84BE84" rx="3" ry="3" style="stroke:#038048;stroke-width:1.0;"/><text fill="#000000" font-family="sans-serif" font-size="14" lengthAdjust="spacing" textLength="133" x="617" y="415.4439">className() : string</text></g><!--class Player--><g id="elem_Player"><rect fill="#F1F1F1" height="48" id="Player" rx="2.5" ry="2.5" style="stroke:#181818;stroke-width:0.5;" width="73" x="456" y="7"/><ellipse cx="471" cy="23" fill="#ADD1B2" rx="11" ry="11" style="stroke:#181818;stroke-width:1.0;"/><path d="M471.1094,18.5313 Q470.1875,18.5313 469.4531,18.8438 Q468.7344,19.1563 468.2344,19.75 Q467.7344,20.3281 467.4531,21.2031 Q467.1875,22.0781 467.1875,23.1719 Q467.1875,24.6094 467.625,25.6563 Q468.0781,26.7031 468.9219,27.25 Q469.7813,27.7969 471.0938,27.7969 Q471.875,27.7969 472.5625,27.6719 Q473.2656,27.5313 474.2656,27.2188 L474.2656,29.0938 Q473.4063,29.4219 472.6406,29.5469 Q471.8906,29.6719 470.875,29.6719 Q468.9531,29.6719 467.6406,28.875 Q466.3438,28.0625 465.6875,26.5938 Q465.0313,25.1094 465.0313,23.1406 Q465.0313,21.7188 465.4219,20.5469 Q465.8281,19.3594 466.6094,18.4844 Q467.3906,17.6094 468.5313,17.1406 Q469.6719,16.6563 471.1406,16.6563 Q472.0938,16.6563 472.9844,16.8594 Q473.8906,17.0469 474.8281,17.5156 L474,19.2969 Q473.2188,18.9219 472.5625,18.7344 Q471.9063,18.5313 471.1094,18.5313 Z " fill="#000000"/><text fill="#000000" font-family="sans-serif" font-size="14" lengthAdjust="spacing" textLength="41" x="485" y="28.432">Player</text><line style="stroke:#181818;stroke-width:0.5;" x1="457" x2="528" y1="39" y2="39"/><line style="stroke:#181818;stroke-width:0.5;" x1="457" x2="528" y1="47" y2="47"/></g><!--reverse link Serializable to Score--><g id="link_Serializable_Score"><path d="M384.6501,72.0345 C391.0801,87.9845 393.25,93.35 401.9,114.79 " fill="none" id="Serializable-backto-Score" style="stroke:#181818;stroke-width:1.0;"/><polygon fill="none" points="377.92,55.34,379.0853,74.2778,390.2149,69.7911,377.92,55.34" style="stroke:#181818;stroke-width:1.0;"/></g><!--reverse link Score to ScoreCouleur--><g id="link_Score_ScoreCouleur"><path d="M306.364,268.6544 C276.624,288.0544 259.73,299.08 230.88,317.9 " fill="none" id="Score-backto-ScoreCouleur" style="stroke:#181818;stroke-width:1.0;"/><polygon fill="none" points="321.44,258.82,303.0859,263.629,309.6421,273.6797,321.44,258.82" style="stroke:#181818;stroke-width:1.0;"/></g><!--reverse link Score to ScoreCouleurVariante--><g id="link_Score_ScoreCouleurVariante"><path d="M430.5,276.82 C430.5,296.22 430.5,299.08 430.5,317.9 " fill="none" id="Score-backto-ScoreCouleurVariante" style="stroke:#181818;stroke-width:1.0;"/><polygon fill="none" points="430.5,258.82,424.5,276.82,436.5,276.82,430.5,258.82" style="stroke:#181818;stroke-width:1.0;"/></g><!--reverse link Score to ScoreSoloArchitechteSpecifique--><g id="link_Score_ScoreSoloArchitechteSpecifique"><path d="M554.6356,268.655 C594.9956,294.985 624.38,314.16 659.59,337.13 " fill="none" id="Score-backto-ScoreSoloArchitechteSpecifique" style="stroke:#181818;stroke-width:1.0;"/><polygon fill="none" points="539.56,258.82,551.3573,273.6802,557.9139,263.6298,539.56,258.82" style="stroke:#181818;stroke-width:1.0;"/></g><!--reverse link Player to Score--><g id="link_Player_Score"><path codeLine="32" d="M478.5933,66.4696 C472.1633,82.4196 467.75,93.35 459.1,114.79 " fill="none" id="Player-backto-Score" style="stroke:#181818;stroke-width:1.0;"/><polygon fill="#181818" points="483.08,55.34,477.1267,59.4092,478.5933,66.4696,484.5465,62.4004,483.08,55.34" style="stroke:#181818;stroke-width:1.0;"/><text fill="#000000" font-family="sans-serif" font-size="13" lengthAdjust="spacing" textLength="7" x="454.6884" y="103.4343">1</text></g><!--reverse link Score to Score--><g id="link_Score_Score"><path codeLine="33" d="M616.4003,164.03 C637.4503,168.57 639.5,174.43 639.5,186.67 C639.5,198.91 625.72,207.3 604.67,211.84 " fill="none" id="Score-backto-Score" style="stroke:#181818;stroke-width:1.0;"/><polygon fill="#181818" points="604.67,161.5,609.6918,166.6751,616.4003,164.03,611.3785,158.8549,604.67,161.5" style="stroke:#181818;stroke-width:1.0;"/><text fill="#000000" font-family="sans-serif" font-size="13" lengthAdjust="spacing" textLength="7" x="612.7207" y="209.5084">1</text></g><!--SRC=[hLAzJiCm4Dxz5ATsQOCwiB8XO4EeKYJsgtkbbemTx3C2eZvGdwClnjLk897I0TGCYVtTv-z73guY1zGCDGM3rdpXofB23jKMOuHQ-q107qnk7GTCQ1N8CuLufDmVzl8vxE6c7AbKV_heDTfPOv49ar2MPLNDPMqSGziaSNatWHFQNJvvLNHcyy6knAcA9HtVtJn3votKJZdF19OsBCX3P4WErZcr45DGgbVupYShs6_lRDl-eL8_zKbjMAK3Hwha84_uAkL5JAx3k1V9FnBm6UK-7DDbWtQgeu5_XlyBNdlhRuFU6YQzPQeRqcPZtj85Afnp5_Od1QWM2vXSJug-Elr80-mR]--></g></svg>