<?xml version="1.0" encoding="us-ascii" standalone="no"?><svg xmlns="http://www.w3.org/2000/svg" xmlns:xlink="http://www.w3.org/1999/xlink" contentStyleType="text/css" height="411px" preserveAspectRatio="none" style="width:3755px;height:411px;background:#FFFFFF;" version="1.1" viewBox="0 0 3755 411" width="3755px" zoomAndPan="magnify"><defs/><g><!--class Score--><g id="elem_Score"><rect codeLine="2" fill="#F1F1F1" height="143.3396" id="Score" rx="2.5" ry="2.5" style="stroke:#181818;stroke-width:0.5;" width="312" x="1720.5" y="115"/><ellipse cx="1855.25" cy="131" fill="#A9DCDF" rx="11" ry="11" style="stroke:#181818;stroke-width:1.0;"/><path d="M1858.5938,136.25 L1857.125,132.5 L1852.6875,132.5 L1851.25,136.25 L1849.125,136.25 L1854.0781,123.5313 L1855.8281,123.5313 L1860.75,136.25 L1858.5938,136.25 Z M1855.25,127.2969 Q1855.2031,127.1406 1855.0781,126.7813 Q1854.9531,126.4219 1854.8438,126.0469 Q1854.7344,125.6563 1854.9375,125.5938 Q1855.0938,125.7813 1855,126.1406 Q1854.9063,126.4844 1854.8125,126.7813 Q1854.7188,127.0625 1854.6406,127.2969 L1853.4063,130.6094 L1856.4844,130.6094 L1855.25,127.2969 Z " fill="#000000"/><text fill="#000000" font-family="sans-serif" font-size="14" font-style="italic" lengthAdjust="spacing" textLength="34" x="1875.75" y="136.432">Score</text><line style="stroke:#181818;stroke-width:0.5;" x1="1721.5" x2="2031.5" y1="147" y2="147"/><polygon fill="none" points="1731.5,157.034,1735.5,161.034,1731.5,165.034,1727.5,161.034" style="stroke:#B38D22;stroke-width:1.0;"/><text fill="#000000" font-family="sans-serif" font-size="14" lengthAdjust="spacing" textLength="140" x="1740.5" y="165.9659">scoreD&#233;cor&#233; : Score*</text><line style="stroke:#181818;stroke-width:0.5;" x1="1721.5" x2="2031.5" y1="174.0679" y2="174.0679"/><polygon fill="#FFFF44" points="1731.5,184.1019,1735.5,188.1019,1731.5,192.1019,1727.5,188.1019" style="stroke:#B38D22;stroke-width:1.0;"/><text fill="#000000" font-family="sans-serif" font-size="14" lengthAdjust="spacing" textLength="286" x="1740.5" y="193.0339">scoreLocal(plateau : Plateau*) : int {virtual}</text><ellipse cx="1731.5" cy="208.1698" fill="#84BE84" rx="3" ry="3" style="stroke:#038048;stroke-width:1.0;"/><text fill="#000000" font-family="sans-serif" font-size="14" lengthAdjust="spacing" textLength="45" x="1740.5" y="212.1018">Score()</text><ellipse cx="1731.5" cy="227.2377" fill="#84BE84" rx="3" ry="3" style="stroke:#038048;stroke-width:1.0;"/><text fill="#000000" font-family="sans-serif" font-size="14" lengthAdjust="spacing" textLength="177" x="1740.5" y="231.1697">Score(Score *scoreDecore)</text><ellipse cx="1731.5" cy="246.3056" fill="#84BE84" rx="3" ry="3" style="stroke:#038048;stroke-width:1.0;"/><text fill="#000000" font-family="sans-serif" font-size="14" lengthAdjust="spacing" textLength="195" x="1740.5" y="250.2376">score(plateau : Plateau*) : int</text></g><g id="elem_GMN3"><path d="M1746,17.15 L1746,44.856 A0,0 0 0 0 1746,44.856 L1811.21,44.856 L1845.59,114.77 L1819.21,44.856 L1873,44.856 A0,0 0 0 0 1873,44.856 L1873,27.15 L1863,17.15 L1746,17.15 A0,0 0 0 0 1746,17.15 " fill="#FEFFDD" style="stroke:#181818;stroke-width:0.5;"/><path d="M1863,17.15 L1863,27.15 L1873,27.15 L1863,17.15 " fill="#FEFFDD" style="stroke:#181818;stroke-width:0.5;"/><text fill="#000000" font-family="sans-serif" font-size="13" lengthAdjust="spacing" textLength="106" x="1752" y="36.047">Est un d&#233;corateur</text></g><!--class ScoreBleu--><g id="elem_ScoreBleu"><rect codeLine="12" fill="#F1F1F1" height="86.1358" id="ScoreBleu" rx="2.5" ry="2.5" style="stroke:#181818;stroke-width:0.5;" width="255" x="9" y="318.34"/><ellipse cx="98.75" cy="334.34" fill="#ADD1B2" rx="11" ry="11" style="stroke:#181818;stroke-width:1.0;"/><path d="M98.8594,329.8713 Q97.9375,329.8713 97.2031,330.1838 Q96.4844,330.4963 95.9844,331.09 Q95.4844,331.6681 95.2031,332.5431 Q94.9375,333.4181 94.9375,334.5119 Q94.9375,335.9494 95.375,336.9963 Q95.8281,338.0431 96.6719,338.59 Q97.5313,339.1369 98.8438,339.1369 Q99.625,339.1369 100.3125,339.0119 Q101.0156,338.8713 102.0156,338.5588 L102.0156,340.4338 Q101.1563,340.7619 100.3906,340.8869 Q99.6406,341.0119 98.625,341.0119 Q96.7031,341.0119 95.3906,340.215 Q94.0938,339.4025 93.4375,337.9338 Q92.7813,336.4494 92.7813,334.4806 Q92.7813,333.0588 93.1719,331.8869 Q93.5781,330.6994 94.3594,329.8244 Q95.1406,328.9494 96.2813,328.4806 Q97.4219,327.9963 98.8906,327.9963 Q99.8438,327.9963 100.7344,328.1994 Q101.6406,328.3869 102.5781,328.8556 L101.75,330.6369 Q100.9688,330.2619 100.3125,330.0744 Q99.6563,329.8713 98.8594,329.8713 Z " fill="#000000"/><text fill="#000000" font-family="sans-serif" font-size="14" lengthAdjust="spacing" textLength="67" x="119.25" y="339.772">ScoreBleu</text><line style="stroke:#181818;stroke-width:0.5;" x1="10" x2="263" y1="350.34" y2="350.34"/><line style="stroke:#181818;stroke-width:0.5;" x1="10" x2="263" y1="358.34" y2="358.34"/><polygon fill="#FFFF44" points="20,368.374,24,372.374,20,376.374,16,372.374" style="stroke:#B38D22;stroke-width:1.0;"/><text fill="#000000" font-family="sans-serif" font-size="14" lengthAdjust="spacing" textLength="229" x="29" y="377.3059">scoreLocal(plateau : Plateau*) : int</text><ellipse cx="20" cy="392.4419" fill="#84BE84" rx="3" ry="3" style="stroke:#038048;stroke-width:1.0;"/><text fill="#000000" font-family="sans-serif" font-size="14" lengthAdjust="spacing" textLength="187" x="29" y="396.3739">score(plateau:Plateau*) : int</text></g><!--class ScoreJaune--><g id="elem_ScoreJaune"><rect codeLine="17" fill="#F1F1F1" height="67.0679" id="ScoreJaune" rx="2.5" ry="2.5" style="stroke:#181818;stroke-width:0.5;" width="255" x="299" y="327.88"/><ellipse cx="384.75" cy="343.88" fill="#ADD1B2" rx="11" ry="11" style="stroke:#181818;stroke-width:1.0;"/><path d="M384.8594,339.4113 Q383.9375,339.4113 383.2031,339.7238 Q382.4844,340.0363 381.9844,340.63 Q381.4844,341.2081 381.2031,342.0831 Q380.9375,342.9581 380.9375,344.0519 Q380.9375,345.4894 381.375,346.5363 Q381.8281,347.5831 382.6719,348.13 Q383.5313,348.6769 384.8438,348.6769 Q385.625,348.6769 386.3125,348.5519 Q387.0156,348.4113 388.0156,348.0988 L388.0156,349.9738 Q387.1563,350.3019 386.3906,350.4269 Q385.6406,350.5519 384.625,350.5519 Q382.7031,350.5519 381.3906,349.755 Q380.0938,348.9425 379.4375,347.4738 Q378.7813,345.9894 378.7813,344.0206 Q378.7813,342.5988 379.1719,341.4269 Q379.5781,340.2394 380.3594,339.3644 Q381.1406,338.4894 382.2813,338.0206 Q383.4219,337.5363 384.8906,337.5363 Q385.8438,337.5363 386.7344,337.7394 Q387.6406,337.9269 388.5781,338.3956 L387.75,340.1769 Q386.9688,339.8019 386.3125,339.6144 Q385.6563,339.4113 384.8594,339.4113 Z " fill="#000000"/><text fill="#000000" font-family="sans-serif" font-size="14" lengthAdjust="spacing" textLength="75" x="405.25" y="349.312">ScoreJaune</text><line style="stroke:#181818;stroke-width:0.5;" x1="300" x2="553" y1="359.88" y2="359.88"/><line style="stroke:#181818;stroke-width:0.5;" x1="300" x2="553" y1="367.88" y2="367.88"/><polygon fill="#FFFF44" points="310,377.914,314,381.914,310,385.914,306,381.914" style="stroke:#B38D22;stroke-width:1.0;"/><text fill="#000000" font-family="sans-serif" font-size="14" lengthAdjust="spacing" textLength="229" x="319" y="386.8459">scoreLocal(plateau : Plateau*) : int</text></g><!--class ScoreRouge--><g id="elem_ScoreRouge"><rect codeLine="21" fill="#F1F1F1" height="67.0679" id="ScoreRouge" rx="2.5" ry="2.5" style="stroke:#181818;stroke-width:0.5;" width="255" x="589" y="327.88"/><ellipse cx="672.25" cy="343.88" fill="#ADD1B2" rx="11" ry="11" style="stroke:#181818;stroke-width:1.0;"/><path d="M672.3594,339.4113 Q671.4375,339.4113 670.7031,339.7238 Q669.9844,340.0363 669.4844,340.63 Q668.9844,341.2081 668.7031,342.0831 Q668.4375,342.9581 668.4375,344.0519 Q668.4375,345.4894 668.875,346.5363 Q669.3281,347.5831 670.1719,348.13 Q671.0313,348.6769 672.3438,348.6769 Q673.125,348.6769 673.8125,348.5519 Q674.5156,348.4113 675.5156,348.0988 L675.5156,349.9738 Q674.6563,350.3019 673.8906,350.4269 Q673.1406,350.5519 672.125,350.5519 Q670.2031,350.5519 668.8906,349.755 Q667.5938,348.9425 666.9375,347.4738 Q666.2813,345.9894 666.2813,344.0206 Q666.2813,342.5988 666.6719,341.4269 Q667.0781,340.2394 667.8594,339.3644 Q668.6406,338.4894 669.7813,338.0206 Q670.9219,337.5363 672.3906,337.5363 Q673.3438,337.5363 674.2344,337.7394 Q675.1406,337.9269 676.0781,338.3956 L675.25,340.1769 Q674.4688,339.8019 673.8125,339.6144 Q673.1563,339.4113 672.3594,339.4113 Z " fill="#000000"/><text fill="#000000" font-family="sans-serif" font-size="14" lengthAdjust="spacing" textLength="80" x="692.75" y="349.312">ScoreRouge</text><line style="stroke:#181818;stroke-width:0.5;" x1="590" x2="843" y1="359.88" y2="359.88"/><line style="stroke:#181818;stroke-width:0.5;" x1="590" x2="843" y1="367.88" y2="367.88"/><polygon fill="#FFFF44" points="600,377.914,604,381.914,600,385.914,596,381.914" style="stroke:#B38D22;stroke-width:1.0;"/><text fill="#000000" font-family="sans-serif" font-size="14" lengthAdjust="spacing" textLength="229" x="609" y="386.8459">scoreLocal(plateau : Plateau*) : int</text></g><!--class ScoreVert--><g id="elem_ScoreVert"><rect codeLine="25" fill="#F1F1F1" height="67.0679" id="ScoreVert" rx="2.5" ry="2.5" style="stroke:#181818;stroke-width:0.5;" width="255" x="879" y="327.88"/><ellipse cx="970.25" cy="343.88" fill="#ADD1B2" rx="11" ry="11" style="stroke:#181818;stroke-width:1.0;"/><path d="M970.3594,339.4113 Q969.4375,339.4113 968.7031,339.7238 Q967.9844,340.0363 967.4844,340.63 Q966.9844,341.2081 966.7031,342.0831 Q966.4375,342.9581 966.4375,344.0519 Q966.4375,345.4894 966.875,346.5363 Q967.3281,347.5831 968.1719,348.13 Q969.0313,348.6769 970.3438,348.6769 Q971.125,348.6769 971.8125,348.5519 Q972.5156,348.4113 973.5156,348.0988 L973.5156,349.9738 Q972.6563,350.3019 971.8906,350.4269 Q971.1406,350.5519 970.125,350.5519 Q968.2031,350.5519 966.8906,349.755 Q965.5938,348.9425 964.9375,347.4738 Q964.2813,345.9894 964.2813,344.0206 Q964.2813,342.5988 964.6719,341.4269 Q965.0781,340.2394 965.8594,339.3644 Q966.6406,338.4894 967.7813,338.0206 Q968.9219,337.5363 970.3906,337.5363 Q971.3438,337.5363 972.2344,337.7394 Q973.1406,337.9269 974.0781,338.3956 L973.25,340.1769 Q972.4688,339.8019 971.8125,339.6144 Q971.1563,339.4113 970.3594,339.4113 Z " fill="#000000"/><text fill="#000000" font-family="sans-serif" font-size="14" lengthAdjust="spacing" textLength="64" x="990.75" y="349.312">ScoreVert</text><line style="stroke:#181818;stroke-width:0.5;" x1="880" x2="1133" y1="359.88" y2="359.88"/><line style="stroke:#181818;stroke-width:0.5;" x1="880" x2="1133" y1="367.88" y2="367.88"/><polygon fill="#FFFF44" points="890,377.914,894,381.914,890,385.914,886,381.914" style="stroke:#B38D22;stroke-width:1.0;"/><text fill="#000000" font-family="sans-serif" font-size="14" lengthAdjust="spacing" textLength="229" x="899" y="386.8459">scoreLocal(plateau : Plateau*) : int</text></g><!--class ScoreViolet--><g id="elem_ScoreViolet"><rect codeLine="29" fill="#F1F1F1" height="67.0679" id="ScoreViolet" rx="2.5" ry="2.5" style="stroke:#181818;stroke-width:0.5;" width="255" x="1169" y="327.88"/><ellipse cx="1255.25" cy="343.88" fill="#ADD1B2" rx="11" ry="11" style="stroke:#181818;stroke-width:1.0;"/><path d="M1255.3594,339.4113 Q1254.4375,339.4113 1253.7031,339.7238 Q1252.9844,340.0363 1252.4844,340.63 Q1251.9844,341.2081 1251.7031,342.0831 Q1251.4375,342.9581 1251.4375,344.0519 Q1251.4375,345.4894 1251.875,346.5363 Q1252.3281,347.5831 1253.1719,348.13 Q1254.0313,348.6769 1255.3438,348.6769 Q1256.125,348.6769 1256.8125,348.5519 Q1257.5156,348.4113 1258.5156,348.0988 L1258.5156,349.9738 Q1257.6563,350.3019 1256.8906,350.4269 Q1256.1406,350.5519 1255.125,350.5519 Q1253.2031,350.5519 1251.8906,349.755 Q1250.5938,348.9425 1249.9375,347.4738 Q1249.2813,345.9894 1249.2813,344.0206 Q1249.2813,342.5988 1249.6719,341.4269 Q1250.0781,340.2394 1250.8594,339.3644 Q1251.6406,338.4894 1252.7813,338.0206 Q1253.9219,337.5363 1255.3906,337.5363 Q1256.3438,337.5363 1257.2344,337.7394 Q1258.1406,337.9269 1259.0781,338.3956 L1258.25,340.1769 Q1257.4688,339.8019 1256.8125,339.6144 Q1256.1563,339.4113 1255.3594,339.4113 Z " fill="#000000"/><text fill="#000000" font-family="sans-serif" font-size="14" lengthAdjust="spacing" textLength="74" x="1275.75" y="349.312">ScoreViolet</text><line style="stroke:#181818;stroke-width:0.5;" x1="1170" x2="1423" y1="359.88" y2="359.88"/><line style="stroke:#181818;stroke-width:0.5;" x1="1170" x2="1423" y1="367.88" y2="367.88"/><polygon fill="#FFFF44" points="1180,377.914,1184,381.914,1180,385.914,1176,381.914" style="stroke:#B38D22;stroke-width:1.0;"/><text fill="#000000" font-family="sans-serif" font-size="14" lengthAdjust="spacing" textLength="229" x="1189" y="386.8459">scoreLocal(plateau : Plateau*) : int</text></g><!--class ScoreBleuVariante--><g id="elem_ScoreBleuVariante"><rect codeLine="33" fill="#F1F1F1" height="67.0679" id="ScoreBleuVariante" rx="2.5" ry="2.5" style="stroke:#181818;stroke-width:0.5;" width="255" x="1459" y="327.88"/><ellipse cx="1520.75" cy="343.88" fill="#ADD1B2" rx="11" ry="11" style="stroke:#181818;stroke-width:1.0;"/><path d="M1520.8594,339.4113 Q1519.9375,339.4113 1519.2031,339.7238 Q1518.4844,340.0363 1517.9844,340.63 Q1517.4844,341.2081 1517.2031,342.0831 Q1516.9375,342.9581 1516.9375,344.0519 Q1516.9375,345.4894 1517.375,346.5363 Q1517.8281,347.5831 1518.6719,348.13 Q1519.5313,348.6769 1520.8438,348.6769 Q1521.625,348.6769 1522.3125,348.5519 Q1523.0156,348.4113 1524.0156,348.0988 L1524.0156,349.9738 Q1523.1563,350.3019 1522.3906,350.4269 Q1521.6406,350.5519 1520.625,350.5519 Q1518.7031,350.5519 1517.3906,349.755 Q1516.0938,348.9425 1515.4375,347.4738 Q1514.7813,345.9894 1514.7813,344.0206 Q1514.7813,342.5988 1515.1719,341.4269 Q1515.5781,340.2394 1516.3594,339.3644 Q1517.1406,338.4894 1518.2813,338.0206 Q1519.4219,337.5363 1520.8906,337.5363 Q1521.8438,337.5363 1522.7344,337.7394 Q1523.6406,337.9269 1524.5781,338.3956 L1523.75,340.1769 Q1522.9688,339.8019 1522.3125,339.6144 Q1521.6563,339.4113 1520.8594,339.4113 Z " fill="#000000"/><text fill="#000000" font-family="sans-serif" font-size="14" lengthAdjust="spacing" textLength="123" x="1541.25" y="349.312">ScoreBleuVariante</text><line style="stroke:#181818;stroke-width:0.5;" x1="1460" x2="1713" y1="359.88" y2="359.88"/><line style="stroke:#181818;stroke-width:0.5;" x1="1460" x2="1713" y1="367.88" y2="367.88"/><polygon fill="#FFFF44" points="1470,377.914,1474,381.914,1470,385.914,1466,381.914" style="stroke:#B38D22;stroke-width:1.0;"/><text fill="#000000" font-family="sans-serif" font-size="14" lengthAdjust="spacing" textLength="229" x="1479" y="386.8459">scoreLocal(plateau : Plateau*) : int</text></g><!--class ScoreJauneVariante--><g id="elem_ScoreJauneVariante"><rect codeLine="37" fill="#F1F1F1" height="67.0679" id="ScoreJauneVariante" rx="2.5" ry="2.5" style="stroke:#181818;stroke-width:0.5;" width="255" x="1749" y="327.88"/><ellipse cx="1806.75" cy="343.88" fill="#ADD1B2" rx="11" ry="11" style="stroke:#181818;stroke-width:1.0;"/><path d="M1806.8594,339.4113 Q1805.9375,339.4113 1805.2031,339.7238 Q1804.4844,340.0363 1803.9844,340.63 Q1803.4844,341.2081 1803.2031,342.0831 Q1802.9375,342.9581 1802.9375,344.0519 Q1802.9375,345.4894 1803.375,346.5363 Q1803.8281,347.5831 1804.6719,348.13 Q1805.5313,348.6769 1806.8438,348.6769 Q1807.625,348.6769 1808.3125,348.5519 Q1809.0156,348.4113 1810.0156,348.0988 L1810.0156,349.9738 Q1809.1563,350.3019 1808.3906,350.4269 Q1807.6406,350.5519 1806.625,350.5519 Q1804.7031,350.5519 1803.3906,349.755 Q1802.0938,348.9425 1801.4375,347.4738 Q1800.7813,345.9894 1800.7813,344.0206 Q1800.7813,342.5988 1801.1719,341.4269 Q1801.5781,340.2394 1802.3594,339.3644 Q1803.1406,338.4894 1804.2813,338.0206 Q1805.4219,337.5363 1806.8906,337.5363 Q1807.8438,337.5363 1808.7344,337.7394 Q1809.6406,337.9269 1810.5781,338.3956 L1809.75,340.1769 Q1808.9688,339.8019 1808.3125,339.6144 Q1807.6563,339.4113 1806.8594,339.4113 Z " fill="#000000"/><text fill="#000000" font-family="sans-serif" font-size="14" lengthAdjust="spacing" textLength="131" x="1827.25" y="349.312">ScoreJauneVariante</text><line style="stroke:#181818;stroke-width:0.5;" x1="1750" x2="2003" y1="359.88" y2="359.88"/><line style="stroke:#181818;stroke-width:0.5;" x1="1750" x2="2003" y1="367.88" y2="367.88"/><polygon fill="#FFFF44" points="1760,377.914,1764,381.914,1760,385.914,1756,381.914" style="stroke:#B38D22;stroke-width:1.0;"/><text fill="#000000" font-family="sans-serif" font-size="14" lengthAdjust="spacing" textLength="229" x="1769" y="386.8459">scoreLocal(plateau : Plateau*) : int</text></g><!--class ScoreRougeVariante--><g id="elem_ScoreRougeVariante"><rect codeLine="41" fill="#F1F1F1" height="67.0679" id="ScoreRougeVariante" rx="2.5" ry="2.5" style="stroke:#181818;stroke-width:0.5;" width="255" x="2039" y="327.88"/><ellipse cx="2094.25" cy="343.88" fill="#ADD1B2" rx="11" ry="11" style="stroke:#181818;stroke-width:1.0;"/><path d="M2094.3594,339.4113 Q2093.4375,339.4113 2092.7031,339.7238 Q2091.9844,340.0363 2091.4844,340.63 Q2090.9844,341.2081 2090.7031,342.0831 Q2090.4375,342.9581 2090.4375,344.0519 Q2090.4375,345.4894 2090.875,346.5363 Q2091.3281,347.5831 2092.1719,348.13 Q2093.0313,348.6769 2094.3438,348.6769 Q2095.125,348.6769 2095.8125,348.5519 Q2096.5156,348.4113 2097.5156,348.0988 L2097.5156,349.9738 Q2096.6563,350.3019 2095.8906,350.4269 Q2095.1406,350.5519 2094.125,350.5519 Q2092.2031,350.5519 2090.8906,349.755 Q2089.5938,348.9425 2088.9375,347.4738 Q2088.2813,345.9894 2088.2813,344.0206 Q2088.2813,342.5988 2088.6719,341.4269 Q2089.0781,340.2394 2089.8594,339.3644 Q2090.6406,338.4894 2091.7813,338.0206 Q2092.9219,337.5363 2094.3906,337.5363 Q2095.3438,337.5363 2096.2344,337.7394 Q2097.1406,337.9269 2098.0781,338.3956 L2097.25,340.1769 Q2096.4688,339.8019 2095.8125,339.6144 Q2095.1563,339.4113 2094.3594,339.4113 Z " fill="#000000"/><text fill="#000000" font-family="sans-serif" font-size="14" lengthAdjust="spacing" textLength="136" x="2114.75" y="349.312">ScoreRougeVariante</text><line style="stroke:#181818;stroke-width:0.5;" x1="2040" x2="2293" y1="359.88" y2="359.88"/><line style="stroke:#181818;stroke-width:0.5;" x1="2040" x2="2293" y1="367.88" y2="367.88"/><polygon fill="#FFFF44" points="2050,377.914,2054,381.914,2050,385.914,2046,381.914" style="stroke:#B38D22;stroke-width:1.0;"/><text fill="#000000" font-family="sans-serif" font-size="14" lengthAdjust="spacing" textLength="229" x="2059" y="386.8459">scoreLocal(plateau : Plateau*) : int</text></g><!--class ScoreVertVariante--><g id="elem_ScoreVertVariante"><rect codeLine="45" fill="#F1F1F1" height="67.0679" id="ScoreVertVariante" rx="2.5" ry="2.5" style="stroke:#181818;stroke-width:0.5;" width="255" x="2329" y="327.88"/><ellipse cx="2392.25" cy="343.88" fill="#ADD1B2" rx="11" ry="11" style="stroke:#181818;stroke-width:1.0;"/><path d="M2392.3594,339.4113 Q2391.4375,339.4113 2390.7031,339.7238 Q2389.9844,340.0363 2389.4844,340.63 Q2388.9844,341.2081 2388.7031,342.0831 Q2388.4375,342.9581 2388.4375,344.0519 Q2388.4375,345.4894 2388.875,346.5363 Q2389.3281,347.5831 2390.1719,348.13 Q2391.0313,348.6769 2392.3438,348.6769 Q2393.125,348.6769 2393.8125,348.5519 Q2394.5156,348.4113 2395.5156,348.0988 L2395.5156,349.9738 Q2394.6563,350.3019 2393.8906,350.4269 Q2393.1406,350.5519 2392.125,350.5519 Q2390.2031,350.5519 2388.8906,349.755 Q2387.5938,348.9425 2386.9375,347.4738 Q2386.2813,345.9894 2386.2813,344.0206 Q2386.2813,342.5988 2386.6719,341.4269 Q2387.0781,340.2394 2387.8594,339.3644 Q2388.6406,338.4894 2389.7813,338.0206 Q2390.9219,337.5363 2392.3906,337.5363 Q2393.3438,337.5363 2394.2344,337.7394 Q2395.1406,337.9269 2396.0781,338.3956 L2395.25,340.1769 Q2394.4688,339.8019 2393.8125,339.6144 Q2393.1563,339.4113 2392.3594,339.4113 Z " fill="#000000"/><text fill="#000000" font-family="sans-serif" font-size="14" lengthAdjust="spacing" textLength="120" x="2412.75" y="349.312">ScoreVertVariante</text><line style="stroke:#181818;stroke-width:0.5;" x1="2330" x2="2583" y1="359.88" y2="359.88"/><line style="stroke:#181818;stroke-width:0.5;" x1="2330" x2="2583" y1="367.88" y2="367.88"/><polygon fill="#FFFF44" points="2340,377.914,2344,381.914,2340,385.914,2336,381.914" style="stroke:#B38D22;stroke-width:1.0;"/><text fill="#000000" font-family="sans-serif" font-size="14" lengthAdjust="spacing" textLength="229" x="2349" y="386.8459">scoreLocal(plateau : Plateau*) : int</text></g><!--class ScoreVioletVariante--><g id="elem_ScoreVioletVariante"><rect codeLine="49" fill="#F1F1F1" height="67.0679" id="ScoreVioletVariante" rx="2.5" ry="2.5" style="stroke:#181818;stroke-width:0.5;" width="255" x="2619" y="327.88"/><ellipse cx="2677.25" cy="343.88" fill="#ADD1B2" rx="11" ry="11" style="stroke:#181818;stroke-width:1.0;"/><path d="M2677.3594,339.4113 Q2676.4375,339.4113 2675.7031,339.7238 Q2674.9844,340.0363 2674.4844,340.63 Q2673.9844,341.2081 2673.7031,342.0831 Q2673.4375,342.9581 2673.4375,344.0519 Q2673.4375,345.4894 2673.875,346.5363 Q2674.3281,347.5831 2675.1719,348.13 Q2676.0313,348.6769 2677.3438,348.6769 Q2678.125,348.6769 2678.8125,348.5519 Q2679.5156,348.4113 2680.5156,348.0988 L2680.5156,349.9738 Q2679.6563,350.3019 2678.8906,350.4269 Q2678.1406,350.5519 2677.125,350.5519 Q2675.2031,350.5519 2673.8906,349.755 Q2672.5938,348.9425 2671.9375,347.4738 Q2671.2813,345.9894 2671.2813,344.0206 Q2671.2813,342.5988 2671.6719,341.4269 Q2672.0781,340.2394 2672.8594,339.3644 Q2673.6406,338.4894 2674.7813,338.0206 Q2675.9219,337.5363 2677.3906,337.5363 Q2678.3438,337.5363 2679.2344,337.7394 Q2680.1406,337.9269 2681.0781,338.3956 L2680.25,340.1769 Q2679.4688,339.8019 2678.8125,339.6144 Q2678.1563,339.4113 2677.3594,339.4113 Z " fill="#000000"/><text fill="#000000" font-family="sans-serif" font-size="14" lengthAdjust="spacing" textLength="130" x="2697.75" y="349.312">ScoreVioletVariante</text><line style="stroke:#181818;stroke-width:0.5;" x1="2620" x2="2873" y1="359.88" y2="359.88"/><line style="stroke:#181818;stroke-width:0.5;" x1="2620" x2="2873" y1="367.88" y2="367.88"/><polygon fill="#FFFF44" points="2630,377.914,2634,381.914,2630,385.914,2626,381.914" style="stroke:#B38D22;stroke-width:1.0;"/><text fill="#000000" font-family="sans-serif" font-size="14" lengthAdjust="spacing" textLength="229" x="2639" y="386.8459">scoreLocal(plateau : Plateau*) : int</text></g><!--class ScoreSoloArchitechteCallicrates--><g id="elem_ScoreSoloArchitechteCallicrates"><rect codeLine="53" fill="#F1F1F1" height="67.0679" id="ScoreSoloArchitechteCallicrates" rx="2.5" ry="2.5" style="stroke:#181818;stroke-width:0.5;" width="255" x="2909" y="327.88"/><ellipse cx="2928.95" cy="343.88" fill="#ADD1B2" rx="11" ry="11" style="stroke:#181818;stroke-width:1.0;"/><path d="M2929.0594,339.4113 Q2928.1375,339.4113 2927.4031,339.7238 Q2926.6844,340.0363 2926.1844,340.63 Q2925.6844,341.2081 2925.4031,342.0831 Q2925.1375,342.9581 2925.1375,344.0519 Q2925.1375,345.4894 2925.575,346.5363 Q2926.0281,347.5831 2926.8719,348.13 Q2927.7313,348.6769 2929.0438,348.6769 Q2929.825,348.6769 2930.5125,348.5519 Q2931.2156,348.4113 2932.2156,348.0988 L2932.2156,349.9738 Q2931.3563,350.3019 2930.5906,350.4269 Q2929.8406,350.5519 2928.825,350.5519 Q2926.9031,350.5519 2925.5906,349.755 Q2924.2938,348.9425 2923.6375,347.4738 Q2922.9813,345.9894 2922.9813,344.0206 Q2922.9813,342.5988 2923.3719,341.4269 Q2923.7781,340.2394 2924.5594,339.3644 Q2925.3406,338.4894 2926.4813,338.0206 Q2927.6219,337.5363 2929.0906,337.5363 Q2930.0438,337.5363 2930.9344,337.7394 Q2931.8406,337.9269 2932.7781,338.3956 L2931.95,340.1769 Q2931.1688,339.8019 2930.5125,339.6144 Q2929.8563,339.4113 2929.0594,339.4113 Z " fill="#000000"/><text fill="#000000" font-family="sans-serif" font-size="14" lengthAdjust="spacing" textLength="212" x="2944.05" y="349.312">ScoreSoloArchitechteCallicrates</text><line style="stroke:#181818;stroke-width:0.5;" x1="2910" x2="3163" y1="359.88" y2="359.88"/><line style="stroke:#181818;stroke-width:0.5;" x1="2910" x2="3163" y1="367.88" y2="367.88"/><polygon fill="#FFFF44" points="2920,377.914,2924,381.914,2920,385.914,2916,381.914" style="stroke:#B38D22;stroke-width:1.0;"/><text fill="#000000" font-family="sans-serif" font-size="14" lengthAdjust="spacing" textLength="229" x="2929" y="386.8459">scoreLocal(plateau : Plateau*) : int</text></g><!--class ScoreSoloArchitechteHippodamos--><g id="elem_ScoreSoloArchitechteHippodamos"><rect codeLine="57" fill="#F1F1F1" height="67.0679" id="ScoreSoloArchitechteHippodamos" rx="2.5" ry="2.5" style="stroke:#181818;stroke-width:0.5;" width="259" x="3199" y="327.88"/><ellipse cx="3214" cy="343.88" fill="#ADD1B2" rx="11" ry="11" style="stroke:#181818;stroke-width:1.0;"/><path d="M3214.1094,339.4113 Q3213.1875,339.4113 3212.4531,339.7238 Q3211.7344,340.0363 3211.2344,340.63 Q3210.7344,341.2081 3210.4531,342.0831 Q3210.1875,342.9581 3210.1875,344.0519 Q3210.1875,345.4894 3210.625,346.5363 Q3211.0781,347.5831 3211.9219,348.13 Q3212.7813,348.6769 3214.0938,348.6769 Q3214.875,348.6769 3215.5625,348.5519 Q3216.2656,348.4113 3217.2656,348.0988 L3217.2656,349.9738 Q3216.4063,350.3019 3215.6406,350.4269 Q3214.8906,350.5519 3213.875,350.5519 Q3211.9531,350.5519 3210.6406,349.755 Q3209.3438,348.9425 3208.6875,347.4738 Q3208.0313,345.9894 3208.0313,344.0206 Q3208.0313,342.5988 3208.4219,341.4269 Q3208.8281,340.2394 3209.6094,339.3644 Q3210.3906,338.4894 3211.5313,338.0206 Q3212.6719,337.5363 3214.1406,337.5363 Q3215.0938,337.5363 3215.9844,337.7394 Q3216.8906,337.9269 3217.8281,338.3956 L3217,340.1769 Q3216.2188,339.8019 3215.5625,339.6144 Q3214.9063,339.4113 3214.1094,339.4113 Z " fill="#000000"/><text fill="#000000" font-family="sans-serif" font-size="14" lengthAdjust="spacing" textLength="227" x="3228" y="349.312">ScoreSoloArchitechteHippodamos</text><line style="stroke:#181818;stroke-width:0.5;" x1="3200" x2="3457" y1="359.88" y2="359.88"/><line style="stroke:#181818;stroke-width:0.5;" x1="3200" x2="3457" y1="367.88" y2="367.88"/><polygon fill="#FFFF44" points="3210,377.914,3214,381.914,3210,385.914,3206,381.914" style="stroke:#B38D22;stroke-width:1.0;"/><text fill="#000000" font-family="sans-serif" font-size="14" lengthAdjust="spacing" textLength="229" x="3219" y="386.8459">scoreLocal(plateau : Plateau*) : int</text></g><!--class ScoreSoloArchitechteMetagenes--><g id="elem_ScoreSoloArchitechteMetagenes"><rect codeLine="61" fill="#F1F1F1" height="67.0679" id="ScoreSoloArchitechteMetagenes" rx="2.5" ry="2.5" style="stroke:#181818;stroke-width:0.5;" width="255" x="3493" y="327.88"/><ellipse cx="3510.7" cy="343.88" fill="#ADD1B2" rx="11" ry="11" style="stroke:#181818;stroke-width:1.0;"/><path d="M3510.8094,339.4113 Q3509.8875,339.4113 3509.1531,339.7238 Q3508.4344,340.0363 3507.9344,340.63 Q3507.4344,341.2081 3507.1531,342.0831 Q3506.8875,342.9581 3506.8875,344.0519 Q3506.8875,345.4894 3507.325,346.5363 Q3507.7781,347.5831 3508.6219,348.13 Q3509.4813,348.6769 3510.7938,348.6769 Q3511.575,348.6769 3512.2625,348.5519 Q3512.9656,348.4113 3513.9656,348.0988 L3513.9656,349.9738 Q3513.1063,350.3019 3512.3406,350.4269 Q3511.5906,350.5519 3510.575,350.5519 Q3508.6531,350.5519 3507.3406,349.755 Q3506.0438,348.9425 3505.3875,347.4738 Q3504.7313,345.9894 3504.7313,344.0206 Q3504.7313,342.5988 3505.1219,341.4269 Q3505.5281,340.2394 3506.3094,339.3644 Q3507.0906,338.4894 3508.2313,338.0206 Q3509.3719,337.5363 3510.8406,337.5363 Q3511.7938,337.5363 3512.6844,337.7394 Q3513.5906,337.9269 3514.5281,338.3956 L3513.7,340.1769 Q3512.9188,339.8019 3512.2625,339.6144 Q3511.6063,339.4113 3510.8094,339.4113 Z " fill="#000000"/><text fill="#000000" font-family="sans-serif" font-size="14" lengthAdjust="spacing" textLength="217" x="3525.3" y="349.312">ScoreSoloArchitechteMetagenes</text><line style="stroke:#181818;stroke-width:0.5;" x1="3494" x2="3747" y1="359.88" y2="359.88"/><line style="stroke:#181818;stroke-width:0.5;" x1="3494" x2="3747" y1="367.88" y2="367.88"/><polygon fill="#FFFF44" points="3504,377.914,3508,381.914,3504,385.914,3500,381.914" style="stroke:#B38D22;stroke-width:1.0;"/><text fill="#000000" font-family="sans-serif" font-size="14" lengthAdjust="spacing" textLength="229" x="3513" y="386.8459">scoreLocal(plateau : Plateau*) : int</text></g><!--class Player--><g id="elem_Player"><rect fill="#F1F1F1" height="48" id="Player" rx="2.5" ry="2.5" style="stroke:#181818;stroke-width:0.5;" width="73" x="1908" y="7"/><ellipse cx="1923" cy="23" fill="#ADD1B2" rx="11" ry="11" style="stroke:#181818;stroke-width:1.0;"/><path d="M1923.1094,18.5313 Q1922.1875,18.5313 1921.4531,18.8438 Q1920.7344,19.1563 1920.2344,19.75 Q1919.7344,20.3281 1919.4531,21.2031 Q1919.1875,22.0781 1919.1875,23.1719 Q1919.1875,24.6094 1919.625,25.6563 Q1920.0781,26.7031 1920.9219,27.25 Q1921.7813,27.7969 1923.0938,27.7969 Q1923.875,27.7969 1924.5625,27.6719 Q1925.2656,27.5313 1926.2656,27.2188 L1926.2656,29.0938 Q1925.4063,29.4219 1924.6406,29.5469 Q1923.8906,29.6719 1922.875,29.6719 Q1920.9531,29.6719 1919.6406,28.875 Q1918.3438,28.0625 1917.6875,26.5938 Q1917.0313,25.1094 1917.0313,23.1406 Q1917.0313,21.7188 1917.4219,20.5469 Q1917.8281,19.3594 1918.6094,18.4844 Q1919.3906,17.6094 1920.5313,17.1406 Q1921.6719,16.6563 1923.1406,16.6563 Q1924.0938,16.6563 1924.9844,16.8594 Q1925.8906,17.0469 1926.8281,17.5156 L1926,19.2969 Q1925.2188,18.9219 1924.5625,18.7344 Q1923.9063,18.5313 1923.1094,18.5313 Z " fill="#000000"/><text fill="#000000" font-family="sans-serif" font-size="14" lengthAdjust="spacing" textLength="41" x="1937" y="28.432">Player</text><line style="stroke:#181818;stroke-width:0.5;" x1="1909" x2="1980" y1="39" y2="39"/><line style="stroke:#181818;stroke-width:0.5;" x1="1909" x2="1980" y1="47" y2="47"/></g><!--reverse link Score to ScoreBleu--><g id="link_Score_ScoreBleu"><path d="M1702.055,190.534 C1414.745,197.304 802.72,222.39 281.5,318.34 C275.83,319.39 270.06,320.56 264.26,321.84 " fill="none" id="Score-backto-ScoreBleu" style="stroke:#181818;stroke-width:1.0;"/><polygon fill="none" points="1720.05,190.11,1701.9137,184.5357,1702.1963,196.5324,1720.05,190.11" style="stroke:#181818;stroke-width:1.0;"/></g><!--reverse link Score to ScoreJaune--><g id="link_Score_ScoreJaune"><path d="M1702.262,194.9893 C1456.042,207.1693 981.58,239.02 571.5,318.34 C558.5,320.86 544.99,324.02 531.68,327.47 " fill="none" id="Score-backto-ScoreJaune" style="stroke:#181818;stroke-width:1.0;"/><polygon fill="none" points="1720.24,194.1,1701.9655,188.9967,1702.5584,200.982,1720.24,194.1" style="stroke:#181818;stroke-width:1.0;"/></g><!--reverse link Score to ScoreRouge--><g id="link_Score_ScoreRouge"><path d="M1702.131,201.8568 C1501.711,219.7068 1162.2,255.76 861.5,318.34 C849.05,320.93 836.12,324.05 823.33,327.41 " fill="none" id="Score-backto-ScoreRouge" style="stroke:#181818;stroke-width:1.0;"/><polygon fill="none" points="1720.06,200.26,1701.5987,195.8805,1702.6632,207.8332,1720.06,200.26" style="stroke:#181818;stroke-width:1.0;"/></g><!--reverse link Score to ScoreVert--><g id="link_Score_ScoreVert"><path d="M1702.5379,213.8025 C1555.0579,236.9625 1345.9,272.75 1151.5,318.34 C1139.89,321.07 1127.82,324.15 1115.83,327.38 " fill="none" id="Score-backto-ScoreVert" style="stroke:#181818;stroke-width:1.0;"/><polygon fill="none" points="1720.32,211.01,1701.6071,207.8751,1703.4687,219.7298,1720.32,211.01" style="stroke:#181818;stroke-width:1.0;"/></g><!--reverse link Score to ScoreViolet--><g id="link_Score_ScoreViolet"><path d="M1703.0589,239.328 C1604.0789,268.808 1495.71,301.08 1407.02,327.5 " fill="none" id="Score-backto-ScoreViolet" style="stroke:#181818;stroke-width:1.0;"/><polygon fill="none" points="1720.31,234.19,1701.3462,233.5777,1704.7716,245.0784,1720.31,234.19" style="stroke:#181818;stroke-width:1.0;"/></g><!--reverse link Score to ScoreBleuVariante--><g id="link_Score_ScoreBleuVariante"><path d="M1741.8255,267.8914 C1701.8355,291.7114 1674.6,307.94 1641.9,327.41 " fill="none" id="Score-backto-ScoreBleuVariante" style="stroke:#181818;stroke-width:1.0;"/><polygon fill="none" points="1757.29,258.68,1738.7551,262.7366,1744.896,273.0462,1757.29,258.68" style="stroke:#181818;stroke-width:1.0;"/></g><!--reverse link Score to ScoreJauneVariante--><g id="link_Score_ScoreJauneVariante"><path d="M1876.5,276.43 C1876.5,300.47 1876.5,308.18 1876.5,327.77 " fill="none" id="Score-backto-ScoreJauneVariante" style="stroke:#181818;stroke-width:1.0;"/><polygon fill="none" points="1876.5,258.43,1870.5,276.43,1882.5,276.43,1876.5,258.43" style="stroke:#181818;stroke-width:1.0;"/></g><!--reverse link Score to ScoreRougeVariante--><g id="link_Score_ScoreRougeVariante"><path d="M2011.1745,267.8914 C2051.1645,291.7114 2078.4,307.94 2111.1,327.41 " fill="none" id="Score-backto-ScoreRougeVariante" style="stroke:#181818;stroke-width:1.0;"/><polygon fill="none" points="1995.71,258.68,2008.104,273.0462,2014.2449,262.7366,1995.71,258.68" style="stroke:#181818;stroke-width:1.0;"/></g><!--reverse link Score to ScoreVertVariante--><g id="link_Score_ScoreVertVariante"><path d="M2049.9411,239.328 C2148.9211,268.808 2257.29,301.08 2345.98,327.5 " fill="none" id="Score-backto-ScoreVertVariante" style="stroke:#181818;stroke-width:1.0;"/><polygon fill="none" points="2032.69,234.19,2048.2284,245.0784,2051.6538,233.5777,2032.69,234.19" style="stroke:#181818;stroke-width:1.0;"/></g><!--reverse link Score to ScoreVioletVariante--><g id="link_Score_ScoreVioletVariante"><path d="M2050.4621,213.8025 C2197.9421,236.9625 2407.1,272.75 2601.5,318.34 C2613.11,321.07 2625.18,324.15 2637.17,327.38 " fill="none" id="Score-backto-ScoreVioletVariante" style="stroke:#181818;stroke-width:1.0;"/><polygon fill="none" points="2032.68,211.01,2049.5313,219.7298,2051.3929,207.8751,2032.68,211.01" style="stroke:#181818;stroke-width:1.0;"/></g><!--reverse link Score to ScoreSoloArchitechteCallicrates--><g id="link_Score_ScoreSoloArchitechteCallicrates"><path d="M2050.869,201.8568 C2251.289,219.7068 2590.8,255.76 2891.5,318.34 C2903.95,320.93 2916.88,324.05 2929.67,327.41 " fill="none" id="Score-backto-ScoreSoloArchitechteCallicrates" style="stroke:#181818;stroke-width:1.0;"/><polygon fill="none" points="2032.94,200.26,2050.3368,207.8332,2051.4013,195.8805,2032.94,200.26" style="stroke:#181818;stroke-width:1.0;"/></g><!--reverse link Score to ScoreSoloArchitechteHippodamos--><g id="link_Score_ScoreSoloArchitechteHippodamos"><path d="M2050.9571,195.1982 C2297.2071,207.6382 2771.42,239.79 3181.5,318.34 C3194.54,320.84 3208.09,323.97 3221.45,327.38 " fill="none" id="Score-backto-ScoreSoloArchitechteHippodamos" style="stroke:#181818;stroke-width:1.0;"/><polygon fill="none" points="2032.98,194.29,2050.6544,201.1905,2051.2598,189.2058,2032.98,194.29" style="stroke:#181818;stroke-width:1.0;"/></g><!--reverse link Score to ScoreSoloArchitechteMetagenes--><g id="link_Score_ScoreSoloArchitechteMetagenes"><path d="M2050.7751,190.4784 C2338.5351,197.1684 2952.63,222.14 3475.5,318.34 C3488.78,320.79 3502.58,323.95 3516.16,327.44 " fill="none" id="Score-backto-ScoreSoloArchitechteMetagenes" style="stroke:#181818;stroke-width:1.0;"/><polygon fill="none" points="2032.78,190.06,2050.6357,196.4767,2050.9146,184.48,2032.78,190.06" style="stroke:#181818;stroke-width:1.0;"/></g><!--reverse link Player to Score--><g id="link_Player_Score"><path codeLine="65" d="M1929.3155,66.3142 C1922.2555,82.2742 1917.35,93.36 1907.86,114.8 " fill="none" id="Player-backto-Score" style="stroke:#181818;stroke-width:1.0;"/><polygon fill="#181818" points="1934.17,55.34,1928.0847,59.2089,1929.3155,66.3142,1935.4008,62.4453,1934.17,55.34" style="stroke:#181818;stroke-width:1.0;"/><text fill="#000000" font-family="sans-serif" font-size="13" lengthAdjust="spacing" textLength="7" x="1903.9072" y="102.9452">1</text></g><!--reverse link Score to Score--><g id="link_Score_Score"><path codeLine="66" d="M2044.4966,163.3128 C2065.3766,167.6728 2067.5,173.83 2067.5,186.67 C2067.5,199.52 2053.63,208.13 2032.75,212.49 " fill="none" id="Score-backto-Score" style="stroke:#181818;stroke-width:1.0;"/><polygon fill="#181818" points="2032.75,160.86,2037.8057,166.002,2044.4966,163.3128,2039.4409,158.1709,2032.75,160.86" style="stroke:#181818;stroke-width:1.0;"/><text fill="#000000" font-family="sans-serif" font-size="13" lengthAdjust="spacing" textLength="7" x="2040.4879" y="210.2431">1</text></g><!--SRC=[jPHDQiCm48NtEiMGRXANBBhDhZ-1Kbee3MG_bOT4e6gCD2ej8GVAENAnobOBTd7f8eeNjZGZVsyU3njVWtZK0jfY2B3Ix0bs2j9r0Q7TtHqFwN4ym29tAzNlFh96Esqi2c5CHvxpgfgbjN42ktVZ9QBTTozTPiHqDjXbqIghKNl_wNUbl-bghnmBWN2J2iiW41tKtRpfNFHAzLpTM8f07qAk7lNvZvEnYHQ_tQQ1-f8F61sTeZd4lN3S5CIjoKj1cc5B1NbjN6lq1fqKzDmbKXxR9LC02oCHbPysHrMUksBBrrvlZP3U2jsYjKQtNs8ucyQzQHgkyOtF9_54WXjo9vj8fK_oKCtdCBcQP8Zw_lKDQby0]--></g></svg>