<?xml version="1.0" encoding="us-ascii" standalone="no"?><svg xmlns="http://www.w3.org/2000/svg" xmlns:xlink="http://www.w3.org/1999/xlink" contentStyleType="text/css" height="544px" preserveAspectRatio="none" style="width:1233px;height:544px;background:#FFFFFF;" version="1.1" viewBox="0 0 1233 544" width="1233px" zoomAndPan="magnify"><defs/><g><!--class Serializable--><g id="elem_Serializable"><rect codeLine="2" fill="#F1F1F1" height="105.2038" id="Serializable" rx="2.5" ry="2.5" style="stroke:#181818;stroke-width:0.5;" width="552" x="7" y="200.8"/><ellipse cx="239.75" cy="216.8" fill="#ADD1B2" rx="11" ry="11" style="stroke:#181818;stroke-width:1.0;"/><path d="M239.8594,212.3313 Q238.9375,212.3313 238.2031,212.6438 Q237.4844,212.9563 236.9844,213.55 Q236.4844,214.1281 236.2031,215.0031 Q235.9375,215.8781 235.9375,216.9719 Q235.9375,218.4094 236.375,219.4563 Q236.8281,220.5031 237.6719,221.05 Q238.5313,221.5969 239.8438,221.5969 Q240.625,221.5969 241.3125,221.4719 Q242.0156,221.3313 243.0156,221.0188 L243.0156,222.8938 Q242.1563,223.2219 241.3906,223.3469 Q240.6406,223.4719 239.625,223.4719 Q237.7031,223.4719 236.3906,222.675 Q235.0938,221.8625 234.4375,220.3938 Q233.7813,218.9094 233.7813,216.9406 Q233.7813,215.5188 234.1719,214.3469 Q234.5781,213.1594 235.3594,212.2844 Q236.1406,211.4094 237.2813,210.9406 Q238.4219,210.4563 239.8906,210.4563 Q240.8438,210.4563 241.7344,210.6594 Q242.6406,210.8469 243.5781,211.3156 L242.75,213.0969 Q241.9688,212.7219 241.3125,212.5344 Q240.6563,212.3313 239.8594,212.3313 Z " fill="#000000"/><text fill="#000000" font-family="sans-serif" font-size="14" lengthAdjust="spacing" textLength="78" x="260.25" y="222.232">Serializable</text><line style="stroke:#181818;stroke-width:0.5;" x1="8" x2="558" y1="232.8" y2="232.8"/><line style="stroke:#181818;stroke-width:0.5;" x1="8" x2="558" y1="240.8" y2="240.8"/><ellipse cx="18" cy="255.834" fill="#84BE84" rx="3" ry="3" style="stroke:#038048;stroke-width:1.0;"/><text fill="#000000" font-family="sans-serif" font-size="14" lengthAdjust="spacing" textLength="509" x="27" y="259.7659">serialize(data : QVariantMap&amp;, context : SerializationContext*) {pure virtual}</text><ellipse cx="18" cy="274.9019" fill="#84BE84" rx="3" ry="3" style="stroke:#038048;stroke-width:1.0;"/><text fill="#000000" font-family="sans-serif" font-size="14" lengthAdjust="spacing" textLength="526" x="27" y="278.8339">deserialize(data : QVariantMap&amp;, context : SerializationContext*) {pure virtual}</text><ellipse cx="18" cy="293.9698" fill="#84BE84" rx="3" ry="3" style="stroke:#038048;stroke-width:1.0;"/><text fill="#000000" font-family="sans-serif" font-size="14" lengthAdjust="spacing" textLength="226" x="27" y="297.9018">className() : string {pure virtual}</text></g><!--class toutes classes stockant de l'information--><g id="elem_toutes classes stockant de l'information"><rect codeLine="8" fill="#F1F1F1" height="48" id="toutes classes stockant de l'information" rx="2.5" ry="2.5" style="stroke:#181818;stroke-width:0.5;" width="297" x="134.5" y="461.35"/><ellipse cx="149.5" cy="477.35" fill="#ADD1B2" rx="11" ry="11" style="stroke:#181818;stroke-width:1.0;"/><path d="M149.6094,472.8813 Q148.6875,472.8813 147.9531,473.1938 Q147.2344,473.5063 146.7344,474.1 Q146.2344,474.6781 145.9531,475.5531 Q145.6875,476.4281 145.6875,477.5219 Q145.6875,478.9594 146.125,480.0063 Q146.5781,481.0531 147.4219,481.6 Q148.2813,482.1469 149.5938,482.1469 Q150.375,482.1469 151.0625,482.0219 Q151.7656,481.8813 152.7656,481.5688 L152.7656,483.4438 Q151.9063,483.7719 151.1406,483.8969 Q150.3906,484.0219 149.375,484.0219 Q147.4531,484.0219 146.1406,483.225 Q144.8438,482.4125 144.1875,480.9438 Q143.5313,479.4594 143.5313,477.4906 Q143.5313,476.0688 143.9219,474.8969 Q144.3281,473.7094 145.1094,472.8344 Q145.8906,471.9594 147.0313,471.4906 Q148.1719,471.0063 149.6406,471.0063 Q150.5938,471.0063 151.4844,471.2094 Q152.3906,471.3969 153.3281,471.8656 L152.5,473.6469 Q151.7188,473.2719 151.0625,473.0844 Q150.4063,472.8813 149.6094,472.8813 Z " fill="#000000"/><text fill="#000000" font-family="sans-serif" font-size="14" lengthAdjust="spacing" textLength="265" x="163.5" y="482.782">toutes classes stockant de l'information</text><line style="stroke:#181818;stroke-width:0.5;" x1="135.5" x2="430.5" y1="493.35" y2="493.35"/><line style="stroke:#181818;stroke-width:0.5;" x1="135.5" x2="430.5" y1="501.35" y2="501.35"/></g><!--class SerializationContext--><g id="elem_SerializationContext"><rect codeLine="10" fill="#F1F1F1" height="238.6792" id="SerializationContext" rx="2.5" ry="2.5" style="stroke:#181818;stroke-width:0.5;" width="632" x="594" y="134.07"/><ellipse cx="838.75" cy="150.07" fill="#ADD1B2" rx="11" ry="11" style="stroke:#181818;stroke-width:1.0;"/><path d="M838.8594,145.6013 Q837.9375,145.6013 837.2031,145.9138 Q836.4844,146.2263 835.9844,146.82 Q835.4844,147.3981 835.2031,148.2731 Q834.9375,149.1481 834.9375,150.2419 Q834.9375,151.6794 835.375,152.7263 Q835.8281,153.7731 836.6719,154.32 Q837.5313,154.8669 838.8438,154.8669 Q839.625,154.8669 840.3125,154.7419 Q841.0156,154.6013 842.0156,154.2888 L842.0156,156.1638 Q841.1563,156.4919 840.3906,156.6169 Q839.6406,156.7419 838.625,156.7419 Q836.7031,156.7419 835.3906,155.945 Q834.0938,155.1325 833.4375,153.6638 Q832.7813,152.1794 832.7813,150.2106 Q832.7813,148.7888 833.1719,147.6169 Q833.5781,146.4294 834.3594,145.5544 Q835.1406,144.6794 836.2813,144.2106 Q837.4219,143.7263 838.8906,143.7263 Q839.8438,143.7263 840.7344,143.9294 Q841.6406,144.1169 842.5781,144.5856 L841.75,146.3669 Q840.9688,145.9919 840.3125,145.8044 Q839.6563,145.6013 838.8594,145.6013 Z " fill="#000000"/><text fill="#000000" font-family="sans-serif" font-size="14" lengthAdjust="spacing" textLength="134" x="859.25" y="155.502">SerializationContext</text><line style="stroke:#181818;stroke-width:0.5;" x1="595" x2="1225" y1="166.07" y2="166.07"/><rect fill="none" height="6" style="stroke:#C82930;stroke-width:1.0;" width="6" x="602" y="178.104"/><text fill="#000000" font-family="sans-serif" font-size="14" lengthAdjust="spacing" textLength="176" x="614" y="185.0359">recordList : QList&lt;Record&gt;</text><rect fill="none" height="6" style="stroke:#C82930;stroke-width:1.0;" width="6" x="602" y="197.1719"/><text fill="#000000" font-family="sans-serif" font-size="14" lengthAdjust="spacing" textLength="305" x="614" y="204.1039">recordMap : QHash&lt;Serializable*, qsizetype&gt;</text><line style="stroke:#181818;stroke-width:0.5;" x1="595" x2="1225" y1="212.2058" y2="212.2058"/><ellipse cx="605" cy="227.2398" fill="#84BE84" rx="3" ry="3" style="stroke:#038048;stroke-width:1.0;"/><text fill="#000000" font-family="sans-serif" font-size="14" lengthAdjust="spacing" textLength="274" x="614" y="231.1718">serialize(object : Serializable*) : QVariant</text><ellipse cx="605" cy="246.3077" fill="#84BE84" rx="3" ry="3" style="stroke:#038048;stroke-width:1.0;"/><text fill="#000000" font-family="sans-serif" font-size="14" lengthAdjust="spacing" textLength="337" x="614" y="250.2397">deserialize(index : const QVariant&amp;) : Serializable*</text><ellipse cx="605" cy="265.3756" fill="#84BE84" rx="3" ry="3" style="stroke:#038048;stroke-width:1.0;"/><text fill="#000000" font-family="sans-serif" font-size="14" lengthAdjust="spacing" textLength="295" x="614" y="269.3076">currentSerializationIndex() const : qsizetype</text><text fill="#000000" font-family="sans-serif" font-size="14" lengthAdjust="spacing" textLength="4" x="614" y="288.3755">&#160;</text><ellipse cx="605" cy="303.5115" fill="#84BE84" rx="3" ry="3" style="stroke:#038048;stroke-width:1.0;"/><text fill="#000000" font-family="sans-serif" font-size="14" lengthAdjust="spacing" textLength="606" x="614" y="307.4434">operator&lt;&lt;(stream : QDataStream&amp;, context : const SerializationContext&amp;) : QDataStream&amp;</text><ellipse cx="605" cy="322.5794" fill="#84BE84" rx="3" ry="3" style="stroke:#038048;stroke-width:1.0;"/><text fill="#000000" font-family="sans-serif" font-size="14" lengthAdjust="spacing" textLength="566" x="614" y="326.5114">operator&gt;&gt;(stream : QDataStream&amp;, context : SerializationContext&amp;) : QDataStream&amp;</text><rect fill="#F24D5C" height="6" style="stroke:#C82930;stroke-width:1.0;" width="6" x="602" y="338.6473"/><text fill="#000000" font-family="sans-serif" font-size="14" lengthAdjust="spacing" textLength="519" x="614" y="345.5793">operator&lt;&lt;(stream : QDataStream&amp;, context : const Record&amp;) : QDataStream&amp;</text><rect fill="#F24D5C" height="6" style="stroke:#C82930;stroke-width:1.0;" width="6" x="602" y="357.7152"/><text fill="#000000" font-family="sans-serif" font-size="14" lengthAdjust="spacing" textLength="479" x="614" y="364.6472">operator&gt;&gt;(stream : QDataStream&amp;, context : Record&amp;) : QDataStream&amp;</text></g><!--class SerializationContext::Record--><g id="elem_SerializationContext::Record"><rect codeLine="24" fill="#F1F1F1" height="105.2038" id="SerializationContext::Record" rx="2.5" ry="2.5" style="stroke:#181818;stroke-width:0.5;" width="223" x="798.5" y="432.75"/><ellipse cx="814.4" cy="448.75" fill="#F1F1F1" rx="11" ry="11" style="stroke:#181818;stroke-width:1.0;"/><path d="M818.9625,451.7344 Q818.9625,452.9063 818.3844,453.7344 Q817.8219,454.5625 816.775,455 Q815.7438,455.4219 814.3688,455.4219 Q813.6656,455.4219 813.025,455.3438 Q812.4,455.2813 811.8688,455.1563 Q811.3375,455.0156 810.7594,454.75 L810.7594,452.7031 Q811.7438,453.1406 812.6188,453.3594 Q813.4938,453.5625 814.4313,453.5625 Q815.2906,453.5625 815.8375,453.3594 Q816.3844,453.1406 816.6344,452.7656 Q816.9,452.3906 816.9,451.875 Q816.9,451.3594 816.6813,451.0156 Q816.4781,450.6719 815.8844,450.3438 Q815.3063,450.0156 814.2125,449.625 Q813.4156,449.3125 812.7906,448.9844 Q812.1813,448.6406 811.7594,448.1875 Q811.3375,447.7188 811.1188,447.125 Q810.9156,446.5313 810.9156,445.7656 Q810.9156,444.7188 811.4469,443.9688 Q811.9938,443.2031 812.9313,442.8125 Q813.8688,442.4063 815.0563,442.4063 Q816.1031,442.4063 816.9469,442.6094 Q817.8063,442.7969 818.7438,443.2188 L818.0875,445.0313 Q817.2125,444.6406 816.4938,444.4688 Q815.7906,444.2813 815.025,444.2813 Q814.3219,444.2813 813.8688,444.4844 Q813.4313,444.6719 813.2125,445.0156 Q812.9938,445.3438 812.9938,445.7813 Q812.9938,446.3281 813.2125,446.6719 Q813.4313,447.0156 813.9625,447.3281 Q814.5094,447.625 815.4781,447.9844 Q816.5719,448.3906 817.3375,448.875 Q818.1188,449.3438 818.5406,450.0313 Q818.9625,450.7031 818.9625,451.7344 Z " fill="#000000"/><text fill="#000000" font-family="sans-serif" font-size="14" lengthAdjust="spacing" textLength="189" x="828.6" y="454.182">SerializationContext::Record</text><line style="stroke:#181818;stroke-width:0.5;" x1="799.5" x2="1020.5" y1="464.75" y2="464.75"/><ellipse cx="809.5" cy="479.784" fill="none" rx="3" ry="3" style="stroke:#038048;stroke-width:1.0;"/><text fill="#000000" font-family="sans-serif" font-size="14" lengthAdjust="spacing" textLength="139" x="818.5" y="483.7159">object : Serializable*</text><ellipse cx="809.5" cy="498.8519" fill="none" rx="3" ry="3" style="stroke:#038048;stroke-width:1.0;"/><text fill="#000000" font-family="sans-serif" font-size="14" lengthAdjust="spacing" textLength="81" x="818.5" y="502.7839">type : string</text><ellipse cx="809.5" cy="517.9198" fill="none" rx="3" ry="3" style="stroke:#038048;stroke-width:1.0;"/><text fill="#000000" font-family="sans-serif" font-size="14" lengthAdjust="spacing" textLength="197" x="818.5" y="521.8518">serializedData : QVariantMap</text><line style="stroke:#181818;stroke-width:0.5;" x1="799.5" x2="1020.5" y1="529.9538" y2="529.9538"/></g><!--class SerializableFactory--><g id="elem_SerializableFactory"><rect codeLine="32" fill="#F1F1F1" height="67.0679" id="SerializableFactory" rx="2.5" ry="2.5" style="stroke:#181818;stroke-width:0.5;" width="333" x="429.5" y="7"/><ellipse cx="528.75" cy="23" fill="#ADD1B2" rx="11" ry="11" style="stroke:#181818;stroke-width:1.0;"/><path d="M528.8594,18.5313 Q527.9375,18.5313 527.2031,18.8438 Q526.4844,19.1563 525.9844,19.75 Q525.4844,20.3281 525.2031,21.2031 Q524.9375,22.0781 524.9375,23.1719 Q524.9375,24.6094 525.375,25.6563 Q525.8281,26.7031 526.6719,27.25 Q527.5313,27.7969 528.8438,27.7969 Q529.625,27.7969 530.3125,27.6719 Q531.0156,27.5313 532.0156,27.2188 L532.0156,29.0938 Q531.1563,29.4219 530.3906,29.5469 Q529.6406,29.6719 528.625,29.6719 Q526.7031,29.6719 525.3906,28.875 Q524.0938,28.0625 523.4375,26.5938 Q522.7813,25.1094 522.7813,23.1406 Q522.7813,21.7188 523.1719,20.5469 Q523.5781,19.3594 524.3594,18.4844 Q525.1406,17.6094 526.2813,17.1406 Q527.4219,16.6563 528.8906,16.6563 Q529.8438,16.6563 530.7344,16.8594 Q531.6406,17.0469 532.5781,17.5156 L531.75,19.2969 Q530.9688,18.9219 530.3125,18.7344 Q529.6563,18.5313 528.8594,18.5313 Z " fill="#000000"/><text fill="#000000" font-family="sans-serif" font-size="14" lengthAdjust="spacing" textLength="126" x="549.25" y="28.432">SerializableFactory</text><line style="stroke:#181818;stroke-width:0.5;" x1="430.5" x2="761.5" y1="39" y2="39"/><line style="stroke:#181818;stroke-width:0.5;" x1="430.5" x2="761.5" y1="47" y2="47"/><ellipse cx="440.5" cy="62.034" fill="#84BE84" rx="3" ry="3" style="stroke:#038048;stroke-width:1.0;"/><text fill="#000000" font-family="sans-serif" font-size="14" lengthAdjust="spacing" text-decoration="underline" textLength="307" x="449.5" y="65.9659">createSerializable(type : string) : Serializable*</text></g><!--reverse link Serializable to toutes classes stockant de l'information--><g id="link_Serializable_toutes classes stockant de l'information"><path d="M283,324.3 C283,372.78 283,424.93 283,461 " fill="none" id="Serializable-backto-toutes classes stockant de l'information" style="stroke:#181818;stroke-width:1.0;"/><polygon fill="none" points="283,306.3,277,324.3,289,324.3,283,306.3" style="stroke:#181818;stroke-width:1.0;"/></g><!--reverse link SerializationContext to SerializationContext::Record--><g id="link_SerializationContext_SerializationContext::Record"><path codeLine="30" d="M910,385.08 C910,405.95 910,414.65 910,432.43 " fill="none" id="SerializationContext-backto-SerializationContext::Record" style="stroke:#181818;stroke-width:1.0;"/><polygon fill="#181818" points="910,373.08,906,379.08,910,385.08,914,379.08,910,373.08" style="stroke:#181818;stroke-width:1.0;"/><text fill="#000000" font-family="sans-serif" font-size="13" lengthAdjust="spacing" textLength="7" x="902.5297" y="421.1209">*</text></g><!--reverse link SerializableFactory to Serializable--><g id="link_SerializableFactory_Serializable"><path codeLine="36" d="M537.1383,81.1854 C487.1083,114.8954 418.59,161.06 360.17,200.42 " fill="none" id="SerializableFactory-backto-Serializable" style="stroke:#181818;stroke-width:1.0;"/><polygon fill="none" points="547.09,74.48,539.879,74.5155,537.1383,81.1854,544.3493,81.15,547.09,74.48" style="stroke:#181818;stroke-width:1.0;"/></g><!--link Serializable to SerializationContext--><g id="link_Serializable_SerializationContext"><path codeLine="37" d="M559.46,253.41 C570.87,253.41 582.28,253.41 593.69,253.41 " fill="none" id="Serializable-SerializationContext" style="stroke:#181818;stroke-width:1.0;"/></g><!--link SerializableFactory to SerializationContext--><g id="link_SerializableFactory_SerializationContext"><path codeLine="38" d="M645.06,74.48 C669.56,90.93 700.84,111.94 733.27,133.72 " fill="none" id="SerializableFactory-SerializationContext" style="stroke:#181818;stroke-width:1.0;"/></g><!--SRC=[jLHDJyCm3BttLqGzZBQiVw2gUc52807IcCGzImqKkgOaATgOzjzn-aNJPcn2efUeZlty_6o7vLHAiWAHqJpxekiSoDuX-5qIsHh1IwcY92BB9ugMGjtJSZOdZ1SAjWhjVRJAU77Lc0EVxCjA0FdCXAfeVcX1K_WNMARBUA0Ry7oCb4fanSlOy-0ujHjn5QyKo2O8JwauUqS2I8xa5rdnpCMcJkeIJ0b5QWhKmTZujUA5H03Z8htBfAvagS_uiJObXWFMhEzlg7oDXpc2EVcGg97QbP0uauRmzHimGoCTum_4jCYT5IbiqGKLHbQTuymVmtIILa90eOmgRpK4Ijn0H3ySEugy144L5t7iOHE0RZIb1VPvLVyP_Mr0R2hMd8PX8_GaEOr-Fcxu1zPDBq_XdSFp619EAyPMpAvG53Ln_RBQ9wAzr1tgrs8yJEbYieOwkNMwWp0aRk3-Icco7aZacZAKOzUpPLYZWg67Pt2Sp2JPIuN9sC6WDa3coCnOKkD92wsChK3X4Tzl]--></g></svg>