<svg xmlns="http://www.w3.org/2000/svg" xmlns:xlink="http://www.w3.org/1999/xlink" contentStyleType="text/css" data-diagram-type="CLASS" hauteur="365px" preserveAspectRatio="none" style="width:614px;hauteur:365px;background:#FFFFFF;" version="1.1" viewBox="0 0 614 365" width="614px" zoomAndPan="magnify"><defs/><g><!--class Serializable--><g class="entity" data-entity="Serializable" data-source-line="2" data-uid="ent0002" id="entity_Serializable"><rect fill="#F1F1F1" hauteur="48" rx="2.5" ry="2.5" style="stroke:#181818;stroke-width:0.5;" width="103.3017" x="391.78" y="7"/><ellipse cx="406.78" cy="23" fill="#A9DCDF" rx="11" ry="11" style="stroke:#181818;stroke-width:1;"/><path d="M410.1238,28.25 L408.655,24.5 L404.2175,24.5 L402.78,28.25 L400.655,28.25 L405.6081,15.5313 L407.3581,15.5313 L412.28,28.25 L410.1238,28.25 Z M406.78,19.2969 Q406.7331,19.1406 406.6081,18.7813 Q406.4831,18.4219 406.3738,18.0469 Q406.2644,17.6563 406.4675,17.5938 Q406.6238,17.7813 406.53,18.1406 Q406.4363,18.4844 406.3425,18.7813 Q406.2488,19.0625 406.1706,19.2969 L404.9363,22.6094 L408.0144,22.6094 L406.78,19.2969 Z " fill="#000000"/><text fill="#000000" font-family="sans-serif" font-size="14" font-style="italic" lengthAdjust="spacing" textLength="71.3017" x="420.78" y="28.432">Serializable</text><line style="stroke:#181818;stroke-width:0.5;" x1="392.78" x2="494.0817" y1="39" y2="39"/><line style="stroke:#181818;stroke-width:0.5;" x1="392.78" x2="494.0817" y1="47" y2="47"/></g><!--class Joueur--><g class="entity" data-entity="Joueur" data-source-line="3" data-uid="ent0003" id="entity_Joueur"><rect fill="#F1F1F1" hauteur="48" rx="2.5" ry="2.5" style="stroke:#181818;stroke-width:0.5;" width="72.4739" x="434.2" y="115"/><ellipse cx="449.2" cy="131" fill="#A9DCDF" rx="11" ry="11" style="stroke:#181818;stroke-width:1;"/><path d="M452.5438,136.25 L451.075,132.5 L446.6375,132.5 L445.2,136.25 L443.075,136.25 L448.0281,123.5312 L449.7781,123.5312 L454.7,136.25 L452.5438,136.25 Z M449.2,127.2969 Q449.1531,127.1406 449.0281,126.7812 Q448.9031,126.4219 448.7938,126.0469 Q448.6844,125.6562 448.8875,125.5937 Q449.0438,125.7812 448.95,126.1406 Q448.8563,126.4844 448.7625,126.7812 Q448.6688,127.0625 448.5906,127.2969 L447.3563,130.6094 L450.4344,130.6094 L449.2,127.2969 Z " fill="#000000"/><text fill="#000000" font-family="sans-serif" font-size="14" font-style="italic" lengthAdjust="spacing" textLength="40.4739" x="463.2" y="136.432">Joueur</text><line style="stroke:#181818;stroke-width:0.5;" x1="435.2" x2="505.6739" y1="147" y2="147"/><line style="stroke:#181818;stroke-width:0.5;" x1="435.2" x2="505.6739" y1="155" y2="155"/></g><!--class Hexagone--><g class="entity" data-entity="Hexagone" data-source-line="4" data-uid="ent0004" id="entity_Hexagone"><rect fill="#F1F1F1" hauteur="48" rx="2.5" ry="2.5" style="stroke:#181818;stroke-width:0.5;" width="94.2998" x="258.28" y="223"/><ellipse cx="273.28" cy="239" fill="#A9DCDF" rx="11" ry="11" style="stroke:#181818;stroke-width:1;"/><path d="M276.6238,244.25 L275.155,240.5 L270.7175,240.5 L269.28,244.25 L267.155,244.25 L272.1081,231.5312 L273.8581,231.5312 L278.78,244.25 L276.6238,244.25 Z M273.28,235.2969 Q273.2331,235.1406 273.1081,234.7812 Q272.9831,234.4219 272.8738,234.0469 Q272.7644,233.6562 272.9675,233.5937 Q273.1238,233.7812 273.03,234.1406 Q272.9363,234.4844 272.8425,234.7812 Q272.7488,235.0625 272.6706,235.2969 L271.4363,238.6094 L274.5144,238.6094 L273.28,235.2969 Z " fill="#000000"/><text fill="#000000" font-family="sans-serif" font-size="14" font-style="italic" lengthAdjust="spacing" textLength="62.2998" x="287.28" y="244.432">Hexagone</text><line style="stroke:#181818;stroke-width:0.5;" x1="259.28" x2="351.5798" y1="255" y2="255"/><line style="stroke:#181818;stroke-width:0.5;" x1="259.28" x2="351.5798" y1="263" y2="263"/></g><!--class HexagoneContainer--><g class="entity" data-entity="HexagoneContainer" data-source-line="5" data-uid="ent0005" id="entity_HexagoneContainer"><rect fill="#F1F1F1" hauteur="48" rx="2.5" ry="2.5" style="stroke:#181818;stroke-width:0.5;" width="155.3815" x="243.74" y="115"/><ellipse cx="258.74" cy="131" fill="#A9DCDF" rx="11" ry="11" style="stroke:#181818;stroke-width:1;"/><path d="M262.0838,136.25 L260.615,132.5 L256.1775,132.5 L254.74,136.25 L252.615,136.25 L257.5681,123.5312 L259.3181,123.5312 L264.24,136.25 L262.0838,136.25 Z M258.74,127.2969 Q258.6931,127.1406 258.5681,126.7812 Q258.4431,126.4219 258.3338,126.0469 Q258.2244,125.6562 258.4275,125.5937 Q258.5838,125.7812 258.49,126.1406 Q258.3963,126.4844 258.3025,126.7812 Q258.2088,127.0625 258.1306,127.2969 L256.8963,130.6094 L259.9744,130.6094 L258.74,127.2969 Z " fill="#000000"/><text fill="#000000" font-family="sans-serif" font-size="14" font-style="italic" lengthAdjust="spacing" textLength="123.3815" x="272.74" y="136.432">HexagoneContainer</text><line style="stroke:#181818;stroke-width:0.5;" x1="244.74" x2="398.1215" y1="147" y2="147"/><line style="stroke:#181818;stroke-width:0.5;" x1="244.74" x2="398.1215" y1="155" y2="155"/></g><!--class Tuile--><g class="entity" data-entity="Tuile" data-source-line="6" data-uid="ent0006" id="entity_Tuile"><rect fill="#F1F1F1" hauteur="48" rx="2.5" ry="2.5" style="stroke:#181818;stroke-width:0.5;" width="63.5559" x="144.65" y="223"/><ellipse cx="159.65" cy="239" fill="#ADD1B2" rx="11" ry="11" style="stroke:#181818;stroke-width:1;"/><path d="M159.7594,234.5312 Q158.8375,234.5312 158.1031,234.8437 Q157.3844,235.1562 156.8844,235.75 Q156.3844,236.3281 156.1031,237.2031 Q155.8375,238.0781 155.8375,239.1719 Q155.8375,240.6094 156.275,241.6562 Q156.7281,242.7031 157.5719,243.25 Q158.4313,243.7969 159.7438,243.7969 Q160.525,243.7969 161.2125,243.6719 Q161.9156,243.5312 162.9156,243.2187 L162.9156,245.0937 Q162.0563,245.4219 161.2906,245.5469 Q160.5406,245.6719 159.525,245.6719 Q157.6031,245.6719 156.2906,244.875 Q154.9938,244.0625 154.3375,242.5937 Q153.6813,241.1094 153.6813,239.1406 Q153.6813,237.7187 154.0719,236.5469 Q154.4781,235.3594 155.2594,234.4844 Q156.0406,233.6094 157.1813,233.1406 Q158.3219,232.6562 159.7906,232.6562 Q160.7438,232.6562 161.6344,232.8594 Q162.5406,233.0469 163.4781,233.5156 L162.65,235.2969 Q161.8688,234.9219 161.2125,234.7344 Q160.5563,234.5312 159.7594,234.5312 Z " fill="#000000"/><text fill="#000000" font-family="sans-serif" font-size="14" lengthAdjust="spacing" textLength="31.5559" x="173.65" y="244.432">Tuile</text><line style="stroke:#181818;stroke-width:0.5;" x1="145.65" x2="207.2059" y1="255" y2="255"/><line style="stroke:#181818;stroke-width:0.5;" x1="145.65" x2="207.2059" y1="263" y2="263"/></g><!--class Plateau--><g class="entity" data-entity="Plateau" data-source-line="7" data-uid="ent0008" id="entity_Plateau"><rect fill="#F1F1F1" hauteur="48" rx="2.5" ry="2.5" style="stroke:#181818;stroke-width:0.5;" width="81.3918" x="387.74" y="223"/><ellipse cx="402.74" cy="239" fill="#ADD1B2" rx="11" ry="11" style="stroke:#181818;stroke-width:1;"/><path d="M402.8494,234.5312 Q401.9275,234.5312 401.1931,234.8437 Q400.4744,235.1562 399.9744,235.75 Q399.4744,236.3281 399.1931,237.2031 Q398.9275,238.0781 398.9275,239.1719 Q398.9275,240.6094 399.365,241.6562 Q399.8181,242.7031 400.6619,243.25 Q401.5213,243.7969 402.8338,243.7969 Q403.615,243.7969 404.3025,243.6719 Q405.0056,243.5312 406.0056,243.2187 L406.0056,245.0937 Q405.1463,245.4219 404.3806,245.5469 Q403.6306,245.6719 402.615,245.6719 Q400.6931,245.6719 399.3806,244.875 Q398.0838,244.0625 397.4275,242.5937 Q396.7713,241.1094 396.7713,239.1406 Q396.7713,237.7187 397.1619,236.5469 Q397.5681,235.3594 398.3494,234.4844 Q399.1306,233.6094 400.2713,233.1406 Q401.4119,232.6562 402.8806,232.6562 Q403.8338,232.6562 404.7244,232.8594 Q405.6306,233.0469 406.5681,233.5156 L405.74,235.2969 Q404.9588,234.9219 404.3025,234.7344 Q403.6463,234.5312 402.8494,234.5312 Z " fill="#000000"/><text fill="#000000" font-family="sans-serif" font-size="14" lengthAdjust="spacing" textLength="49.3918" x="416.74" y="244.432">Plateau</text><line style="stroke:#181818;stroke-width:0.5;" x1="388.74" x2="468.1318" y1="255" y2="255"/><line style="stroke:#181818;stroke-width:0.5;" x1="388.74" x2="468.1318" y1="263" y2="263"/></g><!--class Deck--><g class="entity" data-entity="Deck" data-source-line="8" data-uid="ent0010" id="entity_Deck"><rect fill="#F1F1F1" hauteur="48" rx="2.5" ry="2.5" style="stroke:#181818;stroke-width:0.5;" width="64.3119" x="144.28" y="115"/><ellipse cx="159.28" cy="131" fill="#ADD1B2" rx="11" ry="11" style="stroke:#181818;stroke-width:1;"/><path d="M159.3894,126.5312 Q158.4675,126.5312 157.7331,126.8437 Q157.0144,127.1562 156.5144,127.75 Q156.0144,128.3281 155.7331,129.2031 Q155.4675,130.0781 155.4675,131.1719 Q155.4675,132.6094 155.905,133.6562 Q156.3581,134.7031 157.2019,135.25 Q158.0613,135.7969 159.3738,135.7969 Q160.155,135.7969 160.8425,135.6719 Q161.5456,135.5312 162.5456,135.2187 L162.5456,137.0937 Q161.6863,137.4219 160.9206,137.5469 Q160.1706,137.6719 159.155,137.6719 Q157.2331,137.6719 155.9206,136.875 Q154.6238,136.0625 153.9675,134.5937 Q153.3113,133.1094 153.3113,131.1406 Q153.3113,129.7187 153.7019,128.5469 Q154.1081,127.3594 154.8894,126.4844 Q155.6706,125.6094 156.8113,125.1406 Q157.9519,124.6562 159.4206,124.6562 Q160.3738,124.6562 161.2644,124.8594 Q162.1706,125.0469 163.1081,125.5156 L162.28,127.2969 Q161.4988,126.9219 160.8425,126.7344 Q160.1863,126.5312 159.3894,126.5312 Z " fill="#000000"/><text fill="#000000" font-family="sans-serif" font-size="14" lengthAdjust="spacing" textLength="32.3119" x="173.28" y="136.432">Deck</text><line style="stroke:#181818;stroke-width:0.5;" x1="145.28" x2="207.5919" y1="147" y2="147"/><line style="stroke:#181818;stroke-width:0.5;" x1="145.28" x2="207.5919" y1="155" y2="155"/></g><!--class Chantier--><g class="entity" data-entity="Chantier" data-source-line="9" data-uid="ent0011" id="entity_Chantier"><rect fill="#F1F1F1" hauteur="48" rx="2.5" ry="2.5" style="stroke:#181818;stroke-width:0.5;" width="88.3498" x="21.26" y="115"/><ellipse cx="36.26" cy="131" fill="#ADD1B2" rx="11" ry="11" style="stroke:#181818;stroke-width:1;"/><path d="M36.3694,126.5312 Q35.4475,126.5312 34.7131,126.8437 Q33.9944,127.1562 33.4944,127.75 Q32.9944,128.3281 32.7131,129.2031 Q32.4475,130.0781 32.4475,131.1719 Q32.4475,132.6094 32.885,133.6562 Q33.3381,134.7031 34.1819,135.25 Q35.0413,135.7969 36.3538,135.7969 Q37.135,135.7969 37.8225,135.6719 Q38.5256,135.5312 39.5256,135.2187 L39.5256,137.0937 Q38.6663,137.4219 37.9006,137.5469 Q37.1506,137.6719 36.135,137.6719 Q34.2131,137.6719 32.9006,136.875 Q31.6037,136.0625 30.9475,134.5937 Q30.2912,133.1094 30.2912,131.1406 Q30.2912,129.7187 30.6819,128.5469 Q31.0881,127.3594 31.8694,126.4844 Q32.6506,125.6094 33.7913,125.1406 Q34.9319,124.6562 36.4006,124.6562 Q37.3538,124.6562 38.2444,124.8594 Q39.1506,125.0469 40.0881,125.5156 L39.26,127.2969 Q38.4788,126.9219 37.8225,126.7344 Q37.1663,126.5312 36.3694,126.5312 Z " fill="#000000"/><text fill="#000000" font-family="sans-serif" font-size="14" lengthAdjust="spacing" textLength="56.3498" x="50.26" y="136.432">Chantier</text><line style="stroke:#181818;stroke-width:0.5;" x1="22.26" x2="108.6098" y1="147" y2="147"/><line style="stroke:#181818;stroke-width:0.5;" x1="22.26" x2="108.6098" y1="155" y2="155"/></g><!--class Jeu--><g class="entity" data-entity="Jeu" data-source-line="10" data-uid="ent0012" id="entity_Jeu"><rect fill="#F1F1F1" hauteur="48" rx="2.5" ry="2.5" style="stroke:#181818;stroke-width:0.5;" width="52.3699" x="160.25" y="7"/><ellipse cx="175.25" cy="23" fill="#ADD1B2" rx="11" ry="11" style="stroke:#181818;stroke-width:1;"/><path d="M175.3594,18.5313 Q174.4375,18.5313 173.7031,18.8438 Q172.9844,19.1563 172.4844,19.75 Q171.9844,20.3281 171.7031,21.2031 Q171.4375,22.0781 171.4375,23.1719 Q171.4375,24.6094 171.875,25.6563 Q172.3281,26.7031 173.1719,27.25 Q174.0313,27.7969 175.3438,27.7969 Q176.125,27.7969 176.8125,27.6719 Q177.5156,27.5313 178.5156,27.2188 L178.5156,29.0938 Q177.6563,29.4219 176.8906,29.5469 Q176.1406,29.6719 175.125,29.6719 Q173.2031,29.6719 171.8906,28.875 Q170.5938,28.0625 169.9375,26.5938 Q169.2813,25.1094 169.2813,23.1406 Q169.2813,21.7188 169.6719,20.5469 Q170.0781,19.3594 170.8594,18.4844 Q171.6406,17.6094 172.7813,17.1406 Q173.9219,16.6563 175.3906,16.6563 Q176.3438,16.6563 177.2344,16.8594 Q178.1406,17.0469 179.0781,17.5156 L178.25,19.2969 Q177.4688,18.9219 176.8125,18.7344 Q176.1563,18.5313 175.3594,18.5313 Z " fill="#000000"/><text fill="#000000" font-family="sans-serif" font-size="14" lengthAdjust="spacing" textLength="20.3699" x="189.25" y="28.432">Jeu</text><line style="stroke:#181818;stroke-width:0.5;" x1="161.25" x2="211.6199" y1="39" y2="39"/><line style="stroke:#181818;stroke-width:0.5;" x1="161.25" x2="211.6199" y1="47" y2="47"/></g><g class="entity" data-entity="GMN13" data-source-line="11" data-uid="ent0014" id="entity_GMN13"><path d="M6,17.15 L6,44.856 A0,0 0 0 0 6,44.856 L124.8641,44.856 A0,0 0 0 0 124.8641,44.856 L124.8641,35.15 L160.03,31 L124.8641,27.15 L124.8641,27.15 L114.8641,17.15 L6,17.15 A0,0 0 0 0 6,17.15" fill="#FEFFDD" style="stroke:#181818;stroke-width:0.5;"/><path d="M114.8641,17.15 L114.8641,27.15 L124.8641,27.15 L114.8641,17.15" fill="#FEFFDD" style="stroke:#181818;stroke-width:0.5;"/><text fill="#000000" font-family="sans-serif" font-size="13" lengthAdjust="spacing" textLength="97.8641" x="12" y="36.047">Est un singleton</text></g><!--class Score--><g class="entity" data-entity="Score" data-source-line="12" data-uid="ent0016" id="entity_Score"><rect fill="#F1F1F1" hauteur="48" rx="2.5" ry="2.5" style="stroke:#181818;stroke-width:0.5;" width="68.5539" x="504.16" y="223"/><ellipse cx="519.16" cy="239" fill="#ADD1B2" rx="11" ry="11" style="stroke:#181818;stroke-width:1;"/><path d="M519.2694,234.5312 Q518.3475,234.5312 517.6131,234.8437 Q516.8944,235.1562 516.3944,235.75 Q515.8944,236.3281 515.6131,237.2031 Q515.3475,238.0781 515.3475,239.1719 Q515.3475,240.6094 515.785,241.6562 Q516.2381,242.7031 517.0819,243.25 Q517.9413,243.7969 519.2538,243.7969 Q520.035,243.7969 520.7225,243.6719 Q521.4256,243.5312 522.4256,243.2187 L522.4256,245.0937 Q521.5663,245.4219 520.8006,245.5469 Q520.0506,245.6719 519.035,245.6719 Q517.1131,245.6719 515.8006,244.875 Q514.5038,244.0625 513.8475,242.5937 Q513.1913,241.1094 513.1913,239.1406 Q513.1913,237.7187 513.5819,236.5469 Q513.9881,235.3594 514.7694,234.4844 Q515.5506,233.6094 516.6913,233.1406 Q517.8319,232.6562 519.3006,232.6562 Q520.2538,232.6562 521.1444,232.8594 Q522.0506,233.0469 522.9881,233.5156 L522.16,235.2969 Q521.3788,234.9219 520.7225,234.7344 Q520.0663,234.5312 519.2694,234.5312 Z " fill="#000000"/><text fill="#000000" font-family="sans-serif" font-size="14" lengthAdjust="spacing" textLength="36.5539" x="533.16" y="244.432">Score</text><line style="stroke:#181818;stroke-width:0.5;" x1="505.16" x2="571.7139" y1="255" y2="255"/><line style="stroke:#181818;stroke-width:0.5;" x1="505.16" x2="571.7139" y1="263" y2="263"/></g><g class="entity" data-entity="GMN17" data-source-line="13" data-uid="ent0018" id="entity_GMN17"><path d="M473.68,331 L473.68,358.706 A0,0 0 0 0 473.68,358.706 L603.1781,358.706 A0,0 0 0 0 603.1781,358.706 L603.1781,341 L593.1781,331 L542.43,331 L538.43,271.21 L534.43,331 L473.68,331 A0,0 0 0 0 473.68,331" fill="#FEFFDD" style="stroke:#181818;stroke-width:0.5;"/><path d="M593.1781,331 L593.1781,341 L603.1781,341 L593.1781,331" fill="#FEFFDD" style="stroke:#181818;stroke-width:0.5;"/><text fill="#000000" font-family="sans-serif" font-size="13" lengthAdjust="spacing" textLength="108.4981" x="479.68" y="349.897">Est un d&#233;corateur</text></g><!--class Affichage--><g class="entity" data-entity="Affichage" data-source-line="14" data-uid="ent0020" id="entity_Affichage"><rect fill="#F1F1F1" hauteur="48" rx="2.5" ry="2.5" style="stroke:#181818;stroke-width:0.5;" width="89.8758" x="266.49" y="7"/><ellipse cx="281.49" cy="23" fill="#A9DCDF" rx="11" ry="11" style="stroke:#181818;stroke-width:1;"/><path d="M284.8338,28.25 L283.365,24.5 L278.9275,24.5 L277.49,28.25 L275.365,28.25 L280.3181,15.5313 L282.0681,15.5313 L286.99,28.25 L284.8338,28.25 Z M281.49,19.2969 Q281.4431,19.1406 281.3181,18.7813 Q281.1931,18.4219 281.0838,18.0469 Q280.9744,17.6563 281.1775,17.5938 Q281.3338,17.7813 281.24,18.1406 Q281.1463,18.4844 281.0525,18.7813 Q280.9588,19.0625 280.8806,19.2969 L279.6463,22.6094 L282.7244,22.6094 L281.49,19.2969 Z " fill="#000000"/><text fill="#000000" font-family="sans-serif" font-size="14" font-style="italic" lengthAdjust="spacing" textLength="57.8758" x="295.49" y="28.432">Affichage</text><line style="stroke:#181818;stroke-width:0.5;" x1="267.49" x2="355.3658" y1="39" y2="39"/><line style="stroke:#181818;stroke-width:0.5;" x1="267.49" x2="355.3658" y1="47" y2="47"/></g><!--reverse link HexagoneContainer to Tuile--><g class="link" data-entity-1="HexagoneContainer" data-entity-2="Tuile" data-source-line="6" data-uid="lnk7" id="link_HexagoneContainer_Tuile"><path d="M275.0791,173.8932 C250.9091,191.5632 232.34,205.14 208.18,222.8" fill="none" id="HexagoneContainer-backto-Tuile" style="stroke:#181818;stroke-width:1;"/><polygon fill="none" points="289.61,163.27,271.538,169.0495,278.6201,178.7368,289.61,163.27" style="stroke:#181818;stroke-width:1;"/></g><!--reverse link HexagoneContainer to Plateau--><g class="link" data-entity-1="HexagoneContainer" data-entity-2="Plateau" data-source-line="7" data-uid="lnk9" id="link_HexagoneContainer_Plateau"><path d="M357.6987,175.9368 C375.5387,193.6068 387.18,205.14 405.01,222.8" fill="none" id="HexagoneContainer-backto-Plateau" style="stroke:#181818;stroke-width:1;"/><polygon fill="none" points="344.91,163.27,353.4764,180.1997,361.921,171.6739,344.91,163.27" style="stroke:#181818;stroke-width:1;"/></g><!--reverse link Jeu to Joueur--><g class="link" data-entity-1="Jeu" data-entity-2="Joueur" data-source-line="16" data-uid="lnk21" id="link_Jeu_Joueur"><path codeLine="16" d="M224.3611,45.8887 C235.5811,49.9887 237.5,50.68 249.43,55 C323.59,81.86 343.01,86.21 416.43,115 C422.12,117.24 428.11,119.69 433.95,122.13" fill="none" id="Jeu-backto-Joueur" style="stroke:#181818;stroke-width:1;"/><polygon fill="#181818" points="213.09,41.77,217.3526,47.5863,224.3611,45.8887,220.0984,40.0723,213.09,41.77" style="stroke:#181818;stroke-width:1;"/><text fill="#000000" font-family="sans-serif" font-size="13" lengthAdjust="spacing" textLength="7.163" x="419.0936" y="114.1018">*</text></g><!--reverse link Jeu to Chantier--><g class="link" data-entity-1="Jeu" data-entity-2="Chantier" data-source-line="17" data-uid="lnk22" id="link_Jeu_Chantier"><path codeLine="17" d="M150.8519,63.1752 C130.6719,80.8452 112.08,97.14 91.92,114.8" fill="none" id="Jeu-backto-Chantier" style="stroke:#181818;stroke-width:1;"/><polygon fill="#181818" points="159.88,55.27,152.7309,56.2132,150.8519,63.1752,158.001,62.232,159.88,55.27" style="stroke:#181818;stroke-width:1;"/><text fill="#000000" font-family="sans-serif" font-size="13" lengthAdjust="spacing" textLength="7.436" x="91.1558" y="103.0038">1</text></g><!--reverse link Jeu to Deck--><g class="link" data-entity-1="Jeu" data-entity-2="Deck" data-source-line="18" data-uid="lnk23" id="link_Jeu_Deck"><path codeLine="18" d="M183.1109,67.2168 C181.4409,84.8868 180.29,97.14 178.62,114.8" fill="none" id="Jeu-backto-Deck" style="stroke:#181818;stroke-width:1;"/><polygon fill="#181818" points="184.24,55.27,179.6932,60.867,183.1109,67.2168,187.6577,61.6197,184.24,55.27" style="stroke:#181818;stroke-width:1;"/><text fill="#000000" font-family="sans-serif" font-size="13" lengthAdjust="spacing" textLength="7.436" x="171.3249" y="103.0038">1</text></g><!--reverse link Jeu to Affichage--><g class="link" data-entity-1="Jeu" data-entity-2="Affichage" data-source-line="19" data-uid="lnk24" id="link_Jeu_Affichage"><path codeLine="19" d="M224.8,31 C242.65,31 248.5,31 266.35,31" fill="none" id="Jeu-backto-Affichage" style="stroke:#181818;stroke-width:1;"/><polygon fill="#181818" points="212.8,31,218.8,35,224.8,31,218.8,27,212.8,31" style="stroke:#181818;stroke-width:1;"/><text fill="#000000" font-family="sans-serif" font-size="13" lengthAdjust="spacing" textLength="7.436" x="251.0381" y="26.4967">1</text></g><!--reverse link Joueur to Plateau--><g class="link" data-entity-1="Joueur" data-entity-2="Plateau" data-source-line="20" data-uid="lnk25" id="link_Joueur_Plateau"><path codeLine="20" d="M456.7903,174.4265 C449.7903,192.0965 444.63,205.14 437.63,222.8" fill="none" id="Joueur-backto-Plateau" style="stroke:#181818;stroke-width:1;"/><polygon fill="#181818" points="461.21,163.27,455.2814,167.375,456.7903,174.4265,462.719,170.3214,461.21,163.27" style="stroke:#181818;stroke-width:1;"/><text fill="#000000" font-family="sans-serif" font-size="13" lengthAdjust="spacing" textLength="7.436" x="432.2189" y="211.0038">1</text></g><!--reverse link HexagoneContainer to Hexagone--><g class="link" data-entity-1="HexagoneContainer" data-entity-2="Hexagone" data-source-line="21" data-uid="lnk26" id="link_HexagoneContainer_Hexagone"><path codeLine="21" d="M316.1271,175.1353 C313.4571,192.8053 311.6,205.14 308.94,222.8" fill="none" id="HexagoneContainer-backto-Hexagone" style="stroke:#181818;stroke-width:1;"/><polygon fill="#181818" points="317.92,163.27,313.0685,168.605,316.1271,175.1353,320.9787,169.8003,317.92,163.27" style="stroke:#181818;stroke-width:1;"/><text fill="#000000" font-family="sans-serif" font-size="13" lengthAdjust="spacing" textLength="21.567" x="286.1377" y="211.0038">1..*</text></g><!--reverse link Chantier to Tuile--><g class="link" data-entity-1="Chantier" data-entity-2="Tuile" data-source-line="22" data-uid="lnk27" id="link_Chantier_Tuile"><path codeLine="22" d="M98.4699,171.556 C116.9799,189.226 133.64,205.14 152.13,222.8" fill="none" id="Chantier-backto-Tuile" style="stroke:#181818;stroke-width:1;"/><polygon fill="none" points="89.79,163.27,91.368,170.3063,98.4699,171.556,96.892,164.5197,89.79,163.27" style="stroke:#181818;stroke-width:1;"/><text fill="#000000" font-family="sans-serif" font-size="13" lengthAdjust="spacing" textLength="21.84" x="121.8909" y="211.0038">1..5</text></g><!--reverse link Deck to Tuile--><g class="link" data-entity-1="Deck" data-entity-2="Tuile" data-source-line="23" data-uid="lnk28" id="link_Deck_Tuile"><path codeLine="23" d="M176.43,175.27 C176.43,192.94 176.43,205.14 176.43,222.8" fill="none" id="Deck-backto-Tuile" style="stroke:#181818;stroke-width:1;"/><polygon fill="#181818" points="176.43,163.27,172.43,169.27,176.43,175.27,180.43,169.27,176.43,163.27" style="stroke:#181818;stroke-width:1;"/><text fill="#000000" font-family="sans-serif" font-size="13" lengthAdjust="spacing" textLength="7.163" x="168.5118" y="211.0038">*</text></g><!--reverse link Affichage to HexagoneContainer--><g class="link" data-entity-1="Affichage" data-entity-2="HexagoneContainer" data-source-line="24" data-uid="lnk29" id="link_Affichage_HexagoneContainer"><path codeLine="24" d="M314.7524,67.2174 C316.4124,84.8874 317.58,97.14 319.24,114.8" fill="none" id="Affichage-backto-HexagoneContainer" style="stroke:#181818;stroke-width:1;"/><polygon fill="none" points="313.63,55.27,310.2087,61.6178,314.7524,67.2174,318.1737,60.8696,313.63,55.27" style="stroke:#181818;stroke-width:1;"/></g><!--reverse link Score to Score--><g class="link" data-entity-1="Score" data-entity-2="Score" data-source-line="25" data-uid="lnk30" id="link_Score_Score"><path codeLine="25" d="M584.8645,227.4971 C603.0645,224.6371 607.71,232.38 607.71,247 C607.71,261.62 591.21,267.51 573.01,264.65" fill="none" id="Score-backto-Score" style="stroke:#181818;stroke-width:1;"/><polygon fill="#181818" points="573.01,229.36,579.5582,232.3801,584.8645,227.4971,578.3163,224.4771,573.01,229.36" style="stroke:#181818;stroke-width:1;"/></g><!--reverse link Joueur to Score--><g class="link" data-entity-1="Joueur" data-entity-2="Score" data-source-line="26" data-uid="lnk31" id="link_Joueur_Score"><path codeLine="26" d="M491.8313,173.3692 C503.1713,191.0392 512.21,205.14 523.54,222.8" fill="none" id="Joueur-backto-Score" style="stroke:#181818;stroke-width:1;"/><polygon fill="#181818" points="485.35,163.27,485.2243,170.48,491.8313,173.3692,491.957,166.1591,485.35,163.27" style="stroke:#181818;stroke-width:1;"/></g><!--SRC=[ZL7BQWCn3BpxAuIFWGHwwAMtaXPAJe7q1xIETcFgsc3B41BwGVsE_bZzokwsAQ4tIpFIZCRO1VQe69J14617NgFH9-mCmVb3u4zuuo95_mVmGaSSdAKRqDfPHcsfZ5VeDUeaGqSckxz9t1famlWVwXEfjwbQ7z2odkCRYhcmZWaCzGmFy1mOeeMWxM28dMtCdN8-7mILt3bczpxHzr-VYP1yHV_xvCU-r-g0Gub3PCN5SWbo8Lk0hGNoJeuEvxrymxmUzuds0MLT0bekuZgFobYjakO556COhe7tidw1AA5TFDRMT4DcNmc8cawUAQ-vizeGtm00]--></g></svg>